<svg xmlns="http://www.w3.org/2000/svg" width="315" height="322" fill="none" xmlns:v="https://vecta.io/nano"><ellipse opacity=".9" cx="157.5" cy="161" rx="157.5" ry="161" fill="url(#A)"/><path d="M192.373 92.395c-3.029 1.078-5.568 2.696-7.662 4.999-2.138 2.401-4.588 7.498-4.588 9.606v1.372h-3.563c-3.786 0-5.345.539-6.904 2.451-.847 1.029-.891 1.96-1.114 21.27l-.223 20.143-2.762.147-2.806.147v-14.36c0-12.89-.089-14.556-.846-16.32-3.475-8.381-14.299-5.636-14.299 3.626 0 1.471-.222 2.5-.534 2.647l-10.379 4.803-9.8 4.607-7.795.245c-7.394.245-7.929.294-10.334 1.617-3.653 1.961-6.771 5.881-7.929 9.998-1.113 4.019-1.113 6.077 0 10.096 1.47 5.195 5.746 9.704 10.602 11.125l1.87.539v7.058c0 7.743.268 9.017 2.361 11.419 2.673 3.039 7.083 3.235 9.978.441 2.45-2.352 2.806-3.823 2.806-11.321v-6.567l6.37 2.94 9.577 4.411 3.207 1.47v2.451c0 6.028 5.212 10.243 10.023 8.037 2.316-1.078 3.296-2.107 4.276-4.46.757-1.764.846-3.43.846-16.32v-14.36l2.806.148 2.762.147.223 20.142c.223 19.31.267 20.241 1.114 21.271 1.559 1.911 3.118 2.45 6.815 2.45h3.519l.311 2.009c1.07 7.401 8.018 13.968 15.413 14.556 13.14 1.029 22.183-14.016 16.303-27.102-6.103-13.527-23.208-13.919-30.067-.637-.758 1.421-1.47 3.529-1.649 4.656l-.267 2.107h-3.43c-2.093 0-3.652-.245-3.964-.588-.401-.441-.535-5.538-.535-19.849v-19.31l3.831.148 3.876.147.579 2.597c1.247 5.293 4.721 9.851 9.443 12.252 2.227 1.177 3.073 1.324 7.216 1.324 4.365 0 4.855-.098 7.35-1.569 3.296-1.862 6.592-5.636 8.151-9.36 1.025-2.402 1.203-3.431 1.203-7.45s-.178-5.048-1.203-7.449c-1.559-3.725-4.855-7.499-8.151-9.361-2.495-1.47-2.985-1.568-7.35-1.568-4.143 0-4.989.147-7.216 1.323-4.722 2.401-8.196 6.959-9.443 12.252l-.579 2.598-3.876.147-3.831.147v-19.31c0-14.311.134-19.408.535-19.849.312-.343 1.871-.588 3.964-.588h3.386l.267 1.813c.401 2.696 2.316 6.666 4.321 8.871 5.078 5.832 12.917 7.45 19.376 4.068 3.965-2.059 6.192-4.46 8.063-8.626 3.786-8.38 1.692-18.035-5.078-23.524-3.92-3.186-10.245-4.509-14.566-2.99zm10.245 4.95c2.272 1.225 5.123 4.362 6.236 6.861 1.292 2.99 1.47 8.822.312 11.714-1.158 2.793-3.118 5.685-3.92 5.685-.312 0-.802-.441-1.069-.98s-1.425-1.569-2.584-2.304c-1.692-1.078-2.628-1.372-4.766-1.372-3.029.049-4.677.833-6.859 3.283l-1.47 1.618-1.693-2.108c-2.316-2.842-3.296-6.175-3.029-10.341.356-5.342 2.806-9.409 7.171-11.811 2.539-1.421 3.074-1.519 6.326-1.372 2.361.098 4.187.49 5.345 1.127zm-44.989 24.995l1.113 1.176v30.925 30.925l-1.113 1.176c-1.827 2.059-4.677 1.52-5.925-1.078-.757-1.519-.757-60.527 0-62.046 1.248-2.597 4.098-3.137 5.925-1.078zm-10.023 32.101c0 16.908-.133 21.564-.534 21.564-.312 0-4.588-1.862-9.488-4.117l-8.909-4.116v-13.331-13.33l8.909-4.117c4.9-2.255 9.176-4.117 9.488-4.117.401 0 .534 4.656.534 21.564zm54.611-13.281c2.628 1.274 4.722 3.43 6.325 6.42 1.069 1.96 1.203 2.695 1.203 6.861s-.134 4.901-1.203 6.861c-.623 1.226-1.692 2.745-2.316 3.382l-1.114 1.176-1.247-1.617c-3.474-4.558-10.646-4.509-14.165.098l-1.158 1.519-1.158-1.176c-2.049-2.107-3.697-6.665-3.697-10.243 0-10.586 9.755-17.545 18.53-13.281zm-77.774 13.33v12.792l-5.879-.196c-6.726-.245-8.464-.834-11.225-3.725-.936-.98-2.094-2.696-2.539-3.774-1.114-2.597-1.114-7.645 0-10.292.98-2.45 4.276-5.832 6.325-6.518 2.583-.882 3.162-.98 8.33-1.029l4.988-.049v12.791zm0 23.917v7.351l-1.158.98c-1.648 1.422-3.786 1.324-5.122-.245-1.025-1.176-1.069-1.617-1.203-8.331l-.134-7.058h3.787 3.83v7.303zm78.22 6.812c2.939 1.666 4.498 3.382 5.924 6.567 2.45 5.391 1.693 11.714-1.96 16.468l-1.203 1.617-2.093-2.157c-3.92-4.018-8.731-4.116-12.74-.245-1.113 1.079-2.272 1.863-2.583 1.716-.802-.343-2.985-3.921-3.698-6.077-.89-2.745-.757-7.058.268-10.096 1.158-3.333 4.276-6.862 7.305-8.185 2.984-1.323 8.107-1.127 10.78.392zm-8.776-84.051c-2.717 2.009-3.43 5.538-1.737 8.576 1.915 3.431 6.058 3.823 8.775.834 1.247-1.373 1.47-1.961 1.47-4.068 0-5.146-4.722-8.136-8.508-5.342zm.001 43.814c-1.693 1.127-2.628 3.137-2.628 5.538 0 1.765.267 2.353 1.737 3.97 1.425 1.617 2.004 1.911 3.563 1.911 3.564 0 5.836-2.401 5.836-6.126 0-3.675-2.272-6.126-5.657-6.126-.936 0-2.228.392-2.851.833zm.624 43.521c-2.94 1.372-4.099 5.783-2.361 8.919 2.984 5.391 10.245 3.088 10.245-3.283 0-2.745-1.158-4.656-3.386-5.685-1.826-.834-2.672-.834-4.498.049z" fill="#f2f5fe"/><defs><linearGradient id="A" x1="157" y1="72" x2="81" y2="292" gradientUnits="userSpaceOnUse"><stop stop-color="#50c4e8"/><stop offset="1" stop-color="#50d3e8" stop-opacity="0"/></linearGradient></defs></svg>