<svg width="315" height="322" viewBox="0 0 315 322" fill="none" xmlns="http://www.w3.org/2000/svg">
<ellipse cx="157.5" cy="161" rx="157.5" ry="161" fill="#FFFFFE"/>
<path d="M181.373 97.395C178.344 98.4732 175.805 100.091 173.711 102.394C171.573 104.795 169.123 109.892 169.123 112V113.372H165.56C161.774 113.372 160.215 113.911 158.655 115.823C157.809 116.852 157.765 117.783 157.542 137.093L157.319 157.236L154.557 157.383L151.751 157.53V143.17C151.751 130.28 151.662 128.614 150.905 126.85C147.43 118.469 136.606 121.214 136.606 130.476C136.606 131.947 136.384 132.976 136.072 133.123C135.76 133.27 131.083 135.426 125.693 137.926L115.893 142.533L108.098 142.778C100.704 143.023 100.169 143.072 97.764 144.395C94.1114 146.355 90.9933 150.276 89.8352 154.393C88.7216 158.412 88.7216 160.47 89.8352 164.489C91.3051 169.684 95.5814 174.193 100.437 175.614L102.307 176.153V183.211C102.307 190.954 102.575 192.228 104.668 194.63C107.341 197.668 111.751 197.865 114.646 195.071C117.096 192.719 117.452 191.248 117.452 183.75V177.182L123.822 180.123C127.297 181.74 131.617 183.701 133.399 184.534L136.606 186.004V188.455C136.606 194.483 141.818 198.698 146.629 196.492C148.945 195.414 149.925 194.385 150.905 192.032C151.662 190.268 151.751 188.602 151.751 175.712V161.352L154.557 161.499L157.319 161.646L157.542 181.789C157.765 201.099 157.809 202.03 158.655 203.06C160.215 204.971 161.774 205.51 165.471 205.51H168.99L169.301 207.519C170.371 214.92 177.319 221.487 184.714 222.075C197.854 223.104 206.897 208.058 201.017 194.973C194.914 181.446 177.809 181.054 170.95 194.336C170.192 195.757 169.48 197.865 169.301 198.992L169.034 201.099H165.604C163.511 201.099 161.952 200.854 161.64 200.511C161.239 200.07 161.105 194.973 161.105 180.662V161.352L164.936 161.499L168.812 161.646L169.391 164.244C170.638 169.537 174.112 174.095 178.834 176.496C181.061 177.673 181.907 177.82 186.05 177.82C190.415 177.82 190.905 177.722 193.4 176.251C196.696 174.389 199.992 170.615 201.551 166.89C202.576 164.489 202.754 163.46 202.754 159.441C202.754 155.422 202.576 154.393 201.551 151.992C199.992 148.267 196.696 144.493 193.4 142.631C190.905 141.16 190.415 141.062 186.05 141.062C181.907 141.062 181.061 141.209 178.834 142.386C174.112 144.787 170.638 149.345 169.391 154.638L168.812 157.236L164.936 157.383L161.105 157.53V138.22C161.105 123.909 161.239 118.812 161.64 118.371C161.952 118.028 163.511 117.783 165.604 117.783H168.99L169.257 119.596C169.658 122.292 171.573 126.262 173.578 128.467C178.656 134.299 186.495 135.916 192.954 132.535C196.919 130.476 199.146 128.075 201.017 123.909C204.803 115.529 202.709 105.874 195.939 100.385C192.019 97.1989 185.694 95.8757 181.373 97.395ZM191.618 102.345C193.89 103.57 196.741 106.707 197.854 109.206C199.146 112.196 199.324 118.028 198.166 120.92C197.008 123.713 195.048 126.605 194.246 126.605C193.934 126.605 193.444 126.164 193.177 125.624C192.91 125.085 191.752 124.056 190.593 123.321C188.901 122.243 187.965 121.949 185.827 121.949C182.798 121.998 181.15 122.782 178.968 125.232L177.498 126.85L175.805 124.742C173.489 121.9 172.509 118.567 172.776 114.401C173.132 109.059 175.582 104.991 179.947 102.59C182.486 101.169 183.021 101.071 186.273 101.218C188.634 101.316 190.46 101.708 191.618 102.345ZM146.629 127.34L147.742 128.516V159.441V190.366L146.629 191.542C144.802 193.601 141.952 193.062 140.704 190.464C139.947 188.945 139.947 129.937 140.704 128.418C141.952 125.821 144.802 125.281 146.629 127.34ZM136.606 159.441C136.606 176.349 136.473 181.005 136.072 181.005C135.76 181.005 131.484 179.143 126.584 176.888L117.675 172.772V159.441V146.11L126.584 141.994C131.484 139.739 135.76 137.877 136.072 137.877C136.473 137.877 136.606 142.533 136.606 159.441ZM191.217 146.159C193.845 147.434 195.939 149.59 197.542 152.58C198.611 154.54 198.745 155.275 198.745 159.441C198.745 163.607 198.611 164.342 197.542 166.302C196.919 167.528 195.85 169.047 195.226 169.684L194.112 170.86L192.865 169.243C189.391 164.685 182.219 164.734 178.7 169.341L177.542 170.86L176.384 169.684C174.335 167.577 172.687 163.019 172.687 159.441C172.687 148.855 182.442 141.896 191.217 146.159ZM113.443 159.49V172.282L107.564 172.085C100.838 171.84 99.1003 171.252 96.3386 168.361C95.4032 167.381 94.245 165.665 93.7996 164.587C92.686 161.99 92.686 156.942 93.7996 154.295C94.7796 151.845 98.0758 148.463 100.125 147.777C102.708 146.895 103.287 146.797 108.455 146.748L113.443 146.699V159.49ZM113.443 183.407V190.758L112.285 191.738C110.637 193.16 108.499 193.062 107.163 191.493C106.138 190.317 106.094 189.876 105.96 183.162L105.826 176.104H109.613H113.443V183.407ZM191.663 190.219C194.602 191.885 196.161 193.601 197.587 196.786C200.037 202.177 199.28 208.5 195.627 213.254L194.424 214.871L192.331 212.714C188.411 208.696 183.6 208.598 179.591 212.469C178.478 213.548 177.319 214.332 177.008 214.185C176.206 213.842 174.023 210.264 173.31 208.108C172.42 205.363 172.553 201.05 173.578 198.012C174.736 194.679 177.854 191.15 180.883 189.827C183.867 188.504 188.99 188.7 191.663 190.219Z" fill="#047385"/>
<path d="M182.887 106.168C180.17 108.177 179.457 111.706 181.15 114.744C183.066 118.175 187.208 118.567 189.925 115.577C191.173 114.205 191.395 113.617 191.395 111.51C191.395 106.364 186.674 103.374 182.887 106.168Z" fill="#047385"/>
<path d="M182.887 149.982C181.195 151.109 180.259 153.119 180.259 155.52C180.259 157.285 180.527 157.873 181.996 159.49C183.422 161.107 184.001 161.401 185.56 161.401C189.124 161.401 191.395 159 191.395 155.275C191.395 151.599 189.124 149.149 185.738 149.149C184.803 149.149 183.511 149.541 182.887 149.982Z" fill="#047385"/>
<path d="M183.511 193.503C180.571 194.875 179.413 199.286 181.15 202.422C184.135 207.814 191.395 205.51 191.395 199.139C191.395 196.394 190.237 194.483 188.01 193.454C186.184 192.621 185.337 192.621 183.511 193.503Z" fill="#047385"/>
</svg>
