<svg width="70" height="70" viewBox="0 0 70 70" fill="none" xmlns="http://www.w3.org/2000/svg">
<path d="M57.6341 49.5677L35.2242 55.6795C35.0689 55.4422 34.8884 55.2158 34.6795 55.0069L27.0233 47.3506C26.8188 47.1461 26.5398 47.0312 26.25 47.0312H14.2188V45.9375C14.2188 45.3327 13.7287 44.8438 13.125 44.8438H6.5625C5.95875 44.8438 5.46875 45.3327 5.46875 45.9375V67.8125C5.46875 68.4173 5.95875 68.9062 6.5625 68.9062H13.125C13.7287 68.9062 14.2188 68.4173 14.2188 67.8125V66.7188H21.6978L28.0919 68.8494C28.2045 68.8866 28.3205 68.9062 28.4375 68.9062C28.5578 68.9062 28.6781 68.8855 28.793 68.8461L63.793 56.8148C64.2348 56.6639 64.5312 56.2483 64.5312 55.7812V54.6875C64.5312 53.6462 64.237 52.6323 63.6792 51.7541C62.4553 49.8313 59.9692 48.9311 57.6341 49.5677V49.5677ZM12.0312 66.7188H7.65625V47.0312H12.0312V66.7188ZM62.3438 55.0003L28.432 66.6575L22.2206 64.587C22.1091 64.5509 21.992 64.5312 21.875 64.5312H14.2188V49.2188H25.7972L33.133 56.5545C33.9128 57.3344 33.9128 58.6031 33.133 59.383C32.3531 60.1628 31.0844 60.1628 30.3045 59.383L24.8358 53.9142L23.2892 55.4608L28.758 60.9295C29.5739 61.7455 30.6469 62.1534 31.7188 62.1534C32.7906 62.1534 33.8636 61.7455 34.6795 60.9295C35.5469 60.0622 35.9395 58.9061 35.8848 57.7675L58.2094 51.6786C59.6269 51.2892 61.1198 51.8044 61.833 52.9287C62.1677 53.4537 62.3438 54.063 62.3438 54.6875V55.0003Z" fill="#363739"/>
<path d="M20.7812 41.5625V28.4375H20.7714C20.7714 28.1531 20.6708 27.8731 20.4608 27.6642L11.7108 18.9142C11.2831 18.4866 10.5919 18.4866 10.1642 18.9142L1.41422 27.6642C1.20531 27.8731 1.10469 28.1531 1.10359 28.4375H1.09375V41.5625C1.09375 42.1674 1.58375 42.6563 2.1875 42.6563H19.6875C20.2912 42.6563 20.7812 42.1674 20.7812 41.5625ZM10.9375 21.2341L17.0472 27.3438H4.82781L10.9375 21.2341ZM13.125 40.4688H8.75V36.0938C8.75 34.8874 9.73109 33.9063 10.9375 33.9063C12.1439 33.9063 13.125 34.8874 13.125 36.0938V40.4688ZM15.3125 40.4688V36.0938C15.3125 33.681 13.3503 31.7188 10.9375 31.7188C8.52469 31.7188 6.5625 33.681 6.5625 36.0938V40.4688H3.28125V29.5313H18.5938V40.4688H15.3125Z" fill="#363739"/>
<path d="M35 20.7812C33.7936 20.7812 32.8125 19.8002 32.8125 18.5938H30.625C30.625 20.627 32.025 22.3245 33.9062 22.8134V25.1562H36.0938V22.8134C37.975 22.3245 39.375 20.627 39.375 18.5938C39.375 16.1809 37.4128 14.2188 35 14.2188C33.7936 14.2188 32.8125 13.2377 32.8125 12.0312C32.8125 10.8248 33.7936 9.84375 35 9.84375C36.2064 9.84375 37.1875 10.8248 37.1875 12.0312H39.375C39.375 9.99797 37.975 8.30047 36.0938 7.81156V5.46875H33.9062V7.81156C32.025 8.30047 30.625 9.99797 30.625 12.0312C30.625 14.4441 32.5872 16.4062 35 16.4062C36.2064 16.4062 37.1875 17.3873 37.1875 18.5938C37.1875 19.8002 36.2064 20.7812 35 20.7812Z" fill="#363739"/>
<path d="M35 29.5312C42.84 29.5312 49.2188 23.1525 49.2188 15.3125C49.2188 7.4725 42.84 1.09375 35 1.09375C27.16 1.09375 20.7812 7.4725 20.7812 15.3125C20.7812 23.1525 27.16 29.5312 35 29.5312ZM35 3.28125C41.6336 3.28125 47.0312 8.67891 47.0312 15.3125C47.0312 21.9461 41.6336 27.3438 35 27.3438C28.3664 27.3438 22.9688 21.9461 22.9688 15.3125C22.9688 8.67891 28.3664 3.28125 35 3.28125Z" fill="#363739"/>
<path d="M40.7896 40.7892L34.2271 47.3517L35.7736 48.8983L42.0156 42.6562H68.9066V40.4688H41.5628C41.273 40.4688 40.9941 40.5836 40.7896 40.7892Z" fill="#363739"/>
<path d="M66.7188 36.0938V20.7812C66.7188 20.1764 66.2287 19.6875 65.625 19.6875H61.25C60.6463 19.6875 60.1562 20.1764 60.1562 20.7812V36.0938H57.9688V25.1562C57.9688 24.5514 57.4787 24.0625 56.875 24.0625H52.5C51.8963 24.0625 51.4062 24.5514 51.4062 25.1562V36.0938H49.2188V29.5312C49.2188 28.9264 48.7287 28.4375 48.125 28.4375H43.75C43.1463 28.4375 42.6562 28.9264 42.6562 29.5312V36.0938H40.4688V38.2812H68.9062V36.0938H66.7188ZM62.3438 21.875H64.5312V36.0938H62.3438V21.875ZM53.5938 26.25H55.7812V36.0938H53.5938V26.25ZM44.8438 30.625H47.0312V36.0938H44.8438V30.625Z" fill="#363739"/>
</svg>
