<svg id="Layer_3" enable-background="new 0 0 64 64" height="512" viewBox="0 0 64 64" width="512" xmlns="http://www.w3.org/2000/svg"><g><path d="m52.694 45.319-20.489 5.588c-.142-.217-.307-.424-.498-.615l-7-7c-.187-.187-.442-.292-.707-.292h-11v-1c0-.553-.448-1-1-1h-6c-.552 0-1 .447-1 1v20c0 .553.448 1 1 1h6c.552 0 1-.447 1-1v-1h6.838l5.846 1.948c.103.034.209.052.316.052.11 0 .22-.019.325-.055l32-11c.404-.138.675-.518.675-.945v-1c0-.952-.269-1.879-.779-2.682-1.119-1.758-3.392-2.581-5.527-1.999zm-41.694 15.681h-4v-18h4zm46-10.714-31.005 10.658-5.679-1.893c-.102-.033-.209-.051-.316-.051h-7v-14h10.586l6.707 6.707c.713.713.713 1.873 0 2.586s-1.873.713-2.586 0l-5-5-1.414 1.414 5 5c.746.746 1.727 1.119 2.707 1.119s1.961-.373 2.707-1.119c.793-.793 1.152-1.85 1.102-2.891l20.411-5.567c1.296-.356 2.661.115 3.313 1.143.306.48.467 1.037.467 1.608z"/><path d="m19 38v-12h-.009c0-.26-.092-.516-.284-.707l-8-8c-.391-.391-1.023-.391-1.414 0l-8 8c-.191.191-.283.447-.284.707h-.009v12c0 .553.448 1 1 1h16c.552 0 1-.447 1-1zm-9-18.586 5.586 5.586h-11.172zm2 17.586h-4v-4c0-1.103.897-2 2-2s2 .897 2 2zm2 0v-4c0-2.206-1.794-4-4-4s-4 1.794-4 4v4h-3v-10h14v10z"/><path d="m32 19c-1.103 0-2-.897-2-2h-2c0 1.859 1.28 3.411 3 3.858v2.142h2v-2.142c1.72-.447 3-1.999 3-3.858 0-2.206-1.794-4-4-4-1.103 0-2-.897-2-2s.897-2 2-2 2 .897 2 2h2c0-1.859-1.28-3.411-3-3.858v-2.142h-2v2.142c-1.72.447-3 1.999-3 3.858 0 2.206 1.794 4 4 4 1.103 0 2 .897 2 2s-.897 2-2 2z"/><path d="m32 27c7.168 0 13-5.832 13-13s-5.832-13-13-13-13 5.832-13 13 5.832 13 13 13zm0-24c6.065 0 11 4.935 11 11s-4.935 11-11 11-11-4.935-11-11 4.935-11 11-11z"/><path d="m37.293 37.293-6 6 1.414 1.414 5.707-5.707h24.586v-2h-25c-.265 0-.52.105-.707.293z"/><path d="m61 33v-14c0-.553-.448-1-1-1h-4c-.552 0-1 .447-1 1v14h-2v-10c0-.553-.448-1-1-1h-4c-.552 0-1 .447-1 1v10h-2v-6c0-.553-.448-1-1-1h-4c-.552 0-1 .447-1 1v6h-2v2h26v-2zm-4-13h2v13h-2zm-8 4h2v9h-2zm-8 4h2v5h-2z"/></g></svg>