<svg width="1621" height="319" viewBox="0 0 1621 319" fill="none" xmlns="http://www.w3.org/2000/svg">
<g opacity="0.2" clip-path="url(#clip0)">
<path d="M-8.46143 257.377H63.5835V332.087H-8.46143V257.377Z" fill="#F2F5FE"/>
<path d="M405.797 128.89H477.842V332.086H405.797V128.89Z" fill="#F2F5FE"/>
<path d="M1234.31 233.869H1306.36V332.086H1234.31V233.869Z" fill="#F2F5FE"/>
<path d="M74.667 239.137H146.712V332.086H74.667V239.137Z" fill="#50D3E8"/>
<path d="M488.925 175.295H560.97V332.087H488.925V175.295Z" fill="#50D3E8"/>
<path d="M903 252.122H975V332.195H903V252.122Z" fill="#50D3E8"/>
<path d="M1317.44 141.751H1389.49V332.087H1317.44V141.751Z" fill="#50D3E8"/>
<path d="M157.796 156.262H229.841V332.086H157.796V156.262Z" fill="#5333ED"/>
<path d="M572 239.137H644V332.195H572V239.137Z" fill="#5333ED"/>
<path d="M986.312 252.122H1058.36V332.086H986.312V252.122Z" fill="#5333ED"/>
<path d="M1400.57 202.346H1472.62V332.086H1400.57V202.346Z" fill="#5333ED"/>
<path d="M240.925 5.4104H312.97V332.087H240.925V5.4104Z" fill="#0B0720"/>
<path d="M655.183 90.8938H727.228V332.087H655.183V90.8938Z" fill="#0B0720"/>
<path d="M1069.44 172.685H1141.49V332.086H1069.44V172.685Z" fill="#0B0720"/>
<path d="M1483.7 255.368H1555.74V332.087H1483.7V255.368Z" fill="#0B0720"/>
</g>
<defs>
<clipPath id="clip0">
<rect width="1621" height="319" fill="white"/>
</clipPath>
</defs>
</svg>
