<svg width="1000" height="563" viewBox="0 0 1000 563" fill="none" xmlns="http://www.w3.org/2000/svg">
<g clip-path="url(#clip0)">
<rect width="1000" height="563" fill="white"/>
<rect x="115" y="292" width="711" height="30" rx="10" fill="white"/>
<rect x="116" y="206" width="768" height="70" rx="9" fill="#FFCC00" stroke="#FFE580" stroke-width="2"/>
<path d="M807.128 232.804V250H804.8V242.176H795.524V250H793.196V232.804H795.524V240.472H804.8V232.804H807.128ZM817.257 244.528C816.273 244.56 815.433 244.64 814.737 244.768C814.049 244.888 813.485 245.048 813.045 245.248C812.613 245.448 812.297 245.684 812.097 245.956C811.905 246.228 811.809 246.532 811.809 246.868C811.809 247.188 811.861 247.464 811.965 247.696C812.069 247.928 812.209 248.12 812.385 248.272C812.569 248.416 812.781 248.524 813.021 248.596C813.269 248.66 813.533 248.692 813.813 248.692C814.189 248.692 814.533 248.656 814.845 248.584C815.157 248.504 815.449 248.392 815.721 248.248C816.001 248.104 816.265 247.932 816.513 247.732C816.769 247.532 817.017 247.304 817.257 247.048V244.528ZM810.357 239.56C811.029 238.912 811.753 238.428 812.529 238.108C813.305 237.788 814.165 237.628 815.109 237.628C815.789 237.628 816.393 237.74 816.921 237.964C817.449 238.188 817.893 238.5 818.253 238.9C818.613 239.3 818.885 239.784 819.069 240.352C819.253 240.92 819.345 241.544 819.345 242.224V250H818.397C818.189 250 818.029 249.968 817.917 249.904C817.805 249.832 817.717 249.696 817.653 249.496L817.413 248.344C817.093 248.64 816.781 248.904 816.477 249.136C816.173 249.36 815.853 249.552 815.517 249.712C815.181 249.864 814.821 249.98 814.437 250.06C814.061 250.148 813.641 250.192 813.177 250.192C812.705 250.192 812.261 250.128 811.845 250C811.429 249.864 811.065 249.664 810.753 249.4C810.449 249.136 810.205 248.804 810.021 248.404C809.845 247.996 809.757 247.516 809.757 246.964C809.757 246.484 809.889 246.024 810.153 245.584C810.417 245.136 810.845 244.74 811.437 244.396C812.029 244.052 812.801 243.772 813.753 243.556C814.705 243.332 815.873 243.204 817.257 243.172V242.224C817.257 241.28 817.053 240.568 816.645 240.088C816.237 239.6 815.641 239.356 814.857 239.356C814.329 239.356 813.885 239.424 813.525 239.56C813.173 239.688 812.865 239.836 812.601 240.004C812.345 240.164 812.121 240.312 811.929 240.448C811.745 240.576 811.561 240.64 811.377 240.64C811.233 240.64 811.109 240.604 811.005 240.532C810.901 240.452 810.813 240.356 810.741 240.244L810.357 239.56ZM833.026 237.844V250H830.89V241.744C830.89 241.584 830.898 241.412 830.914 241.228C830.93 241.044 830.95 240.86 830.974 240.676C830.902 240.836 830.83 240.984 830.758 241.12C830.686 241.256 830.61 241.38 830.53 241.492L824.662 249.472C824.574 249.6 824.462 249.724 824.326 249.844C824.198 249.956 824.054 250.012 823.894 250.012H822.598V237.856H824.746V246.112C824.746 246.264 824.738 246.432 824.722 246.616C824.706 246.792 824.686 246.972 824.662 247.156C824.734 247.004 824.806 246.864 824.878 246.736C824.95 246.6 825.022 246.476 825.094 246.364L830.962 238.384C831.05 238.256 831.162 238.136 831.298 238.024C831.434 237.904 831.582 237.844 831.742 237.844H833.026ZM827.95 234.904C828.278 234.904 828.554 234.868 828.778 234.796C829.002 234.716 829.182 234.592 829.318 234.424C829.462 234.256 829.566 234.04 829.63 233.776C829.694 233.512 829.726 233.188 829.726 232.804H830.974C831.126 232.804 831.242 232.872 831.322 233.008C831.402 233.144 831.442 233.292 831.442 233.452C831.442 233.852 831.362 234.212 831.202 234.532C831.042 234.852 830.81 235.128 830.506 235.36C830.21 235.584 829.846 235.756 829.414 235.876C828.982 235.996 828.494 236.056 827.95 236.056C827.406 236.056 826.918 235.996 826.486 235.876C826.054 235.756 825.686 235.584 825.382 235.36C825.086 235.128 824.858 234.852 824.698 234.532C824.538 234.212 824.458 233.852 824.458 233.452C824.458 233.292 824.498 233.144 824.578 233.008C824.658 232.872 824.774 232.804 824.926 232.804H826.174C826.174 233.188 826.206 233.512 826.27 233.776C826.334 234.04 826.434 234.256 826.57 234.424C826.714 234.592 826.898 234.716 827.122 234.796C827.346 234.868 827.622 234.904 827.95 234.904ZM846.507 239.476H841.839V250H839.703V239.476H835.035V237.844H846.507V239.476ZM858.972 237.844V250H856.836V241.744C856.836 241.584 856.844 241.412 856.86 241.228C856.876 241.044 856.896 240.86 856.92 240.676C856.848 240.836 856.776 240.984 856.704 241.12C856.632 241.256 856.556 241.38 856.476 241.492L850.608 249.472C850.52 249.6 850.408 249.724 850.272 249.844C850.144 249.956 850 250.012 849.84 250.012H848.544V237.856H850.692V246.112C850.692 246.264 850.684 246.432 850.668 246.616C850.652 246.792 850.632 246.972 850.608 247.156C850.68 247.004 850.752 246.864 850.824 246.736C850.896 246.6 850.968 246.476 851.04 246.364L856.908 238.384C856.996 238.256 857.108 238.136 857.244 238.024C857.38 237.904 857.528 237.844 857.688 237.844H858.972Z" fill="#0B0720"/>
<rect x="121" y="212" width="648" height="58" rx="9" fill="white" stroke="#FFE580" stroke-width="2"/>
<path d="M141.196 425V406.136H146.02V413.264H147.64L152.752 406.136H158.008L151.312 415.244L158.728 425H153.22L147.568 417.512H146.02V425H141.196ZM164.535 433.136C164.031 433.136 163.515 433.076 162.987 432.956C162.483 432.836 161.895 432.656 161.223 432.416L162.159 428.6C162.879 428.912 163.515 429.068 164.067 429.068C165.339 429.068 166.251 428.192 166.803 426.44L167.379 424.892L159.747 406.136H164.751L169.827 420.068L174.291 406.136H178.899L171.195 427.7C170.571 429.428 169.659 430.76 168.459 431.696C167.283 432.656 165.975 433.136 164.535 433.136ZM181.52 425V406.136H198.44V425H193.616V410.348H186.344V425H181.52ZM202.825 425V406.172H207.649V418.556L216.109 406.136H220.501V425H215.677V412.904L207.325 425H202.825ZM229.259 425V410.348H223.283V406.136H240.095V410.348H234.083V425H229.259ZM242.798 425V406.136H247.622V412.076H251.906C254.162 412.076 255.89 412.652 257.09 413.804C258.29 414.956 258.89 416.48 258.89 418.376C258.89 420.32 258.314 421.916 257.162 423.164C256.034 424.388 254.39 425 252.23 425H242.798ZM247.622 421.328H251.474C252.458 421.328 253.178 421.052 253.634 420.5C254.09 419.924 254.318 419.228 254.318 418.412C254.318 417.62 254.102 416.96 253.67 416.432C253.238 415.88 252.494 415.604 251.438 415.604H247.622V421.328ZM279.355 425.36C277.315 425.36 275.551 424.904 274.063 423.992C272.575 423.08 271.423 421.88 270.607 420.392C269.791 418.904 269.383 417.296 269.383 415.568C269.383 413.816 269.779 412.196 270.571 410.708C271.387 409.22 272.539 408.032 274.027 407.144C275.515 406.256 277.279 405.812 279.319 405.812C281.383 405.812 283.135 406.256 284.575 407.144C286.039 408.032 287.131 409.196 287.851 410.636L283.135 412.076C282.295 410.636 281.011 409.916 279.283 409.916C278.347 409.916 277.507 410.156 276.763 410.636C276.019 411.092 275.431 411.752 274.999 412.616C274.567 413.456 274.351 414.44 274.351 415.568C274.351 416.672 274.567 417.656 274.999 418.52C275.455 419.36 276.055 420.032 276.799 420.536C277.543 421.016 278.371 421.256 279.283 421.256C280.147 421.256 280.939 421.052 281.659 420.644C282.403 420.212 282.919 419.672 283.207 419.024L287.923 420.464C287.275 421.88 286.195 423.056 284.683 423.992C283.195 424.904 281.419 425.36 279.355 425.36ZM289.523 425.252V420.968C290.291 420.944 290.951 420.692 291.503 420.212C292.079 419.732 292.535 418.856 292.871 417.584C293.207 416.312 293.423 414.476 293.519 412.076L293.771 406.136H307.919V425H303.095V410.348H298.019L297.947 412.544C297.803 415.832 297.407 418.4 296.759 420.248C296.135 422.072 295.223 423.356 294.023 424.1C292.823 424.844 291.323 425.228 289.523 425.252ZM321.013 425.36C318.949 425.36 317.173 424.916 315.685 424.028C314.221 423.116 313.093 421.916 312.301 420.428C311.509 418.94 311.113 417.332 311.113 415.604C311.113 413.852 311.509 412.232 312.301 410.744C313.117 409.256 314.257 408.068 315.721 407.18C317.209 406.268 318.973 405.812 321.013 405.812C323.053 405.812 324.805 406.268 326.269 407.18C327.757 408.068 328.897 409.256 329.689 410.744C330.481 412.232 330.877 413.852 330.877 415.604C330.877 417.332 330.481 418.94 329.689 420.428C328.897 421.916 327.757 423.116 326.269 424.028C324.805 424.916 323.053 425.36 321.013 425.36ZM316.081 415.604C316.081 416.708 316.297 417.692 316.729 418.556C317.161 419.396 317.749 420.056 318.493 420.536C319.237 421.016 320.077 421.256 321.013 421.256C321.925 421.256 322.753 421.016 323.497 420.536C324.241 420.032 324.829 419.36 325.261 418.52C325.717 417.656 325.945 416.672 325.945 415.568C325.945 414.488 325.717 413.528 325.261 412.688C324.829 411.824 324.241 411.152 323.497 410.672C322.753 410.168 321.925 409.916 321.013 409.916C320.077 409.916 319.237 410.168 318.493 410.672C317.749 411.152 317.161 411.824 316.729 412.688C316.297 413.528 316.081 414.5 316.081 415.604ZM334.134 425V406.136H338.958V413.336H346.59V406.136H351.414V425H346.59V417.368H338.958V425H334.134ZM354.529 419.42C354.529 418.196 354.865 417.128 355.537 416.216C356.233 415.28 357.193 414.56 358.417 414.056C359.641 413.552 361.045 413.3 362.629 413.3C363.421 413.3 364.225 413.372 365.041 413.516C365.857 413.636 366.565 413.816 367.165 414.056V413.048C367.165 411.848 366.805 410.924 366.085 410.276C365.389 409.628 364.345 409.304 362.953 409.304C361.921 409.304 360.937 409.484 360.001 409.844C359.065 410.204 358.081 410.732 357.049 411.428L355.501 408.26C356.749 407.444 358.021 406.832 359.317 406.424C360.637 406.016 362.017 405.812 363.457 405.812C366.145 405.812 368.233 406.484 369.721 407.828C371.233 409.172 371.989 411.092 371.989 413.588V419.6C371.989 420.128 372.073 420.5 372.241 420.716C372.409 420.908 372.709 421.028 373.141 421.076V425C372.709 425.096 372.313 425.156 371.953 425.18C371.617 425.228 371.329 425.252 371.089 425.252C370.129 425.252 369.397 425.036 368.893 424.604C368.389 424.172 368.089 423.644 367.993 423.02L367.885 422.048C367.045 423.128 366.013 423.956 364.789 424.532C363.589 425.084 362.353 425.36 361.081 425.36C359.809 425.36 358.681 425.108 357.697 424.604C356.713 424.076 355.933 423.368 355.357 422.48C354.805 421.568 354.529 420.548 354.529 419.42ZM366.265 420.392C366.865 419.816 367.165 419.264 367.165 418.736V416.828C365.917 416.324 364.657 416.072 363.385 416.072C362.113 416.072 361.081 416.348 360.289 416.9C359.497 417.428 359.101 418.136 359.101 419.024C359.101 419.744 359.389 420.392 359.965 420.968C360.541 421.544 361.369 421.832 362.449 421.832C363.169 421.832 363.865 421.7 364.537 421.436C365.233 421.172 365.809 420.824 366.265 420.392ZM405.377 418.412C405.377 419.684 405.053 420.824 404.405 421.832C403.757 422.816 402.881 423.596 401.777 424.172C400.697 424.724 399.509 425 398.213 425H386.153V399.44H398.465C399.665 399.44 400.697 399.764 401.561 400.412C402.425 401.036 403.097 401.852 403.577 402.86C404.057 403.844 404.297 404.876 404.297 405.956C404.297 407.228 403.973 408.404 403.325 409.484C402.677 410.564 401.777 411.368 400.625 411.896C402.065 412.328 403.217 413.132 404.081 414.308C404.945 415.484 405.377 416.852 405.377 418.412ZM388.673 401.636V411.068H397.457C398.297 411.068 399.041 410.852 399.689 410.42C400.361 409.964 400.877 409.388 401.237 408.692C401.621 407.972 401.813 407.192 401.813 406.352C401.813 405.488 401.633 404.696 401.273 403.976C400.913 403.256 400.421 402.692 399.797 402.284C399.173 401.852 398.465 401.636 397.673 401.636H388.673ZM402.857 417.98C402.857 417.14 402.665 416.348 402.281 415.604C401.897 414.86 401.369 414.26 400.697 413.804C400.049 413.348 399.305 413.12 398.465 413.12H388.673V422.804H398.213C399.077 422.804 399.857 422.576 400.553 422.12C401.249 421.664 401.801 421.076 402.209 420.356C402.641 419.612 402.857 418.82 402.857 417.98ZM408.114 419.6C408.114 418.448 408.45 417.452 409.122 416.612C409.794 415.748 410.718 415.076 411.894 414.596C413.094 414.116 414.474 413.876 416.034 413.876C416.946 413.876 417.894 413.96 418.878 414.128C419.862 414.272 420.738 414.476 421.506 414.74V413.156C421.506 411.572 421.038 410.312 420.102 409.376C419.166 408.44 417.87 407.972 416.214 407.972C415.23 407.972 414.246 408.164 413.262 408.548C412.278 408.908 411.258 409.448 410.202 410.168L409.266 408.44C410.49 407.6 411.69 406.976 412.866 406.568C414.042 406.136 415.242 405.92 416.466 405.92C418.77 405.92 420.594 406.58 421.938 407.9C423.282 409.22 423.954 411.044 423.954 413.372V422.048C423.954 422.696 424.254 423.032 424.854 423.056V425C424.326 425.072 423.954 425.096 423.738 425.072C423.138 425.048 422.682 424.856 422.37 424.496C422.058 424.136 421.89 423.752 421.866 423.344L421.83 421.976C420.99 423.056 419.898 423.896 418.554 424.496C417.21 425.072 415.842 425.36 414.45 425.36C413.226 425.36 412.134 425.108 411.174 424.604C410.214 424.076 409.458 423.38 408.906 422.516C408.378 421.628 408.114 420.656 408.114 419.6ZM420.678 421.04C421.23 420.392 421.506 419.792 421.506 419.24V416.504C419.85 415.856 418.122 415.532 416.322 415.532C414.57 415.532 413.154 415.88 412.074 416.576C410.994 417.272 410.454 418.22 410.454 419.42C410.454 420.452 410.85 421.388 411.642 422.228C412.458 423.068 413.586 423.488 415.026 423.488C416.202 423.488 417.294 423.26 418.302 422.804C419.334 422.348 420.126 421.76 420.678 421.04ZM429.207 425V406.244H431.655V422.84H439.683V406.244H442.167V422.84H450.159V406.244H452.607V425H429.207ZM457.606 416.324V414.056H468.118V416.324H457.606ZM481.289 425.36C479.465 425.36 477.845 424.916 476.429 424.028C475.013 423.116 473.897 421.928 473.081 420.464C472.265 418.976 471.857 417.344 471.857 415.568C471.857 413.792 472.253 412.184 473.045 410.744C473.837 409.28 474.941 408.116 476.357 407.252C477.773 406.364 479.405 405.92 481.253 405.92C483.005 405.92 484.541 406.328 485.861 407.144C487.205 407.936 488.213 409.016 488.885 410.384L486.509 411.14C485.981 410.18 485.237 409.436 484.277 408.908C483.341 408.356 482.297 408.08 481.145 408.08C479.873 408.08 478.721 408.404 477.689 409.052C476.681 409.7 475.865 410.6 475.241 411.752C474.641 412.88 474.341 414.152 474.341 415.568C474.341 416.984 474.653 418.268 475.277 419.42C475.901 420.572 476.729 421.496 477.761 422.192C478.793 422.864 479.933 423.2 481.181 423.2C481.997 423.2 482.789 423.056 483.557 422.768C484.325 422.48 484.985 422.096 485.537 421.616C486.089 421.112 486.461 420.572 486.653 419.996L489.065 420.716C488.729 421.604 488.177 422.408 487.409 423.128C486.641 423.824 485.729 424.376 484.673 424.784C483.617 425.168 482.489 425.36 481.289 425.36ZM491.399 419.6C491.399 418.448 491.735 417.452 492.407 416.612C493.079 415.748 494.003 415.076 495.179 414.596C496.379 414.116 497.759 413.876 499.319 413.876C500.231 413.876 501.179 413.96 502.163 414.128C503.147 414.272 504.023 414.476 504.791 414.74V413.156C504.791 411.572 504.323 410.312 503.387 409.376C502.451 408.44 501.155 407.972 499.499 407.972C498.515 407.972 497.531 408.164 496.547 408.548C495.563 408.908 494.543 409.448 493.487 410.168L492.551 408.44C493.775 407.6 494.975 406.976 496.151 406.568C497.327 406.136 498.527 405.92 499.751 405.92C502.055 405.92 503.879 406.58 505.223 407.9C506.567 409.22 507.239 411.044 507.239 413.372V422.048C507.239 422.696 507.539 423.032 508.139 423.056V425C507.611 425.072 507.239 425.096 507.023 425.072C506.423 425.048 505.967 424.856 505.655 424.496C505.343 424.136 505.175 423.752 505.151 423.344L505.115 421.976C504.275 423.056 503.183 423.896 501.839 424.496C500.495 425.072 499.127 425.36 497.735 425.36C496.511 425.36 495.419 425.108 494.459 424.604C493.499 424.076 492.743 423.38 492.191 422.516C491.663 421.628 491.399 420.656 491.399 419.6ZM503.963 421.04C504.515 420.392 504.791 419.792 504.791 419.24V416.504C503.135 415.856 501.407 415.532 499.607 415.532C497.855 415.532 496.439 415.88 495.359 416.576C494.279 417.272 493.739 418.22 493.739 419.42C493.739 420.452 494.135 421.388 494.927 422.228C495.743 423.068 496.871 423.488 498.311 423.488C499.487 423.488 500.579 423.26 501.587 422.804C502.619 422.348 503.411 421.76 503.963 421.04ZM512.492 425V406.28H514.94V421.688L526.352 406.244H528.548V425H526.1V409.844L514.868 425H512.492ZM520.556 403.868C518.924 403.868 517.664 403.484 516.776 402.716C515.888 401.948 515.444 400.976 515.444 399.8H517.244C517.244 400.52 517.508 401.12 518.036 401.6C518.588 402.08 519.428 402.32 520.556 402.32C521.66 402.32 522.464 402.092 522.968 401.636C523.496 401.18 523.796 400.568 523.868 399.8H525.632C525.632 400.976 525.188 401.948 524.3 402.716C523.412 403.484 522.164 403.868 520.556 403.868ZM538.583 425V408.44H531.887V406.244H547.727V408.44H541.031V425H538.583ZM549.117 425V421.472H551.241V425H549.117ZM565.874 425.36C564.314 425.36 562.91 424.952 561.662 424.136C560.438 423.32 559.466 422.312 558.746 421.112V432.668H556.298V406.244H558.494V409.88C559.238 408.704 560.222 407.756 561.446 407.036C562.694 406.292 564.038 405.92 565.478 405.92C566.774 405.92 567.962 406.196 569.042 406.748C570.122 407.276 571.058 407.996 571.85 408.908C572.666 409.82 573.29 410.864 573.722 412.04C574.154 413.192 574.37 414.392 574.37 415.64C574.37 417.392 574.01 419.012 573.29 420.5C572.594 421.964 571.598 423.14 570.302 424.028C569.03 424.916 567.554 425.36 565.874 425.36ZM565.19 423.2C566.558 423.2 567.734 422.84 568.718 422.12C569.726 421.376 570.506 420.428 571.058 419.276C571.61 418.124 571.886 416.912 571.886 415.64C571.886 414.296 571.574 413.048 570.95 411.896C570.326 410.744 569.486 409.82 568.43 409.124C567.398 408.428 566.222 408.08 564.902 408.08C564.086 408.08 563.222 408.296 562.31 408.728C561.422 409.136 560.63 409.7 559.934 410.42C559.262 411.116 558.866 411.884 558.746 412.724V418.484C559.298 419.804 560.162 420.92 561.338 421.832C562.514 422.744 563.798 423.2 565.19 423.2ZM579.936 432.848C579.144 432.848 578.304 432.596 577.416 432.092L578.316 430.364C578.82 430.7 579.312 430.868 579.792 430.868C580.992 430.868 582.108 429.644 583.14 427.196L584.076 424.856L575.724 406.244H578.316L585.192 422.48L591.528 406.244H593.976L585.048 427.952C584.328 429.656 583.548 430.892 582.708 431.66C581.868 432.452 580.944 432.848 579.936 432.848Z" fill="#0B0720"/>
<path d="M141.196 325V306.136H146.02V313.264H147.64L152.752 306.136H158.008L151.312 315.244L158.728 325H153.22L147.568 317.512H146.02V325H141.196ZM164.535 333.136C164.031 333.136 163.515 333.076 162.987 332.956C162.483 332.836 161.895 332.656 161.223 332.416L162.159 328.6C162.879 328.912 163.515 329.068 164.067 329.068C165.339 329.068 166.251 328.192 166.803 326.44L167.379 324.892L159.747 306.136H164.751L169.827 320.068L174.291 306.136H178.899L171.195 327.7C170.571 329.428 169.659 330.76 168.459 331.696C167.283 332.656 165.975 333.136 164.535 333.136ZM181.52 325V306.136H198.44V325H193.616V310.348H186.344V325H181.52ZM202.825 325V306.172H207.649V318.556L216.109 306.136H220.501V325H215.677V312.904L207.325 325H202.825ZM229.259 325V310.348H223.283V306.136H240.095V310.348H234.083V325H229.259ZM242.798 325V306.136H247.622V312.076H251.906C254.162 312.076 255.89 312.652 257.09 313.804C258.29 314.956 258.89 316.48 258.89 318.376C258.89 320.32 258.314 321.916 257.162 323.164C256.034 324.388 254.39 325 252.23 325H242.798ZM247.622 321.328H251.474C252.458 321.328 253.178 321.052 253.634 320.5C254.09 319.924 254.318 319.228 254.318 318.412C254.318 317.62 254.102 316.96 253.67 316.432C253.238 315.88 252.494 315.604 251.438 315.604H247.622V321.328ZM279.355 325.36C277.315 325.36 275.551 324.904 274.063 323.992C272.575 323.08 271.423 321.88 270.607 320.392C269.791 318.904 269.383 317.296 269.383 315.568C269.383 313.816 269.779 312.196 270.571 310.708C271.387 309.22 272.539 308.032 274.027 307.144C275.515 306.256 277.279 305.812 279.319 305.812C281.383 305.812 283.135 306.256 284.575 307.144C286.039 308.032 287.131 309.196 287.851 310.636L283.135 312.076C282.295 310.636 281.011 309.916 279.283 309.916C278.347 309.916 277.507 310.156 276.763 310.636C276.019 311.092 275.431 311.752 274.999 312.616C274.567 313.456 274.351 314.44 274.351 315.568C274.351 316.672 274.567 317.656 274.999 318.52C275.455 319.36 276.055 320.032 276.799 320.536C277.543 321.016 278.371 321.256 279.283 321.256C280.147 321.256 280.939 321.052 281.659 320.644C282.403 320.212 282.919 319.672 283.207 319.024L287.923 320.464C287.275 321.88 286.195 323.056 284.683 323.992C283.195 324.904 281.419 325.36 279.355 325.36ZM289.523 325.252V320.968C290.291 320.944 290.951 320.692 291.503 320.212C292.079 319.732 292.535 318.856 292.871 317.584C293.207 316.312 293.423 314.476 293.519 312.076L293.771 306.136H307.919V325H303.095V310.348H298.019L297.947 312.544C297.803 315.832 297.407 318.4 296.759 320.248C296.135 322.072 295.223 323.356 294.023 324.1C292.823 324.844 291.323 325.228 289.523 325.252ZM321.013 325.36C318.949 325.36 317.173 324.916 315.685 324.028C314.221 323.116 313.093 321.916 312.301 320.428C311.509 318.94 311.113 317.332 311.113 315.604C311.113 313.852 311.509 312.232 312.301 310.744C313.117 309.256 314.257 308.068 315.721 307.18C317.209 306.268 318.973 305.812 321.013 305.812C323.053 305.812 324.805 306.268 326.269 307.18C327.757 308.068 328.897 309.256 329.689 310.744C330.481 312.232 330.877 313.852 330.877 315.604C330.877 317.332 330.481 318.94 329.689 320.428C328.897 321.916 327.757 323.116 326.269 324.028C324.805 324.916 323.053 325.36 321.013 325.36ZM316.081 315.604C316.081 316.708 316.297 317.692 316.729 318.556C317.161 319.396 317.749 320.056 318.493 320.536C319.237 321.016 320.077 321.256 321.013 321.256C321.925 321.256 322.753 321.016 323.497 320.536C324.241 320.032 324.829 319.36 325.261 318.52C325.717 317.656 325.945 316.672 325.945 315.568C325.945 314.488 325.717 313.528 325.261 312.688C324.829 311.824 324.241 311.152 323.497 310.672C322.753 310.168 321.925 309.916 321.013 309.916C320.077 309.916 319.237 310.168 318.493 310.672C317.749 311.152 317.161 311.824 316.729 312.688C316.297 313.528 316.081 314.5 316.081 315.604ZM334.134 325V306.136H338.958V313.336H346.59V306.136H351.414V325H346.59V317.368H338.958V325H334.134ZM354.529 319.42C354.529 318.196 354.865 317.128 355.537 316.216C356.233 315.28 357.193 314.56 358.417 314.056C359.641 313.552 361.045 313.3 362.629 313.3C363.421 313.3 364.225 313.372 365.041 313.516C365.857 313.636 366.565 313.816 367.165 314.056V313.048C367.165 311.848 366.805 310.924 366.085 310.276C365.389 309.628 364.345 309.304 362.953 309.304C361.921 309.304 360.937 309.484 360.001 309.844C359.065 310.204 358.081 310.732 357.049 311.428L355.501 308.26C356.749 307.444 358.021 306.832 359.317 306.424C360.637 306.016 362.017 305.812 363.457 305.812C366.145 305.812 368.233 306.484 369.721 307.828C371.233 309.172 371.989 311.092 371.989 313.588V319.6C371.989 320.128 372.073 320.5 372.241 320.716C372.409 320.908 372.709 321.028 373.141 321.076V325C372.709 325.096 372.313 325.156 371.953 325.18C371.617 325.228 371.329 325.252 371.089 325.252C370.129 325.252 369.397 325.036 368.893 324.604C368.389 324.172 368.089 323.644 367.993 323.02L367.885 322.048C367.045 323.128 366.013 323.956 364.789 324.532C363.589 325.084 362.353 325.36 361.081 325.36C359.809 325.36 358.681 325.108 357.697 324.604C356.713 324.076 355.933 323.368 355.357 322.48C354.805 321.568 354.529 320.548 354.529 319.42ZM366.265 320.392C366.865 319.816 367.165 319.264 367.165 318.736V316.828C365.917 316.324 364.657 316.072 363.385 316.072C362.113 316.072 361.081 316.348 360.289 316.9C359.497 317.428 359.101 318.136 359.101 319.024C359.101 319.744 359.389 320.392 359.965 320.968C360.541 321.544 361.369 321.832 362.449 321.832C363.169 321.832 363.865 321.7 364.537 321.436C365.233 321.172 365.809 320.824 366.265 320.392ZM386.141 325V306.244H388.589V314.308H399.317V306.244H401.765V325H399.317V316.504H388.589V325H386.141ZM405.653 319.6C405.653 318.448 405.989 317.452 406.661 316.612C407.333 315.748 408.257 315.076 409.433 314.596C410.633 314.116 412.013 313.876 413.573 313.876C414.485 313.876 415.433 313.96 416.417 314.128C417.401 314.272 418.277 314.476 419.045 314.74V313.156C419.045 311.572 418.577 310.312 417.641 309.376C416.705 308.44 415.409 307.972 413.753 307.972C412.769 307.972 411.785 308.164 410.801 308.548C409.817 308.908 408.797 309.448 407.741 310.168L406.805 308.44C408.029 307.6 409.229 306.976 410.405 306.568C411.581 306.136 412.781 305.92 414.005 305.92C416.309 305.92 418.133 306.58 419.477 307.9C420.821 309.22 421.493 311.044 421.493 313.372V322.048C421.493 322.696 421.793 323.032 422.393 323.056V325C421.865 325.072 421.493 325.096 421.277 325.072C420.677 325.048 420.221 324.856 419.909 324.496C419.597 324.136 419.429 323.752 419.405 323.344L419.369 321.976C418.529 323.056 417.437 323.896 416.093 324.496C414.749 325.072 413.381 325.36 411.989 325.36C410.765 325.36 409.673 325.108 408.713 324.604C407.753 324.076 406.997 323.38 406.445 322.516C405.917 321.628 405.653 320.656 405.653 319.6ZM418.217 321.04C418.769 320.392 419.045 319.792 419.045 319.24V316.504C417.389 315.856 415.661 315.532 413.861 315.532C412.109 315.532 410.693 315.88 409.613 316.576C408.533 317.272 407.993 318.22 407.993 319.42C407.993 320.452 408.389 321.388 409.181 322.228C409.997 323.068 411.125 323.488 412.565 323.488C413.741 323.488 414.833 323.26 415.841 322.804C416.873 322.348 417.665 321.76 418.217 321.04ZM432.218 325.216C430.49 325.216 429.002 324.892 427.754 324.244C426.53 323.572 425.606 322.636 424.982 321.436L426.998 320.536C427.454 321.376 428.114 322.036 428.978 322.516C429.842 322.972 430.886 323.2 432.11 323.2C433.574 323.2 434.738 322.864 435.602 322.192C436.49 321.52 436.934 320.62 436.934 319.492C436.934 318.484 436.586 317.656 435.89 317.008C435.194 316.36 434.234 316.036 433.01 316.036H431.102V314.344H433.154C433.946 314.344 434.606 314.044 435.134 313.444C435.686 312.82 435.962 312.052 435.962 311.14C435.962 310.204 435.626 309.448 434.954 308.872C434.306 308.296 433.346 308.008 432.074 308.008C430.01 308.008 428.558 308.836 427.718 310.492L425.846 309.484C426.398 308.38 427.214 307.516 428.294 306.892C429.374 306.268 430.658 305.956 432.146 305.956C433.922 305.956 435.374 306.4 436.502 307.288C437.63 308.152 438.194 309.352 438.194 310.888C438.194 311.776 437.978 312.604 437.546 313.372C437.114 314.14 436.514 314.704 435.746 315.064C436.85 315.424 437.702 316.024 438.302 316.864C438.926 317.68 439.238 318.652 439.238 319.78C439.238 321.484 438.578 322.816 437.258 323.776C435.938 324.736 434.258 325.216 432.218 325.216ZM443.305 325V306.244H452.665C453.721 306.244 454.609 306.472 455.329 306.928C456.049 307.36 456.589 307.936 456.949 308.656C457.333 309.352 457.525 310.084 457.525 310.852C457.525 311.86 457.273 312.772 456.769 313.588C456.289 314.38 455.605 314.98 454.717 315.388C455.797 315.676 456.673 316.24 457.345 317.08C458.017 317.92 458.353 318.904 458.353 320.032C458.353 321.544 457.813 322.756 456.733 323.668C455.677 324.556 454.321 325 452.665 325H443.305ZM445.645 314.704H452.017C452.953 314.704 453.709 314.356 454.285 313.66C454.885 312.94 455.185 312.136 455.185 311.248C455.185 310.384 454.897 309.628 454.321 308.98C453.769 308.332 453.049 308.008 452.161 308.008H445.645V314.704ZM445.645 323.236H452.593C453.553 323.236 454.357 322.888 455.005 322.192C455.653 321.472 455.977 320.68 455.977 319.816C455.977 318.88 455.665 318.076 455.041 317.404C454.417 316.732 453.649 316.396 452.737 316.396H445.645V323.236ZM461.094 319.6C461.094 318.448 461.43 317.452 462.102 316.612C462.774 315.748 463.698 315.076 464.874 314.596C466.074 314.116 467.454 313.876 469.014 313.876C469.926 313.876 470.874 313.96 471.858 314.128C472.842 314.272 473.718 314.476 474.486 314.74V313.156C474.486 311.572 474.018 310.312 473.082 309.376C472.146 308.44 470.85 307.972 469.194 307.972C468.21 307.972 467.226 308.164 466.242 308.548C465.258 308.908 464.238 309.448 463.182 310.168L462.246 308.44C463.47 307.6 464.67 306.976 465.846 306.568C467.022 306.136 468.222 305.92 469.446 305.92C471.75 305.92 473.574 306.58 474.918 307.9C476.262 309.22 476.934 311.044 476.934 313.372V322.048C476.934 322.696 477.234 323.032 477.834 323.056V325C477.306 325.072 476.934 325.096 476.718 325.072C476.118 325.048 475.662 324.856 475.35 324.496C475.038 324.136 474.87 323.752 474.846 323.344L474.81 321.976C473.97 323.056 472.878 323.896 471.534 324.496C470.19 325.072 468.822 325.36 467.43 325.36C466.206 325.36 465.114 325.108 464.154 324.604C463.194 324.076 462.438 323.38 461.886 322.516C461.358 321.628 461.094 320.656 461.094 319.6ZM473.658 321.04C474.21 320.392 474.486 319.792 474.486 319.24V316.504C472.83 315.856 471.102 315.532 469.302 315.532C467.55 315.532 466.134 315.88 465.054 316.576C463.974 317.272 463.434 318.22 463.434 319.42C463.434 320.452 463.83 321.388 464.622 322.228C465.438 323.068 466.566 323.488 468.006 323.488C469.182 323.488 470.274 323.26 471.282 322.804C472.314 322.348 473.106 321.76 473.658 321.04ZM482.187 325V306.244H484.635V314.308H495.363V306.244H497.811V325H495.363V316.504H484.635V325H482.187ZM503.176 325V306.28H505.624V321.688L517.036 306.244H519.232V325H516.784V309.844L505.552 325H503.176ZM532.687 325.36C530.887 325.36 529.279 324.916 527.863 324.028C526.447 323.14 525.331 321.952 524.515 320.464C523.699 318.976 523.291 317.344 523.291 315.568C523.291 313.816 523.687 312.208 524.479 310.744C525.295 309.28 526.411 308.116 527.827 307.252C529.243 306.364 530.851 305.92 532.651 305.92C534.499 305.92 536.119 306.364 537.511 307.252C538.903 308.14 539.983 309.316 540.751 310.78C541.543 312.22 541.939 313.804 541.939 315.532C541.939 315.916 541.927 316.24 541.903 316.504H525.847C525.967 317.848 526.351 319.048 526.999 320.104C527.647 321.136 528.475 321.964 529.483 322.588C530.491 323.188 531.595 323.488 532.795 323.488C534.019 323.488 535.171 323.176 536.251 322.552C537.331 321.928 538.099 321.112 538.555 320.104L540.679 320.68C540.295 321.592 539.695 322.408 538.879 323.128C538.087 323.824 537.163 324.376 536.107 324.784C535.051 325.168 533.911 325.36 532.687 325.36ZM525.775 314.74H539.635C539.539 313.396 539.167 312.208 538.519 311.176C537.871 310.12 537.043 309.304 536.035 308.728C535.027 308.128 533.911 307.828 532.687 307.828C531.463 307.828 530.347 308.128 529.339 308.728C528.331 309.304 527.503 310.12 526.855 311.176C526.231 312.208 525.871 313.396 525.775 314.74ZM574.619 318.412C574.619 319.684 574.295 320.824 573.647 321.832C572.999 322.816 572.123 323.596 571.019 324.172C569.939 324.724 568.751 325 567.455 325H555.395V299.44H567.707C568.907 299.44 569.939 299.764 570.803 300.412C571.667 301.036 572.339 301.852 572.819 302.86C573.299 303.844 573.539 304.876 573.539 305.956C573.539 307.228 573.215 308.404 572.567 309.484C571.919 310.564 571.019 311.368 569.867 311.896C571.307 312.328 572.459 313.132 573.323 314.308C574.187 315.484 574.619 316.852 574.619 318.412ZM557.915 301.636V311.068H566.699C567.539 311.068 568.283 310.852 568.931 310.42C569.603 309.964 570.119 309.388 570.479 308.692C570.863 307.972 571.055 307.192 571.055 306.352C571.055 305.488 570.875 304.696 570.515 303.976C570.155 303.256 569.663 302.692 569.039 302.284C568.415 301.852 567.707 301.636 566.915 301.636H557.915ZM572.099 317.98C572.099 317.14 571.907 316.348 571.523 315.604C571.139 314.86 570.611 314.26 569.939 313.804C569.291 313.348 568.547 313.12 567.707 313.12H557.915V322.804H567.455C568.319 322.804 569.099 322.576 569.795 322.12C570.491 321.664 571.043 321.076 571.451 320.356C571.883 319.612 572.099 318.82 572.099 317.98ZM577.356 319.6C577.356 318.448 577.692 317.452 578.364 316.612C579.036 315.748 579.96 315.076 581.136 314.596C582.336 314.116 583.716 313.876 585.276 313.876C586.188 313.876 587.136 313.96 588.12 314.128C589.104 314.272 589.98 314.476 590.748 314.74V313.156C590.748 311.572 590.28 310.312 589.344 309.376C588.408 308.44 587.112 307.972 585.456 307.972C584.472 307.972 583.488 308.164 582.504 308.548C581.52 308.908 580.5 309.448 579.444 310.168L578.508 308.44C579.732 307.6 580.932 306.976 582.108 306.568C583.284 306.136 584.484 305.92 585.708 305.92C588.012 305.92 589.836 306.58 591.18 307.9C592.524 309.22 593.196 311.044 593.196 313.372V322.048C593.196 322.696 593.496 323.032 594.096 323.056V325C593.568 325.072 593.196 325.096 592.98 325.072C592.38 325.048 591.924 324.856 591.612 324.496C591.3 324.136 591.132 323.752 591.108 323.344L591.072 321.976C590.232 323.056 589.14 323.896 587.796 324.496C586.452 325.072 585.084 325.36 583.692 325.36C582.468 325.36 581.376 325.108 580.416 324.604C579.456 324.076 578.7 323.38 578.148 322.516C577.62 321.628 577.356 320.656 577.356 319.6ZM589.92 321.04C590.472 320.392 590.748 319.792 590.748 319.24V316.504C589.092 315.856 587.364 315.532 585.564 315.532C583.812 315.532 582.396 315.88 581.316 316.576C580.236 317.272 579.696 318.22 579.696 319.42C579.696 320.452 580.092 321.388 580.884 322.228C581.7 323.068 582.828 323.488 584.268 323.488C585.444 323.488 586.536 323.26 587.544 322.804C588.576 322.348 589.368 321.76 589.92 321.04ZM598.449 325V306.244H600.897V322.84H608.925V306.244H611.409V322.84H619.401V306.244H621.849V325H598.449ZM635.308 325.36C633.508 325.36 631.9 324.916 630.484 324.028C629.068 323.14 627.952 321.952 627.136 320.464C626.32 318.976 625.912 317.344 625.912 315.568C625.912 313.816 626.308 312.208 627.1 310.744C627.916 309.28 629.032 308.116 630.448 307.252C631.864 306.364 633.472 305.92 635.272 305.92C637.12 305.92 638.74 306.364 640.132 307.252C641.524 308.14 642.604 309.316 643.372 310.78C644.164 312.22 644.56 313.804 644.56 315.532C644.56 315.916 644.548 316.24 644.524 316.504H628.468C628.588 317.848 628.972 319.048 629.62 320.104C630.268 321.136 631.096 321.964 632.104 322.588C633.112 323.188 634.216 323.488 635.416 323.488C636.64 323.488 637.792 323.176 638.872 322.552C639.952 321.928 640.72 321.112 641.176 320.104L643.3 320.68C642.916 321.592 642.316 322.408 641.5 323.128C640.708 323.824 639.784 324.376 638.728 324.784C637.672 325.168 636.532 325.36 635.308 325.36ZM628.396 314.74H642.256C642.16 313.396 641.788 312.208 641.14 311.176C640.492 310.12 639.664 309.304 638.656 308.728C637.648 308.128 636.532 307.828 635.308 307.828C634.084 307.828 632.968 308.128 631.96 308.728C630.952 309.304 630.124 310.12 629.476 311.176C628.852 312.208 628.492 313.396 628.396 314.74ZM648.301 325V306.28H650.749V321.688L662.161 306.244H664.357V325H661.909V309.844L650.677 325H648.301ZM656.365 303.868C654.733 303.868 653.473 303.484 652.585 302.716C651.697 301.948 651.253 300.976 651.253 299.8H653.053C653.053 300.52 653.317 301.12 653.845 301.6C654.397 302.08 655.237 302.32 656.365 302.32C657.469 302.32 658.273 302.092 658.777 301.636C659.305 301.18 659.605 300.568 659.677 299.8H661.441C661.441 300.976 660.997 301.948 660.109 302.716C659.221 303.484 657.973 303.868 656.365 303.868ZM678.852 325V306.244H681.3V314.272H684.108L690.408 306.244H693.216L686.052 315.352L694.116 325H691.236L684.108 316.54H681.3V325H678.852ZM704.598 325.36C702.798 325.36 701.19 324.916 699.774 324.028C698.382 323.14 697.29 321.964 696.498 320.5C695.706 319.012 695.31 317.404 695.31 315.676C695.31 313.924 695.706 312.316 696.498 310.852C697.314 309.364 698.418 308.176 699.81 307.288C701.226 306.376 702.822 305.92 704.598 305.92C706.398 305.92 707.994 306.376 709.386 307.288C710.802 308.176 711.906 309.364 712.698 310.852C713.514 312.316 713.922 313.924 713.922 315.676C713.922 317.404 713.526 319.012 712.734 320.5C711.942 321.964 710.838 323.14 709.422 324.028C708.03 324.916 706.422 325.36 704.598 325.36ZM697.794 315.712C697.794 317.104 698.094 318.376 698.694 319.528C699.318 320.656 700.146 321.556 701.178 322.228C702.21 322.876 703.35 323.2 704.598 323.2C705.846 323.2 706.986 322.864 708.018 322.192C709.05 321.52 709.878 320.608 710.502 319.456C711.126 318.304 711.438 317.032 711.438 315.64C711.438 314.248 711.126 312.976 710.502 311.824C709.878 310.672 709.05 309.76 708.018 309.088C706.986 308.416 705.846 308.08 704.598 308.08C703.374 308.08 702.246 308.428 701.214 309.124C700.182 309.796 699.354 310.708 698.73 311.86C698.106 313.012 697.794 314.296 697.794 315.712ZM717.98 325V306.244H720.5L727.952 319.168L735.44 306.244H737.852V325H735.512V309.916L728.744 321.652H727.16L720.32 309.916V325H717.98ZM743.223 325V306.244H758.307V325H755.859V308.44H745.671V325H743.223ZM762.208 319.6C762.208 318.448 762.544 317.452 763.216 316.612C763.888 315.748 764.812 315.076 765.988 314.596C767.188 314.116 768.568 313.876 770.128 313.876C771.04 313.876 771.988 313.96 772.972 314.128C773.956 314.272 774.832 314.476 775.6 314.74V313.156C775.6 311.572 775.132 310.312 774.196 309.376C773.26 308.44 771.964 307.972 770.308 307.972C769.324 307.972 768.34 308.164 767.356 308.548C766.372 308.908 765.352 309.448 764.296 310.168L763.36 308.44C764.584 307.6 765.784 306.976 766.96 306.568C768.136 306.136 769.336 305.92 770.56 305.92C772.864 305.92 774.688 306.58 776.032 307.9C777.376 309.22 778.048 311.044 778.048 313.372V322.048C778.048 322.696 778.348 323.032 778.948 323.056V325C778.42 325.072 778.048 325.096 777.832 325.072C777.232 325.048 776.776 324.856 776.464 324.496C776.152 324.136 775.984 323.752 775.96 323.344L775.924 321.976C775.084 323.056 773.992 323.896 772.648 324.496C771.304 325.072 769.936 325.36 768.544 325.36C767.32 325.36 766.228 325.108 765.268 324.604C764.308 324.076 763.552 323.38 763 322.516C762.472 321.628 762.208 320.656 762.208 319.6ZM774.772 321.04C775.324 320.392 775.6 319.792 775.6 319.24V316.504C773.944 315.856 772.216 315.532 770.416 315.532C768.664 315.532 767.248 315.88 766.168 316.576C765.088 317.272 764.548 318.22 764.548 319.42C764.548 320.452 764.944 321.388 765.736 322.228C766.552 323.068 767.68 323.488 769.12 323.488C770.296 323.488 771.388 323.26 772.396 322.804C773.428 322.348 774.22 321.76 774.772 321.04ZM783.301 325V306.244H785.749V314.308H796.477V306.244H798.925V325H796.477V316.504H785.749V325H783.301ZM804.289 325V306.28H806.737V321.688L818.149 306.244H820.345V325H817.897V309.844L806.665 325H804.289ZM825.664 325V306.28H828.112V321.688L839.524 306.244H841.72V325H839.272V309.844L828.04 325H825.664Z" fill="#0B0720"/>
<path d="M141.196 375V356.136H146.02V363.264H147.64L152.752 356.136H158.008L151.312 365.244L158.728 375H153.22L147.568 367.512H146.02V375H141.196ZM164.535 383.136C164.031 383.136 163.515 383.076 162.987 382.956C162.483 382.836 161.895 382.656 161.223 382.416L162.159 378.6C162.879 378.912 163.515 379.068 164.067 379.068C165.339 379.068 166.251 378.192 166.803 376.44L167.379 374.892L159.747 356.136H164.751L169.827 370.068L174.291 356.136H178.899L171.195 377.7C170.571 379.428 169.659 380.76 168.459 381.696C167.283 382.656 165.975 383.136 164.535 383.136ZM181.52 375V356.136H198.44V375H193.616V360.348H186.344V375H181.52ZM202.825 375V356.172H207.649V368.556L216.109 356.136H220.501V375H215.677V362.904L207.325 375H202.825ZM229.259 375V360.348H223.283V356.136H240.095V360.348H234.083V375H229.259ZM242.798 375V356.136H247.622V362.076H251.906C254.162 362.076 255.89 362.652 257.09 363.804C258.29 364.956 258.89 366.48 258.89 368.376C258.89 370.32 258.314 371.916 257.162 373.164C256.034 374.388 254.39 375 252.23 375H242.798ZM247.622 371.328H251.474C252.458 371.328 253.178 371.052 253.634 370.5C254.09 369.924 254.318 369.228 254.318 368.412C254.318 367.62 254.102 366.96 253.67 366.432C253.238 365.88 252.494 365.604 251.438 365.604H247.622V371.328ZM279.355 375.36C277.315 375.36 275.551 374.904 274.063 373.992C272.575 373.08 271.423 371.88 270.607 370.392C269.791 368.904 269.383 367.296 269.383 365.568C269.383 363.816 269.779 362.196 270.571 360.708C271.387 359.22 272.539 358.032 274.027 357.144C275.515 356.256 277.279 355.812 279.319 355.812C281.383 355.812 283.135 356.256 284.575 357.144C286.039 358.032 287.131 359.196 287.851 360.636L283.135 362.076C282.295 360.636 281.011 359.916 279.283 359.916C278.347 359.916 277.507 360.156 276.763 360.636C276.019 361.092 275.431 361.752 274.999 362.616C274.567 363.456 274.351 364.44 274.351 365.568C274.351 366.672 274.567 367.656 274.999 368.52C275.455 369.36 276.055 370.032 276.799 370.536C277.543 371.016 278.371 371.256 279.283 371.256C280.147 371.256 280.939 371.052 281.659 370.644C282.403 370.212 282.919 369.672 283.207 369.024L287.923 370.464C287.275 371.88 286.195 373.056 284.683 373.992C283.195 374.904 281.419 375.36 279.355 375.36ZM289.523 375.252V370.968C290.291 370.944 290.951 370.692 291.503 370.212C292.079 369.732 292.535 368.856 292.871 367.584C293.207 366.312 293.423 364.476 293.519 362.076L293.771 356.136H307.919V375H303.095V360.348H298.019L297.947 362.544C297.803 365.832 297.407 368.4 296.759 370.248C296.135 372.072 295.223 373.356 294.023 374.1C292.823 374.844 291.323 375.228 289.523 375.252ZM321.013 375.36C318.949 375.36 317.173 374.916 315.685 374.028C314.221 373.116 313.093 371.916 312.301 370.428C311.509 368.94 311.113 367.332 311.113 365.604C311.113 363.852 311.509 362.232 312.301 360.744C313.117 359.256 314.257 358.068 315.721 357.18C317.209 356.268 318.973 355.812 321.013 355.812C323.053 355.812 324.805 356.268 326.269 357.18C327.757 358.068 328.897 359.256 329.689 360.744C330.481 362.232 330.877 363.852 330.877 365.604C330.877 367.332 330.481 368.94 329.689 370.428C328.897 371.916 327.757 373.116 326.269 374.028C324.805 374.916 323.053 375.36 321.013 375.36ZM316.081 365.604C316.081 366.708 316.297 367.692 316.729 368.556C317.161 369.396 317.749 370.056 318.493 370.536C319.237 371.016 320.077 371.256 321.013 371.256C321.925 371.256 322.753 371.016 323.497 370.536C324.241 370.032 324.829 369.36 325.261 368.52C325.717 367.656 325.945 366.672 325.945 365.568C325.945 364.488 325.717 363.528 325.261 362.688C324.829 361.824 324.241 361.152 323.497 360.672C322.753 360.168 321.925 359.916 321.013 359.916C320.077 359.916 319.237 360.168 318.493 360.672C317.749 361.152 317.161 361.824 316.729 362.688C316.297 363.528 316.081 364.5 316.081 365.604ZM334.134 375V356.136H338.958V363.336H346.59V356.136H351.414V375H346.59V367.368H338.958V375H334.134ZM354.529 369.42C354.529 368.196 354.865 367.128 355.537 366.216C356.233 365.28 357.193 364.56 358.417 364.056C359.641 363.552 361.045 363.3 362.629 363.3C363.421 363.3 364.225 363.372 365.041 363.516C365.857 363.636 366.565 363.816 367.165 364.056V363.048C367.165 361.848 366.805 360.924 366.085 360.276C365.389 359.628 364.345 359.304 362.953 359.304C361.921 359.304 360.937 359.484 360.001 359.844C359.065 360.204 358.081 360.732 357.049 361.428L355.501 358.26C356.749 357.444 358.021 356.832 359.317 356.424C360.637 356.016 362.017 355.812 363.457 355.812C366.145 355.812 368.233 356.484 369.721 357.828C371.233 359.172 371.989 361.092 371.989 363.588V369.6C371.989 370.128 372.073 370.5 372.241 370.716C372.409 370.908 372.709 371.028 373.141 371.076V375C372.709 375.096 372.313 375.156 371.953 375.18C371.617 375.228 371.329 375.252 371.089 375.252C370.129 375.252 369.397 375.036 368.893 374.604C368.389 374.172 368.089 373.644 367.993 373.02L367.885 372.048C367.045 373.128 366.013 373.956 364.789 374.532C363.589 375.084 362.353 375.36 361.081 375.36C359.809 375.36 358.681 375.108 357.697 374.604C356.713 374.076 355.933 373.368 355.357 372.48C354.805 371.568 354.529 370.548 354.529 369.42ZM366.265 370.392C366.865 369.816 367.165 369.264 367.165 368.736V366.828C365.917 366.324 364.657 366.072 363.385 366.072C362.113 366.072 361.081 366.348 360.289 366.9C359.497 367.428 359.101 368.136 359.101 369.024C359.101 369.744 359.389 370.392 359.965 370.968C360.541 371.544 361.369 371.832 362.449 371.832C363.169 371.832 363.865 371.7 364.537 371.436C365.233 371.172 365.809 370.824 366.265 370.392ZM405.905 368.412C405.905 369.684 405.581 370.824 404.933 371.832C404.285 372.816 403.409 373.596 402.305 374.172C401.225 374.724 400.037 375 398.741 375H386.681V349.44H398.993C400.193 349.44 401.225 349.764 402.089 350.412C402.953 351.036 403.625 351.852 404.105 352.86C404.585 353.844 404.825 354.876 404.825 355.956C404.825 357.228 404.501 358.404 403.853 359.484C403.205 360.564 402.305 361.368 401.153 361.896C402.593 362.328 403.745 363.132 404.609 364.308C405.473 365.484 405.905 366.852 405.905 368.412ZM389.201 351.636V361.068H397.985C398.825 361.068 399.569 360.852 400.217 360.42C400.889 359.964 401.405 359.388 401.765 358.692C402.149 357.972 402.341 357.192 402.341 356.352C402.341 355.488 402.161 354.696 401.801 353.976C401.441 353.256 400.949 352.692 400.325 352.284C399.701 351.852 398.993 351.636 398.201 351.636H389.201ZM403.385 367.98C403.385 367.14 403.193 366.348 402.809 365.604C402.425 364.86 401.897 364.26 401.225 363.804C400.577 363.348 399.833 363.12 398.993 363.12H389.201V372.804H398.741C399.605 372.804 400.385 372.576 401.081 372.12C401.777 371.664 402.329 371.076 402.737 370.356C403.169 369.612 403.385 368.82 403.385 367.98ZM408.641 369.6C408.641 368.448 408.977 367.452 409.649 366.612C410.321 365.748 411.245 365.076 412.421 364.596C413.621 364.116 415.001 363.876 416.561 363.876C417.473 363.876 418.421 363.96 419.405 364.128C420.389 364.272 421.265 364.476 422.033 364.74V363.156C422.033 361.572 421.565 360.312 420.629 359.376C419.693 358.44 418.397 357.972 416.741 357.972C415.757 357.972 414.773 358.164 413.789 358.548C412.805 358.908 411.785 359.448 410.729 360.168L409.793 358.44C411.017 357.6 412.217 356.976 413.393 356.568C414.569 356.136 415.769 355.92 416.993 355.92C419.297 355.92 421.121 356.58 422.465 357.9C423.809 359.22 424.481 361.044 424.481 363.372V372.048C424.481 372.696 424.781 373.032 425.381 373.056V375C424.853 375.072 424.481 375.096 424.265 375.072C423.665 375.048 423.209 374.856 422.897 374.496C422.585 374.136 422.417 373.752 422.393 373.344L422.357 371.976C421.517 373.056 420.425 373.896 419.081 374.496C417.737 375.072 416.369 375.36 414.977 375.36C413.753 375.36 412.661 375.108 411.701 374.604C410.741 374.076 409.985 373.38 409.433 372.516C408.905 371.628 408.641 370.656 408.641 369.6ZM421.205 371.04C421.757 370.392 422.033 369.792 422.033 369.24V366.504C420.377 365.856 418.649 365.532 416.849 365.532C415.097 365.532 413.681 365.88 412.601 366.576C411.521 367.272 410.981 368.22 410.981 369.42C410.981 370.452 411.377 371.388 412.169 372.228C412.985 373.068 414.113 373.488 415.553 373.488C416.729 373.488 417.821 373.26 418.829 372.804C419.861 372.348 420.653 371.76 421.205 371.04ZM429.734 375V356.244H432.182V372.84H440.21V356.244H442.694V372.84H450.686V356.244H453.134V375H429.734ZM467.633 375V356.244H470.081V364.308H480.809V356.244H483.257V375H480.809V366.504H470.081V375H467.633ZM496.649 375.36C494.849 375.36 493.241 374.916 491.825 374.028C490.433 373.14 489.341 371.964 488.549 370.5C487.757 369.012 487.361 367.404 487.361 365.676C487.361 363.924 487.757 362.316 488.549 360.852C489.365 359.364 490.469 358.176 491.861 357.288C493.277 356.376 494.873 355.92 496.649 355.92C498.449 355.92 500.045 356.376 501.437 357.288C502.853 358.176 503.957 359.364 504.749 360.852C505.565 362.316 505.973 363.924 505.973 365.676C505.973 367.404 505.577 369.012 504.785 370.5C503.993 371.964 502.889 373.14 501.473 374.028C500.081 374.916 498.473 375.36 496.649 375.36ZM489.845 365.712C489.845 367.104 490.145 368.376 490.745 369.528C491.369 370.656 492.197 371.556 493.229 372.228C494.261 372.876 495.401 373.2 496.649 373.2C497.897 373.2 499.037 372.864 500.069 372.192C501.101 371.52 501.929 370.608 502.553 369.456C503.177 368.304 503.489 367.032 503.489 365.64C503.489 364.248 503.177 362.976 502.553 361.824C501.929 360.672 501.101 359.76 500.069 359.088C499.037 358.416 497.897 358.08 496.649 358.08C495.425 358.08 494.297 358.428 493.265 359.124C492.233 359.796 491.405 360.708 490.781 361.86C490.157 363.012 489.845 364.296 489.845 365.712ZM510.031 375V356.244H512.551L520.003 369.168L527.491 356.244H529.903V375H527.563V359.916L520.795 371.652H519.211L512.371 359.916V375H510.031ZM543.409 375.36C541.609 375.36 540.001 374.916 538.585 374.028C537.169 373.14 536.053 371.952 535.237 370.464C534.421 368.976 534.013 367.344 534.013 365.568C534.013 363.816 534.409 362.208 535.201 360.744C536.017 359.28 537.133 358.116 538.549 357.252C539.965 356.364 541.573 355.92 543.373 355.92C545.221 355.92 546.841 356.364 548.233 357.252C549.625 358.14 550.705 359.316 551.473 360.78C552.265 362.22 552.661 363.804 552.661 365.532C552.661 365.916 552.649 366.24 552.625 366.504H536.569C536.689 367.848 537.073 369.048 537.721 370.104C538.369 371.136 539.197 371.964 540.205 372.588C541.213 373.188 542.317 373.488 543.517 373.488C544.741 373.488 545.893 373.176 546.973 372.552C548.053 371.928 548.821 371.112 549.277 370.104L551.401 370.68C551.017 371.592 550.417 372.408 549.601 373.128C548.809 373.824 547.885 374.376 546.829 374.784C545.773 375.168 544.633 375.36 543.409 375.36ZM536.497 364.74H550.357C550.261 363.396 549.889 362.208 549.241 361.176C548.593 360.12 547.765 359.304 546.757 358.728C545.749 358.128 544.633 357.828 543.409 357.828C542.185 357.828 541.069 358.128 540.061 358.728C539.053 359.304 538.225 360.12 537.577 361.176C536.953 362.208 536.593 363.396 536.497 364.74ZM566.014 375.36C564.454 375.36 563.05 374.952 561.802 374.136C560.578 373.32 559.606 372.312 558.886 371.112V382.668H556.438V356.244H558.634V359.88C559.378 358.704 560.362 357.756 561.586 357.036C562.834 356.292 564.178 355.92 565.618 355.92C566.914 355.92 568.102 356.196 569.182 356.748C570.262 357.276 571.198 357.996 571.99 358.908C572.806 359.82 573.43 360.864 573.862 362.04C574.294 363.192 574.51 364.392 574.51 365.64C574.51 367.392 574.15 369.012 573.43 370.5C572.734 371.964 571.738 373.14 570.442 374.028C569.17 374.916 567.694 375.36 566.014 375.36ZM565.33 373.2C566.698 373.2 567.874 372.84 568.858 372.12C569.866 371.376 570.646 370.428 571.198 369.276C571.75 368.124 572.026 366.912 572.026 365.64C572.026 364.296 571.714 363.048 571.09 361.896C570.466 360.744 569.626 359.82 568.57 359.124C567.538 358.428 566.362 358.08 565.042 358.08C564.226 358.08 563.362 358.296 562.45 358.728C561.562 359.136 560.77 359.7 560.074 360.42C559.402 361.116 559.006 361.884 558.886 362.724V368.484C559.438 369.804 560.302 370.92 561.478 371.832C562.654 372.744 563.938 373.2 565.33 373.2ZM592.513 375V358.44H585.817V356.244H601.657V358.44H594.961V375H592.513ZM613.089 375.36C611.289 375.36 609.681 374.916 608.265 374.028C606.849 373.14 605.733 371.952 604.917 370.464C604.101 368.976 603.693 367.344 603.693 365.568C603.693 363.816 604.089 362.208 604.881 360.744C605.697 359.28 606.813 358.116 608.229 357.252C609.645 356.364 611.253 355.92 613.053 355.92C614.901 355.92 616.521 356.364 617.913 357.252C619.305 358.14 620.385 359.316 621.153 360.78C621.945 362.22 622.341 363.804 622.341 365.532C622.341 365.916 622.329 366.24 622.305 366.504H606.249C606.369 367.848 606.753 369.048 607.401 370.104C608.049 371.136 608.877 371.964 609.885 372.588C610.893 373.188 611.997 373.488 613.197 373.488C614.421 373.488 615.573 373.176 616.653 372.552C617.733 371.928 618.501 371.112 618.957 370.104L621.081 370.68C620.697 371.592 620.097 372.408 619.281 373.128C618.489 373.824 617.565 374.376 616.509 374.784C615.453 375.168 614.313 375.36 613.089 375.36ZM606.177 364.74H620.037C619.941 363.396 619.569 362.208 618.921 361.176C618.273 360.12 617.445 359.304 616.437 358.728C615.429 358.128 614.313 357.828 613.089 357.828C611.865 357.828 610.749 358.128 609.741 358.728C608.733 359.304 607.905 360.12 607.257 361.176C606.633 362.208 606.273 363.396 606.177 364.74ZM624.318 375.108V372.876C624.942 372.876 625.506 372.708 626.01 372.372C626.538 372.036 626.994 371.448 627.378 370.608C627.786 369.768 628.11 368.604 628.35 367.116C628.59 365.628 628.746 363.744 628.818 361.464L629.034 356.244H641.202V375H638.754V358.44H631.194L631.122 361.68C631.002 365.16 630.678 367.872 630.15 369.816C629.622 371.76 628.866 373.128 627.882 373.92C626.922 374.688 625.734 375.084 624.318 375.108ZM654.714 375.36C652.914 375.36 651.306 374.916 649.89 374.028C648.474 373.14 647.358 371.952 646.542 370.464C645.726 368.976 645.318 367.344 645.318 365.568C645.318 363.816 645.714 362.208 646.506 360.744C647.322 359.28 648.438 358.116 649.854 357.252C651.27 356.364 652.878 355.92 654.678 355.92C656.526 355.92 658.146 356.364 659.538 357.252C660.93 358.14 662.01 359.316 662.778 360.78C663.57 362.22 663.966 363.804 663.966 365.532C663.966 365.916 663.954 366.24 663.93 366.504H647.874C647.994 367.848 648.378 369.048 649.026 370.104C649.674 371.136 650.502 371.964 651.51 372.588C652.518 373.188 653.622 373.488 654.822 373.488C656.046 373.488 657.198 373.176 658.278 372.552C659.358 371.928 660.126 371.112 660.582 370.104L662.706 370.68C662.322 371.592 661.722 372.408 660.906 373.128C660.114 373.824 659.19 374.376 658.134 374.784C657.078 375.168 655.938 375.36 654.714 375.36ZM647.802 364.74H661.662C661.566 363.396 661.194 362.208 660.546 361.176C659.898 360.12 659.07 359.304 658.062 358.728C657.054 358.128 655.938 357.828 654.714 357.828C653.49 357.828 652.374 358.128 651.366 358.728C650.358 359.304 649.53 360.12 648.882 361.176C648.258 362.208 647.898 363.396 647.802 364.74ZM676.383 382.668V375H675.555C673.707 375 672.099 374.58 670.731 373.74C669.363 372.876 668.307 371.736 667.563 370.32C666.819 368.904 666.447 367.356 666.447 365.676C666.447 363.972 666.819 362.412 667.563 360.996C668.331 359.58 669.399 358.44 670.767 357.576C672.135 356.712 673.731 356.28 675.555 356.28H676.383V348.72H678.831V356.28H679.659C681.483 356.28 683.079 356.712 684.447 357.576C685.815 358.44 686.871 359.58 687.615 360.996C688.383 362.412 688.767 363.972 688.767 365.676C688.767 367.356 688.395 368.904 687.651 370.32C686.907 371.736 685.851 372.876 684.483 373.74C683.115 374.58 681.507 375 679.659 375H678.831V382.668H676.383ZM675.555 372.948H676.455V358.332H675.555C674.259 358.332 673.095 358.668 672.063 359.34C671.055 359.988 670.263 360.876 669.687 362.004C669.135 363.108 668.859 364.344 668.859 365.712C668.859 367.056 669.135 368.28 669.687 369.384C670.263 370.488 671.055 371.364 672.063 372.012C673.071 372.636 674.235 372.948 675.555 372.948ZM678.723 372.948H679.659C680.979 372.948 682.143 372.636 683.151 372.012C684.159 371.364 684.939 370.488 685.491 369.384C686.067 368.28 686.355 367.056 686.355 365.712C686.355 364.344 686.067 363.108 685.491 362.004C684.939 360.876 684.147 359.988 683.115 359.34C682.107 358.668 680.955 358.332 679.659 358.332H678.723V372.948ZM700.872 375.36C699.072 375.36 697.464 374.916 696.048 374.028C694.656 373.14 693.564 371.964 692.772 370.5C691.98 369.012 691.584 367.404 691.584 365.676C691.584 363.924 691.98 362.316 692.772 360.852C693.588 359.364 694.692 358.176 696.084 357.288C697.5 356.376 699.096 355.92 700.872 355.92C702.672 355.92 704.268 356.376 705.66 357.288C707.076 358.176 708.18 359.364 708.972 360.852C709.788 362.316 710.196 363.924 710.196 365.676C710.196 367.404 709.8 369.012 709.008 370.5C708.216 371.964 707.112 373.14 705.696 374.028C704.304 374.916 702.696 375.36 700.872 375.36ZM694.068 365.712C694.068 367.104 694.368 368.376 694.968 369.528C695.592 370.656 696.42 371.556 697.452 372.228C698.484 372.876 699.624 373.2 700.872 373.2C702.12 373.2 703.26 372.864 704.292 372.192C705.324 371.52 706.152 370.608 706.776 369.456C707.4 368.304 707.712 367.032 707.712 365.64C707.712 364.248 707.4 362.976 706.776 361.824C706.152 360.672 705.324 359.76 704.292 359.088C703.26 358.416 702.12 358.08 700.872 358.08C699.648 358.08 698.52 358.428 697.488 359.124C696.456 359.796 695.628 360.708 695.004 361.86C694.38 363.012 694.068 364.296 694.068 365.712ZM714.254 375V356.244H716.702V364.308H727.43V356.244H729.878V375H727.43V366.504H716.702V375H714.254ZM733.766 369.6C733.766 368.448 734.102 367.452 734.774 366.612C735.446 365.748 736.37 365.076 737.546 364.596C738.746 364.116 740.126 363.876 741.686 363.876C742.598 363.876 743.546 363.96 744.53 364.128C745.514 364.272 746.39 364.476 747.158 364.74V363.156C747.158 361.572 746.69 360.312 745.754 359.376C744.818 358.44 743.522 357.972 741.866 357.972C740.882 357.972 739.898 358.164 738.914 358.548C737.93 358.908 736.91 359.448 735.854 360.168L734.918 358.44C736.142 357.6 737.342 356.976 738.518 356.568C739.694 356.136 740.894 355.92 742.118 355.92C744.422 355.92 746.246 356.58 747.59 357.9C748.934 359.22 749.606 361.044 749.606 363.372V372.048C749.606 372.696 749.906 373.032 750.506 373.056V375C749.978 375.072 749.606 375.096 749.39 375.072C748.79 375.048 748.334 374.856 748.022 374.496C747.71 374.136 747.542 373.752 747.518 373.344L747.482 371.976C746.642 373.056 745.55 373.896 744.206 374.496C742.862 375.072 741.494 375.36 740.102 375.36C738.878 375.36 737.786 375.108 736.826 374.604C735.866 374.076 735.11 373.38 734.558 372.516C734.03 371.628 733.766 370.656 733.766 369.6ZM746.33 371.04C746.882 370.392 747.158 369.792 747.158 369.24V366.504C745.502 365.856 743.774 365.532 741.974 365.532C740.222 365.532 738.806 365.88 737.726 366.576C736.646 367.272 736.106 368.22 736.106 369.42C736.106 370.452 736.502 371.388 737.294 372.228C738.11 373.068 739.238 373.488 740.678 373.488C741.854 373.488 742.946 373.26 743.954 372.804C744.986 372.348 745.778 371.76 746.33 371.04Z" fill="#0B0720"/>
<path d="M141.664 258V239.244H144.112V247.272H146.92L153.22 239.244H156.028L148.864 248.352L156.928 258H154.048L146.92 249.54H144.112V258H141.664ZM162.455 265.848C161.663 265.848 160.823 265.596 159.935 265.092L160.835 263.364C161.339 263.7 161.831 263.868 162.311 263.868C163.511 263.868 164.627 262.644 165.659 260.196L166.595 257.856L158.243 239.244H160.835L167.711 255.48L174.047 239.244H176.495L167.567 260.952C166.847 262.656 166.067 263.892 165.227 264.66C164.387 265.452 163.463 265.848 162.455 265.848ZM179.879 258V239.244H194.963V258H192.515V241.44H182.327V258H179.879ZM200.34 258V239.28H202.788V254.688L214.2 239.244H216.396V258H213.948V242.844L202.716 258H200.34ZM226.431 258V241.44H219.735V239.244H235.575V241.44H228.879V258H226.431ZM238.871 258V239.244H241.319V245.868H246.179C248.315 245.868 249.923 246.42 251.003 247.524C252.107 248.604 252.659 250.032 252.659 251.808C252.659 252.96 252.419 254.004 251.939 254.94C251.459 255.876 250.751 256.62 249.815 257.172C248.879 257.724 247.727 258 246.359 258H238.871ZM241.319 256.056H246.035C247.499 256.056 248.555 255.636 249.203 254.796C249.851 253.932 250.175 252.948 250.175 251.844C250.175 251.124 250.043 250.464 249.779 249.864C249.539 249.24 249.107 248.748 248.483 248.388C247.883 248.004 247.043 247.812 245.963 247.812H241.319V256.056ZM273.797 258.36C271.973 258.36 270.353 257.916 268.937 257.028C267.521 256.116 266.405 254.928 265.589 253.464C264.773 251.976 264.365 250.344 264.365 248.568C264.365 246.792 264.761 245.184 265.553 243.744C266.345 242.28 267.449 241.116 268.865 240.252C270.281 239.364 271.913 238.92 273.761 238.92C275.513 238.92 277.049 239.328 278.369 240.144C279.713 240.936 280.721 242.016 281.393 243.384L279.017 244.14C278.489 243.18 277.745 242.436 276.785 241.908C275.849 241.356 274.805 241.08 273.653 241.08C272.381 241.08 271.229 241.404 270.197 242.052C269.189 242.7 268.373 243.6 267.749 244.752C267.149 245.88 266.849 247.152 266.849 248.568C266.849 249.984 267.161 251.268 267.785 252.42C268.409 253.572 269.237 254.496 270.269 255.192C271.301 255.864 272.441 256.2 273.689 256.2C274.505 256.2 275.297 256.056 276.065 255.768C276.833 255.48 277.493 255.096 278.045 254.616C278.597 254.112 278.969 253.572 279.161 252.996L281.573 253.716C281.237 254.604 280.685 255.408 279.917 256.128C279.149 256.824 278.237 257.376 277.181 257.784C276.125 258.168 274.997 258.36 273.797 258.36ZM283.619 258.108V255.876C284.243 255.876 284.807 255.708 285.311 255.372C285.839 255.036 286.295 254.448 286.679 253.608C287.087 252.768 287.411 251.604 287.651 250.116C287.891 248.628 288.047 246.744 288.119 244.464L288.335 239.244H300.503V258H298.055V241.44H290.495L290.423 244.68C290.303 248.16 289.979 250.872 289.451 252.816C288.923 254.76 288.167 256.128 287.183 256.92C286.223 257.688 285.035 258.084 283.619 258.108ZM313.907 258.36C312.107 258.36 310.499 257.916 309.083 257.028C307.691 256.14 306.599 254.964 305.807 253.5C305.015 252.012 304.619 250.404 304.619 248.676C304.619 246.924 305.015 245.316 305.807 243.852C306.623 242.364 307.727 241.176 309.119 240.288C310.535 239.376 312.131 238.92 313.907 238.92C315.707 238.92 317.303 239.376 318.695 240.288C320.111 241.176 321.215 242.364 322.007 243.852C322.823 245.316 323.231 246.924 323.231 248.676C323.231 250.404 322.835 252.012 322.043 253.5C321.251 254.964 320.147 256.14 318.731 257.028C317.339 257.916 315.731 258.36 313.907 258.36ZM307.103 248.712C307.103 250.104 307.403 251.376 308.003 252.528C308.627 253.656 309.455 254.556 310.487 255.228C311.519 255.876 312.659 256.2 313.907 256.2C315.155 256.2 316.295 255.864 317.327 255.192C318.359 254.52 319.187 253.608 319.811 252.456C320.435 251.304 320.747 250.032 320.747 248.64C320.747 247.248 320.435 245.976 319.811 244.824C319.187 243.672 318.359 242.76 317.327 242.088C316.295 241.416 315.155 241.08 313.907 241.08C312.683 241.08 311.555 241.428 310.523 242.124C309.491 242.796 308.663 243.708 308.039 244.86C307.415 246.012 307.103 247.296 307.103 248.712ZM327.289 258V239.244H329.737V247.308H340.465V239.244H342.913V258H340.465V249.504H329.737V258H327.289ZM346.801 252.6C346.801 251.448 347.137 250.452 347.809 249.612C348.481 248.748 349.405 248.076 350.581 247.596C351.781 247.116 353.161 246.876 354.721 246.876C355.633 246.876 356.581 246.96 357.565 247.128C358.549 247.272 359.425 247.476 360.193 247.74V246.156C360.193 244.572 359.725 243.312 358.789 242.376C357.853 241.44 356.557 240.972 354.901 240.972C353.917 240.972 352.933 241.164 351.949 241.548C350.965 241.908 349.945 242.448 348.889 243.168L347.953 241.44C349.177 240.6 350.377 239.976 351.553 239.568C352.729 239.136 353.929 238.92 355.153 238.92C357.457 238.92 359.281 239.58 360.625 240.9C361.969 242.22 362.641 244.044 362.641 246.372V255.048C362.641 255.696 362.941 256.032 363.541 256.056V258C363.013 258.072 362.641 258.096 362.425 258.072C361.825 258.048 361.369 257.856 361.057 257.496C360.745 257.136 360.577 256.752 360.553 256.344L360.517 254.976C359.677 256.056 358.585 256.896 357.241 257.496C355.897 258.072 354.529 258.36 353.137 258.36C351.913 258.36 350.821 258.108 349.861 257.604C348.901 257.076 348.145 256.38 347.593 255.516C347.065 254.628 346.801 253.656 346.801 252.6ZM359.365 254.04C359.917 253.392 360.193 252.792 360.193 252.24V249.504C358.537 248.856 356.809 248.532 355.009 248.532C353.257 248.532 351.841 248.88 350.761 249.576C349.681 250.272 349.141 251.22 349.141 252.42C349.141 253.452 349.537 254.388 350.329 255.228C351.145 256.068 352.273 256.488 353.713 256.488C354.889 256.488 355.981 256.26 356.989 255.804C358.021 255.348 358.813 254.76 359.365 254.04Z" fill="black"/>
</g>
<defs>
<clipPath id="clip0">
<rect width="1000" height="563" fill="white"/>
</clipPath>
</defs>
</svg>
