<svg width="315" height="322" viewBox="0 0 315 322" fill="none" xmlns="http://www.w3.org/2000/svg">
<ellipse cx="157.5" cy="161" rx="157.5" ry="161" fill="#FFFFFE"/>
<path d="M153.359 135.82C153.15 136.331 152.858 137.609 152.732 138.682C152.398 141.186 150.641 144.048 148.843 144.968C148.006 145.428 145.915 145.683 143.532 145.683C138.011 145.683 135.628 146.654 132.993 149.925C131.655 151.611 130.693 153.4 130.358 154.728C129.94 156.466 129.648 156.926 128.853 156.926C127.055 156.926 126.176 158.868 125.424 164.438L124.713 169.65L105.601 169.804L86.5313 169.957L84.8166 171.337C81.7638 173.79 81.7638 173.841 81.7638 195.099V213.956L80.4674 215.132C78.1255 217.227 78 218.3 78 234.295C78 247.377 78.0836 249.115 78.8364 252.028C80.4256 258.211 84.2312 262.862 89.375 264.803C91.9678 265.774 92.9715 265.826 104.012 265.672L115.847 265.519L118.273 264.139C121.409 262.351 124.796 258.365 126.344 254.685C127.557 251.721 127.557 251.67 127.682 241.347L127.807 231.025H131.613H135.419L135.21 237.004C134.875 245.64 135.377 251.21 136.799 254.736C138.221 258.313 141.65 262.351 144.786 264.139L147.212 265.519L159.047 265.672C170.087 265.826 171.091 265.774 173.684 264.803C178.828 262.862 182.633 258.211 184.222 252.028C184.975 249.115 185.059 247.377 185.059 234.295C185.059 218.3 184.933 217.227 182.591 215.132L181.295 213.956V195.099C181.295 173.841 181.295 173.79 178.242 171.337L176.528 169.957L157.458 169.804L138.346 169.65L137.635 164.438C136.882 159.021 136.004 156.926 134.373 156.926C133.369 156.926 133.411 156.415 134.582 154.371C136.422 150.998 137.301 150.589 143.155 150.282C149.345 149.925 151.477 149.005 153.903 145.53C155.283 143.588 156.621 139.551 156.621 137.456C156.621 135.36 154.07 134.083 153.359 135.82ZM134.039 164.693C134.29 166.738 134.582 168.731 134.666 169.037C134.791 169.548 133.997 169.701 131.529 169.701C129.062 169.701 128.267 169.548 128.393 169.037C128.477 168.731 128.769 166.738 129.02 164.693L129.522 161.014H131.529H133.537L134.039 164.693ZM176.318 174.965C177.866 176.396 177.949 177.469 177.949 195.611V213.445L176.653 214.007C175.44 214.57 175.189 214.518 174.144 213.445C172.346 211.555 170.338 210.941 168.456 211.555C167.369 211.912 166.825 211.963 166.742 211.606C166.407 210.379 164.483 208.131 163.313 207.517C162.602 207.16 161.222 207.006 160.176 207.109L158.294 207.415V204.451C158.294 199.648 155.827 196.224 152.356 196.173C150.181 196.122 148.174 197.348 146.835 199.494C146.083 200.772 145.957 201.794 145.832 207.824C145.665 214.263 145.623 214.621 144.912 214.161C143.824 213.445 119.193 213.496 118.105 214.161C117.352 214.672 117.311 214.467 117.311 208.539C117.311 200.21 116.307 197.604 112.627 196.377C108.361 194.946 104.765 198.728 104.765 204.605V207.415L102.883 207.109C101.837 207.006 100.457 207.16 99.7463 207.517C98.5754 208.131 96.6517 210.379 96.3171 211.606C96.2335 211.963 95.6898 211.912 94.6025 211.555C92.7206 210.941 90.7132 211.555 88.915 213.445C87.8695 214.518 87.6186 214.57 86.4058 214.007L85.1094 213.445V195.611C85.1094 177.469 85.193 176.396 86.7404 174.965C87.7022 174.045 175.357 174.045 176.318 174.965ZM112.627 201.181C113.547 201.947 113.547 201.947 113.547 218.811C113.547 235.164 113.589 235.675 114.425 236.697C115.178 237.617 115.387 237.668 116.182 237.004C117.06 236.288 117.102 235.828 117.227 228.316L117.352 220.344L118.607 219.067C120.28 217.329 121.702 217.38 123.207 219.271L124.462 220.804L124.336 235.471L124.211 250.188L123.082 252.794C121.911 255.503 119.527 258.467 117.227 260C116.014 260.817 114.467 260.92 103.552 261.073L91.2569 261.226L88.6222 259.642C85.653 257.854 84.1475 255.963 82.7256 252.181C81.7638 249.575 81.7638 249.37 81.8474 234.295L81.9729 219.067L83.1438 218.249C84.1475 217.585 84.3984 217.585 85.4439 218.249L86.5731 219.067L86.7822 227.652C86.9913 235.368 87.0749 236.288 87.7858 236.953C88.4968 237.566 88.7477 237.566 89.4586 236.953C90.295 236.288 90.3369 235.624 90.546 226.681C90.7551 217.993 90.8387 217.074 91.5496 216.409C92.7206 215.387 94.0588 215.541 94.9789 216.767C95.6898 217.738 95.8153 218.913 95.9825 227.396L96.1916 236.901H97.6553H99.119L99.3281 224.995C99.5372 213.19 99.5372 213.037 100.541 212.066C101.795 210.839 102.297 210.839 103.636 212.168L104.765 213.19L104.848 224.739C104.974 235.93 105.016 236.288 105.894 237.004C106.688 237.668 106.898 237.617 107.65 236.697C108.487 235.675 108.528 235.164 108.528 218.811C108.528 201.947 108.528 201.947 109.449 201.181C109.95 200.721 110.661 200.363 111.038 200.363C111.414 200.363 112.125 200.721 112.627 201.181ZM153.945 201.436C154.698 202.458 154.739 203.378 154.572 218.76C154.447 235.982 154.53 237.157 156.329 237.157C158.21 237.157 158.294 236.544 158.294 224.79V213.599L159.34 212.372C160.552 210.839 161.222 210.788 162.518 212.066C163.522 213.037 163.522 213.19 163.731 224.995L163.94 236.901H165.404H166.867L167.076 227.396C167.244 218.913 167.369 217.738 168.08 216.767C169 215.541 170.338 215.387 171.509 216.409C172.22 217.074 172.304 217.993 172.513 226.681C172.722 235.624 172.764 236.288 173.6 236.953C174.311 237.566 174.562 237.566 175.273 236.953C175.984 236.288 176.068 235.368 176.277 227.652L176.486 219.067L177.657 218.249C178.66 217.585 178.911 217.585 179.957 218.249L181.086 219.067L181.211 234.295C181.295 249.37 181.295 249.575 180.333 252.181C178.911 255.963 177.406 257.854 174.437 259.642L171.802 261.226L159.507 261.073C148.592 260.92 147.045 260.817 145.832 260C143.532 258.467 141.148 255.503 139.977 252.794L138.848 250.188L138.722 235.471L138.597 220.804L139.852 219.271C141.357 217.38 142.779 217.329 144.452 219.067L145.748 220.395V228.163C145.748 233.529 145.915 236.135 146.25 236.544C147.003 237.464 148.592 237.259 149.094 236.186C149.345 235.522 149.512 229.032 149.512 218.556C149.512 201.998 149.512 201.947 150.432 201.181C151.728 200.056 152.983 200.159 153.945 201.436ZM135.711 218.709C135.502 219.271 135.293 221.213 135.293 223.104V226.477L131.655 226.323L127.975 226.17L127.766 222.593C127.64 220.6 127.389 218.709 127.222 218.351C126.971 217.891 127.891 217.738 131.529 217.738C135.962 217.738 136.13 217.789 135.711 218.709Z" fill="#047385"/>
<g clip-path="url(#clip0)">
<path d="M212.132 90.7278H196.645L185 104.957V137.479C185 150.543 193.697 161.171 204.388 161.171C215.079 161.171 223.777 150.543 223.777 137.479V104.957L212.132 90.7278ZM220.399 106.667V121.309H206.077V117.182H209.455V99.6707H206.077V94.8553H210.733L220.399 106.667ZM206.077 103.798V113.054H202.699V103.798H206.077ZM198.044 94.8553H202.699V99.6707H199.322V117.182H202.699V121.309H188.378V106.667L198.044 94.8553ZM204.388 157.043C195.56 157.043 188.378 148.267 188.378 137.479V125.437H220.399V137.479C220.399 148.267 213.217 157.043 204.388 157.043Z" fill="#047385"/>
</g>
<defs>
<clipPath id="clip0">
<rect width="57.647" height="70.4431" fill="white" transform="translate(185 90.7278)"/>
</clipPath>
</defs>
</svg>
