<svg width="315" height="322" viewBox="0 0 315 322" fill="none" xmlns="http://www.w3.org/2000/svg">
<ellipse opacity="0.9" cx="157.5" cy="161" rx="157.5" ry="161" fill="url(#paint0_linear)"/>
<path d="M155.359 134.82C155.15 135.331 154.858 136.609 154.732 137.682C154.398 140.186 152.641 143.048 150.843 143.968C150.006 144.428 147.915 144.683 145.532 144.683C140.011 144.683 137.628 145.654 134.993 148.925C133.655 150.611 132.693 152.4 132.358 153.728C131.94 155.466 131.648 155.926 130.853 155.926C129.055 155.926 128.176 157.868 127.424 163.438L126.713 168.65L107.601 168.804L88.5313 168.957L86.8166 170.337C83.7638 172.79 83.7638 172.841 83.7638 194.1V212.956L82.4674 214.132C80.1255 216.227 80 217.3 80 233.295C80 246.378 80.0836 248.115 80.8364 251.028C82.4256 257.211 86.2312 261.862 91.375 263.804C93.9678 264.775 94.9715 264.826 106.012 264.672L117.847 264.519L120.273 263.139C123.409 261.351 126.796 257.365 128.344 253.685C129.557 250.721 129.557 250.67 129.682 240.347L129.807 230.025H133.613H137.419L137.21 236.004C136.875 244.64 137.377 250.21 138.799 253.736C140.221 257.314 143.65 261.351 146.786 263.139L149.212 264.519L161.047 264.672C172.087 264.826 173.091 264.775 175.684 263.804C180.828 261.862 184.633 257.211 186.222 251.028C186.975 248.115 187.059 246.378 187.059 233.295C187.059 217.3 186.933 216.227 184.591 214.132L183.295 212.956V194.1C183.295 172.841 183.295 172.79 180.242 170.337L178.528 168.957L159.458 168.804L140.346 168.65L139.635 163.438C138.882 158.021 138.004 155.926 136.373 155.926C135.369 155.926 135.411 155.415 136.582 153.371C138.422 149.998 139.301 149.589 145.155 149.283C151.345 148.925 153.477 148.005 155.903 144.53C157.283 142.588 158.621 138.551 158.621 136.456C158.621 134.361 156.07 133.083 155.359 134.82ZM136.039 163.693C136.29 165.738 136.582 167.731 136.666 168.037C136.791 168.548 135.997 168.702 133.529 168.702C131.062 168.702 130.267 168.548 130.393 168.037C130.477 167.731 130.769 165.738 131.02 163.693L131.522 160.014H133.529H135.537L136.039 163.693ZM178.318 173.965C179.866 175.396 179.949 176.469 179.949 194.611V212.445L178.653 213.008C177.44 213.57 177.189 213.519 176.144 212.445C174.346 210.555 172.338 209.941 170.456 210.555C169.369 210.912 168.825 210.963 168.742 210.606C168.407 209.379 166.483 207.131 165.313 206.517C164.602 206.16 163.222 206.006 162.176 206.109L160.294 206.415V203.451C160.294 198.648 157.827 195.224 154.356 195.173C152.181 195.122 150.174 196.348 148.835 198.494C148.083 199.772 147.957 200.794 147.832 206.824C147.665 213.263 147.623 213.621 146.912 213.161C145.824 212.445 121.193 212.496 120.105 213.161C119.352 213.672 119.311 213.467 119.311 207.54C119.311 199.21 118.307 196.604 114.627 195.377C110.361 193.946 106.765 197.728 106.765 203.605V206.415L104.883 206.109C103.837 206.006 102.457 206.16 101.746 206.517C100.575 207.131 98.6517 209.379 98.3171 210.606C98.2335 210.963 97.6898 210.912 96.6025 210.555C94.7206 209.941 92.7132 210.555 90.915 212.445C89.8695 213.519 89.6186 213.57 88.4058 213.008L87.1094 212.445V194.611C87.1094 176.469 87.193 175.396 88.7404 173.965C89.7022 173.045 177.357 173.045 178.318 173.965ZM114.627 200.181C115.547 200.947 115.547 200.947 115.547 217.811C115.547 234.164 115.589 234.675 116.425 235.697C117.178 236.617 117.387 236.668 118.182 236.004C119.06 235.288 119.102 234.828 119.227 227.316L119.352 219.344L120.607 218.067C122.28 216.329 123.702 216.38 125.207 218.271L126.462 219.804L126.336 234.471L126.211 249.188L125.082 251.794C123.911 254.503 121.527 257.467 119.227 259C118.014 259.818 116.467 259.92 105.552 260.073L93.2569 260.226L90.6222 258.642C87.653 256.854 86.1475 254.963 84.7256 251.181C83.7638 248.575 83.7638 248.371 83.8474 233.295L83.9729 218.067L85.1438 217.249C86.1475 216.585 86.3984 216.585 87.4439 217.249L88.5731 218.067L88.7822 226.652C88.9913 234.368 89.0749 235.288 89.7858 235.953C90.4968 236.566 90.7477 236.566 91.4586 235.953C92.295 235.288 92.3369 234.624 92.546 225.681C92.7551 216.994 92.8387 216.074 93.5496 215.409C94.7206 214.387 96.0588 214.541 96.9789 215.767C97.6898 216.738 97.8153 217.913 97.9825 226.396L98.1916 235.902H99.6553H101.119L101.328 223.995C101.537 212.19 101.537 212.037 102.541 211.066C103.795 209.839 104.297 209.839 105.636 211.168L106.765 212.19L106.848 223.739C106.974 234.931 107.016 235.288 107.894 236.004C108.688 236.668 108.898 236.617 109.65 235.697C110.487 234.675 110.528 234.164 110.528 217.811C110.528 200.947 110.528 200.947 111.449 200.181C111.95 199.721 112.661 199.363 113.038 199.363C113.414 199.363 114.125 199.721 114.627 200.181ZM155.945 200.436C156.698 201.458 156.739 202.378 156.572 217.76C156.447 234.982 156.53 236.157 158.329 236.157C160.21 236.157 160.294 235.544 160.294 223.79V212.599L161.34 211.372C162.552 209.839 163.222 209.788 164.518 211.066C165.522 212.037 165.522 212.19 165.731 223.995L165.94 235.902H167.404H168.867L169.076 226.396C169.244 217.913 169.369 216.738 170.08 215.767C171 214.541 172.338 214.387 173.509 215.409C174.22 216.074 174.304 216.994 174.513 225.681C174.722 234.624 174.764 235.288 175.6 235.953C176.311 236.566 176.562 236.566 177.273 235.953C177.984 235.288 178.068 234.368 178.277 226.652L178.486 218.067L179.657 217.249C180.66 216.585 180.911 216.585 181.957 217.249L183.086 218.067L183.211 233.295C183.295 248.371 183.295 248.575 182.333 251.181C180.911 254.963 179.406 256.854 176.437 258.642L173.802 260.226L161.507 260.073C150.592 259.92 149.045 259.818 147.832 259C145.532 257.467 143.148 254.503 141.977 251.794L140.848 249.188L140.722 234.471L140.597 219.804L141.852 218.271C143.357 216.38 144.779 216.329 146.452 218.067L147.748 219.395V227.163C147.748 232.529 147.915 235.135 148.25 235.544C149.003 236.464 150.592 236.259 151.094 235.186C151.345 234.522 151.512 228.032 151.512 217.556C151.512 200.998 151.512 200.947 152.432 200.181C153.728 199.056 154.983 199.159 155.945 200.436ZM137.711 217.709C137.502 218.271 137.293 220.213 137.293 222.104V225.477L133.655 225.323L129.975 225.17L129.766 221.593C129.64 219.6 129.389 217.709 129.222 217.351C128.971 216.891 129.891 216.738 133.529 216.738C137.962 216.738 138.13 216.789 137.711 217.709Z" fill="#F2F5FE"/>
<g clip-path="url(#clip0)">
<path d="M214.132 89.7278H198.645L187 103.957V136.479C187 149.543 195.697 160.171 206.388 160.171C217.079 160.171 225.777 149.543 225.777 136.479V103.957L214.132 89.7278ZM222.399 105.667V120.309H208.077V116.182H211.455V98.6708H208.077V93.8554H212.733L222.399 105.667ZM208.077 102.798V112.054H204.699V102.798H208.077ZM200.044 93.8554H204.699V98.6708H201.322V116.182H204.699V120.309H190.378V105.667L200.044 93.8554ZM206.388 156.043C197.56 156.043 190.378 147.267 190.378 136.479V124.437H222.399V136.479C222.399 147.267 215.217 156.043 206.388 156.043Z" fill="#F2F5FE"/>
</g>
<defs>
<linearGradient id="paint0_linear" x1="157" y1="72" x2="81" y2="292" gradientUnits="userSpaceOnUse">
<stop stop-color="#50C4E8"/>
<stop offset="1" stop-color="#50D3E8" stop-opacity="0"/>
<stop offset="1" stop-color="#50D3E8" stop-opacity="0"/>
</linearGradient>
<clipPath id="clip0">
<rect width="57.647" height="70.4431" fill="white" transform="translate(187 89.7278)"/>
</clipPath>
</defs>
</svg>
