<svg width="315" height="322" viewBox="0 0 315 322" fill="none" xmlns="http://www.w3.org/2000/svg">
<ellipse cx="157.5" cy="161" rx="157.5" ry="161" fill="#FFFFFE"/>
<g clip-path="url(#clip0)">
<path d="M238.18 55.5591C235.961 55.5591 233.965 56.8347 232.84 58.972C232.484 59.6429 232.678 60.5141 233.271 60.9147C233.868 61.3154 234.634 61.0961 234.986 60.4234C235.656 59.1534 236.85 58.3938 238.18 58.3938C239.511 58.3938 240.705 59.1534 241.375 60.4234C241.724 61.0905 242.489 61.3172 243.089 60.9147C243.681 60.5141 243.876 59.6429 243.521 58.972C242.396 56.8347 240.4 55.5591 238.18 55.5591V55.5591Z" fill="#047385"/>
<path d="M245.12 56.5133C245.546 57.1237 246.331 57.2333 246.876 56.7458C247.418 56.2601 247.51 55.3681 247.081 54.7539C244.924 51.6623 241.681 49.8896 238.181 49.8896C234.681 49.8896 231.437 51.6623 229.28 54.7558C228.851 55.37 228.943 56.2601 229.485 56.7476C230.03 57.2352 230.815 57.1275 231.241 56.5152C232.923 54.1057 235.451 52.7243 238.181 52.7243C240.91 52.7243 243.438 54.1057 245.12 56.5133V56.5133Z" fill="#047385"/>
<path d="M213.585 87.6853H214.002V89.575C214.002 90.6182 214.748 91.4648 215.67 91.4648C216.592 91.4648 217.337 90.6182 217.337 89.575V87.6853H240.682V89.575C240.682 90.6182 241.427 91.4648 242.349 91.4648C243.271 91.4648 244.016 90.6182 244.016 89.575V87.6853H244.433C246.963 87.6853 249.019 85.3552 249.019 82.4884V75.8741C249.019 73.0074 246.963 70.6773 244.433 70.6773H239.848V63.3544C239.848 62.3112 239.102 61.4646 238.18 61.4646C237.258 61.4646 236.513 62.3112 236.513 63.3544V70.6773H213.585C211.056 70.6773 209 73.0074 209 75.8741V82.4884C209 85.3552 211.056 87.6853 213.585 87.6853ZM244.016 79.1813C244.016 80.746 242.896 82.0159 241.515 82.0159C240.135 82.0159 239.014 80.746 239.014 79.1813C239.014 77.6165 240.135 76.3466 241.515 76.3466C242.896 76.3466 244.016 77.6165 244.016 79.1813ZM224.841 76.3466C226.221 76.3466 227.342 77.6165 227.342 79.1813C227.342 80.746 226.221 82.0159 224.841 82.0159C223.46 82.0159 222.34 80.746 222.34 79.1813C222.34 77.6165 223.46 76.3466 224.841 76.3466ZM216.504 76.3466C217.884 76.3466 219.005 77.6165 219.005 79.1813C219.005 80.746 217.884 82.0159 216.504 82.0159C215.123 82.0159 214.002 80.746 214.002 79.1813C214.002 77.6165 215.123 76.3466 216.504 76.3466Z" fill="#047385"/>
</g>
<g clip-path="url(#clip1)">
<path d="M102.684 59.8896H69.3349C67.4965 59.8896 66 61.5848 66 63.6692V90.1261C66 92.2106 67.4965 93.9057 69.3349 93.9057H81.0108C80.9758 95.4132 80.7218 97.8246 79.7679 98.9633C79.4178 99.3803 79.0172 99.575 78.5059 99.575C78.045 99.575 77.6721 99.9977 77.6721 100.52C77.6721 101.042 78.045 101.465 78.5059 101.465H93.5129C93.9738 101.465 94.3467 101.042 94.3467 100.52C94.3467 99.9977 93.9738 99.575 93.5129 99.575C93.0016 99.575 92.601 99.3812 92.2526 98.9642C91.301 97.8312 91.0454 95.4163 91.009 93.9057H102.684C104.522 93.9057 106.019 92.2107 106.019 90.1261V63.6692C106.019 61.5848 104.522 59.8896 102.684 59.8896ZM86.0094 92.0214C85.0877 92.0214 84.337 91.1706 84.337 90.126C84.337 89.0815 85.0877 88.2307 86.0094 88.2307C86.9311 88.2307 87.6817 89.0815 87.6817 90.126C87.6817 91.1706 86.9311 92.0214 86.0094 92.0214ZM69.3349 86.3465V63.6692H102.684L102.685 86.3465H69.3349Z" fill="#047385"/>
</g>
<path d="M203 78H183.813V97M183.813 97L174 86M183.813 97L196.08 86" stroke="#047385"/>
<path d="M234.949 196L234.949 174.88L195 174.88M195 174.88L213 165M195 174.88L213 184" stroke="#047385"/>
<path d="M72 198V176.225L119.229 177.41M119.229 177.41L98.2956 167M119.229 177.41L97.6291 185.992" stroke="#047385"/>
<g clip-path="url(#clip2)">
<path d="M224.402 214.58H227.465V229.883H224.402V214.58ZM234.241 214.466C232.378 214.466 231.057 214.602 230.114 214.786V229.883H233.14V224.411C233.422 224.456 233.78 224.481 234.182 224.481C235.984 224.481 237.526 223.979 238.569 222.865C239.37 221.999 239.811 220.731 239.811 219.231C239.811 217.734 239.227 216.465 238.369 215.692C237.467 214.874 236.122 214.466 234.241 214.466ZM234.158 221.82C233.719 221.82 233.397 221.798 233.138 221.728V217.214C233.357 217.146 233.778 217.077 234.401 217.077C235.922 217.077 236.785 217.918 236.785 219.323C236.785 220.89 235.782 221.82 234.158 221.82ZM231.01 204C221.924 204 214.56 212.345 214.56 222.64C214.56 232.936 231.01 249.355 231.01 249.355C231.01 249.355 247.459 232.938 247.459 222.643C247.459 212.347 240.096 204 231.01 204ZM231.051 233.976C225.019 233.976 220.13 228.432 220.13 221.594C220.13 214.757 225.021 209.216 231.051 209.216C237.085 209.216 241.972 214.759 241.972 221.594C241.972 228.43 237.083 233.976 231.051 233.976Z" fill="#047385"/>
</g>
<path d="M87 244C78.7294 244 72 251.627 72 261C72 270.373 78.7294 278 87 278C95.2706 278 102 270.373 102 261C102 251.627 95.2706 244 87 244ZM77.625 271.625L84.5944 259.776L88.08 263.726L77.625 271.625ZM89.4056 262.224L85.92 258.274L96.375 250.375L89.4056 262.224Z" fill="#047385"/>
<path d="M66.9999 226.645C69.7505 226.645 71.9803 224.117 71.9803 221C71.9803 217.883 69.7505 215.355 66.9999 215.355C64.2492 215.355 62.0194 217.883 62.0194 221C62.0194 224.117 64.2492 226.645 66.9999 226.645Z" fill="#047385"/>
<path d="M60.4175 219.367C61.0792 215.938 63.7791 213.363 67.0002 213.363H80.4101C79.6985 211.762 78.7577 210.283 77.6069 208.979C74.7737 205.768 71.0069 204 67.0002 204C62.9936 204 59.2268 205.768 56.3936 208.979C56.1211 209.288 55.8607 209.607 55.6121 209.934L60.4175 219.367Z" fill="#047385"/>
<path d="M69.0438 228.277C68.3989 228.51 67.7122 228.637 67 228.637C64.497 228.637 62.3085 227.082 61.1466 224.78C61.1383 224.765 61.13 224.751 61.1223 224.736L54.4616 211.661C52.8602 214.41 52 217.63 52 221C52 225.541 53.5603 229.81 56.3934 233.021C58.5638 235.481 61.2826 237.093 64.2371 237.713L69.0438 228.277Z" fill="#047385"/>
<path d="M71.5338 215.355C72.8874 216.753 73.7381 218.766 73.7381 221C73.7381 222.405 73.4012 223.722 72.8147 224.854C72.8087 224.867 72.8036 224.881 72.7971 224.894L66.1349 237.971C66.4219 237.99 66.7102 238 66.9999 238C71.0065 238 74.7733 236.232 77.6065 233.021C80.4396 229.81 81.9998 225.541 81.9998 221C81.9998 219.047 81.7105 217.145 81.1563 215.355H71.5338Z" fill="#047385"/>
<path d="M119.701 214.548C119.592 214.529 119.486 214.594 119.44 214.708L119.105 215.55C118.977 214.443 118.741 212.662 118.428 211.493C117.952 209.694 116.944 208.531 116.902 208.483C116.825 208.395 116.706 208.375 116.609 208.435C116.513 208.494 116.464 208.619 116.487 208.74L116.748 210.072C116.121 209.329 115.112 208.262 114.115 207.742C113.875 207.61 113.631 207.488 113.417 207.383C111.25 205.201 108.47 204 105.586 204C101.524 204 97.8214 206.306 95.6294 210.185C95.4232 209.996 95.134 209.666 94.9683 209.19C94.6669 208.353 94.5143 207.412 94.5127 207.403C94.4965 207.302 94.4328 207.219 94.3466 207.187C94.2606 207.155 94.166 207.18 94.1006 207.251C92.2942 209.214 92.4735 212.275 92.5409 212.968C92.317 213.239 91.6843 214.043 91.0451 215.202C90.2514 216.642 90.0111 219.16 90.0013 219.267C89.9904 219.385 90.0474 219.499 90.1431 219.549C90.2392 219.599 90.3522 219.574 90.4244 219.487L90.953 218.854C90.8954 219.096 90.8374 219.373 90.7838 219.682C90.5456 221.017 90.6153 223.087 90.6183 223.175C90.6228 223.303 90.704 223.411 90.815 223.437C90.926 223.463 91.038 223.399 91.0864 223.283L91.3975 222.536C91.6269 224.353 92.5074 228.22 95.8839 231.782C98.3847 234.422 101.863 235.936 105.427 235.936C105.427 235.936 105.427 235.936 105.428 235.936C108.887 235.936 112.153 234.534 114.872 231.882C118.088 228.742 119.285 224.259 119.724 221.051C120.197 217.587 119.92 214.902 119.908 214.79C119.895 214.665 119.811 214.566 119.701 214.548ZM114.211 214.648C114.215 214.653 114.548 215.148 114.621 216.417C114.671 217.367 114.499 218.885 114.391 219.716L113.736 218.854C113.665 218.761 113.549 218.732 113.45 218.781C113.351 218.831 113.292 218.948 113.305 219.07C113.308 219.091 113.531 221.236 113.155 223.101C112.977 223.977 112.699 224.607 112.46 225.023L112.552 223.618C112.561 223.484 112.483 223.361 112.367 223.328C112.252 223.294 112.132 223.36 112.083 223.483C112.072 223.511 110.936 226.274 107.826 227.368C107.392 227.52 106.934 227.597 106.466 227.597C104.809 227.597 103.302 226.638 102.448 225.965C102.522 225.969 102.595 225.971 102.668 225.971C103.891 225.971 104.831 225.374 105.587 224.894C105.786 224.768 105.973 224.649 106.154 224.548C107.24 223.929 107.745 223.877 108.133 223.877C108.338 223.877 108.496 223.741 108.546 223.523C108.667 222.987 108.099 222.032 107.397 221.594C107.049 221.38 106.677 221.28 106.226 221.28C105.509 221.28 104.62 221.536 103.346 221.927C103.112 221.998 102.881 222.034 102.66 222.034C101.879 222.034 101.363 221.606 101.068 221.247C100.67 220.764 100.443 220.125 100.477 219.581C100.492 219.333 100.578 219.079 101.099 219.079C101.561 219.079 102.075 219.295 102.08 219.297C102.108 219.309 102.138 219.315 102.167 219.315C102.167 219.315 102.168 219.315 102.169 219.315C102.304 219.315 102.415 219.19 102.415 219.036C102.415 219.021 102.413 219.006 102.411 218.992L102.343 216.551C102.591 216.371 103.185 215.935 103.757 215.464C105.139 214.326 105.324 213.89 105.176 213.559C104.98 213.109 104.464 213.036 103.867 212.951C103.525 212.903 103.138 212.848 102.788 212.717C102.06 212.442 101.58 211.729 101.47 211.554C101.448 211.407 101.394 210.913 101.608 210.491C101.839 210.03 102.64 209.316 102.929 209.08C103.012 209.012 103.049 208.894 103.023 208.782C102.997 208.671 102.913 208.589 102.812 208.577C102.787 208.573 102.052 208.49 100.852 208.941C99.8751 209.312 99.1172 209.913 98.8561 210.136C98.7438 210.111 98.5515 210.077 98.2329 210.039C100.104 207.645 102.758 206.281 105.586 206.281C107.661 206.281 109.622 206.997 111.292 208.357L109.639 208.67C109.526 208.691 109.442 208.797 109.434 208.926C109.426 209.054 109.497 209.172 109.606 209.211C109.628 209.219 111.83 210.007 113.472 211.443C113.838 211.767 114.172 212.187 114.466 212.691C114.74 213.357 114.955 214.044 115.107 214.741L114.554 214.254C114.456 214.167 114.317 214.179 114.23 214.279C114.142 214.378 114.135 214.538 114.211 214.648Z" fill="#047385"/>
<path d="M176.211 101H121V194.377H176.211L209.337 146.808L176.211 101Z" fill="#047385" stroke="#047385"/>
<path opacity="0.8" d="M140.687 172L152.527 153.056C149.413 152.245 146.981 150.667 145.231 148.32C143.525 145.973 142.671 143.179 142.671 139.936C142.671 137.419 143.29 135.157 144.527 133.152C145.765 131.147 147.493 129.547 149.711 128.352C151.973 127.157 154.618 126.56 157.647 126.56H172.879V172H167.119V153.76H158.479L147.343 172H140.687ZM158.095 148.768H167.119V131.552H158.351C155.493 131.552 153.146 132.299 151.311 133.792C149.477 135.285 148.559 137.333 148.559 139.936C148.559 142.539 149.391 144.672 151.055 146.336C152.719 147.957 155.066 148.768 158.095 148.768Z" fill="#FFFFFE"/>
<path d="M109 77H132V96M132 96L140 85M132 96L122 85" stroke="#047385"/>
<defs>
<clipPath id="clip0">
<rect width="40.0188" height="45.3546" fill="white" transform="translate(209 48)"/>
</clipPath>
<clipPath id="clip1">
<rect width="40.0188" height="45.3546" fill="white" transform="translate(66 58)"/>
</clipPath>
<clipPath id="clip2">
<rect width="40.0188" height="45.3546" fill="white" transform="translate(211 204)"/>
</clipPath>
</defs>
</svg>
