<svg width="315" height="322" viewBox="0 0 315 322" fill="none" xmlns="http://www.w3.org/2000/svg">
<ellipse opacity="0.9" cx="157.5" cy="161" rx="157.5" ry="161" fill="url(#paint0_linear)"/>
<g clip-path="url(#clip0)">
<path d="M238.181 48.5591C235.961 48.5591 233.965 49.8347 232.84 51.972C232.485 52.6429 232.678 53.5141 233.272 53.9147C233.869 54.3154 234.634 54.0961 234.986 53.4234C235.656 52.1534 236.85 51.3938 238.181 51.3938C239.511 51.3938 240.705 52.1534 241.376 53.4234C241.724 54.0905 242.49 54.3172 243.09 53.9147C243.682 53.5141 243.877 52.6429 243.522 51.972C242.396 49.8347 240.4 48.5591 238.181 48.5591V48.5591Z" fill="#F2F5FE"/>
<path d="M245.12 49.5134C245.546 50.1238 246.331 50.2334 246.876 49.7458C247.418 49.2601 247.51 48.3682 247.081 47.754C244.924 44.6623 241.68 42.8897 238.18 42.8897C234.68 42.8897 231.437 44.6623 229.28 47.7559C228.851 48.3701 228.943 49.2601 229.485 49.7477C230.03 50.2353 230.815 50.1276 231.241 49.5153C232.923 47.1058 235.451 45.7244 238.18 45.7244C240.91 45.7244 243.438 47.1058 245.12 49.5134V49.5134Z" fill="#F2F5FE"/>
<path d="M213.585 80.6853H214.002V82.5751C214.002 83.6182 214.748 84.4649 215.67 84.4649C216.592 84.4649 217.337 83.6182 217.337 82.5751V80.6853H240.682V82.5751C240.682 83.6182 241.427 84.4649 242.349 84.4649C243.271 84.4649 244.016 83.6182 244.016 82.5751V80.6853H244.433C246.963 80.6853 249.019 78.3552 249.019 75.4884V68.8742C249.019 66.0074 246.963 63.6773 244.433 63.6773H239.848V56.3544C239.848 55.3113 239.102 54.4647 238.18 54.4647C237.258 54.4647 236.513 55.3113 236.513 56.3544V63.6773H213.585C211.056 63.6773 209 66.0074 209 68.8742V75.4884C209 78.3552 211.056 80.6853 213.585 80.6853ZM244.016 72.1813C244.016 73.7461 242.896 75.016 241.515 75.016C240.135 75.016 239.014 73.7461 239.014 72.1813C239.014 70.6166 240.135 69.3467 241.515 69.3467C242.896 69.3467 244.016 70.6166 244.016 72.1813ZM224.841 69.3467C226.221 69.3467 227.342 70.6166 227.342 72.1813C227.342 73.7461 226.221 75.016 224.841 75.016C223.46 75.016 222.34 73.7461 222.34 72.1813C222.34 70.6166 223.46 69.3467 224.841 69.3467ZM216.504 69.3467C217.884 69.3467 219.005 70.6166 219.005 72.1813C219.005 73.7461 217.884 75.016 216.504 75.016C215.123 75.016 214.002 73.7461 214.002 72.1813C214.002 70.6166 215.123 69.3467 216.504 69.3467Z" fill="#F2F5FE"/>
</g>
<g clip-path="url(#clip1)">
<path d="M102.684 52.8898H69.3349C67.4965 52.8898 66 54.5849 66 56.6694V83.1262C66 85.2107 67.4965 86.9058 69.3349 86.9058H81.0108C80.9758 88.4133 80.7218 90.8247 79.7679 91.9634C79.4178 92.3804 79.0172 92.5752 78.5059 92.5752C78.045 92.5752 77.6721 92.9978 77.6721 93.5201C77.6721 94.0424 78.045 94.465 78.5059 94.465H93.5129C93.9738 94.465 94.3467 94.0424 94.3467 93.5201C94.3467 92.9978 93.9738 92.5752 93.5129 92.5752C93.0016 92.5752 92.601 92.3813 92.2526 91.9643C91.301 90.8313 91.0454 88.4164 91.009 86.9058H102.684C104.522 86.9058 106.019 85.2108 106.019 83.1262V56.6694C106.019 54.5849 104.522 52.8898 102.684 52.8898ZM86.0094 85.0215C85.0877 85.0215 84.337 84.1707 84.337 83.1262C84.337 82.0816 85.0877 81.2308 86.0094 81.2308C86.9311 81.2308 87.6817 82.0816 87.6817 83.1262C87.6817 84.1707 86.9311 85.0215 86.0094 85.0215ZM69.3349 79.3467V56.6694H102.684L102.685 79.3467H69.3349Z" fill="#F2F5FE"/>
</g>
<path d="M203 71H183.813V90M183.813 90L174 79M183.813 90L196.08 79" stroke="#F2F5FE"/>
<path d="M234.949 189L234.949 167.88L195 167.88M195 167.88L213 158M195 167.88L213 177" stroke="#F2F5FE"/>
<path d="M72 191V169.225L119.229 170.41M119.229 170.41L98.2956 160M119.229 170.41L97.6291 178.992" stroke="#F2F5FE"/>
<g clip-path="url(#clip2)">
<path d="M224.402 207.58H227.466V222.883H224.402V207.58ZM234.242 207.466C232.379 207.466 231.057 207.602 230.114 207.786V222.883H233.14V217.411C233.423 217.456 233.781 217.481 234.182 217.481C235.984 217.481 237.527 216.979 238.569 215.865C239.37 214.999 239.811 213.731 239.811 212.231C239.811 210.734 239.228 209.465 238.369 208.692C237.467 207.874 236.123 207.466 234.242 207.466ZM234.159 214.82C233.719 214.82 233.397 214.798 233.138 214.728V210.214C233.358 210.146 233.779 210.077 234.402 210.077C235.923 210.077 236.785 210.918 236.785 212.323C236.785 213.89 235.782 214.82 234.159 214.82ZM231.01 197C221.924 197 214.561 205.345 214.561 215.64C214.561 225.936 231.01 242.355 231.01 242.355C231.01 242.355 247.459 225.938 247.459 215.643C247.459 205.347 240.096 197 231.01 197ZM231.051 226.976C225.019 226.976 220.13 221.432 220.13 214.594C220.13 207.757 225.021 202.216 231.051 202.216C237.086 202.216 241.973 207.759 241.973 214.594C241.973 221.43 237.084 226.976 231.051 226.976Z" fill="#F2F5FE"/>
</g>
<g clip-path="url(#clip3)">
<path d="M87 237C78.7294 237 72 244.627 72 254C72 263.373 78.7294 271 87 271C95.2706 271 102 263.373 102 254C102 244.627 95.2706 237 87 237ZM77.625 264.625L84.5944 252.776L88.08 256.726L77.625 264.625ZM89.4056 255.224L85.92 251.274L96.375 243.375L89.4056 255.224Z" fill="#F2F5FE"/>
</g>
<g clip-path="url(#clip4)">
<path d="M67 219.645C69.7506 219.645 71.9805 217.117 71.9805 214C71.9805 210.883 69.7506 208.355 67 208.355C64.2494 208.355 62.0195 210.883 62.0195 214C62.0195 217.117 64.2494 219.645 67 219.645Z" fill="#F2F5FE"/>
<path d="M60.4177 212.367C61.0793 208.938 63.7793 206.363 67.0004 206.363H80.4102C79.6987 204.762 78.7579 203.283 77.6071 201.979C74.7739 198.768 71.0071 197 67.0004 197C62.9938 197 59.227 198.768 56.3938 201.979C56.1213 202.288 55.8609 202.607 55.6123 202.934L60.4177 212.367Z" fill="#F2F5FE"/>
<path d="M69.0438 221.277C68.3989 221.51 67.7122 221.637 67 221.637C64.497 221.637 62.3085 220.082 61.1466 217.78C61.1383 217.765 61.13 217.751 61.1223 217.736L54.4616 204.661C52.8602 207.41 52 210.63 52 214C52 218.541 53.5603 222.81 56.3934 226.021C58.5638 228.481 61.2826 230.093 64.2371 230.713L69.0438 221.277Z" fill="#F2F5FE"/>
<path d="M71.5336 208.355C72.8872 209.753 73.7379 211.766 73.7379 214C73.7379 215.405 73.401 216.722 72.8145 217.854C72.8085 217.867 72.8034 217.881 72.7969 217.894L66.1348 230.971C66.4217 230.99 66.71 231 66.9997 231C71.0063 231 74.7731 229.232 77.6063 226.021C80.4394 222.81 81.9997 218.541 81.9997 214C81.9997 212.047 81.7103 210.145 81.1561 208.355H71.5336Z" fill="#F2F5FE"/>
</g>
<path d="M119.701 207.548C119.592 207.529 119.486 207.594 119.44 207.708L119.105 208.55C118.977 207.443 118.741 205.662 118.428 204.493C117.952 202.694 116.944 201.531 116.902 201.483C116.825 201.395 116.706 201.375 116.609 201.435C116.513 201.494 116.464 201.619 116.487 201.74L116.748 203.072C116.121 202.329 115.112 201.262 114.115 200.742C113.875 200.61 113.631 200.488 113.417 200.383C111.25 198.201 108.47 197 105.586 197C101.524 197 97.8214 199.306 95.6294 203.185C95.4232 202.996 95.134 202.666 94.9683 202.19C94.6669 201.353 94.5143 200.412 94.5127 200.403C94.4965 200.302 94.4328 200.219 94.3466 200.187C94.2606 200.155 94.166 200.18 94.1006 200.251C92.2942 202.214 92.4735 205.275 92.5409 205.968C92.317 206.239 91.6843 207.043 91.0451 208.202C90.2514 209.642 90.0111 212.16 90.0013 212.267C89.9904 212.385 90.0474 212.499 90.1431 212.549C90.2392 212.599 90.3522 212.574 90.4244 212.487L90.953 211.854C90.8954 212.096 90.8374 212.373 90.7838 212.682C90.5456 214.017 90.6153 216.087 90.6183 216.175C90.6228 216.303 90.704 216.411 90.815 216.437C90.926 216.463 91.038 216.399 91.0864 216.283L91.3975 215.536C91.6269 217.353 92.5074 221.22 95.8839 224.782C98.3847 227.422 101.863 228.936 105.427 228.936C105.427 228.936 105.427 228.936 105.428 228.936C108.887 228.936 112.153 227.534 114.872 224.882C118.088 221.742 119.285 217.259 119.724 214.051C120.197 210.587 119.92 207.902 119.908 207.79C119.895 207.665 119.811 207.566 119.701 207.548ZM114.211 207.648C114.215 207.653 114.548 208.148 114.621 209.417C114.671 210.367 114.499 211.885 114.391 212.716L113.736 211.854C113.665 211.761 113.549 211.732 113.45 211.781C113.351 211.831 113.292 211.948 113.305 212.07C113.308 212.091 113.531 214.236 113.155 216.101C112.977 216.977 112.699 217.607 112.46 218.023L112.552 216.618C112.561 216.484 112.483 216.361 112.367 216.328C112.252 216.294 112.132 216.36 112.083 216.483C112.072 216.511 110.936 219.274 107.826 220.368C107.392 220.52 106.934 220.597 106.466 220.597C104.809 220.597 103.302 219.638 102.448 218.965C102.522 218.969 102.595 218.971 102.668 218.971C103.891 218.971 104.831 218.374 105.587 217.894C105.786 217.768 105.973 217.649 106.154 217.548C107.24 216.929 107.745 216.877 108.133 216.877C108.338 216.877 108.496 216.741 108.546 216.523C108.667 215.987 108.099 215.032 107.397 214.594C107.049 214.38 106.677 214.28 106.226 214.28C105.509 214.28 104.62 214.536 103.346 214.927C103.112 214.998 102.881 215.034 102.66 215.034C101.879 215.034 101.363 214.606 101.068 214.247C100.67 213.764 100.443 213.125 100.477 212.581C100.492 212.333 100.578 212.079 101.099 212.079C101.561 212.079 102.075 212.295 102.08 212.297C102.108 212.309 102.138 212.315 102.167 212.315C102.167 212.315 102.168 212.315 102.169 212.315C102.304 212.315 102.415 212.19 102.415 212.036C102.415 212.021 102.413 212.006 102.411 211.992L102.343 209.551C102.591 209.371 103.185 208.935 103.757 208.464C105.139 207.326 105.324 206.89 105.176 206.559C104.98 206.109 104.464 206.036 103.867 205.951C103.525 205.903 103.138 205.848 102.788 205.717C102.06 205.442 101.58 204.729 101.47 204.554C101.448 204.407 101.394 203.913 101.608 203.491C101.839 203.03 102.64 202.316 102.929 202.08C103.012 202.012 103.049 201.894 103.023 201.782C102.997 201.671 102.913 201.589 102.812 201.577C102.787 201.573 102.052 201.49 100.852 201.941C99.8751 202.312 99.1172 202.913 98.8561 203.136C98.7438 203.111 98.5515 203.077 98.2329 203.039C100.104 200.645 102.758 199.281 105.586 199.281C107.661 199.281 109.622 199.997 111.292 201.357L109.639 201.67C109.526 201.691 109.442 201.797 109.434 201.926C109.426 202.054 109.497 202.172 109.606 202.211C109.628 202.219 111.83 203.007 113.472 204.443C113.838 204.767 114.172 205.187 114.466 205.691C114.74 206.357 114.955 207.044 115.107 207.741L114.554 207.254C114.456 207.167 114.317 207.179 114.23 207.279C114.142 207.378 114.135 207.538 114.211 207.648Z" fill="#F2F5FE"/>
<path d="M176.211 94H121V187.377H176.211L209.337 139.808L176.211 94Z" fill="#F2F5FE" stroke="#F2F5FE"/>
<path opacity="0.8" d="M140.687 165L152.527 146.056C149.413 145.245 146.981 143.667 145.231 141.32C143.525 138.973 142.671 136.179 142.671 132.936C142.671 130.419 143.29 128.157 144.527 126.152C145.765 124.147 147.493 122.547 149.711 121.352C151.973 120.157 154.618 119.56 157.647 119.56H172.879V165H167.119V146.76H158.479L147.343 165H140.687ZM158.095 141.768H167.119V124.552H158.351C155.493 124.552 153.146 125.299 151.311 126.792C149.477 128.285 148.559 130.333 148.559 132.936C148.559 135.539 149.391 137.672 151.055 139.336C152.719 140.957 155.066 141.768 158.095 141.768Z" fill="#53ACC7"/>
<path d="M109 70H132V89M132 89L140 78M132 89L122 78" stroke="#F2F5FE"/>
<defs>
<linearGradient id="paint0_linear" x1="157" y1="72" x2="81" y2="292" gradientUnits="userSpaceOnUse">
<stop stop-color="#50C4E8"/>
<stop offset="1" stop-color="#50D3E8" stop-opacity="0"/>
<stop offset="1" stop-color="#50D3E8" stop-opacity="0"/>
</linearGradient>
<clipPath id="clip0">
<rect width="40.0188" height="45.3546" fill="white" transform="translate(209 41)"/>
</clipPath>
<clipPath id="clip1">
<rect width="40.0188" height="45.3546" fill="white" transform="translate(66 51)"/>
</clipPath>
<clipPath id="clip2">
<rect width="40.0188" height="45.3546" fill="white" transform="translate(211 197)"/>
</clipPath>
<clipPath id="clip3">
<rect width="30" height="34" fill="white" transform="translate(72 237)"/>
</clipPath>
<clipPath id="clip4">
<rect width="30" height="34" fill="white" transform="translate(52 197)"/>
</clipPath>
</defs>
</svg>
