<svg xmlns="http://www.w3.org/2000/svg" width="41" height="39" fill="none" xmlns:v="https://vecta.io/nano"><path d="M2.563 36.214C2.563 37.755 3.708 39 5.125 39h12.813V25.071H2.563v11.143zM23.063 39h12.813c1.417 0 2.563-1.245 2.563-2.786V25.071H23.063V39zm15.375-27.857h-3.371c.496-1.053.809-2.22.809-3.482C35.875 3.439 32.712 0 28.828 0c-3.331 0-5.485 1.854-8.248 5.946C17.817 1.854 15.663 0 12.332 0 8.448 0 5.285 3.439 5.285 7.661c0 1.262.304 2.429.809 3.482H2.563C1.145 11.143 0 12.388 0 13.929v6.964c0 .766.577 1.393 1.281 1.393h38.438c.705 0 1.281-.627 1.281-1.393v-6.964c0-1.541-1.145-2.786-2.562-2.786zm-26.114 0c-1.77 0-3.203-1.558-3.203-3.482s1.433-3.482 3.203-3.482c1.594 0 2.771.287 6.895 6.964h-6.895zm16.504 0h-6.895c4.116-6.66 5.261-6.964 6.895-6.964 1.77 0 3.203 1.558 3.203 3.482s-1.433 3.482-3.203 3.482z" fill="#2cd4d9"/></svg>