<svg width="410" height="561" viewBox="0 0 410 561" fill="none" xmlns="http://www.w3.org/2000/svg">
<rect width="410" height="561" rx="20" fill="url(#paint0_linear)" fill-opacity="0.2"/>
<rect y="3" width="407" height="556" rx="20" fill="#0B0720"/>
<g clip-path="url(#clip0)">
<path d="M393 48H18V837H393V48Z" fill="white"/>
<g filter="url(#filter0_d)">
<path d="M393 24H18V265H393V24Z" fill="white"/>
</g>
<path opacity="0.1" d="M293.862 131.817H71.4485C69.068 131.817 67.1382 133.992 67.1382 136.674V156.1C67.1382 158.783 69.068 160.957 71.4485 160.957H293.862C296.243 160.957 298.173 158.783 298.173 156.1V136.674C298.173 133.992 296.243 131.817 293.862 131.817Z" fill="#363739"/>
<path d="M77.8914 144.669C77.9236 144.614 77.9658 144.569 78.0181 144.533C78.0744 144.497 78.1328 144.479 78.1931 144.479H78.6337L76.8716 147.144C76.7791 147.289 76.6765 147.414 76.5638 147.518C76.4552 147.618 76.3225 147.695 76.1656 147.749C76.3546 147.795 76.5175 147.873 76.6543 147.987C76.7912 148.096 76.9158 148.243 77.0285 148.429L78.8207 151.244H78.4164C78.3118 151.244 78.2293 151.225 78.169 151.189C78.1087 151.149 78.0563 151.089 78.0121 151.013L76.4914 148.612C76.3748 148.422 76.2339 148.279 76.069 148.184C75.9081 148.084 75.725 148.035 75.5199 148.035H74.7414V151.251H74.1621V144.479H74.7414V147.586H75.4354C75.6043 147.586 75.7632 147.54 75.9121 147.45C76.065 147.359 76.1917 147.234 76.2923 147.076L77.8914 144.669ZM84.8833 144.479L81.4316 153.42C81.4074 153.483 81.3753 153.535 81.335 153.576C81.2988 153.617 81.2445 153.637 81.1721 153.637H80.7618L81.8178 150.992L79.2773 144.479H79.754C79.8143 144.479 79.8626 144.497 79.8988 144.533C79.935 144.565 79.9592 144.601 79.9712 144.642L81.9928 149.904C82.0169 149.972 82.037 150.042 82.0531 150.115C82.0732 150.183 82.0913 150.253 82.1075 150.326C82.1275 150.253 82.1477 150.183 82.1678 150.115C82.1919 150.042 82.2161 149.972 82.2402 149.904L84.2376 144.642C84.2577 144.592 84.2859 144.553 84.3221 144.526C84.3583 144.494 84.3986 144.479 84.4428 144.479H84.8833ZM90.8146 151.244H90.2353V144.975H86.6689V151.244H86.0896V144.479H90.8146V151.244ZM97.6537 144.479V151.244H97.0804V145.791C97.0804 145.728 97.0824 145.66 97.0864 145.587C97.0905 145.514 97.0965 145.442 97.1045 145.369C97.0764 145.432 97.0482 145.492 97.02 145.546C96.9959 145.596 96.9698 145.641 96.9416 145.682C96.9336 145.691 96.8773 145.777 96.7726 145.94C96.6681 146.099 96.5293 146.306 96.3562 146.559C96.1873 146.813 95.9942 147.101 95.7769 147.423C95.5637 147.744 95.3465 148.073 95.1252 148.408C94.6023 149.192 94.0088 150.083 93.345 151.081C93.3209 151.121 93.2887 151.16 93.2485 151.196C93.2123 151.228 93.1721 151.244 93.1278 151.244H92.7959V144.479H93.3752V149.932C93.3752 149.995 93.3732 150.063 93.3692 150.136C93.3652 150.208 93.3592 150.28 93.3511 150.353C93.3752 150.29 93.4014 150.233 93.4295 150.183C93.4577 150.129 93.4838 150.081 93.508 150.04C93.512 150.032 93.5663 149.947 93.6709 149.789C93.7795 149.63 93.9183 149.424 94.0873 149.17C94.2603 148.912 94.4534 148.621 94.6666 148.3C94.8799 147.978 95.0991 147.649 95.3243 147.314C95.8474 146.53 96.4407 145.641 97.1045 144.648C97.1287 144.603 97.1588 144.565 97.195 144.533C97.2353 144.497 97.2775 144.479 97.3218 144.479H97.6537ZM104.435 144.975H101.925V151.244H101.346V144.975H98.8353V144.479H104.435V144.975ZM107.743 150.761C108.017 150.761 108.254 150.725 108.455 150.652C108.657 150.576 108.823 150.471 108.956 150.339C109.089 150.204 109.188 150.045 109.252 149.864C109.316 149.678 109.348 149.476 109.348 149.258C109.348 149.059 109.321 148.871 109.264 148.694C109.212 148.517 109.122 148.363 108.992 148.232C108.868 148.101 108.701 147.996 108.491 147.919C108.283 147.842 108.025 147.803 107.719 147.803H106.174V150.761H107.743ZM107.719 147.321C108.129 147.321 108.472 147.375 108.745 147.484C109.022 147.593 109.244 147.737 109.409 147.919C109.574 148.096 109.691 148.3 109.759 148.531C109.831 148.762 109.867 149 109.867 149.245C109.867 149.53 109.822 149.796 109.728 150.04C109.641 150.285 109.505 150.498 109.324 150.679C109.147 150.856 108.926 150.994 108.66 151.094C108.399 151.194 108.096 151.244 107.749 151.244H105.619V144.479H106.174V147.321H107.719ZM118.626 145.383C118.605 145.405 118.585 145.426 118.566 145.444C118.549 145.458 118.525 145.464 118.493 145.464C118.453 145.464 118.398 145.435 118.33 145.376C118.261 145.313 118.169 145.245 118.053 145.172C117.935 145.099 117.789 145.034 117.612 144.975C117.439 144.912 117.228 144.88 116.978 144.88C116.632 144.88 116.324 144.95 116.055 145.09C115.79 145.226 115.564 145.424 115.379 145.682C115.194 145.94 115.053 146.253 114.957 146.62C114.864 146.987 114.818 147.4 114.818 147.858C114.818 148.334 114.866 148.755 114.963 149.122C115.063 149.49 115.204 149.8 115.385 150.054C115.566 150.304 115.785 150.494 116.043 150.625C116.3 150.756 116.586 150.822 116.9 150.822C117.19 150.822 117.431 150.783 117.624 150.707C117.821 150.63 117.982 150.545 118.107 150.455C118.235 150.365 118.336 150.28 118.409 150.204C118.481 150.127 118.541 150.088 118.59 150.088C118.638 150.088 118.678 150.11 118.71 150.156L118.861 150.373C118.768 150.509 118.652 150.637 118.511 150.754C118.37 150.872 118.211 150.974 118.035 151.06C117.857 151.147 117.664 151.212 117.455 151.257C117.25 151.307 117.035 151.332 116.81 151.332C116.427 151.332 116.077 151.255 115.76 151.101C115.446 150.943 115.174 150.715 114.945 150.421C114.719 150.122 114.542 149.757 114.414 149.326C114.289 148.896 114.227 148.407 114.227 147.858C114.227 147.341 114.287 146.87 114.408 146.443C114.528 146.017 114.705 145.65 114.939 145.342C115.172 145.034 115.455 144.796 115.79 144.628C116.128 144.456 116.514 144.37 116.948 144.37C117.338 144.37 117.685 144.44 117.986 144.58C118.288 144.721 118.551 144.912 118.777 145.152L118.626 145.383ZM125.175 151.244H124.596V144.995H122.17C122.129 145.888 122.061 146.666 121.965 147.327C121.872 147.985 121.761 148.549 121.633 149.02C121.504 149.488 121.36 149.87 121.198 150.17C121.037 150.469 120.868 150.705 120.691 150.877C120.518 151.049 120.341 151.167 120.16 151.23C119.979 151.293 119.8 151.325 119.623 151.325C119.527 151.325 119.442 151.317 119.37 151.298C119.297 151.28 119.261 151.253 119.261 151.217V150.802H119.527C119.672 150.802 119.818 150.77 119.967 150.707C120.12 150.639 120.271 150.518 120.42 150.346C120.569 150.174 120.711 149.938 120.848 149.639C120.985 149.34 121.108 148.957 121.216 148.49C121.329 148.019 121.426 147.455 121.506 146.797C121.591 146.139 121.651 145.367 121.687 144.479H125.175V151.244ZM129.53 144.37C129.96 144.37 130.345 144.453 130.683 144.621C131.024 144.784 131.312 145.018 131.546 145.322C131.778 145.626 131.956 145.993 132.077 146.423C132.201 146.85 132.264 147.327 132.264 147.858C132.264 148.388 132.201 148.866 132.077 149.292C131.956 149.719 131.778 150.083 131.546 150.387C131.312 150.691 131.024 150.924 130.683 151.087C130.345 151.251 129.96 151.332 129.53 151.332C129.099 151.332 128.713 151.251 128.372 151.087C128.034 150.924 127.746 150.691 127.509 150.387C127.275 150.083 127.096 149.719 126.972 149.292C126.851 148.866 126.791 148.388 126.791 147.858C126.791 147.327 126.851 146.85 126.972 146.423C127.096 145.993 127.275 145.626 127.509 145.322C127.746 145.018 128.034 144.784 128.372 144.621C128.713 144.453 129.099 144.37 129.53 144.37ZM129.53 150.822C129.888 150.822 130.2 150.754 130.466 150.618C130.735 150.477 130.958 150.278 131.135 150.02C131.316 149.762 131.451 149.451 131.54 149.088C131.628 148.721 131.672 148.311 131.672 147.858C131.672 147.409 131.628 147.001 131.54 146.634C131.451 146.267 131.316 145.954 131.135 145.696C130.958 145.432 130.735 145.231 130.466 145.09C130.2 144.95 129.888 144.88 129.53 144.88C129.172 144.88 128.858 144.95 128.589 145.09C128.323 145.231 128.1 145.432 127.919 145.696C127.741 145.954 127.607 146.267 127.515 146.634C127.426 147.001 127.382 147.409 127.382 147.858C127.382 148.311 127.426 148.721 127.515 149.088C127.607 149.451 127.741 149.762 127.919 150.02C128.1 150.278 128.323 150.477 128.589 150.618C128.858 150.754 129.172 150.822 129.53 150.822ZM138.607 144.479V151.244H138.028V147.851H134.461V151.244H133.882V144.479H134.461V147.355H138.028V144.479H138.607ZM143.95 147.973C143.378 147.996 142.885 148.048 142.472 148.13C142.061 148.206 141.721 148.313 141.452 148.449C141.186 148.585 140.989 148.748 140.86 148.939C140.731 149.124 140.667 149.338 140.667 149.578C140.667 149.804 140.699 150.001 140.764 150.17C140.832 150.333 140.921 150.469 141.029 150.577C141.141 150.681 141.271 150.759 141.416 150.809C141.56 150.858 141.711 150.883 141.868 150.883C142.101 150.883 142.315 150.856 142.508 150.802C142.704 150.743 142.885 150.664 143.051 150.564C143.22 150.46 143.377 150.338 143.522 150.197C143.666 150.056 143.809 149.904 143.95 149.741V147.973ZM140.42 145.437C140.734 145.084 141.063 144.817 141.41 144.635C141.755 144.453 142.147 144.363 142.586 144.363C142.908 144.363 143.19 144.422 143.431 144.54C143.672 144.653 143.872 144.818 144.028 145.036C144.189 145.249 144.31 145.51 144.391 145.818C144.471 146.122 144.511 146.462 144.511 146.838V151.244H144.282C144.161 151.244 144.086 151.181 144.059 151.053L143.974 150.183C143.809 150.365 143.644 150.528 143.479 150.673C143.318 150.817 143.149 150.94 142.972 151.04C142.795 151.14 142.604 151.217 142.399 151.271C142.194 151.325 141.968 151.353 141.723 151.353C141.518 151.353 141.319 151.319 141.126 151.251C140.933 151.183 140.76 151.079 140.607 150.938C140.458 150.797 140.337 150.618 140.245 150.401C140.156 150.178 140.112 149.913 140.112 149.605C140.112 149.32 140.185 149.054 140.329 148.81C140.474 148.565 140.701 148.352 141.011 148.171C141.321 147.989 141.717 147.844 142.2 147.735C142.686 147.627 143.27 147.563 143.95 147.545V146.838C143.95 146.212 143.829 145.732 143.588 145.396C143.35 145.056 142.997 144.886 142.526 144.886C142.236 144.886 141.989 144.932 141.784 145.022C141.582 145.113 141.411 145.213 141.271 145.322C141.129 145.43 141.015 145.53 140.927 145.621C140.838 145.711 140.764 145.757 140.703 145.757C140.659 145.757 140.622 145.745 140.595 145.723C140.566 145.7 140.542 145.67 140.522 145.634L140.42 145.437ZM154.436 144.479V151.244H153.857V147.851H150.291V151.244H149.711V144.479H150.291V147.355H153.857V144.479H154.436ZM159.778 147.973C159.207 147.996 158.715 148.048 158.3 148.13C157.89 148.206 157.55 148.313 157.28 148.449C157.015 148.585 156.817 148.748 156.689 148.939C156.56 149.124 156.496 149.338 156.496 149.578C156.496 149.804 156.528 150.001 156.592 150.17C156.66 150.333 156.749 150.469 156.858 150.577C156.971 150.681 157.099 150.759 157.244 150.809C157.389 150.858 157.54 150.883 157.697 150.883C157.93 150.883 158.143 150.856 158.336 150.802C158.534 150.743 158.715 150.664 158.879 150.564C159.048 150.46 159.205 150.338 159.35 150.197C159.495 150.056 159.638 149.904 159.778 149.741V147.973ZM156.248 145.437C156.562 145.084 156.892 144.817 157.238 144.635C157.584 144.453 157.976 144.363 158.415 144.363C158.736 144.363 159.018 144.422 159.26 144.54C159.501 144.653 159.7 144.818 159.857 145.036C160.018 145.249 160.139 145.51 160.219 145.818C160.299 146.122 160.34 146.462 160.34 146.838V151.244H160.11C159.99 151.244 159.916 151.181 159.887 151.053L159.803 150.183C159.638 150.365 159.472 150.528 159.308 150.673C159.147 150.817 158.978 150.94 158.801 151.04C158.624 151.14 158.433 151.217 158.228 151.271C158.022 151.325 157.797 151.353 157.552 151.353C157.347 151.353 157.147 151.319 156.954 151.251C156.761 151.183 156.588 151.079 156.435 150.938C156.286 150.797 156.166 150.618 156.073 150.401C155.985 150.178 155.941 149.913 155.941 149.605C155.941 149.32 156.013 149.054 156.158 148.81C156.303 148.565 156.53 148.352 156.84 148.171C157.149 147.989 157.546 147.844 158.028 147.735C158.516 147.627 159.098 147.563 159.778 147.545V146.838C159.778 146.212 159.658 145.732 159.416 145.396C159.179 145.056 158.825 144.886 158.354 144.886C158.065 144.886 157.817 144.932 157.612 145.022C157.411 145.113 157.24 145.213 157.099 145.322C156.959 145.43 156.844 145.53 156.755 145.621C156.666 145.711 156.592 145.757 156.532 145.757C156.488 145.757 156.452 145.745 156.423 145.723C156.395 145.7 156.371 145.67 156.351 145.634L156.248 145.437ZM161.847 145.118C162.06 144.895 162.323 144.716 162.637 144.58C162.955 144.44 163.328 144.37 163.753 144.37C164.108 144.37 164.417 144.419 164.683 144.519C164.948 144.619 165.17 144.75 165.347 144.914C165.524 145.072 165.654 145.254 165.739 145.458C165.828 145.662 165.872 145.867 165.872 146.076C165.872 146.221 165.847 146.374 165.799 146.532C165.755 146.686 165.681 146.833 165.576 146.974C165.476 147.115 165.341 147.244 165.172 147.361C165.007 147.475 164.803 147.563 164.562 147.627C165.045 147.74 165.411 147.951 165.66 148.259C165.91 148.563 166.035 148.927 166.035 149.354C166.035 149.648 165.977 149.918 165.86 150.163C165.743 150.403 165.582 150.611 165.377 150.788C165.172 150.96 164.933 151.094 164.659 151.189C164.385 151.285 164.091 151.332 163.778 151.332C163.557 151.332 163.343 151.307 163.138 151.257C162.933 151.212 162.742 151.147 162.565 151.06C162.388 150.974 162.227 150.872 162.082 150.754C161.941 150.637 161.825 150.509 161.732 150.373L161.883 150.156C161.916 150.11 161.955 150.088 162.003 150.088C162.052 150.088 162.115 150.127 162.191 150.204C162.272 150.28 162.378 150.365 162.51 150.455C162.647 150.545 162.815 150.63 163.011 150.707C163.213 150.783 163.456 150.822 163.741 150.822C164.007 150.822 164.247 150.786 164.46 150.713C164.673 150.637 164.856 150.532 165.009 150.401C165.162 150.265 165.278 150.103 165.359 149.918C165.443 149.732 165.485 149.528 165.485 149.306C165.485 149.097 165.446 148.907 165.365 148.735C165.289 148.558 165.172 148.408 165.015 148.286C164.862 148.159 164.671 148.062 164.441 147.994C164.212 147.921 163.949 147.885 163.651 147.885H162.975V147.436H163.651C163.909 147.436 164.142 147.404 164.351 147.341C164.565 147.273 164.743 147.183 164.888 147.069C165.037 146.952 165.152 146.816 165.232 146.661C165.313 146.503 165.353 146.33 165.353 146.144C165.353 145.981 165.321 145.825 165.256 145.675C165.192 145.521 165.093 145.385 164.96 145.267C164.828 145.15 164.659 145.056 164.453 144.988C164.253 144.916 164.013 144.88 163.735 144.88C163.47 144.88 163.243 144.909 163.053 144.968C162.865 145.027 162.708 145.092 162.583 145.165C162.459 145.238 162.358 145.303 162.281 145.362C162.209 145.422 162.154 145.451 162.118 145.451C162.086 145.451 162.06 145.444 162.04 145.43C162.02 145.417 162 145.392 161.979 145.356L161.847 145.118ZM169.773 150.781C170.027 150.781 170.256 150.747 170.461 150.679C170.666 150.611 170.84 150.514 170.98 150.387C171.122 150.26 171.23 150.106 171.306 149.925C171.383 149.743 171.421 149.542 171.421 149.32C171.421 149.116 171.391 148.93 171.33 148.762C171.27 148.594 171.173 148.451 171.041 148.334C170.912 148.211 170.743 148.118 170.534 148.055C170.328 147.987 170.081 147.953 169.791 147.953H168.204V150.781H169.773ZM168.204 144.927V147.518H169.628C169.846 147.518 170.047 147.486 170.232 147.423C170.417 147.355 170.576 147.259 170.709 147.137C170.841 147.015 170.944 146.87 171.016 146.702C171.093 146.53 171.131 146.34 171.131 146.131C171.131 145.976 171.105 145.83 171.053 145.689C171.004 145.544 170.92 145.415 170.799 145.301C170.683 145.188 170.528 145.097 170.335 145.029C170.146 144.961 169.91 144.927 169.628 144.927H168.204ZM169.647 144.479C170.009 144.479 170.316 144.521 170.57 144.608C170.823 144.689 171.028 144.803 171.185 144.948C171.342 145.088 171.457 145.254 171.529 145.444C171.602 145.634 171.638 145.833 171.638 146.042C171.638 146.192 171.618 146.35 171.578 146.518C171.538 146.681 171.469 146.84 171.372 146.994C171.276 147.149 171.146 147.287 170.98 147.409C170.82 147.531 170.616 147.622 170.371 147.681C170.914 147.754 171.315 147.937 171.572 148.232C171.829 148.522 171.958 148.886 171.958 149.326C171.958 149.63 171.903 149.902 171.795 150.142C171.691 150.378 171.541 150.577 171.348 150.741C171.16 150.904 170.93 151.028 170.66 151.115C170.395 151.201 170.102 151.244 169.779 151.244H167.649V144.479H169.647ZM176.916 147.973C176.344 147.996 175.852 148.048 175.437 148.13C175.027 148.206 174.687 148.313 174.417 148.449C174.152 148.585 173.954 148.748 173.826 148.939C173.697 149.124 173.633 149.338 173.633 149.578C173.633 149.804 173.665 150.001 173.729 150.17C173.797 150.333 173.886 150.469 173.995 150.577C174.108 150.681 174.236 150.759 174.381 150.809C174.526 150.858 174.677 150.883 174.834 150.883C175.067 150.883 175.28 150.856 175.473 150.802C175.671 150.743 175.852 150.664 176.016 150.564C176.185 150.46 176.342 150.338 176.487 150.197C176.632 150.056 176.775 149.904 176.916 149.741V147.973ZM173.385 145.437C173.699 145.084 174.029 144.817 174.375 144.635C174.721 144.453 175.113 144.363 175.552 144.363C175.873 144.363 176.155 144.422 176.397 144.54C176.638 144.653 176.837 144.818 176.994 145.036C177.155 145.249 177.276 145.51 177.356 145.818C177.436 146.122 177.477 146.462 177.477 146.838V151.244H177.247C177.127 151.244 177.053 151.181 177.024 151.053L176.94 150.183C176.775 150.365 176.61 150.528 176.445 150.673C176.284 150.817 176.115 150.94 175.938 151.04C175.761 151.14 175.57 151.217 175.365 151.271C175.16 151.325 174.935 151.353 174.689 151.353C174.484 151.353 174.285 151.319 174.091 151.251C173.898 151.183 173.725 151.079 173.572 150.938C173.423 150.797 173.303 150.618 173.21 150.401C173.122 150.178 173.078 149.913 173.078 149.605C173.078 149.32 173.15 149.054 173.295 148.81C173.44 148.565 173.667 148.352 173.977 148.171C174.286 147.989 174.683 147.844 175.166 147.735C175.653 147.627 176.235 147.563 176.916 147.545V146.838C176.916 146.212 176.795 145.732 176.553 145.396C176.316 145.056 175.962 144.886 175.491 144.886C175.202 144.886 174.954 144.932 174.749 145.022C174.548 145.113 174.377 145.213 174.236 145.322C174.096 145.43 173.981 145.53 173.892 145.621C173.803 145.711 173.729 145.757 173.669 145.757C173.625 145.757 173.589 145.745 173.56 145.723C173.532 145.7 173.508 145.67 173.488 145.634L173.385 145.437ZM184.125 144.479V151.244H183.546V147.851H179.979V151.244H179.4V144.479H179.979V147.355H183.546V144.479H184.125ZM190.964 144.479V151.244H190.391V145.791C190.391 145.728 190.393 145.66 190.397 145.587C190.401 145.514 190.407 145.442 190.415 145.369C190.387 145.432 190.359 145.492 190.33 145.546C190.306 145.596 190.28 145.641 190.252 145.682C190.244 145.691 190.188 145.777 190.083 145.94C189.978 146.099 189.84 146.306 189.666 146.559C189.497 146.813 189.304 147.101 189.087 147.423C188.874 147.744 188.657 148.073 188.435 148.408C187.913 149.192 187.319 150.083 186.655 151.081C186.631 151.121 186.599 151.16 186.559 151.196C186.522 151.228 186.483 151.244 186.438 151.244H186.106V144.479H186.685V149.932C186.685 149.995 186.684 150.063 186.679 150.136C186.676 150.208 186.67 150.28 186.661 150.353C186.685 150.29 186.712 150.233 186.74 150.183C186.768 150.129 186.794 150.081 186.818 150.04C186.822 150.032 186.877 149.947 186.981 149.789C187.09 149.63 187.228 149.424 187.397 149.17C187.571 148.912 187.764 148.621 187.977 148.3C188.191 147.978 188.41 147.649 188.635 147.314C189.158 146.53 189.751 145.641 190.415 144.648C190.439 144.603 190.469 144.565 190.505 144.533C190.546 144.497 190.588 144.479 190.632 144.479H190.964ZM197.154 147.178C197.154 146.816 197.108 146.491 197.016 146.206C196.927 145.915 196.8 145.67 196.635 145.471C196.471 145.272 196.273 145.12 196.044 145.016C195.819 144.907 195.569 144.852 195.296 144.852C194.986 144.852 194.709 144.907 194.463 145.016C194.217 145.124 194.004 145.281 193.823 145.485C193.647 145.689 193.503 145.934 193.395 146.219C193.286 146.505 193.214 146.824 193.178 147.178H197.154ZM193.147 147.593V147.722C193.147 148.23 193.2 148.676 193.304 149.061C193.409 149.447 193.558 149.77 193.751 150.034C193.944 150.292 194.178 150.487 194.451 150.618C194.724 150.749 195.03 150.815 195.368 150.815C195.67 150.815 195.931 150.78 196.153 150.707C196.374 150.63 196.559 150.545 196.708 150.455C196.86 150.36 196.981 150.276 197.07 150.204C197.159 150.127 197.222 150.088 197.263 150.088C197.316 150.088 197.355 150.11 197.384 150.156L197.541 150.373C197.444 150.509 197.316 150.637 197.154 150.754C196.997 150.872 196.821 150.974 196.623 151.06C196.43 151.142 196.221 151.208 195.996 151.257C195.774 151.307 195.551 151.332 195.326 151.332C194.916 151.332 194.541 151.253 194.203 151.094C193.866 150.931 193.576 150.695 193.335 150.387C193.093 150.079 192.906 149.702 192.773 149.258C192.645 148.81 192.58 148.298 192.58 147.722C192.58 147.237 192.641 146.79 192.761 146.382C192.886 145.969 193.063 145.616 193.292 145.322C193.526 145.022 193.81 144.789 194.143 144.621C194.481 144.453 194.863 144.37 195.29 144.37C195.628 144.37 195.941 144.436 196.231 144.567C196.521 144.698 196.772 144.891 196.985 145.145C197.198 145.394 197.366 145.702 197.486 146.07C197.611 146.437 197.673 146.858 197.673 147.334C197.673 147.434 197.661 147.502 197.637 147.538C197.613 147.574 197.572 147.593 197.516 147.593H193.147ZM205.548 150.686C206.297 150.686 206.861 150.505 207.244 150.142C207.63 149.775 207.823 149.26 207.823 148.599C207.823 148.295 207.771 148.023 207.666 147.783C207.566 147.538 207.419 147.332 207.226 147.164C207.033 146.992 206.795 146.86 206.514 146.77C206.232 146.68 205.912 146.634 205.554 146.634H203.406V150.686H205.548ZM203.406 142.174V146.124H205.253C205.647 146.124 205.983 146.068 206.26 145.954C206.541 145.84 206.771 145.691 206.948 145.505C207.129 145.32 207.262 145.109 207.347 144.873C207.431 144.637 207.473 144.395 207.473 144.145C207.473 143.497 207.29 143.008 206.924 142.677C206.562 142.342 206.001 142.174 205.241 142.174H203.406ZM205.241 141.623C205.727 141.623 206.149 141.677 206.508 141.786C206.866 141.895 207.161 142.056 207.395 142.269C207.628 142.478 207.801 142.733 207.914 143.037C208.026 143.341 208.083 143.685 208.083 144.071C208.083 144.324 208.042 144.569 207.962 144.805C207.885 145.041 207.772 145.258 207.624 145.458C207.479 145.657 207.298 145.832 207.081 145.981C206.867 146.126 206.622 146.238 206.345 146.314C207.016 146.423 207.531 146.675 207.89 147.069C208.252 147.459 208.433 147.973 208.433 148.612C208.433 149.02 208.368 149.388 208.24 149.714C208.11 150.04 207.923 150.317 207.678 150.543C207.433 150.77 207.131 150.945 206.773 151.067C206.415 151.185 206.009 151.244 205.554 151.244H202.785V141.623H205.241ZM213.393 147.973C212.822 147.996 212.329 148.048 211.915 148.13C211.504 148.206 211.165 148.313 210.895 148.449C210.629 148.585 210.433 148.748 210.303 148.939C210.175 149.124 210.11 149.338 210.11 149.578C210.11 149.804 210.143 150.001 210.207 150.17C210.276 150.333 210.364 150.469 210.472 150.577C210.585 150.681 210.714 150.759 210.859 150.809C211.003 150.858 211.154 150.883 211.311 150.883C211.545 150.883 211.758 150.856 211.951 150.802C212.148 150.743 212.329 150.664 212.494 150.564C212.663 150.46 212.82 150.338 212.965 150.197C213.11 150.056 213.253 149.904 213.393 149.741V147.973ZM209.863 145.437C210.177 145.084 210.507 144.817 210.853 144.635C211.199 144.453 211.591 144.363 212.029 144.363C212.352 144.363 212.633 144.422 212.874 144.54C213.116 144.653 213.315 144.818 213.472 145.036C213.633 145.249 213.753 145.51 213.834 145.818C213.915 146.122 213.954 146.462 213.954 146.838V151.244H213.725C213.604 151.244 213.53 151.181 213.502 151.053L213.417 150.183C213.253 150.365 213.088 150.528 212.922 150.673C212.762 150.817 212.593 150.94 212.416 151.04C212.239 151.14 212.047 151.217 211.842 151.271C211.637 151.325 211.412 151.353 211.166 151.353C210.961 151.353 210.762 151.319 210.569 151.251C210.376 151.183 210.203 151.079 210.05 150.938C209.902 150.797 209.781 150.618 209.688 150.401C209.6 150.178 209.555 149.913 209.555 149.605C209.555 149.32 209.628 149.054 209.772 148.81C209.917 148.565 210.145 148.352 210.454 148.171C210.765 147.989 211.16 147.844 211.643 147.735C212.13 147.627 212.714 147.563 213.393 147.545V146.838C213.393 146.212 213.272 145.732 213.031 145.396C212.794 145.056 212.44 144.886 211.969 144.886C211.679 144.886 211.432 144.932 211.227 145.022C211.026 145.113 210.855 145.213 210.714 145.322C210.573 145.43 210.459 145.53 210.37 145.621C210.282 145.711 210.207 145.757 210.147 145.757C210.103 145.757 210.066 145.745 210.038 145.723C210.01 145.7 209.986 145.67 209.966 145.634L209.863 145.437ZM223.693 144.479V151.244H215.878V144.479H216.458V150.747H219.499V144.479H220.072V150.747H223.114V144.479H223.693ZM229.885 147.178C229.885 146.816 229.838 146.491 229.746 146.206C229.657 145.915 229.53 145.67 229.366 145.471C229.201 145.272 229.003 145.12 228.774 145.016C228.549 144.907 228.299 144.852 228.026 144.852C227.716 144.852 227.439 144.907 227.193 145.016C226.947 145.124 226.735 145.281 226.553 145.485C226.377 145.689 226.234 145.934 226.125 146.219C226.016 146.505 225.944 146.824 225.908 147.178H229.885ZM225.878 147.593V147.722C225.878 148.23 225.93 148.676 226.035 149.061C226.139 149.447 226.288 149.77 226.481 150.034C226.674 150.292 226.908 150.487 227.181 150.618C227.454 150.749 227.76 150.815 228.098 150.815C228.4 150.815 228.661 150.78 228.883 150.707C229.104 150.63 229.289 150.545 229.438 150.455C229.591 150.36 229.711 150.276 229.8 150.204C229.889 150.127 229.953 150.088 229.993 150.088C230.046 150.088 230.085 150.11 230.114 150.156L230.271 150.373C230.174 150.509 230.046 150.637 229.885 150.754C229.728 150.872 229.551 150.974 229.353 151.06C229.16 151.142 228.951 151.208 228.726 151.257C228.504 151.307 228.281 151.332 228.056 151.332C227.646 151.332 227.272 151.253 226.934 151.094C226.596 150.931 226.306 150.695 226.065 150.387C225.823 150.079 225.636 149.702 225.503 149.258C225.375 148.81 225.31 148.298 225.31 147.722C225.31 147.237 225.371 146.79 225.491 146.382C225.616 145.969 225.793 145.616 226.022 145.322C226.256 145.022 226.54 144.789 226.873 144.621C227.211 144.453 227.593 144.37 228.02 144.37C228.358 144.37 228.672 144.436 228.961 144.567C229.251 144.698 229.503 144.891 229.716 145.145C229.928 145.394 230.096 145.702 230.216 146.07C230.341 146.437 230.403 146.858 230.403 147.334C230.403 147.434 230.391 147.502 230.367 147.538C230.343 147.574 230.303 147.593 230.247 147.593H225.878ZM236.824 144.479V151.244H236.251V145.791C236.251 145.728 236.253 145.66 236.257 145.587C236.26 145.514 236.266 145.442 236.275 145.369C236.247 145.432 236.218 145.492 236.191 145.546C236.166 145.596 236.14 145.641 236.112 145.682C236.103 145.691 236.047 145.777 235.943 145.94C235.838 146.099 235.699 146.306 235.527 146.559C235.358 146.813 235.165 147.101 234.947 147.423C234.734 147.744 234.516 148.073 234.296 148.408C233.772 149.192 233.179 150.083 232.516 151.081C232.491 151.121 232.459 151.16 232.419 151.196C232.383 151.228 232.342 151.244 232.298 151.244H231.966V144.479H232.546V149.932C232.546 149.995 232.543 150.063 232.54 150.136C232.535 150.208 232.529 150.28 232.522 150.353C232.546 150.29 232.572 150.233 232.6 150.183C232.628 150.129 232.654 150.081 232.678 150.04C232.682 150.032 232.736 149.947 232.841 149.789C232.95 149.63 233.089 149.424 233.258 149.17C233.43 148.912 233.623 148.621 233.837 148.3C234.05 147.978 234.269 147.649 234.495 147.314C235.017 146.53 235.611 145.641 236.275 144.648C236.299 144.603 236.329 144.565 236.366 144.533C236.405 144.497 236.447 144.479 236.492 144.479H236.824ZM234.447 142.928C234.809 142.928 235.07 142.826 235.231 142.622C235.391 142.413 235.472 142.08 235.472 141.623H235.798C235.842 141.623 235.877 141.645 235.901 141.691C235.928 141.732 235.943 141.784 235.943 141.847C235.943 142.282 235.818 142.631 235.569 142.894C235.319 143.157 234.945 143.289 234.447 143.289C233.947 143.289 233.572 143.157 233.318 142.894C233.068 142.631 232.944 142.282 232.944 141.847C232.944 141.784 232.958 141.732 232.986 141.691C233.014 141.645 233.05 141.623 233.095 141.623H233.415C233.415 142.08 233.495 142.413 233.656 142.622C233.816 142.826 234.08 142.928 234.447 142.928ZM245.808 144.669C245.841 144.614 245.883 144.569 245.935 144.533C245.991 144.497 246.049 144.479 246.11 144.479H246.55L244.788 147.144C244.696 147.289 244.593 147.414 244.48 147.518C244.372 147.618 244.239 147.695 244.082 147.749C244.272 147.795 244.435 147.873 244.571 147.987C244.708 148.096 244.833 148.243 244.945 148.429L246.737 151.244H246.333C246.228 151.244 246.146 151.225 246.085 151.189C246.025 151.149 245.973 151.089 245.928 151.013L244.408 148.612C244.291 148.422 244.151 148.279 243.985 148.184C243.825 148.084 243.641 148.035 243.436 148.035H242.658V151.251H242.078V144.479H242.658V147.586H243.352C243.521 147.586 243.68 147.54 243.828 147.45C243.982 147.359 244.109 147.234 244.209 147.076L245.808 144.669ZM250.066 144.37C250.497 144.37 250.881 144.453 251.219 144.621C251.561 144.784 251.848 145.018 252.082 145.322C252.316 145.626 252.492 145.993 252.613 146.423C252.738 146.85 252.8 147.327 252.8 147.858C252.8 148.388 252.738 148.866 252.613 149.292C252.492 149.719 252.316 150.083 252.082 150.387C251.848 150.691 251.561 150.924 251.219 151.087C250.881 151.251 250.497 151.332 250.066 151.332C249.636 151.332 249.25 151.251 248.908 151.087C248.57 150.924 248.282 150.691 248.045 150.387C247.811 150.083 247.633 149.719 247.508 149.292C247.387 148.866 247.327 148.388 247.327 147.858C247.327 147.327 247.387 146.85 247.508 146.423C247.633 145.993 247.811 145.626 248.045 145.322C248.282 145.018 248.57 144.784 248.908 144.621C249.25 144.453 249.636 144.37 250.066 144.37ZM250.066 150.822C250.424 150.822 250.736 150.754 251.002 150.618C251.272 150.477 251.495 150.278 251.672 150.02C251.853 149.762 251.987 149.451 252.076 149.088C252.165 148.721 252.209 148.311 252.209 147.858C252.209 147.409 252.165 147.001 252.076 146.634C251.987 146.267 251.853 145.954 251.672 145.696C251.495 145.432 251.272 145.231 251.002 145.09C250.736 144.95 250.424 144.88 250.066 144.88C249.709 144.88 249.395 144.95 249.125 145.09C248.86 145.231 248.636 145.432 248.455 145.696C248.278 145.954 248.143 146.267 248.051 146.634C247.962 147.001 247.918 147.409 247.918 147.858C247.918 148.311 247.962 148.721 248.051 149.088C248.143 149.451 248.278 149.762 248.455 150.02C248.636 150.278 248.86 150.477 249.125 150.618C249.395 150.754 249.709 150.822 250.066 150.822ZM260.791 144.445V151.244H260.278V145.791C260.278 145.714 260.282 145.632 260.291 145.546C260.298 145.456 260.309 145.371 260.321 145.294L257.847 149.966C257.826 150.001 257.802 150.034 257.774 150.061C257.746 150.088 257.711 150.102 257.672 150.102H257.605C257.565 150.102 257.53 150.088 257.503 150.061C257.474 150.034 257.45 150.001 257.43 149.966L254.89 145.281C254.905 145.358 254.916 145.444 254.92 145.539C254.928 145.63 254.932 145.714 254.932 145.791V151.244H254.419V144.445H254.841C254.881 144.445 254.92 144.456 254.956 144.479C254.996 144.497 255.03 144.535 255.059 144.594L257.497 149.007C257.548 149.116 257.597 149.236 257.641 149.367C257.678 149.25 257.723 149.129 257.78 149.007L260.158 144.594C260.185 144.531 260.218 144.49 260.254 144.472C260.294 144.453 260.336 144.445 260.381 144.445H260.791ZM267.5 151.244H266.921V144.975H263.354V151.244H262.775V144.479H267.5V151.244ZM272.842 147.973C272.272 147.996 271.778 148.048 271.364 148.13C270.953 148.206 270.614 148.313 270.344 148.449C270.078 148.585 269.882 148.748 269.753 148.939C269.624 149.124 269.56 149.338 269.56 149.578C269.56 149.804 269.592 150.001 269.656 150.17C269.725 150.333 269.813 150.469 269.922 150.577C270.035 150.681 270.163 150.759 270.308 150.809C270.453 150.858 270.603 150.883 270.76 150.883C270.994 150.883 271.207 150.856 271.4 150.802C271.597 150.743 271.778 150.664 271.943 150.564C272.112 150.46 272.269 150.338 272.414 150.197C272.559 150.056 272.702 149.904 272.842 149.741V147.973ZM269.312 145.437C269.626 145.084 269.956 144.817 270.302 144.635C270.648 144.453 271.041 144.363 271.478 144.363C271.801 144.363 272.082 144.422 272.323 144.54C272.565 144.653 272.764 144.818 272.921 145.036C273.082 145.249 273.203 145.51 273.283 145.818C273.364 146.122 273.403 146.462 273.403 146.838V151.244H273.174C273.053 151.244 272.979 151.181 272.951 151.053L272.866 150.183C272.702 150.365 272.537 150.528 272.372 150.673C272.211 150.817 272.042 150.94 271.865 151.04C271.688 151.14 271.497 151.217 271.291 151.271C271.086 151.325 270.861 151.353 270.616 151.353C270.41 151.353 270.211 151.319 270.018 151.251C269.825 151.183 269.653 151.079 269.499 150.938C269.351 150.797 269.23 150.618 269.137 150.401C269.049 150.178 269.004 149.913 269.004 149.605C269.004 149.32 269.077 149.054 269.222 148.81C269.366 148.565 269.594 148.352 269.903 148.171C270.214 147.989 270.61 147.844 271.092 147.735C271.579 147.627 272.163 147.563 272.842 147.545V146.838C272.842 146.212 272.722 145.732 272.48 145.396C272.243 145.056 271.889 144.886 271.418 144.886C271.128 144.886 270.881 144.932 270.676 145.022C270.475 145.113 270.304 145.213 270.163 145.322C270.022 145.43 269.908 145.53 269.819 145.621C269.731 145.711 269.656 145.757 269.596 145.757C269.552 145.757 269.516 145.745 269.487 145.723C269.46 145.7 269.435 145.67 269.415 145.634L269.312 145.437ZM280.053 144.479V151.244H279.473V147.851H275.907V151.244H275.328V144.479H275.907V147.355H279.473V144.479H280.053ZM286.891 144.479V151.244H286.318V145.791C286.318 145.728 286.32 145.66 286.324 145.587C286.328 145.514 286.335 145.442 286.342 145.369C286.314 145.432 286.286 145.492 286.258 145.546C286.234 145.596 286.208 145.641 286.179 145.682C286.172 145.691 286.115 145.777 286.01 145.94C285.906 146.099 285.767 146.306 285.594 146.559C285.425 146.813 285.232 147.101 285.015 147.423C284.802 147.744 284.585 148.073 284.363 148.408C283.84 149.192 283.247 150.083 282.583 151.081C282.559 151.121 282.527 151.16 282.486 151.196C282.45 151.228 282.41 151.244 282.366 151.244H282.034V144.479H282.613V149.932C282.613 149.995 282.611 150.063 282.607 150.136C282.603 150.208 282.597 150.28 282.589 150.353C282.613 150.29 282.639 150.233 282.667 150.183C282.696 150.129 282.722 150.081 282.746 150.04C282.75 150.032 282.804 149.947 282.909 149.789C283.017 149.63 283.156 149.424 283.325 149.17C283.498 148.912 283.691 148.621 283.904 148.3C284.117 147.978 284.337 147.649 284.562 147.314C285.085 146.53 285.678 145.641 286.342 144.648C286.366 144.603 286.397 144.565 286.433 144.533C286.473 144.497 286.516 144.479 286.56 144.479H286.891ZM293.728 144.479V151.244H293.154V145.791C293.154 145.728 293.156 145.66 293.16 145.587C293.164 145.514 293.17 145.442 293.178 145.369C293.15 145.432 293.122 145.492 293.094 145.546C293.07 145.596 293.043 145.641 293.016 145.682C293.007 145.691 292.951 145.777 292.847 145.94C292.741 146.099 292.603 146.306 292.43 146.559C292.261 146.813 292.068 147.101 291.851 147.423C291.637 147.744 291.42 148.073 291.199 148.408C290.676 149.192 290.083 150.083 289.419 151.081C289.395 151.121 289.362 151.16 289.322 151.196C289.286 151.228 289.246 151.244 289.202 151.244H288.87V144.479H289.449V149.932C289.449 149.995 289.447 150.063 289.443 150.136C289.439 150.208 289.433 150.28 289.425 150.353C289.449 150.29 289.475 150.233 289.503 150.183C289.531 150.129 289.558 150.081 289.582 150.04C289.585 150.032 289.64 149.947 289.745 149.789C289.853 149.63 289.992 149.424 290.161 149.17C290.334 148.912 290.527 148.621 290.741 148.3C290.953 147.978 291.172 147.649 291.398 147.314C291.921 146.53 292.515 145.641 293.178 144.648C293.203 144.603 293.233 144.565 293.269 144.533C293.309 144.497 293.351 144.479 293.396 144.479H293.728Z" fill="#0B0720"/>
<path opacity="0.1" d="M265.414 170.67H71.4485C69.068 170.67 67.1382 172.845 67.1382 175.527V194.953C67.1382 197.636 69.068 199.81 71.4485 199.81H265.414C267.795 199.81 269.724 197.636 269.724 194.953V175.527C269.724 172.845 267.795 170.67 265.414 170.67Z" fill="#363739"/>
<path d="M77.8914 183.522C77.9236 183.468 77.9658 183.422 78.0181 183.386C78.0744 183.35 78.1328 183.332 78.1931 183.332H78.6337L76.8716 185.997C76.7791 186.142 76.6765 186.267 76.5638 186.371C76.4552 186.471 76.3225 186.548 76.1656 186.602C76.3546 186.648 76.5175 186.726 76.6543 186.84C76.7912 186.949 76.9158 187.096 77.0285 187.282L78.8207 190.097H78.4164C78.3118 190.097 78.2293 190.078 78.169 190.042C78.1087 190.002 78.0563 189.942 78.0121 189.866L76.4914 187.465C76.3748 187.275 76.2339 187.132 76.069 187.037C75.9081 186.937 75.725 186.888 75.5199 186.888H74.7414V190.104H74.1621V183.332H74.7414V186.439H75.4354C75.6043 186.439 75.7632 186.393 75.9121 186.303C76.065 186.212 76.1917 186.087 76.2923 185.929L77.8914 183.522ZM84.8833 183.332L81.4316 192.273C81.4074 192.336 81.3753 192.388 81.335 192.429C81.2988 192.47 81.2445 192.49 81.1721 192.49H80.7618L81.8178 189.845L79.2773 183.332H79.754C79.8143 183.332 79.8626 183.35 79.8988 183.386C79.935 183.418 79.9592 183.454 79.9712 183.495L81.9928 188.757C82.0169 188.825 82.037 188.895 82.0531 188.968C82.0732 189.036 82.0913 189.106 82.1075 189.179C82.1275 189.106 82.1477 189.036 82.1678 188.968C82.1919 188.895 82.2161 188.825 82.2402 188.757L84.2376 183.495C84.2577 183.445 84.2859 183.406 84.3221 183.379C84.3583 183.347 84.3986 183.332 84.4428 183.332H84.8833ZM90.8146 190.097H90.2353V183.828H86.6689V190.097H86.0896V183.332H90.8146V190.097ZM97.6537 183.332V190.097H97.0804V184.644C97.0804 184.581 97.0824 184.513 97.0864 184.44C97.0905 184.367 97.0965 184.295 97.1045 184.222C97.0764 184.285 97.0482 184.345 97.02 184.399C96.9959 184.449 96.9698 184.494 96.9416 184.535C96.9336 184.544 96.8773 184.63 96.7726 184.793C96.6681 184.952 96.5293 185.159 96.3562 185.412C96.1873 185.666 95.9942 185.954 95.7769 186.276C95.5637 186.597 95.3465 186.926 95.1252 187.261C94.6023 188.045 94.0088 188.936 93.345 189.934C93.3209 189.974 93.2887 190.013 93.2485 190.049C93.2123 190.081 93.1721 190.097 93.1278 190.097H92.7959V183.332H93.3752V188.785C93.3752 188.848 93.3732 188.916 93.3692 188.989C93.3652 189.061 93.3592 189.133 93.3511 189.206C93.3752 189.143 93.4014 189.086 93.4295 189.036C93.4577 188.982 93.4838 188.934 93.508 188.893C93.512 188.885 93.5663 188.8 93.6709 188.642C93.7795 188.483 93.9183 188.277 94.0873 188.023C94.2603 187.765 94.4534 187.474 94.6666 187.153C94.8799 186.831 95.0991 186.502 95.3243 186.167C95.8474 185.383 96.4407 184.494 97.1045 183.502C97.1287 183.456 97.1588 183.418 97.195 183.386C97.2353 183.35 97.2775 183.332 97.3218 183.332H97.6537ZM104.435 183.828H101.925V190.097H101.346V183.828H98.8353V183.332H104.435V183.828ZM107.743 189.614C108.017 189.614 108.254 189.578 108.455 189.505C108.657 189.429 108.823 189.324 108.956 189.192C109.089 189.057 109.188 188.898 109.252 188.717C109.316 188.531 109.348 188.329 109.348 188.111C109.348 187.912 109.321 187.724 109.264 187.547C109.212 187.37 109.122 187.216 108.992 187.085C108.868 186.954 108.701 186.849 108.491 186.772C108.283 186.695 108.025 186.656 107.719 186.656H106.174V189.614H107.743ZM107.719 186.174C108.129 186.174 108.472 186.228 108.745 186.337C109.022 186.446 109.244 186.59 109.409 186.772C109.574 186.949 109.691 187.153 109.759 187.384C109.831 187.615 109.867 187.853 109.867 188.098C109.867 188.383 109.822 188.649 109.728 188.893C109.641 189.138 109.505 189.351 109.324 189.532C109.147 189.709 108.926 189.847 108.66 189.947C108.399 190.047 108.096 190.097 107.749 190.097H105.619V183.332H106.174V186.174H107.719ZM118.626 184.236C118.605 184.258 118.585 184.279 118.566 184.297C118.549 184.311 118.525 184.317 118.493 184.317C118.453 184.317 118.398 184.288 118.33 184.229C118.261 184.166 118.169 184.098 118.053 184.025C117.935 183.952 117.789 183.887 117.612 183.828C117.439 183.765 117.228 183.733 116.978 183.733C116.632 183.733 116.324 183.803 116.055 183.943C115.79 184.079 115.564 184.277 115.379 184.535C115.194 184.793 115.053 185.106 114.957 185.473C114.864 185.84 114.818 186.253 114.818 186.711C114.818 187.187 114.866 187.608 114.963 187.975C115.063 188.343 115.204 188.653 115.385 188.907C115.566 189.157 115.785 189.347 116.043 189.478C116.3 189.609 116.586 189.675 116.9 189.675C117.19 189.675 117.431 189.636 117.624 189.56C117.821 189.483 117.982 189.398 118.107 189.308C118.235 189.218 118.336 189.133 118.409 189.057C118.481 188.98 118.541 188.941 118.59 188.941C118.638 188.941 118.678 188.963 118.71 189.009L118.861 189.226C118.768 189.362 118.652 189.49 118.511 189.607C118.37 189.725 118.211 189.827 118.035 189.913C117.857 190 117.664 190.065 117.455 190.11C117.25 190.16 117.035 190.185 116.81 190.185C116.427 190.185 116.077 190.108 115.76 189.954C115.446 189.796 115.174 189.568 114.945 189.274C114.719 188.975 114.542 188.61 114.414 188.179C114.289 187.749 114.227 187.26 114.227 186.711C114.227 186.194 114.287 185.723 114.408 185.297C114.528 184.87 114.705 184.503 114.939 184.195C115.172 183.887 115.455 183.649 115.79 183.481C116.128 183.309 116.514 183.223 116.948 183.223C117.338 183.223 117.685 183.293 117.986 183.434C118.288 183.574 118.551 183.765 118.777 184.005L118.626 184.236ZM125.175 190.097H124.596V183.848H122.17C122.129 184.741 122.061 185.519 121.965 186.18C121.872 186.838 121.761 187.402 121.633 187.873C121.504 188.341 121.36 188.723 121.198 189.023C121.037 189.322 120.868 189.558 120.691 189.73C120.518 189.902 120.341 190.02 120.16 190.083C119.979 190.146 119.8 190.178 119.623 190.178C119.527 190.178 119.442 190.17 119.37 190.151C119.297 190.133 119.261 190.106 119.261 190.07V189.655H119.527C119.672 189.655 119.818 189.623 119.967 189.56C120.12 189.492 120.271 189.371 120.42 189.199C120.569 189.027 120.711 188.791 120.848 188.492C120.985 188.193 121.108 187.81 121.216 187.343C121.329 186.872 121.426 186.308 121.506 185.65C121.591 184.992 121.651 184.22 121.687 183.332H125.175V190.097ZM129.53 183.223C129.96 183.223 130.345 183.306 130.683 183.474C131.024 183.637 131.312 183.871 131.546 184.175C131.778 184.479 131.956 184.846 132.077 185.276C132.201 185.703 132.264 186.18 132.264 186.711C132.264 187.241 132.201 187.719 132.077 188.145C131.956 188.572 131.778 188.936 131.546 189.24C131.312 189.544 131.024 189.777 130.683 189.94C130.345 190.104 129.96 190.185 129.53 190.185C129.099 190.185 128.713 190.104 128.372 189.94C128.034 189.777 127.746 189.544 127.509 189.24C127.275 188.936 127.096 188.572 126.972 188.145C126.851 187.719 126.791 187.241 126.791 186.711C126.791 186.18 126.851 185.703 126.972 185.276C127.096 184.846 127.275 184.479 127.509 184.175C127.746 183.871 128.034 183.637 128.372 183.474C128.713 183.306 129.099 183.223 129.53 183.223ZM129.53 189.675C129.888 189.675 130.2 189.607 130.466 189.471C130.735 189.33 130.958 189.131 131.135 188.873C131.316 188.615 131.451 188.304 131.54 187.941C131.628 187.574 131.672 187.164 131.672 186.711C131.672 186.262 131.628 185.854 131.54 185.487C131.451 185.12 131.316 184.807 131.135 184.549C130.958 184.285 130.735 184.084 130.466 183.943C130.2 183.803 129.888 183.733 129.53 183.733C129.172 183.733 128.858 183.803 128.589 183.943C128.323 184.084 128.1 184.285 127.919 184.549C127.741 184.807 127.607 185.12 127.515 185.487C127.426 185.854 127.382 186.262 127.382 186.711C127.382 187.164 127.426 187.574 127.515 187.941C127.607 188.304 127.741 188.615 127.919 188.873C128.1 189.131 128.323 189.33 128.589 189.471C128.858 189.607 129.172 189.675 129.53 189.675ZM138.607 183.332V190.097H138.028V186.704H134.461V190.097H133.882V183.332H134.461V186.208H138.028V183.332H138.607ZM143.95 186.826C143.378 186.849 142.885 186.901 142.472 186.983C142.061 187.059 141.721 187.166 141.452 187.302C141.186 187.438 140.989 187.601 140.86 187.792C140.731 187.977 140.667 188.191 140.667 188.431C140.667 188.657 140.699 188.854 140.764 189.023C140.832 189.186 140.921 189.322 141.029 189.43C141.141 189.534 141.271 189.612 141.416 189.662C141.56 189.711 141.711 189.736 141.868 189.736C142.101 189.736 142.315 189.709 142.508 189.655C142.704 189.596 142.885 189.517 143.051 189.417C143.22 189.313 143.377 189.191 143.522 189.05C143.666 188.909 143.809 188.757 143.95 188.594V186.826ZM140.42 184.29C140.734 183.937 141.063 183.67 141.41 183.488C141.755 183.306 142.147 183.216 142.586 183.216C142.908 183.216 143.19 183.275 143.431 183.393C143.672 183.506 143.872 183.671 144.028 183.889C144.189 184.102 144.31 184.363 144.391 184.671C144.471 184.975 144.511 185.315 144.511 185.691V190.097H144.282C144.161 190.097 144.086 190.034 144.059 189.906L143.974 189.036C143.809 189.218 143.644 189.381 143.479 189.526C143.318 189.67 143.149 189.793 142.972 189.893C142.795 189.993 142.604 190.07 142.399 190.124C142.194 190.178 141.968 190.206 141.723 190.206C141.518 190.206 141.319 190.172 141.126 190.104C140.933 190.036 140.76 189.932 140.607 189.791C140.458 189.65 140.337 189.471 140.245 189.254C140.156 189.031 140.112 188.766 140.112 188.458C140.112 188.173 140.185 187.907 140.329 187.663C140.474 187.418 140.701 187.205 141.011 187.024C141.321 186.842 141.717 186.697 142.2 186.588C142.686 186.48 143.27 186.416 143.95 186.398V185.691C143.95 185.065 143.829 184.585 143.588 184.249C143.35 183.909 142.997 183.739 142.526 183.739C142.236 183.739 141.989 183.785 141.784 183.875C141.582 183.966 141.411 184.066 141.271 184.175C141.129 184.283 141.015 184.383 140.927 184.474C140.838 184.564 140.764 184.61 140.703 184.61C140.659 184.61 140.622 184.598 140.595 184.576C140.566 184.553 140.542 184.523 140.522 184.487L140.42 184.29ZM152.747 189.539C153.495 189.539 154.06 189.358 154.442 188.995C154.828 188.628 155.022 188.113 155.022 187.452C155.022 187.148 154.969 186.876 154.865 186.636C154.764 186.391 154.617 186.185 154.424 186.017C154.231 185.845 153.993 185.713 153.712 185.623C153.43 185.533 153.11 185.487 152.753 185.487H150.604V189.539H152.747ZM150.604 181.027V184.977H152.451C152.845 184.977 153.181 184.921 153.459 184.807C153.74 184.693 153.969 184.544 154.147 184.358C154.328 184.173 154.46 183.962 154.545 183.726C154.629 183.49 154.672 183.248 154.672 182.998C154.672 182.35 154.488 181.861 154.122 181.53C153.76 181.195 153.199 181.027 152.439 181.027H150.604ZM152.439 180.476C152.925 180.476 153.347 180.53 153.706 180.639C154.064 180.748 154.36 180.909 154.593 181.122C154.826 181.331 154.999 181.586 155.112 181.89C155.224 182.194 155.281 182.538 155.281 182.924C155.281 183.177 155.241 183.422 155.16 183.658C155.084 183.894 154.971 184.111 154.822 184.311C154.678 184.51 154.497 184.685 154.279 184.834C154.066 184.979 153.821 185.091 153.543 185.167C154.215 185.276 154.729 185.528 155.088 185.922C155.45 186.312 155.631 186.826 155.631 187.465C155.631 187.873 155.566 188.241 155.438 188.567C155.309 188.893 155.122 189.17 154.877 189.396C154.631 189.623 154.329 189.798 153.972 189.92C153.613 190.038 153.207 190.097 152.753 190.097H149.983V180.476H152.439ZM160.591 186.826C160.021 186.849 159.528 186.901 159.113 186.983C158.703 187.059 158.363 187.166 158.093 187.302C157.828 187.438 157.631 187.601 157.502 187.792C157.373 187.977 157.309 188.191 157.309 188.431C157.309 188.657 157.341 188.854 157.405 189.023C157.474 189.186 157.562 189.322 157.671 189.43C157.784 189.534 157.912 189.612 158.057 189.662C158.202 189.711 158.353 189.736 158.51 189.736C158.743 189.736 158.956 189.709 159.149 189.655C159.347 189.596 159.528 189.517 159.692 189.417C159.861 189.313 160.018 189.191 160.163 189.05C160.308 188.909 160.451 188.757 160.591 188.594V186.826ZM157.061 184.29C157.375 183.937 157.705 183.67 158.051 183.488C158.397 183.306 158.79 183.216 159.228 183.216C159.55 183.216 159.831 183.275 160.072 183.393C160.314 183.506 160.513 183.671 160.67 183.889C160.831 184.102 160.952 184.363 161.032 184.671C161.113 184.975 161.153 185.315 161.153 185.691V190.097H160.923C160.803 190.097 160.728 190.034 160.7 189.906L160.616 189.036C160.451 189.218 160.286 189.381 160.121 189.526C159.96 189.67 159.791 189.793 159.614 189.893C159.437 189.993 159.246 190.07 159.041 190.124C158.835 190.178 158.61 190.206 158.365 190.206C158.16 190.206 157.96 190.172 157.767 190.104C157.574 190.036 157.402 189.932 157.248 189.791C157.1 189.65 156.979 189.471 156.886 189.254C156.798 189.031 156.753 188.766 156.753 188.458C156.753 188.173 156.826 187.907 156.971 187.663C157.116 187.418 157.343 187.205 157.653 187.024C157.963 186.842 158.359 186.697 158.841 186.588C159.328 186.48 159.912 186.416 160.591 186.398V185.691C160.591 185.065 160.471 184.585 160.229 184.249C159.992 183.909 159.638 183.739 159.167 183.739C158.878 183.739 158.63 183.785 158.425 183.875C158.224 183.966 158.053 184.066 157.912 184.175C157.772 184.283 157.657 184.383 157.568 184.474C157.48 184.564 157.405 184.61 157.345 184.61C157.301 184.61 157.265 184.598 157.236 184.576C157.209 184.553 157.185 184.523 157.164 184.487L157.061 184.29ZM170.891 183.332V190.097H163.077V183.332H163.656V189.6H166.697V183.332H167.271V189.6H170.312V183.332H170.891ZM180.872 183.332V190.097H180.293V186.704H176.727V190.097H176.147V183.332H176.727V186.208H180.293V183.332H180.872ZM185.231 183.223C185.661 183.223 186.046 183.306 186.384 183.474C186.726 183.637 187.013 183.871 187.247 184.175C187.48 184.479 187.657 184.846 187.778 185.276C187.903 185.703 187.965 186.18 187.965 186.711C187.965 187.241 187.903 187.719 187.778 188.145C187.657 188.572 187.48 188.936 187.247 189.24C187.013 189.544 186.726 189.777 186.384 189.94C186.046 190.104 185.661 190.185 185.231 190.185C184.801 190.185 184.415 190.104 184.072 189.94C183.735 189.777 183.447 189.544 183.21 189.24C182.976 188.936 182.797 188.572 182.672 188.145C182.552 187.719 182.491 187.241 182.491 186.711C182.491 186.18 182.552 185.703 182.672 185.276C182.797 184.846 182.976 184.479 183.21 184.175C183.447 183.871 183.735 183.637 184.072 183.474C184.415 183.306 184.801 183.223 185.231 183.223ZM185.231 189.675C185.589 189.675 185.901 189.607 186.166 189.471C186.436 189.33 186.66 189.131 186.836 188.873C187.017 188.615 187.152 188.304 187.241 187.941C187.329 187.574 187.373 187.164 187.373 186.711C187.373 186.262 187.329 185.854 187.241 185.487C187.152 185.12 187.017 184.807 186.836 184.549C186.66 184.285 186.436 184.084 186.166 183.943C185.901 183.803 185.589 183.733 185.231 183.733C184.873 183.733 184.56 183.803 184.29 183.943C184.024 184.084 183.801 184.285 183.62 184.549C183.443 184.807 183.308 185.12 183.216 185.487C183.127 185.854 183.083 186.262 183.083 186.711C183.083 187.164 183.127 187.574 183.216 187.941C183.308 188.304 183.443 188.615 183.62 188.873C183.801 189.131 184.024 189.33 184.29 189.471C184.56 189.607 184.873 189.675 185.231 189.675ZM195.956 183.298V190.097H195.443V184.644C195.443 184.567 195.447 184.485 195.455 184.399C195.463 184.309 195.473 184.224 195.485 184.147L193.011 188.819C192.991 188.854 192.966 188.887 192.939 188.914C192.91 188.941 192.876 188.955 192.836 188.955H192.77C192.729 188.955 192.695 188.941 192.667 188.914C192.639 188.887 192.615 188.854 192.595 188.819L190.054 184.134C190.07 184.211 190.08 184.297 190.085 184.392C190.092 184.483 190.097 184.567 190.097 184.644V190.097H189.584V183.298H190.006C190.046 183.298 190.085 183.309 190.121 183.332C190.16 183.35 190.195 183.388 190.223 183.447L192.661 187.86C192.713 187.969 192.761 188.089 192.806 188.22C192.842 188.103 192.888 187.982 192.945 187.86L195.322 183.447C195.35 183.384 195.383 183.343 195.419 183.325C195.459 183.306 195.501 183.298 195.546 183.298H195.956ZM202.152 186.031C202.152 185.669 202.105 185.344 202.013 185.059C201.924 184.768 201.797 184.523 201.633 184.324C201.468 184.125 201.271 183.973 201.041 183.869C200.816 183.76 200.566 183.705 200.293 183.705C199.984 183.705 199.706 183.76 199.46 183.869C199.215 183.977 199.002 184.134 198.821 184.338C198.644 184.542 198.501 184.787 198.392 185.072C198.284 185.358 198.211 185.677 198.175 186.031H202.152ZM198.145 186.446V186.575C198.145 187.083 198.197 187.529 198.302 187.914C198.406 188.3 198.555 188.623 198.748 188.887C198.941 189.145 199.175 189.34 199.448 189.471C199.722 189.602 200.028 189.668 200.366 189.668C200.667 189.668 200.928 189.633 201.15 189.56C201.372 189.483 201.556 189.398 201.705 189.308C201.858 189.213 201.978 189.129 202.067 189.057C202.156 188.98 202.22 188.941 202.26 188.941C202.313 188.941 202.353 188.963 202.381 189.009L202.538 189.226C202.441 189.362 202.313 189.49 202.152 189.607C201.995 189.725 201.818 189.827 201.621 189.913C201.428 189.995 201.218 190.061 200.993 190.11C200.772 190.16 200.548 190.185 200.323 190.185C199.913 190.185 199.539 190.106 199.201 189.947C198.863 189.784 198.573 189.548 198.332 189.24C198.091 188.932 197.903 188.555 197.771 188.111C197.642 187.663 197.578 187.151 197.578 186.575C197.578 186.09 197.638 185.643 197.759 185.235C197.884 184.823 198.06 184.469 198.29 184.175C198.523 183.875 198.807 183.642 199.141 183.474C199.479 183.306 199.86 183.223 200.287 183.223C200.625 183.223 200.939 183.289 201.228 183.42C201.518 183.551 201.77 183.744 201.983 183.998C202.196 184.247 202.363 184.555 202.484 184.923C202.609 185.29 202.671 185.711 202.671 186.187C202.671 186.287 202.659 186.355 202.635 186.391C202.61 186.427 202.57 186.446 202.514 186.446H198.145ZM204.813 188.621C204.929 188.817 205.05 188.982 205.175 189.118C205.304 189.249 205.438 189.358 205.579 189.444C205.72 189.526 205.869 189.585 206.026 189.621C206.186 189.657 206.355 189.675 206.533 189.675C206.886 189.675 207.197 189.602 207.462 189.458C207.728 189.313 207.948 189.109 208.126 188.846C208.307 188.579 208.441 188.261 208.53 187.894C208.622 187.522 208.669 187.114 208.669 186.67C208.669 185.664 208.504 184.924 208.174 184.453C207.844 183.977 207.372 183.739 206.756 183.739C206.358 183.739 205.997 183.855 205.676 184.086C205.353 184.317 205.066 184.639 204.813 185.052V188.621ZM204.789 184.549C205.054 184.141 205.364 183.816 205.718 183.576C206.076 183.336 206.476 183.216 206.919 183.216C207.655 183.216 208.229 183.503 208.639 184.079C209.053 184.655 209.26 185.519 209.26 186.67C209.26 187.164 209.202 187.627 209.085 188.057C208.972 188.483 208.803 188.854 208.578 189.172C208.357 189.485 208.084 189.732 207.758 189.913C207.435 190.095 207.064 190.185 206.641 190.185C206.235 190.185 205.883 190.102 205.585 189.934C205.287 189.766 205.03 189.519 204.813 189.192V192.49H204.234V183.332H204.553C204.653 183.332 204.712 183.388 204.728 183.502L204.789 184.549ZM218.961 183.828H216.451V190.097H215.872V183.828H213.361V183.332H218.961V183.828ZM224.015 186.031C224.015 185.669 223.969 185.344 223.876 185.059C223.788 184.768 223.661 184.523 223.496 184.324C223.331 184.125 223.134 183.973 222.904 183.869C222.679 183.76 222.43 183.705 222.156 183.705C221.847 183.705 221.569 183.76 221.323 183.869C221.078 183.977 220.865 184.134 220.684 184.338C220.507 184.542 220.364 184.787 220.255 185.072C220.147 185.358 220.074 185.677 220.038 186.031H224.015ZM220.008 186.446V186.575C220.008 187.083 220.06 187.529 220.165 187.914C220.27 188.3 220.418 188.623 220.611 188.887C220.804 189.145 221.038 189.34 221.311 189.471C221.585 189.602 221.891 189.668 222.228 189.668C222.53 189.668 222.792 189.633 223.013 189.56C223.235 189.483 223.42 189.398 223.568 189.308C223.722 189.213 223.842 189.129 223.93 189.057C224.019 188.98 224.084 188.941 224.123 188.941C224.176 188.941 224.216 188.963 224.244 189.009L224.401 189.226C224.304 189.362 224.176 189.49 224.015 189.607C223.858 189.725 223.681 189.827 223.484 189.913C223.291 189.995 223.082 190.061 222.856 190.11C222.635 190.16 222.412 190.185 222.186 190.185C221.776 190.185 221.402 190.106 221.064 189.947C220.726 189.784 220.436 189.548 220.195 189.24C219.954 188.932 219.766 188.555 219.634 188.111C219.505 187.663 219.441 187.151 219.441 186.575C219.441 186.09 219.501 185.643 219.622 185.235C219.747 184.823 219.923 184.469 220.153 184.175C220.386 183.875 220.67 183.642 221.003 183.474C221.341 183.306 221.724 183.223 222.15 183.223C222.488 183.223 222.802 183.289 223.091 183.42C223.381 183.551 223.633 183.744 223.846 183.998C224.06 184.247 224.226 184.555 224.347 184.923C224.472 185.29 224.534 185.711 224.534 186.187C224.534 186.287 224.522 186.355 224.497 186.391C224.473 186.427 224.434 186.446 224.377 186.446H220.008ZM230.991 190.097H230.411V183.848H227.985C227.945 184.741 227.877 185.519 227.78 186.18C227.688 186.838 227.577 187.402 227.448 187.873C227.32 188.341 227.175 188.723 227.014 189.023C226.853 189.322 226.684 189.558 226.507 189.73C226.334 189.902 226.157 190.02 225.976 190.083C225.795 190.146 225.616 190.178 225.439 190.178C225.342 190.178 225.258 190.17 225.185 190.151C225.113 190.133 225.077 190.106 225.077 190.07V189.655H225.342C225.487 189.655 225.634 189.623 225.783 189.56C225.935 189.492 226.086 189.371 226.235 189.199C226.385 189.027 226.527 188.791 226.664 188.492C226.801 188.193 226.923 187.81 227.032 187.343C227.145 186.872 227.241 186.308 227.322 185.65C227.406 184.992 227.466 184.22 227.503 183.332H230.991V190.097ZM237.18 186.031C237.18 185.669 237.134 185.344 237.041 185.059C236.953 184.768 236.826 184.523 236.661 184.324C236.497 184.125 236.299 183.973 236.07 183.869C235.845 183.76 235.595 183.705 235.322 183.705C235.012 183.705 234.735 183.76 234.489 183.869C234.243 183.977 234.03 184.134 233.849 184.338C233.672 184.542 233.529 184.787 233.421 185.072C233.312 185.358 233.24 185.677 233.204 186.031H237.18ZM233.173 186.446V186.575C233.173 187.083 233.226 187.529 233.33 187.914C233.435 188.3 233.584 188.623 233.777 188.887C233.97 189.145 234.203 189.34 234.477 189.471C234.75 189.602 235.056 189.668 235.394 189.668C235.696 189.668 235.957 189.633 236.178 189.56C236.4 189.483 236.585 189.398 236.734 189.308C236.886 189.213 237.007 189.129 237.096 189.057C237.185 188.98 237.248 188.941 237.289 188.941C237.341 188.941 237.381 188.963 237.41 189.009L237.566 189.226C237.47 189.362 237.341 189.49 237.18 189.607C237.023 189.725 236.847 189.827 236.649 189.913C236.456 189.995 236.247 190.061 236.022 190.11C235.8 190.16 235.577 190.185 235.352 190.185C234.941 190.185 234.567 190.106 234.229 189.947C233.891 189.784 233.602 189.548 233.36 189.24C233.119 188.932 232.932 188.555 232.799 188.111C232.671 187.663 232.606 187.151 232.606 186.575C232.606 186.09 232.666 185.643 232.787 185.235C232.912 184.823 233.089 184.469 233.318 184.175C233.552 183.875 233.835 183.642 234.169 183.474C234.507 183.306 234.889 183.223 235.316 183.223C235.653 183.223 235.967 183.289 236.257 183.42C236.547 183.551 236.798 183.744 237.011 183.998C237.224 184.247 237.391 184.555 237.512 184.923C237.637 185.29 237.699 185.711 237.699 186.187C237.699 186.287 237.687 186.355 237.663 186.391C237.639 186.427 237.598 186.446 237.542 186.446H233.173ZM242.605 189.689C243.043 189.67 243.426 189.589 243.752 189.444C244.078 189.294 244.347 189.091 244.56 188.832C244.778 188.574 244.938 188.266 245.043 187.907C245.152 187.549 245.206 187.151 245.206 186.711C245.206 186.271 245.152 185.873 245.043 185.514C244.938 185.152 244.778 184.841 244.56 184.583C244.347 184.324 244.078 184.12 243.752 183.971C243.426 183.821 243.043 183.738 242.605 183.719V183.787L242.593 184.107V189.294L242.605 189.539V189.689ZM242.062 183.719C241.623 183.738 241.241 183.821 240.916 183.971C240.59 184.12 240.318 184.324 240.101 184.583C239.887 184.841 239.727 185.152 239.618 185.514C239.513 185.873 239.461 186.271 239.461 186.711C239.461 187.151 239.513 187.549 239.618 187.907C239.727 188.266 239.887 188.574 240.101 188.832C240.318 189.091 240.59 189.294 240.916 189.444C241.241 189.589 241.623 189.67 242.062 189.689V189.539L242.074 189.315V184.107L242.062 183.916V183.719ZM242.605 183.223C243.116 183.241 243.568 183.336 243.963 183.508C244.361 183.68 244.693 183.918 244.959 184.222C245.228 184.521 245.431 184.882 245.568 185.303C245.709 185.725 245.779 186.194 245.779 186.711C245.779 187.228 245.709 187.697 245.568 188.118C245.431 188.535 245.228 188.895 244.959 189.199C244.693 189.498 244.361 189.734 243.963 189.906C243.568 190.074 243.116 190.167 242.605 190.185V192.511H242.062V190.185C241.547 190.167 241.092 190.074 240.698 189.906C240.303 189.734 239.972 189.498 239.703 189.199C239.437 188.895 239.234 188.535 239.093 188.118C238.956 187.697 238.888 187.228 238.888 186.711C238.888 186.194 238.956 185.725 239.093 185.303C239.234 184.882 239.437 184.521 239.703 184.222C239.972 183.918 240.303 183.68 240.698 183.508C241.092 183.336 241.547 183.241 242.062 183.223V180.476H242.605V183.223ZM249.76 183.223C250.191 183.223 250.575 183.306 250.913 183.474C251.254 183.637 251.542 183.871 251.776 184.175C252.009 184.479 252.186 184.846 252.307 185.276C252.431 185.703 252.494 186.18 252.494 186.711C252.494 187.241 252.431 187.719 252.307 188.145C252.186 188.572 252.009 188.936 251.776 189.24C251.542 189.544 251.254 189.777 250.913 189.94C250.575 190.104 250.191 190.185 249.76 190.185C249.329 190.185 248.943 190.104 248.602 189.94C248.264 189.777 247.976 189.544 247.739 189.24C247.505 188.936 247.326 188.572 247.202 188.145C247.081 187.719 247.021 187.241 247.021 186.711C247.021 186.18 247.081 185.703 247.202 185.276C247.326 184.846 247.505 184.479 247.739 184.175C247.976 183.871 248.264 183.637 248.602 183.474C248.943 183.306 249.329 183.223 249.76 183.223ZM249.76 189.675C250.118 189.675 250.43 189.607 250.696 189.471C250.965 189.33 251.188 189.131 251.366 188.873C251.547 188.615 251.681 188.304 251.77 187.941C251.858 187.574 251.903 187.164 251.903 186.711C251.903 186.262 251.858 185.854 251.77 185.487C251.681 185.12 251.547 184.807 251.366 184.549C251.188 184.285 250.965 184.084 250.696 183.943C250.43 183.803 250.118 183.733 249.76 183.733C249.402 183.733 249.088 183.803 248.819 183.943C248.553 184.084 248.33 184.285 248.149 184.549C247.972 184.807 247.837 185.12 247.745 185.487C247.656 185.854 247.612 186.262 247.612 186.711C247.612 187.164 247.656 187.574 247.745 187.941C247.837 188.304 247.972 188.615 248.149 188.873C248.33 189.131 248.553 189.33 248.819 189.471C249.088 189.607 249.402 189.675 249.76 189.675ZM258.837 183.332V190.097H258.258V186.704H254.691V190.097H254.112V183.332H254.691V186.208H258.258V183.332H258.837ZM264.179 186.826C263.609 186.849 263.116 186.901 262.701 186.983C262.291 187.059 261.951 187.166 261.681 187.302C261.416 187.438 261.219 187.601 261.09 187.792C260.961 187.977 260.897 188.191 260.897 188.431C260.897 188.657 260.929 188.854 260.993 189.023C261.062 189.186 261.15 189.322 261.259 189.43C261.372 189.534 261.5 189.612 261.645 189.662C261.79 189.711 261.941 189.736 262.097 189.736C262.331 189.736 262.544 189.709 262.737 189.655C262.935 189.596 263.116 189.517 263.28 189.417C263.449 189.313 263.606 189.191 263.751 189.05C263.896 188.909 264.039 188.757 264.179 188.594V186.826ZM260.649 184.29C260.963 183.937 261.293 183.67 261.639 183.488C261.985 183.306 262.378 183.216 262.816 183.216C263.138 183.216 263.419 183.275 263.66 183.393C263.902 183.506 264.101 183.671 264.258 183.889C264.419 184.102 264.54 184.363 264.62 184.671C264.701 184.975 264.741 185.315 264.741 185.691V190.097H264.511C264.391 190.097 264.316 190.034 264.288 189.906L264.203 189.036C264.039 189.218 263.874 189.381 263.709 189.526C263.548 189.67 263.379 189.793 263.202 189.893C263.025 189.993 262.834 190.07 262.629 190.124C262.423 190.178 262.198 190.206 261.953 190.206C261.747 190.206 261.548 190.172 261.355 190.104C261.162 190.036 260.99 189.932 260.836 189.791C260.688 189.65 260.567 189.471 260.474 189.254C260.386 189.031 260.341 188.766 260.341 188.458C260.341 188.173 260.414 187.907 260.559 187.663C260.703 187.418 260.931 187.205 261.241 187.024C261.551 186.842 261.947 186.697 262.429 186.588C262.916 186.48 263.5 186.416 264.179 186.398V185.691C264.179 185.065 264.059 184.585 263.817 184.249C263.58 183.909 263.226 183.739 262.755 183.739C262.466 183.739 262.218 183.785 262.013 183.875C261.812 183.966 261.641 184.066 261.5 184.175C261.36 184.283 261.245 184.383 261.156 184.474C261.068 184.564 260.993 184.61 260.933 184.61C260.889 184.61 260.853 184.598 260.824 184.576C260.797 184.553 260.772 184.523 260.752 184.487L260.649 184.29Z" fill="#0B0720"/>
<path opacity="0.1" d="M216.276 209.523H71.4485C69.068 209.523 67.1382 211.698 67.1382 214.38V233.806C67.1382 236.489 69.068 238.663 71.4485 238.663H216.276C218.657 238.663 220.586 236.489 220.586 233.806V214.38C220.586 211.698 218.657 209.523 216.276 209.523Z" fill="#363739"/>
<path d="M77.8914 222.375C77.9236 222.321 77.9658 222.275 78.0181 222.239C78.0744 222.203 78.1328 222.185 78.1931 222.185H78.6337L76.8716 224.85C76.7791 224.995 76.6765 225.12 76.5638 225.224C76.4552 225.324 76.3225 225.401 76.1656 225.455C76.3546 225.501 76.5175 225.579 76.6543 225.693C76.7912 225.802 76.9158 225.949 77.0285 226.135L78.8207 228.95H78.4164C78.3118 228.95 78.2293 228.931 78.169 228.895C78.1087 228.855 78.0563 228.795 78.0121 228.719L76.4914 226.319C76.3748 226.128 76.2339 225.985 76.069 225.89C75.9081 225.79 75.725 225.741 75.5199 225.741H74.7414V228.957H74.1621V222.185H74.7414V225.292H75.4354C75.6043 225.292 75.7632 225.246 75.9121 225.156C76.065 225.066 76.1917 224.94 76.2923 224.782L77.8914 222.375ZM84.8833 222.185L81.4316 231.126C81.4074 231.189 81.3753 231.241 81.335 231.282C81.2988 231.323 81.2445 231.343 81.1721 231.343H80.7618L81.8178 228.698L79.2773 222.185H79.754C79.8143 222.185 79.8626 222.203 79.8988 222.239C79.935 222.271 79.9592 222.307 79.9712 222.348L81.9928 227.61C82.0169 227.678 82.037 227.748 82.0531 227.821C82.0732 227.889 82.0913 227.959 82.1075 228.032C82.1275 227.959 82.1477 227.889 82.1678 227.821C82.1919 227.748 82.2161 227.678 82.2402 227.61L84.2376 222.348C84.2577 222.298 84.2859 222.259 84.3221 222.232C84.3583 222.2 84.3986 222.185 84.4428 222.185H84.8833ZM90.8146 228.95H90.2353V222.681H86.6689V228.95H86.0896V222.185H90.8146V228.95ZM97.6537 222.185V228.95H97.0804V223.497C97.0804 223.434 97.0824 223.366 97.0864 223.293C97.0905 223.22 97.0965 223.148 97.1045 223.075C97.0764 223.138 97.0482 223.198 97.02 223.252C96.9959 223.302 96.9698 223.347 96.9416 223.388C96.9336 223.397 96.8773 223.483 96.7726 223.646C96.6681 223.805 96.5293 224.012 96.3562 224.265C96.1873 224.519 95.9942 224.807 95.7769 225.129C95.5637 225.45 95.3465 225.779 95.1252 226.115C94.6023 226.898 94.0088 227.789 93.345 228.787C93.3209 228.827 93.2887 228.866 93.2485 228.902C93.2123 228.934 93.1721 228.95 93.1278 228.95H92.7959V222.185H93.3752V227.638C93.3752 227.701 93.3732 227.769 93.3692 227.842C93.3652 227.914 93.3592 227.986 93.3511 228.059C93.3752 227.996 93.4014 227.939 93.4295 227.889C93.4577 227.835 93.4838 227.787 93.508 227.746C93.512 227.738 93.5663 227.653 93.6709 227.495C93.7795 227.336 93.9183 227.13 94.0873 226.876C94.2603 226.618 94.4534 226.327 94.6666 226.006C94.8799 225.684 95.0991 225.355 95.3243 225.02C95.8474 224.236 96.4407 223.347 97.1045 222.355C97.1287 222.309 97.1588 222.271 97.195 222.239C97.2353 222.203 97.2775 222.185 97.3218 222.185H97.6537ZM104.435 222.681H101.925V228.95H101.346V222.681H98.8353V222.185H104.435V222.681ZM107.743 228.467C108.017 228.467 108.254 228.431 108.455 228.358C108.657 228.282 108.823 228.177 108.956 228.046C109.089 227.91 109.188 227.751 109.252 227.57C109.316 227.384 109.348 227.182 109.348 226.964C109.348 226.765 109.321 226.577 109.264 226.4C109.212 226.223 109.122 226.069 108.992 225.938C108.868 225.807 108.701 225.702 108.491 225.625C108.283 225.548 108.025 225.509 107.719 225.509H106.174V228.467H107.743ZM107.719 225.027C108.129 225.027 108.472 225.081 108.745 225.19C109.022 225.299 109.244 225.443 109.409 225.625C109.574 225.802 109.691 226.006 109.759 226.237C109.831 226.468 109.867 226.706 109.867 226.951C109.867 227.236 109.822 227.502 109.728 227.746C109.641 227.991 109.505 228.204 109.324 228.386C109.147 228.562 108.926 228.7 108.66 228.8C108.399 228.9 108.096 228.95 107.749 228.95H105.619V222.185H106.174V225.027H107.719ZM118.626 223.089C118.605 223.111 118.585 223.132 118.566 223.15C118.549 223.164 118.525 223.17 118.493 223.17C118.453 223.17 118.398 223.141 118.33 223.082C118.261 223.019 118.169 222.951 118.053 222.878C117.935 222.805 117.789 222.74 117.612 222.681C117.439 222.618 117.228 222.586 116.978 222.586C116.632 222.586 116.324 222.656 116.055 222.796C115.79 222.932 115.564 223.13 115.379 223.388C115.194 223.646 115.053 223.959 114.957 224.326C114.864 224.693 114.818 225.106 114.818 225.564C114.818 226.04 114.866 226.461 114.963 226.828C115.063 227.196 115.204 227.506 115.385 227.76C115.566 228.01 115.785 228.2 116.043 228.331C116.3 228.462 116.586 228.528 116.9 228.528C117.19 228.528 117.431 228.489 117.624 228.413C117.821 228.336 117.982 228.251 118.107 228.161C118.235 228.071 118.336 227.986 118.409 227.91C118.481 227.833 118.541 227.794 118.59 227.794C118.638 227.794 118.678 227.816 118.71 227.862L118.861 228.08C118.768 228.216 118.652 228.343 118.511 228.46C118.37 228.578 118.211 228.68 118.035 228.766C117.857 228.853 117.664 228.918 117.455 228.963C117.25 229.013 117.035 229.038 116.81 229.038C116.427 229.038 116.077 228.962 115.76 228.807C115.446 228.649 115.174 228.421 114.945 228.127C114.719 227.828 114.542 227.463 114.414 227.032C114.289 226.602 114.227 226.113 114.227 225.564C114.227 225.047 114.287 224.576 114.408 224.15C114.528 223.723 114.705 223.356 114.939 223.048C115.172 222.74 115.455 222.502 115.79 222.334C116.128 222.162 116.514 222.076 116.948 222.076C117.338 222.076 117.685 222.146 117.986 222.287C118.288 222.427 118.551 222.618 118.777 222.858L118.626 223.089ZM125.175 228.95H124.596V222.701H122.17C122.129 223.594 122.061 224.372 121.965 225.033C121.872 225.691 121.761 226.255 121.633 226.726C121.504 227.194 121.36 227.576 121.198 227.876C121.037 228.175 120.868 228.411 120.691 228.583C120.518 228.755 120.341 228.873 120.16 228.936C119.979 228.999 119.8 229.031 119.623 229.031C119.527 229.031 119.442 229.023 119.37 229.004C119.297 228.986 119.261 228.959 119.261 228.923V228.508H119.527C119.672 228.508 119.818 228.476 119.967 228.413C120.12 228.345 120.271 228.224 120.42 228.052C120.569 227.88 120.711 227.644 120.848 227.345C120.985 227.046 121.108 226.663 121.216 226.196C121.329 225.725 121.426 225.161 121.506 224.503C121.591 223.846 121.651 223.073 121.687 222.185H125.175V228.95ZM129.53 222.076C129.96 222.076 130.345 222.159 130.683 222.327C131.024 222.491 131.312 222.724 131.546 223.028C131.778 223.332 131.956 223.699 132.077 224.129C132.201 224.556 132.264 225.033 132.264 225.564C132.264 226.094 132.201 226.572 132.077 226.998C131.956 227.425 131.778 227.789 131.546 228.093C131.312 228.397 131.024 228.63 130.683 228.793C130.345 228.957 129.96 229.038 129.53 229.038C129.099 229.038 128.713 228.957 128.372 228.793C128.034 228.63 127.746 228.397 127.509 228.093C127.275 227.789 127.096 227.425 126.972 226.998C126.851 226.572 126.791 226.094 126.791 225.564C126.791 225.033 126.851 224.556 126.972 224.129C127.096 223.699 127.275 223.332 127.509 223.028C127.746 222.724 128.034 222.491 128.372 222.327C128.713 222.159 129.099 222.076 129.53 222.076ZM129.53 228.528C129.888 228.528 130.2 228.46 130.466 228.324C130.735 228.183 130.958 227.984 131.135 227.726C131.316 227.468 131.451 227.157 131.54 226.794C131.628 226.427 131.672 226.017 131.672 225.564C131.672 225.115 131.628 224.707 131.54 224.34C131.451 223.973 131.316 223.66 131.135 223.402C130.958 223.138 130.735 222.937 130.466 222.796C130.2 222.656 129.888 222.586 129.53 222.586C129.172 222.586 128.858 222.656 128.589 222.796C128.323 222.937 128.1 223.138 127.919 223.402C127.741 223.66 127.607 223.973 127.515 224.34C127.426 224.707 127.382 225.115 127.382 225.564C127.382 226.017 127.426 226.427 127.515 226.794C127.607 227.157 127.741 227.468 127.919 227.726C128.1 227.984 128.323 228.183 128.589 228.324C128.858 228.46 129.172 228.528 129.53 228.528ZM138.607 222.185V228.95H138.028V225.557H134.461V228.95H133.882V222.185H134.461V225.061H138.028V222.185H138.607ZM143.95 225.679C143.378 225.702 142.885 225.754 142.472 225.836C142.061 225.913 141.721 226.019 141.452 226.155C141.186 226.291 140.989 226.455 140.86 226.645C140.731 226.83 140.667 227.044 140.667 227.284C140.667 227.51 140.699 227.708 140.764 227.876C140.832 228.039 140.921 228.175 141.029 228.284C141.141 228.387 141.271 228.465 141.416 228.515C141.56 228.564 141.711 228.589 141.868 228.589C142.101 228.589 142.315 228.562 142.508 228.508C142.704 228.449 142.885 228.37 143.051 228.27C143.22 228.166 143.377 228.044 143.522 227.903C143.666 227.762 143.809 227.61 143.95 227.447V225.679ZM140.42 223.143C140.734 222.79 141.063 222.523 141.41 222.341C141.755 222.159 142.147 222.069 142.586 222.069C142.908 222.069 143.19 222.128 143.431 222.246C143.672 222.359 143.872 222.525 144.028 222.742C144.189 222.955 144.31 223.216 144.391 223.524C144.471 223.828 144.511 224.168 144.511 224.544V228.95H144.282C144.161 228.95 144.086 228.887 144.059 228.759L143.974 227.889C143.809 228.071 143.644 228.234 143.479 228.379C143.318 228.523 143.149 228.646 142.972 228.746C142.795 228.846 142.604 228.923 142.399 228.977C142.194 229.031 141.968 229.059 141.723 229.059C141.518 229.059 141.319 229.025 141.126 228.957C140.933 228.889 140.76 228.785 140.607 228.644C140.458 228.503 140.337 228.324 140.245 228.107C140.156 227.884 140.112 227.619 140.112 227.311C140.112 227.026 140.185 226.76 140.329 226.516C140.474 226.271 140.701 226.058 141.011 225.877C141.321 225.695 141.717 225.55 142.2 225.441C142.686 225.333 143.27 225.269 143.95 225.251V224.544C143.95 223.918 143.829 223.438 143.588 223.102C143.35 222.762 142.997 222.593 142.526 222.593C142.236 222.593 141.989 222.638 141.784 222.729C141.582 222.819 141.411 222.919 141.271 223.028C141.129 223.136 141.015 223.237 140.927 223.327C140.838 223.417 140.764 223.463 140.703 223.463C140.659 223.463 140.622 223.451 140.595 223.429C140.566 223.406 140.542 223.376 140.522 223.34L140.42 223.143ZM152.747 228.392C153.495 228.392 154.06 228.211 154.442 227.848C154.828 227.481 155.022 226.966 155.022 226.305C155.022 226.001 154.969 225.729 154.865 225.489C154.764 225.244 154.617 225.038 154.424 224.87C154.231 224.698 153.993 224.566 153.712 224.476C153.43 224.386 153.11 224.34 152.753 224.34H150.604V228.392H152.747ZM150.604 219.88V223.83H152.451C152.845 223.83 153.181 223.774 153.459 223.66C153.74 223.546 153.969 223.397 154.147 223.211C154.328 223.026 154.46 222.815 154.545 222.579C154.629 222.343 154.672 222.101 154.672 221.851C154.672 221.204 154.488 220.714 154.122 220.383C153.76 220.048 153.199 219.88 152.439 219.88H150.604ZM152.439 219.329C152.925 219.329 153.347 219.383 153.706 219.492C154.064 219.601 154.36 219.762 154.593 219.975C154.826 220.184 154.999 220.439 155.112 220.743C155.224 221.047 155.281 221.391 155.281 221.777C155.281 222.03 155.241 222.275 155.16 222.511C155.084 222.747 154.971 222.965 154.822 223.164C154.678 223.363 154.497 223.538 154.279 223.687C154.066 223.832 153.821 223.944 153.543 224.02C154.215 224.129 154.729 224.381 155.088 224.775C155.45 225.165 155.631 225.679 155.631 226.319C155.631 226.726 155.566 227.094 155.438 227.42C155.309 227.746 155.122 228.023 154.877 228.25C154.631 228.476 154.329 228.651 153.972 228.773C153.613 228.891 153.207 228.95 152.753 228.95H149.983V219.329H152.439ZM160.591 225.679C160.021 225.702 159.528 225.754 159.113 225.836C158.703 225.913 158.363 226.019 158.093 226.155C157.828 226.291 157.631 226.455 157.502 226.645C157.373 226.83 157.309 227.044 157.309 227.284C157.309 227.51 157.341 227.708 157.405 227.876C157.474 228.039 157.562 228.175 157.671 228.284C157.784 228.387 157.912 228.465 158.057 228.515C158.202 228.564 158.353 228.589 158.51 228.589C158.743 228.589 158.956 228.562 159.149 228.508C159.347 228.449 159.528 228.37 159.692 228.27C159.861 228.166 160.018 228.044 160.163 227.903C160.308 227.762 160.451 227.61 160.591 227.447V225.679ZM157.061 223.143C157.375 222.79 157.705 222.523 158.051 222.341C158.397 222.159 158.79 222.069 159.228 222.069C159.55 222.069 159.831 222.128 160.072 222.246C160.314 222.359 160.513 222.525 160.67 222.742C160.831 222.955 160.952 223.216 161.032 223.524C161.113 223.828 161.153 224.168 161.153 224.544V228.95H160.923C160.803 228.95 160.728 228.887 160.7 228.759L160.616 227.889C160.451 228.071 160.286 228.234 160.121 228.379C159.96 228.523 159.791 228.646 159.614 228.746C159.437 228.846 159.246 228.923 159.041 228.977C158.835 229.031 158.61 229.059 158.365 229.059C158.16 229.059 157.96 229.025 157.767 228.957C157.574 228.889 157.402 228.785 157.248 228.644C157.1 228.503 156.979 228.324 156.886 228.107C156.798 227.884 156.753 227.619 156.753 227.311C156.753 227.026 156.826 226.76 156.971 226.516C157.116 226.271 157.343 226.058 157.653 225.877C157.963 225.695 158.359 225.55 158.841 225.441C159.328 225.333 159.912 225.269 160.591 225.251V224.544C160.591 223.918 160.471 223.438 160.229 223.102C159.992 222.762 159.638 222.593 159.167 222.593C158.878 222.593 158.63 222.638 158.425 222.729C158.224 222.819 158.053 222.919 157.912 223.028C157.772 223.136 157.657 223.237 157.568 223.327C157.48 223.417 157.405 223.463 157.345 223.463C157.301 223.463 157.265 223.451 157.236 223.429C157.209 223.406 157.185 223.376 157.164 223.34L157.061 223.143ZM170.891 222.185V228.95H163.077V222.185H163.656V228.453H166.697V222.185H167.271V228.453H170.312V222.185H170.891ZM172.714 224.639H175.52V225.19H172.714V224.639ZM181.375 223.089C181.354 223.111 181.335 223.132 181.315 223.15C181.298 223.164 181.274 223.17 181.242 223.17C181.202 223.17 181.147 223.141 181.079 223.082C181.01 223.019 180.918 222.951 180.802 222.878C180.685 222.805 180.538 222.74 180.361 222.681C180.188 222.618 179.977 222.586 179.728 222.586C179.381 222.586 179.073 222.656 178.804 222.796C178.539 222.932 178.313 223.13 178.128 223.388C177.943 223.646 177.803 223.959 177.706 224.326C177.613 224.693 177.567 225.106 177.567 225.564C177.567 226.04 177.616 226.461 177.712 226.828C177.812 227.196 177.953 227.506 178.135 227.76C178.316 228.01 178.535 228.2 178.792 228.331C179.049 228.462 179.335 228.528 179.649 228.528C179.939 228.528 180.18 228.489 180.373 228.413C180.57 228.336 180.731 228.251 180.856 228.161C180.985 228.071 181.085 227.986 181.158 227.91C181.23 227.833 181.291 227.794 181.339 227.794C181.387 227.794 181.427 227.816 181.46 227.862L181.61 228.08C181.517 228.216 181.401 228.343 181.26 228.46C181.119 228.578 180.96 228.68 180.784 228.766C180.606 228.853 180.413 228.918 180.204 228.963C179.999 229.013 179.784 229.038 179.559 229.038C179.176 229.038 178.826 228.962 178.509 228.807C178.195 228.649 177.923 228.421 177.694 228.127C177.468 227.828 177.291 227.463 177.163 227.032C177.038 226.602 176.976 226.113 176.976 225.564C176.976 225.047 177.036 224.576 177.157 224.15C177.278 223.723 177.454 223.356 177.688 223.048C177.921 222.74 178.204 222.502 178.539 222.334C178.877 222.162 179.263 222.076 179.697 222.076C180.087 222.076 180.434 222.146 180.735 222.287C181.037 222.427 181.3 222.618 181.526 222.858L181.375 223.089ZM186.391 225.679C185.82 225.702 185.328 225.754 184.913 225.836C184.503 225.913 184.163 226.019 183.893 226.155C183.628 226.291 183.43 226.455 183.302 226.645C183.173 226.83 183.109 227.044 183.109 227.284C183.109 227.51 183.141 227.708 183.205 227.876C183.273 228.039 183.362 228.175 183.471 228.284C183.584 228.387 183.712 228.465 183.857 228.515C184.002 228.564 184.153 228.589 184.31 228.589C184.543 228.589 184.756 228.562 184.949 228.508C185.147 228.449 185.328 228.37 185.492 228.27C185.661 228.166 185.818 228.044 185.963 227.903C186.108 227.762 186.251 227.61 186.391 227.447V225.679ZM182.861 223.143C183.175 222.79 183.505 222.523 183.851 222.341C184.197 222.159 184.589 222.069 185.028 222.069C185.349 222.069 185.631 222.128 185.872 222.246C186.114 222.359 186.313 222.525 186.47 222.742C186.631 222.955 186.752 223.216 186.832 223.524C186.912 223.828 186.953 224.168 186.953 224.544V228.95H186.723C186.603 228.95 186.528 228.887 186.5 228.759L186.416 227.889C186.251 228.071 186.085 228.234 185.921 228.379C185.76 228.523 185.591 228.646 185.414 228.746C185.237 228.846 185.046 228.923 184.841 228.977C184.635 229.031 184.41 229.059 184.165 229.059C183.96 229.059 183.76 229.025 183.567 228.957C183.374 228.889 183.201 228.785 183.048 228.644C182.899 228.503 182.778 228.324 182.686 228.107C182.597 227.884 182.553 227.619 182.553 227.311C182.553 227.026 182.626 226.76 182.771 226.516C182.916 226.271 183.143 226.058 183.453 225.877C183.762 225.695 184.159 225.55 184.641 225.441C185.128 225.333 185.711 225.269 186.391 225.251V224.544C186.391 223.918 186.271 223.438 186.029 223.102C185.792 222.762 185.438 222.593 184.967 222.593C184.678 222.593 184.43 222.638 184.225 222.729C184.024 222.819 183.853 222.919 183.712 223.028C183.572 223.136 183.457 223.237 183.368 223.327C183.279 223.417 183.205 223.463 183.145 223.463C183.101 223.463 183.065 223.451 183.036 223.429C183.008 223.406 182.984 223.376 182.964 223.34L182.861 223.143ZM193.734 222.185V228.95H193.16V223.497C193.16 223.434 193.163 223.366 193.166 223.293C193.171 223.22 193.177 223.148 193.185 223.075C193.157 223.138 193.128 223.198 193.1 223.252C193.076 223.302 193.05 223.347 193.022 223.388C193.014 223.397 192.958 223.483 192.853 223.646C192.748 223.805 192.61 224.012 192.436 224.265C192.267 224.519 192.074 224.807 191.857 225.129C191.644 225.45 191.427 225.779 191.205 226.115C190.683 226.898 190.089 227.789 189.425 228.787C189.401 228.827 189.369 228.866 189.328 228.902C189.292 228.934 189.253 228.95 189.208 228.95H188.876V222.185H189.455V227.638C189.455 227.701 189.453 227.769 189.449 227.842C189.446 227.914 189.44 227.986 189.431 228.059C189.455 227.996 189.482 227.939 189.51 227.889C189.538 227.835 189.564 227.787 189.588 227.746C189.592 227.738 189.647 227.653 189.751 227.495C189.86 227.336 189.998 227.13 190.167 226.876C190.341 226.618 190.534 226.327 190.747 226.006C190.96 225.684 191.179 225.355 191.404 225.02C191.928 224.236 192.521 223.347 193.185 222.355C193.209 222.309 193.239 222.271 193.275 222.239C193.316 222.203 193.358 222.185 193.402 222.185H193.734ZM191.356 220.634C191.718 220.634 191.98 220.532 192.141 220.328C192.302 220.12 192.382 219.786 192.382 219.329H192.708C192.753 219.329 192.786 219.351 192.81 219.397C192.839 219.438 192.853 219.49 192.853 219.553C192.853 219.988 192.728 220.337 192.478 220.6C192.229 220.864 191.855 220.995 191.356 220.995C190.858 220.995 190.481 220.864 190.228 220.6C189.978 220.337 189.853 219.988 189.853 219.553C189.853 219.49 189.868 219.438 189.896 219.397C189.924 219.351 189.96 219.329 190.004 219.329H190.324C190.324 219.786 190.405 220.12 190.566 220.328C190.727 220.532 190.991 220.634 191.356 220.634ZM200.516 222.681H198.005V228.95H197.426V222.681H194.916V222.185H200.516V222.681ZM201.078 228.426C201.078 228.34 201.091 228.258 201.12 228.182C201.147 228.105 201.186 228.039 201.235 227.984C201.286 227.925 201.345 227.88 201.41 227.848C201.478 227.812 201.552 227.794 201.633 227.794C201.709 227.794 201.781 227.812 201.85 227.848C201.918 227.88 201.977 227.925 202.025 227.984C202.077 228.039 202.117 228.105 202.146 228.182C202.178 228.258 202.194 228.34 202.194 228.426C202.194 228.517 202.178 228.601 202.146 228.678C202.117 228.751 202.077 228.816 202.025 228.875C201.977 228.929 201.918 228.972 201.85 229.004C201.781 229.036 201.709 229.052 201.633 229.052C201.476 229.052 201.343 228.993 201.235 228.875C201.129 228.753 201.078 228.603 201.078 228.426ZM204.612 227.474C204.729 227.67 204.85 227.835 204.974 227.971C205.103 228.102 205.238 228.211 205.378 228.297C205.52 228.379 205.668 228.438 205.825 228.474C205.986 228.51 206.155 228.528 206.332 228.528C206.686 228.528 206.996 228.455 207.261 228.311C207.527 228.166 207.748 227.962 207.925 227.699C208.106 227.432 208.241 227.114 208.329 226.747C208.422 226.375 208.468 225.967 208.468 225.523C208.468 224.517 208.303 223.778 207.973 223.306C207.644 222.83 207.171 222.593 206.555 222.593C206.157 222.593 205.797 222.708 205.475 222.939C205.153 223.17 204.866 223.492 204.612 223.905V227.474ZM204.588 223.402C204.853 222.994 205.164 222.669 205.517 222.429C205.876 222.189 206.276 222.069 206.718 222.069C207.454 222.069 208.028 222.356 208.438 222.932C208.853 223.508 209.06 224.372 209.06 225.523C209.06 226.017 209.002 226.48 208.885 226.91C208.772 227.336 208.603 227.708 208.378 228.025C208.157 228.338 207.883 228.585 207.557 228.766C207.235 228.948 206.863 229.038 206.441 229.038C206.035 229.038 205.683 228.955 205.385 228.787C205.087 228.619 204.829 228.372 204.612 228.046V231.343H204.033V222.185H204.353C204.453 222.185 204.512 222.241 204.528 222.355L204.588 223.402ZM215.391 222.185L211.939 231.126C211.915 231.189 211.883 231.241 211.842 231.282C211.806 231.323 211.752 231.343 211.679 231.343H211.269L212.325 228.698L209.785 222.185H210.261C210.322 222.185 210.37 222.203 210.406 222.239C210.442 222.271 210.466 222.307 210.478 222.348L212.5 227.61C212.524 227.678 212.545 227.748 212.56 227.821C212.581 227.889 212.599 227.959 212.615 228.032C212.635 227.959 212.655 227.889 212.675 227.821C212.699 227.748 212.723 227.678 212.747 227.61L214.745 222.348C214.766 222.298 214.793 222.259 214.829 222.232C214.866 222.2 214.906 222.185 214.95 222.185H215.391Z" fill="#0B0720"/>
<path d="M331.793 101.706L318.829 81.3083H62.8276V122.104H318.829L331.793 101.706Z" fill="#FFCC00"/>
<path d="M255.931 85.1936H68V118.219H255.931V85.1936Z" fill="white" stroke="#FFE580" stroke-width="2"/>
<path d="M278.697 96.5386V107.534H277.986V102.266H271.876V107.534H271.166V96.5386H271.876V101.667H277.986V96.5386H278.697ZM284.88 103.796C284.227 103.822 283.664 103.882 283.191 103.975C282.722 104.063 282.333 104.185 282.025 104.34C281.722 104.496 281.496 104.682 281.349 104.9C281.202 105.112 281.128 105.356 281.128 105.63C281.128 105.889 281.165 106.115 281.239 106.306C281.316 106.493 281.418 106.648 281.542 106.772C281.671 106.892 281.818 106.98 281.984 107.037C282.149 107.094 282.322 107.122 282.501 107.122C282.767 107.122 283.011 107.091 283.232 107.029C283.457 106.962 283.664 106.871 283.853 106.757C284.046 106.638 284.225 106.498 284.391 106.337C284.556 106.177 284.719 106.003 284.88 105.817V103.796ZM280.846 100.898C281.204 100.494 281.581 100.188 281.977 99.981C282.372 99.7738 282.82 99.6701 283.322 99.6701C283.689 99.6701 284.011 99.7374 284.287 99.8722C284.563 100.002 284.791 100.191 284.97 100.439C285.153 100.683 285.291 100.981 285.384 101.333C285.475 101.68 285.522 102.069 285.522 102.499V107.534H285.259C285.122 107.534 285.036 107.461 285.004 107.316L284.908 106.322C284.719 106.529 284.53 106.715 284.342 106.881C284.158 107.047 283.965 107.187 283.763 107.301C283.56 107.415 283.342 107.503 283.108 107.565C282.873 107.627 282.616 107.658 282.335 107.658C282.101 107.658 281.873 107.619 281.653 107.542C281.432 107.464 281.234 107.345 281.059 107.184C280.889 107.024 280.751 106.819 280.646 106.57C280.544 106.317 280.494 106.014 280.494 105.661C280.494 105.335 280.577 105.032 280.742 104.752C280.908 104.472 281.167 104.229 281.522 104.022C281.875 103.814 282.328 103.649 282.88 103.524C283.436 103.4 284.103 103.327 284.88 103.307V102.499C284.88 101.784 284.742 101.235 284.466 100.851C284.195 100.463 283.791 100.268 283.253 100.268C282.922 100.268 282.639 100.32 282.404 100.424C282.174 100.528 281.978 100.641 281.818 100.766C281.657 100.89 281.526 101.004 281.425 101.108C281.323 101.211 281.239 101.263 281.17 101.263C281.119 101.263 281.078 101.25 281.046 101.224C281.013 101.198 280.985 101.165 280.963 101.123L280.846 100.898ZM293.272 99.8022V107.534H292.616V101.302C292.616 101.229 292.618 101.152 292.623 101.069C292.628 100.986 292.634 100.903 292.644 100.82C292.611 100.893 292.579 100.96 292.547 101.022C292.52 101.079 292.49 101.131 292.458 101.178C292.448 101.188 292.384 101.286 292.265 101.473C292.145 101.654 291.986 101.89 291.789 102.18C291.596 102.47 291.375 102.799 291.127 103.167C290.883 103.535 290.634 103.91 290.382 104.294C289.784 105.19 289.106 106.208 288.347 107.347C288.32 107.394 288.283 107.438 288.237 107.48C288.196 107.516 288.149 107.534 288.099 107.534H287.72V99.8022H288.382V106.034C288.382 106.107 288.379 106.185 288.375 106.267C288.37 106.35 288.363 106.433 288.354 106.516C288.382 106.443 288.411 106.379 288.444 106.322C288.476 106.26 288.506 106.205 288.534 106.159C288.538 106.148 288.6 106.052 288.72 105.871C288.844 105.69 289.003 105.454 289.196 105.164C289.393 104.869 289.614 104.537 289.858 104.169C290.101 103.801 290.352 103.426 290.609 103.043C291.207 102.146 291.885 101.131 292.644 99.9965C292.672 99.9447 292.706 99.9006 292.747 99.8644C292.793 99.8229 292.841 99.8022 292.892 99.8022H293.272ZM290.554 98.0305C290.968 98.0305 291.266 97.914 291.451 97.6809C291.634 97.4426 291.727 97.0618 291.727 96.5386H292.099C292.149 96.5386 292.189 96.5645 292.216 96.6163C292.248 96.6629 292.265 96.7224 292.265 96.795C292.265 97.2923 292.122 97.6912 291.837 97.9917C291.552 98.2921 291.124 98.4424 290.554 98.4424C289.984 98.4424 289.554 98.2921 289.265 97.9917C288.979 97.6912 288.837 97.2923 288.837 96.795C288.837 96.7224 288.853 96.6629 288.885 96.6163C288.917 96.5645 288.959 96.5386 289.009 96.5386H289.375C289.375 97.0618 289.466 97.4426 289.651 97.6809C289.834 97.914 290.135 98.0305 290.554 98.0305ZM301.022 100.369H298.153V107.534H297.491V100.369H294.622V99.8022H301.022V100.369ZM307.927 99.8022V107.534H307.272V101.302C307.272 101.229 307.273 101.152 307.278 101.069C307.283 100.986 307.29 100.903 307.299 100.82C307.266 100.893 307.234 100.96 307.203 101.022C307.175 101.079 307.145 101.131 307.113 101.178C307.103 101.188 307.039 101.286 306.92 101.473C306.8 101.654 306.641 101.89 306.444 102.18C306.251 102.47 306.03 102.799 305.782 103.167C305.538 103.535 305.29 103.91 305.037 104.294C304.439 105.19 303.761 106.208 303.003 107.347C302.975 107.394 302.938 107.438 302.892 107.48C302.851 107.516 302.804 107.534 302.754 107.534H302.375V99.8022H303.037V106.034C303.037 106.107 303.034 106.185 303.03 106.267C303.025 106.35 303.018 106.433 303.009 106.516C303.037 106.443 303.066 106.379 303.099 106.322C303.131 106.26 303.161 106.205 303.189 106.159C303.193 106.148 303.255 106.052 303.375 105.871C303.499 105.69 303.658 105.454 303.851 105.164C304.048 104.869 304.269 104.537 304.513 104.169C304.756 103.801 305.007 103.426 305.265 103.043C305.862 102.146 306.541 101.131 307.299 99.9965C307.327 99.9447 307.361 99.9006 307.403 99.8644C307.448 99.8229 307.497 99.8022 307.547 99.8022H307.927Z" fill="black"/>
<path d="M80.9638 97.138C81.0052 97.0681 81.0595 97.0098 81.1267 96.9632C81.1991 96.9166 81.2741 96.8932 81.3517 96.8932H81.9181L79.6526 100.32C79.5336 100.507 79.4017 100.667 79.2569 100.801C79.1172 100.929 78.9465 101.028 78.7448 101.098C78.9879 101.156 79.1974 101.258 79.3733 101.404C79.5491 101.544 79.7095 101.733 79.8543 101.972L82.1586 105.591H81.6388C81.5043 105.591 81.3983 105.568 81.3207 105.522C81.2431 105.469 81.1758 105.393 81.1189 105.294L79.1638 102.208C79.0138 101.964 78.8327 101.78 78.6207 101.658C78.4138 101.529 78.1784 101.465 77.9146 101.465H76.9138V105.6H76.1689V96.8932H76.9138V100.888H77.806C78.0233 100.888 78.2276 100.83 78.4189 100.713C78.6155 100.597 78.7784 100.437 78.9077 100.233L80.9638 97.138ZM89.9533 96.8932L85.5154 108.389C85.4844 108.47 85.443 108.538 85.3913 108.59C85.3447 108.642 85.2749 108.669 85.1818 108.669H84.6542L86.012 105.268L82.7456 96.8932H83.3585C83.4361 96.8932 83.4982 96.9166 83.5447 96.9632C83.5913 97.004 83.6223 97.0506 83.6378 97.1031L86.237 103.869C86.268 103.957 86.2939 104.047 86.3146 104.14C86.3404 104.228 86.3637 104.318 86.3844 104.411C86.4102 104.318 86.4361 104.228 86.462 104.14C86.493 104.047 86.524 103.957 86.5551 103.869L89.1232 97.1031C89.149 97.0389 89.1852 96.9894 89.2318 96.9544C89.2783 96.9136 89.3301 96.8932 89.387 96.8932H89.9533ZM97.5794 105.591H96.8345V97.5314H92.2492V105.591H91.5044V96.8932H97.5794V105.591ZM106.372 96.8932V105.591H105.635V98.5804C105.635 98.4988 105.638 98.4114 105.643 98.3182C105.648 98.2249 105.656 98.1317 105.666 98.0384C105.63 98.12 105.594 98.1958 105.558 98.2657C105.527 98.3298 105.493 98.3881 105.457 98.4406C105.447 98.4522 105.374 98.563 105.24 98.7728C105.105 98.9767 104.927 99.2419 104.704 99.5683C104.487 99.8946 104.239 100.265 103.959 100.679C103.685 101.092 103.406 101.515 103.122 101.946C102.449 102.954 101.686 104.1 100.833 105.382C100.802 105.434 100.76 105.484 100.709 105.53C100.662 105.571 100.61 105.591 100.553 105.591H100.127V96.8932H100.872V103.904C100.872 103.986 100.869 104.073 100.864 104.167C100.859 104.26 100.851 104.353 100.84 104.446C100.872 104.365 100.905 104.292 100.941 104.228C100.978 104.158 101.011 104.097 101.042 104.044C101.047 104.032 101.117 103.925 101.252 103.721C101.391 103.517 101.57 103.252 101.787 102.925C102.009 102.593 102.258 102.22 102.532 101.806C102.806 101.392 103.088 100.97 103.378 100.539C104.05 99.5304 104.813 98.3881 105.666 97.1118C105.697 97.0535 105.736 97.004 105.783 96.9632C105.834 96.9166 105.889 96.8932 105.946 96.8932H106.372ZM115.091 97.5314H111.864V105.591H111.119V97.5314H107.891V96.8932H115.091V97.5314ZM119.345 104.971C119.697 104.971 120.002 104.924 120.26 104.831C120.519 104.732 120.734 104.598 120.904 104.429C121.075 104.254 121.202 104.05 121.284 103.817C121.367 103.578 121.409 103.319 121.409 103.039C121.409 102.782 121.372 102.541 121.3 102.313C121.233 102.086 121.116 101.888 120.951 101.719C120.79 101.55 120.576 101.416 120.307 101.317C120.038 101.218 119.707 101.168 119.314 101.168H117.328V104.971H119.345ZM119.314 100.547C119.841 100.547 120.281 100.617 120.633 100.757C120.99 100.897 121.274 101.084 121.486 101.317C121.698 101.544 121.848 101.806 121.936 102.103C122.029 102.401 122.076 102.707 122.076 103.021C122.076 103.389 122.016 103.729 121.897 104.044C121.784 104.359 121.61 104.633 121.378 104.866C121.15 105.093 120.865 105.271 120.524 105.399C120.188 105.527 119.797 105.591 119.353 105.591H116.614V96.8932H117.328V100.547H119.314ZM133.336 98.0559C133.31 98.0851 133.284 98.1113 133.259 98.1346C133.238 98.1521 133.207 98.1608 133.165 98.1608C133.114 98.1608 133.044 98.1229 132.956 98.0472C132.868 97.9656 132.749 97.8782 132.599 97.7849C132.449 97.6917 132.26 97.6072 132.033 97.5314C131.81 97.4498 131.539 97.409 131.218 97.409C130.773 97.409 130.378 97.4994 130.031 97.68C129.69 97.8549 129.4 98.1084 129.162 98.4406C128.924 98.7728 128.743 99.1749 128.619 99.647C128.5 100.119 128.44 100.649 128.44 101.238C128.44 101.85 128.503 102.392 128.627 102.864C128.756 103.336 128.937 103.735 129.17 104.062C129.403 104.382 129.684 104.627 130.015 104.796C130.347 104.965 130.714 105.049 131.117 105.049C131.49 105.049 131.8 105 132.048 104.901C132.302 104.802 132.509 104.694 132.669 104.577C132.834 104.461 132.964 104.353 133.057 104.254C133.15 104.155 133.228 104.105 133.29 104.105C133.352 104.105 133.403 104.134 133.445 104.193L133.639 104.473C133.52 104.647 133.37 104.811 133.189 104.962C133.008 105.114 132.803 105.245 132.576 105.355C132.348 105.466 132.1 105.551 131.831 105.609C131.567 105.673 131.29 105.705 131.001 105.705C130.509 105.705 130.059 105.606 129.651 105.408C129.247 105.204 128.898 104.913 128.603 104.534C128.314 104.149 128.086 103.68 127.921 103.126C127.76 102.573 127.68 101.943 127.68 101.238C127.68 100.574 127.758 99.9675 127.913 99.4197C128.068 98.8718 128.296 98.3998 128.596 98.0035C128.896 97.6072 129.26 97.3012 129.69 97.0856C130.124 96.8641 130.621 96.7534 131.179 96.7534C131.681 96.7534 132.126 96.8437 132.514 97.0244C132.902 97.205 133.24 97.4498 133.53 97.7587L133.336 98.0559ZM141.757 105.591H141.012V97.5576H137.893C137.841 98.7057 137.753 99.7052 137.629 100.556C137.51 101.401 137.368 102.127 137.203 102.733C137.037 103.333 136.851 103.826 136.644 104.21C136.437 104.595 136.22 104.898 135.992 105.119C135.77 105.341 135.542 105.492 135.309 105.574C135.077 105.656 134.847 105.696 134.619 105.696C134.495 105.696 134.386 105.685 134.293 105.661C134.2 105.638 134.153 105.603 134.153 105.557V105.023H134.495C134.681 105.023 134.87 104.982 135.061 104.901C135.258 104.813 135.452 104.659 135.643 104.438C135.834 104.216 136.018 103.913 136.194 103.528C136.37 103.144 136.528 102.651 136.667 102.051C136.812 101.445 136.936 100.719 137.04 99.8742C137.148 99.0292 137.226 98.0355 137.272 96.8932H141.757V105.591ZM147.356 96.7534C147.909 96.7534 148.403 96.8612 148.838 97.0768C149.278 97.2866 149.647 97.5868 149.947 97.9772C150.247 98.3677 150.475 98.8398 150.63 99.3934C150.79 99.9413 150.871 100.556 150.871 101.238C150.871 101.92 150.79 102.535 150.63 103.083C150.475 103.63 150.247 104.1 149.947 104.49C149.647 104.88 149.278 105.181 148.838 105.39C148.403 105.6 147.909 105.705 147.356 105.705C146.803 105.705 146.306 105.6 145.866 105.39C145.432 105.181 145.062 104.88 144.757 104.49C144.457 104.1 144.227 103.63 144.066 103.083C143.911 102.535 143.834 101.92 143.834 101.238C143.834 100.556 143.911 99.9413 144.066 99.3934C144.227 98.8398 144.457 98.3677 144.757 97.9772C145.062 97.5868 145.432 97.2866 145.866 97.0768C146.306 96.8612 146.803 96.7534 147.356 96.7534ZM147.356 105.049C147.816 105.049 148.217 104.962 148.559 104.787C148.905 104.607 149.192 104.35 149.42 104.018C149.653 103.686 149.826 103.287 149.94 102.82C150.053 102.348 150.11 101.821 150.11 101.238C150.11 100.661 150.053 100.137 149.94 99.6644C149.826 99.1924 149.653 98.7902 149.42 98.458C149.192 98.12 148.905 97.8607 148.559 97.68C148.217 97.4994 147.816 97.409 147.356 97.409C146.896 97.409 146.492 97.4994 146.146 97.68C145.804 97.8607 145.517 98.12 145.284 98.458C145.057 98.7902 144.884 99.1924 144.765 99.6644C144.651 100.137 144.594 100.661 144.594 101.238C144.594 101.821 144.651 102.348 144.765 102.82C144.884 103.287 145.057 103.686 145.284 104.018C145.517 104.35 145.804 104.607 146.146 104.787C146.492 104.962 146.896 105.049 147.356 105.049ZM159.027 96.8932V105.591H158.282V101.229H153.697V105.591H152.952V96.8932H153.697V100.591H158.282V96.8932H159.027ZM165.896 101.387C165.161 101.416 164.528 101.483 163.995 101.588C163.467 101.687 163.03 101.824 162.684 101.999C162.342 102.173 162.089 102.383 161.923 102.628C161.758 102.867 161.675 103.141 161.675 103.45C161.675 103.741 161.716 103.995 161.799 104.21C161.887 104.42 162.001 104.595 162.14 104.735C162.285 104.869 162.451 104.968 162.637 105.032C162.823 105.096 163.017 105.128 163.219 105.128C163.519 105.128 163.793 105.093 164.041 105.023C164.295 104.947 164.528 104.845 164.74 104.717C164.957 104.583 165.159 104.426 165.345 104.245C165.531 104.065 165.715 103.869 165.896 103.66V101.387ZM161.357 98.1259C161.76 97.6713 162.184 97.3274 162.629 97.0943C163.074 96.8612 163.578 96.7446 164.142 96.7446C164.556 96.7446 164.918 96.8204 165.228 96.9719C165.539 97.1176 165.795 97.3303 165.997 97.6101C166.203 97.884 166.359 98.2191 166.462 98.6154C166.565 99.0059 166.617 99.443 166.617 99.9267V105.591H166.322C166.167 105.591 166.072 105.51 166.035 105.347L165.927 104.228C165.715 104.461 165.503 104.671 165.29 104.857C165.084 105.044 164.866 105.201 164.639 105.329C164.411 105.457 164.165 105.557 163.902 105.626C163.638 105.696 163.348 105.731 163.033 105.731C162.769 105.731 162.513 105.688 162.265 105.6C162.016 105.513 161.794 105.379 161.597 105.198C161.406 105.017 161.251 104.787 161.132 104.507C161.018 104.222 160.961 103.881 160.961 103.485C160.961 103.118 161.054 102.777 161.24 102.462C161.427 102.147 161.719 101.873 162.117 101.64C162.515 101.407 163.025 101.221 163.646 101.081C164.272 100.941 165.022 100.859 165.896 100.836V99.9267C165.896 99.1224 165.74 98.5047 165.43 98.0734C165.125 97.6363 164.67 97.4178 164.065 97.4178C163.692 97.4178 163.374 97.476 163.11 97.5926C162.852 97.7092 162.632 97.8374 162.451 97.9772C162.27 98.1171 162.122 98.2453 162.009 98.3619C161.895 98.4784 161.799 98.5367 161.722 98.5367C161.665 98.5367 161.618 98.5222 161.582 98.493C161.546 98.4639 161.515 98.426 161.489 98.3794L161.357 98.1259Z" fill="black"/>
</g>
<defs>
<filter id="filter0_d" x="-12" y="-1" width="435" height="301" filterUnits="userSpaceOnUse" color-interpolation-filters="sRGB">
<feFlood flood-opacity="0" result="BackgroundImageFix"/>
<feColorMatrix in="SourceAlpha" type="matrix" values="0 0 0 0 0 0 0 0 0 0 0 0 0 0 0 0 0 0 127 0" result="hardAlpha"/>
<feOffset dy="5"/>
<feGaussianBlur stdDeviation="15"/>
<feColorMatrix type="matrix" values="0 0 0 0 0.820833 0 0 0 0 0.820833 0 0 0 0 0.820833 0 0 0 1 0"/>
<feBlend mode="normal" in2="BackgroundImageFix" result="effect1_dropShadow"/>
<feBlend mode="normal" in="SourceGraphic" in2="effect1_dropShadow" result="shape"/>
</filter>
<linearGradient id="paint0_linear" x1="6.07104e-07" y1="299.332" x2="421.801" y2="307.135" gradientUnits="userSpaceOnUse">
<stop offset="0.0293867" stop-color="#515253"/>
<stop offset="1" stop-color="#B6B7B8"/>
</linearGradient>
<clipPath id="clip0">
<rect x="18" y="24" width="375" height="518" rx="10" fill="white"/>
</clipPath>
</defs>
</svg>
