<svg width="160" height="78" viewBox="0 0 160 78" fill="none" xmlns="http://www.w3.org/2000/svg">
<path d="M5.696 47V1.56H24.896C26.8587 1.56 28.6507 1.96533 30.272 2.776C31.936 3.58666 33.3653 4.696 34.56 6.104C35.7547 7.46933 36.672 9.00533 37.312 10.712C37.9947 12.376 38.336 14.0827 38.336 15.832C38.336 18.0507 37.9093 20.12 37.056 22.04C36.2453 23.96 35.072 25.5813 33.536 26.904C32 28.2267 30.2293 29.08 28.224 29.464L39.36 47H34.304L23.616 30.232H10.176V47H5.696ZM10.176 26.264H25.024C26.816 26.264 28.3733 25.7733 29.696 24.792C31.0187 23.768 32.0427 22.4667 32.768 20.888C33.4933 19.3093 33.856 17.624 33.856 15.832C33.856 13.9973 33.4293 12.312 32.576 10.776C31.7653 9.19733 30.656 7.93866 29.248 7C27.84 6.01867 26.304 5.528 24.64 5.528H10.176V26.264ZM59.8205 47.64C56.6205 47.64 53.7618 46.8507 51.2445 45.272C48.7698 43.6933 46.8285 41.6027 45.4205 39C44.0125 36.3547 43.3085 33.496 43.3085 30.424C43.3085 27.3093 44.0125 24.4507 45.4205 21.848C46.8712 19.2027 48.8338 17.0907 51.3085 15.512C53.8258 13.8907 56.6632 13.08 59.8205 13.08C63.0205 13.08 65.8578 13.8907 68.3325 15.512C70.8498 17.0907 72.8125 19.2027 74.2205 21.848C75.6712 24.4507 76.3965 27.3093 76.3965 30.424C76.3965 33.496 75.6925 36.3547 74.2845 39C72.8765 41.6027 70.9138 43.6933 68.3965 45.272C65.9218 46.8507 63.0632 47.64 59.8205 47.64ZM47.7245 30.488C47.7245 32.9627 48.2578 35.224 49.3245 37.272C50.4338 39.2773 51.9058 40.8773 53.7405 42.072C55.5752 43.224 57.6018 43.8 59.8205 43.8C62.0392 43.8 64.0658 43.2027 65.9005 42.008C67.7352 40.8133 69.2072 39.192 70.3165 37.144C71.4258 35.096 71.9805 32.8347 71.9805 30.36C71.9805 27.8853 71.4258 25.624 70.3165 23.576C69.2072 21.528 67.7352 19.9067 65.9005 18.712C64.0658 17.5173 62.0392 16.92 59.8205 16.92C57.6445 16.92 55.6392 17.5387 53.8045 18.776C51.9698 19.9707 50.4978 21.592 49.3885 23.64C48.2792 25.688 47.7245 27.9707 47.7245 30.488ZM99.995 47.64C97.3923 47.64 94.9817 46.9787 92.763 45.656C90.5443 44.2907 88.8163 42.584 87.579 40.536V47H83.675V0.279999H88.027V20.632C89.5203 18.3707 91.3123 16.5573 93.403 15.192C95.4937 13.784 97.9257 13.08 100.699 13.08C103.046 13.08 105.136 13.5707 106.971 14.552C108.848 15.5333 110.448 16.856 111.771 18.52C113.094 20.1413 114.096 21.9973 114.779 24.088C115.462 26.136 115.803 28.248 115.803 30.424C115.803 33.5387 115.099 36.3973 113.691 39C112.326 41.6027 110.448 43.6933 108.059 45.272C105.67 46.8507 102.982 47.64 99.995 47.64ZM98.971 43.8C101.403 43.8 103.536 43.16 105.371 41.88C107.248 40.6 108.72 38.9573 109.787 36.952C110.854 34.904 111.387 32.728 111.387 30.424C111.387 28.0773 110.875 25.88 109.851 23.832C108.87 21.784 107.483 20.12 105.691 18.84C103.899 17.56 101.83 16.92 99.483 16.92C96.8803 16.92 94.5763 17.752 92.571 19.416C90.6083 21.08 89.0937 23.0213 88.027 25.24V35.608C88.2403 37.144 88.9443 38.5307 90.139 39.768C91.3337 41.0053 92.7417 41.9867 94.363 42.712C95.9843 43.4373 97.5203 43.8 98.971 43.8ZM137.383 47.64C134.183 47.64 131.324 46.8507 128.807 45.272C126.332 43.6933 124.391 41.6027 122.983 39C121.575 36.3547 120.871 33.496 120.871 30.424C120.871 27.3093 121.575 24.4507 122.983 21.848C124.434 19.2027 126.396 17.0907 128.871 15.512C131.388 13.8907 134.226 13.08 137.383 13.08C140.583 13.08 143.42 13.8907 145.895 15.512C148.412 17.0907 150.375 19.2027 151.783 21.848C153.234 24.4507 153.959 27.3093 153.959 30.424C153.959 33.496 153.255 36.3547 151.847 39C150.439 41.6027 148.476 43.6933 145.959 45.272C143.484 46.8507 140.626 47.64 137.383 47.64ZM125.287 30.488C125.287 32.9627 125.82 35.224 126.887 37.272C127.996 39.2773 129.468 40.8773 131.303 42.072C133.138 43.224 135.164 43.8 137.383 43.8C139.602 43.8 141.628 43.2027 143.463 42.008C145.298 40.8133 146.77 39.192 147.879 37.144C148.988 35.096 149.543 32.8347 149.543 30.36C149.543 27.8853 148.988 25.624 147.879 23.576C146.77 21.528 145.298 19.9067 143.463 18.712C141.628 17.5173 139.602 16.92 137.383 16.92C135.207 16.92 133.202 17.5387 131.367 18.776C129.532 19.9707 128.06 21.592 126.951 23.64C125.842 25.688 125.287 27.9707 125.287 30.488Z" fill="#F2F5FE"/>
<path d="M80.772 58.862C81.036 58.862 81.27 58.964 81.474 59.168L83.382 61.238C82.326 62.546 81.024 63.548 79.476 64.244C77.94 64.94 76.092 65.288 73.932 65.288C72 65.288 70.26 64.958 68.712 64.298C67.176 63.638 65.862 62.72 64.77 61.544C63.678 60.368 62.838 58.964 62.25 57.332C61.674 55.7 61.386 53.918 61.386 51.986C61.386 50.03 61.698 48.242 62.322 46.622C62.946 44.99 63.822 43.586 64.95 42.41C66.09 41.234 67.446 40.322 69.018 39.674C70.59 39.014 72.33 38.684 74.238 38.684C76.134 38.684 77.814 38.996 79.278 39.62C80.754 40.244 82.008 41.06 83.04 42.068L81.42 44.318C81.324 44.462 81.198 44.588 81.042 44.696C80.898 44.804 80.694 44.858 80.43 44.858C80.25 44.858 80.064 44.81 79.872 44.714C79.68 44.606 79.47 44.48 79.242 44.336C79.014 44.18 78.75 44.012 78.45 43.832C78.15 43.652 77.802 43.49 77.406 43.346C77.01 43.19 76.548 43.064 76.02 42.968C75.504 42.86 74.904 42.806 74.22 42.806C73.056 42.806 71.988 43.016 71.016 43.436C70.056 43.844 69.228 44.444 68.532 45.236C67.836 46.016 67.296 46.976 66.912 48.116C66.528 49.244 66.336 50.534 66.336 51.986C66.336 53.45 66.54 54.752 66.948 55.892C67.368 57.032 67.932 57.992 68.64 58.772C69.348 59.552 70.182 60.152 71.142 60.572C72.102 60.98 73.134 61.184 74.238 61.184C74.898 61.184 75.492 61.148 76.02 61.076C76.56 61.004 77.052 60.89 77.496 60.734C77.952 60.578 78.378 60.38 78.774 60.14C79.182 59.888 79.584 59.582 79.98 59.222C80.1 59.114 80.226 59.03 80.358 58.97C80.49 58.898 80.628 58.862 80.772 58.862ZM90.4968 38.252V65H86.0508V38.252H90.4968ZM99.5345 46.532V65H95.0705V46.532H99.5345ZM100.146 41.15C100.146 41.534 100.068 41.894 99.9125 42.23C99.7565 42.566 99.5465 42.86 99.2825 43.112C99.0305 43.364 98.7305 43.568 98.3825 43.724C98.0345 43.868 97.6625 43.94 97.2665 43.94C96.8825 43.94 96.5165 43.868 96.1685 43.724C95.8325 43.568 95.5385 43.364 95.2865 43.112C95.0345 42.86 94.8305 42.566 94.6745 42.23C94.5305 41.894 94.4585 41.534 94.4585 41.15C94.4585 40.754 94.5305 40.382 94.6745 40.034C94.8305 39.686 95.0345 39.386 95.2865 39.134C95.5385 38.882 95.8325 38.684 96.1685 38.54C96.5165 38.384 96.8825 38.306 97.2665 38.306C97.6625 38.306 98.0345 38.384 98.3825 38.54C98.7305 38.684 99.0305 38.882 99.2825 39.134C99.5465 39.386 99.7565 39.686 99.9125 40.034C100.068 40.382 100.146 40.754 100.146 41.15ZM117.297 50.438C117.165 50.606 117.033 50.738 116.901 50.834C116.781 50.93 116.601 50.978 116.361 50.978C116.133 50.978 115.911 50.912 115.695 50.78C115.479 50.636 115.221 50.48 114.921 50.312C114.621 50.132 114.261 49.976 113.841 49.844C113.433 49.7 112.923 49.628 112.311 49.628C111.531 49.628 110.847 49.772 110.259 50.06C109.671 50.336 109.179 50.738 108.783 51.266C108.399 51.794 108.111 52.436 107.919 53.192C107.727 53.936 107.631 54.782 107.631 55.73C107.631 56.714 107.733 57.59 107.937 58.358C108.153 59.126 108.459 59.774 108.855 60.302C109.251 60.818 109.731 61.214 110.295 61.49C110.859 61.754 111.495 61.886 112.203 61.886C112.911 61.886 113.481 61.802 113.913 61.634C114.357 61.454 114.729 61.262 115.029 61.058C115.329 60.842 115.587 60.65 115.803 60.482C116.031 60.302 116.283 60.212 116.559 60.212C116.919 60.212 117.189 60.35 117.369 60.626L118.647 62.246C118.155 62.822 117.621 63.308 117.045 63.704C116.469 64.088 115.869 64.4 115.245 64.64C114.633 64.868 113.997 65.03 113.337 65.126C112.689 65.222 112.041 65.27 111.393 65.27C110.253 65.27 109.179 65.06 108.171 64.64C107.163 64.208 106.281 63.584 105.525 62.768C104.769 61.952 104.169 60.956 103.725 59.78C103.293 58.592 103.077 57.242 103.077 55.73C103.077 54.374 103.269 53.12 103.653 51.968C104.049 50.804 104.625 49.802 105.381 48.962C106.137 48.11 107.073 47.444 108.189 46.964C109.305 46.484 110.589 46.244 112.041 46.244C113.421 46.244 114.627 46.466 115.659 46.91C116.703 47.354 117.639 47.99 118.467 48.818L117.297 50.438ZM125.88 38.252V53.57H126.708C127.008 53.57 127.242 53.534 127.41 53.462C127.59 53.378 127.77 53.216 127.95 52.976L132.54 47.306C132.732 47.054 132.942 46.862 133.17 46.73C133.41 46.598 133.716 46.532 134.088 46.532H138.156L132.414 53.39C132.006 53.93 131.562 54.344 131.082 54.632C131.334 54.812 131.556 55.022 131.748 55.262C131.952 55.502 132.144 55.76 132.324 56.036L138.48 65H134.466C134.118 65 133.818 64.946 133.566 64.838C133.314 64.718 133.104 64.508 132.936 64.208L128.22 57.206C128.052 56.93 127.878 56.75 127.698 56.666C127.518 56.582 127.248 56.54 126.888 56.54H125.88V65H121.434V38.252H125.88Z" fill="#2CD4D9"/>
</svg>
