<svg width="68" height="39" viewBox="0 0 68 39" fill="none" xmlns="http://www.w3.org/2000/svg">
<path d="M6.96 16.132C7.632 16.132 8.224 16.052 8.736 15.892C9.256 15.724 9.688 15.492 10.032 15.196C10.384 14.892 10.648 14.532 10.824 14.116C11 13.7 11.088 13.24 11.088 12.736C11.088 11.712 10.752 10.94 10.08 10.42C9.408 9.9 8.4 9.64 7.056 9.64H4.512V16.132H6.96ZM14.904 25H12.84C12.416 25 12.104 24.836 11.904 24.508L7.44 18.364C7.304 18.172 7.156 18.036 6.996 17.956C6.844 17.868 6.604 17.824 6.276 17.824H4.512V25H2.196V7.804H7.056C8.144 7.804 9.084 7.916 9.876 8.14C10.668 8.356 11.32 8.672 11.832 9.088C12.352 9.504 12.736 10.008 12.984 10.6C13.232 11.184 13.356 11.84 13.356 12.568C13.356 13.176 13.26 13.744 13.068 14.272C12.876 14.8 12.596 15.276 12.228 15.7C11.868 16.116 11.424 16.472 10.896 16.768C10.376 17.064 9.784 17.288 9.12 17.44C9.416 17.608 9.672 17.852 9.888 18.172L14.904 25ZM21.0894 12.652C21.9774 12.652 22.7774 12.8 23.4894 13.096C24.2014 13.392 24.8094 13.812 25.3134 14.356C25.8174 14.9 26.2014 15.56 26.4654 16.336C26.7374 17.104 26.8734 17.964 26.8734 18.916C26.8734 19.876 26.7374 20.74 26.4654 21.508C26.2014 22.276 25.8174 22.932 25.3134 23.476C24.8094 24.02 24.2014 24.44 23.4894 24.736C22.7774 25.024 21.9774 25.168 21.0894 25.168C20.1934 25.168 19.3854 25.024 18.6654 24.736C17.9534 24.44 17.3454 24.02 16.8414 23.476C16.3374 22.932 15.9494 22.276 15.6774 21.508C15.4134 20.74 15.2814 19.876 15.2814 18.916C15.2814 17.964 15.4134 17.104 15.6774 16.336C15.9494 15.56 16.3374 14.9 16.8414 14.356C17.3454 13.812 17.9534 13.392 18.6654 13.096C19.3854 12.8 20.1934 12.652 21.0894 12.652ZM21.0894 23.5C22.2894 23.5 23.1854 23.1 23.7774 22.3C24.3694 21.492 24.6654 20.368 24.6654 18.928C24.6654 17.48 24.3694 16.352 23.7774 15.544C23.1854 14.736 22.2894 14.332 21.0894 14.332C20.4814 14.332 19.9494 14.436 19.4934 14.644C19.0454 14.852 18.6694 15.152 18.3654 15.544C18.0694 15.936 17.8454 16.42 17.6934 16.996C17.5494 17.564 17.4774 18.208 17.4774 18.928C17.4774 20.368 17.7734 21.492 18.3654 22.3C18.9654 23.1 19.8734 23.5 21.0894 23.5ZM31.7306 22.072C32.1226 22.6 32.5506 22.972 33.0146 23.188C33.4866 23.404 34.0026 23.512 34.5626 23.512C35.7066 23.512 36.5826 23.108 37.1906 22.3C37.7986 21.492 38.1026 20.288 38.1026 18.688C38.1026 17.2 37.8306 16.108 37.2866 15.412C36.7506 14.708 35.9826 14.356 34.9826 14.356C34.2866 14.356 33.6786 14.516 33.1586 14.836C32.6466 15.156 32.1706 15.608 31.7306 16.192V22.072ZM31.7306 14.596C32.2426 14.004 32.8186 13.532 33.4586 13.18C34.1066 12.828 34.8506 12.652 35.6906 12.652C36.4026 12.652 37.0426 12.788 37.6106 13.06C38.1866 13.332 38.6746 13.728 39.0746 14.248C39.4746 14.76 39.7786 15.384 39.9866 16.12C40.2026 16.856 40.3106 17.684 40.3106 18.604C40.3106 19.588 40.1906 20.484 39.9506 21.292C39.7106 22.1 39.3626 22.792 38.9066 23.368C38.4586 23.936 37.9106 24.38 37.2626 24.7C36.6146 25.012 35.8866 25.168 35.0786 25.168C34.2786 25.168 33.6026 25.02 33.0506 24.724C32.5066 24.42 32.0306 23.992 31.6226 23.44L31.5146 24.544C31.4506 24.848 31.2666 25 30.9626 25H29.5826V7.324H31.7306V14.596ZM48.1363 12.652C49.0243 12.652 49.8243 12.8 50.5363 13.096C51.2483 13.392 51.8563 13.812 52.3603 14.356C52.8643 14.9 53.2483 15.56 53.5123 16.336C53.7843 17.104 53.9203 17.964 53.9203 18.916C53.9203 19.876 53.7843 20.74 53.5123 21.508C53.2483 22.276 52.8643 22.932 52.3603 23.476C51.8563 24.02 51.2483 24.44 50.5363 24.736C49.8243 25.024 49.0243 25.168 48.1363 25.168C47.2403 25.168 46.4323 25.024 45.7123 24.736C45.0003 24.44 44.3923 24.02 43.8883 23.476C43.3843 22.932 42.9963 22.276 42.7243 21.508C42.4603 20.74 42.3283 19.876 42.3283 18.916C42.3283 17.964 42.4603 17.104 42.7243 16.336C42.9963 15.56 43.3843 14.9 43.8883 14.356C44.3923 13.812 45.0003 13.392 45.7123 13.096C46.4323 12.8 47.2403 12.652 48.1363 12.652ZM48.1363 23.5C49.3363 23.5 50.2323 23.1 50.8243 22.3C51.4163 21.492 51.7123 20.368 51.7123 18.928C51.7123 17.48 51.4163 16.352 50.8243 15.544C50.2323 14.736 49.3363 14.332 48.1363 14.332C47.5283 14.332 46.9963 14.436 46.5403 14.644C46.0923 14.852 45.7163 15.152 45.4123 15.544C45.1163 15.936 44.8923 16.42 44.7403 16.996C44.5963 17.564 44.5243 18.208 44.5243 18.928C44.5243 20.368 44.8203 21.492 45.4123 22.3C46.0123 23.1 46.9203 23.5 48.1363 23.5Z" fill="#0B0720"/>
<path d="M41.07 32.858C41.13 32.858 41.181 32.879 41.223 32.921L41.583 33.308C41.319 33.59 41.031 33.845 40.719 34.073C40.413 34.295 40.074 34.487 39.702 34.649C39.336 34.805 38.931 34.925 38.487 35.009C38.049 35.099 37.566 35.144 37.038 35.144C36.156 35.144 35.346 34.991 34.608 34.685C33.876 34.373 33.246 33.935 32.718 33.371C32.19 32.801 31.779 32.114 31.485 31.31C31.197 30.506 31.053 29.612 31.053 28.628C31.053 27.662 31.203 26.78 31.503 25.982C31.803 25.184 32.223 24.5 32.763 23.93C33.303 23.354 33.951 22.91 34.707 22.598C35.463 22.28 36.297 22.121 37.209 22.121C38.079 22.121 38.85 22.256 39.522 22.526C40.194 22.796 40.806 23.177 41.358 23.669L41.079 24.074C41.031 24.146 40.956 24.182 40.854 24.182C40.782 24.182 40.665 24.116 40.503 23.984C40.341 23.852 40.116 23.708 39.828 23.552C39.54 23.39 39.18 23.243 38.748 23.111C38.322 22.979 37.809 22.913 37.209 22.913C36.441 22.913 35.736 23.045 35.094 23.309C34.458 23.573 33.909 23.951 33.447 24.443C32.991 24.935 32.634 25.535 32.376 26.243C32.118 26.951 31.989 27.746 31.989 28.628C31.989 29.528 32.118 30.332 32.376 31.04C32.64 31.748 33 32.348 33.456 32.84C33.912 33.326 34.449 33.701 35.067 33.965C35.691 34.223 36.363 34.352 37.083 34.352C37.539 34.352 37.944 34.322 38.298 34.262C38.658 34.202 38.988 34.112 39.288 33.992C39.588 33.872 39.867 33.725 40.125 33.551C40.383 33.377 40.638 33.173 40.89 32.939C40.92 32.915 40.95 32.897 40.98 32.885C41.01 32.867 41.04 32.858 41.07 32.858ZM44.5851 21.905V35H43.7211V21.905H44.5851ZM48.5667 26.045V35H47.7117V26.045H48.5667ZM48.9357 22.958C48.9357 23.066 48.9117 23.168 48.8637 23.264C48.8217 23.354 48.7647 23.435 48.6927 23.507C48.6207 23.579 48.5367 23.636 48.4407 23.678C48.3447 23.72 48.2427 23.741 48.1347 23.741C48.0267 23.741 47.9247 23.72 47.8287 23.678C47.7327 23.636 47.6487 23.579 47.5767 23.507C47.5047 23.435 47.4477 23.354 47.4057 23.264C47.3637 23.168 47.3427 23.066 47.3427 22.958C47.3427 22.85 47.3637 22.748 47.4057 22.652C47.4477 22.55 47.5047 22.463 47.5767 22.391C47.6487 22.319 47.7327 22.262 47.8287 22.22C47.9247 22.178 48.0267 22.157 48.1347 22.157C48.2427 22.157 48.3447 22.178 48.4407 22.22C48.5367 22.262 48.6207 22.319 48.6927 22.391C48.7647 22.463 48.8217 22.55 48.8637 22.652C48.9117 22.748 48.9357 22.85 48.9357 22.958ZM57.6415 27.242C57.6115 27.272 57.5815 27.299 57.5515 27.323C57.5275 27.341 57.4915 27.35 57.4435 27.35C57.3835 27.35 57.3025 27.311 57.2005 27.233C57.0985 27.149 56.9605 27.059 56.7865 26.963C56.6125 26.867 56.3935 26.78 56.1295 26.702C55.8715 26.618 55.5565 26.576 55.1845 26.576C54.6685 26.576 54.2095 26.669 53.8075 26.855C53.4115 27.035 53.0755 27.296 52.7995 27.638C52.5235 27.98 52.3135 28.394 52.1695 28.88C52.0315 29.366 51.9625 29.912 51.9625 30.518C51.9625 31.148 52.0345 31.706 52.1785 32.192C52.3285 32.678 52.5385 33.089 52.8085 33.425C53.0785 33.755 53.4055 34.007 53.7895 34.181C54.1735 34.355 54.5995 34.442 55.0675 34.442C55.4995 34.442 55.8595 34.391 56.1475 34.289C56.4415 34.187 56.6815 34.076 56.8675 33.956C57.0595 33.836 57.2095 33.725 57.3175 33.623C57.4255 33.521 57.5155 33.47 57.5875 33.47C57.6595 33.47 57.7195 33.5 57.7675 33.56L57.9925 33.848C57.8545 34.028 57.6805 34.196 57.4705 34.352C57.2605 34.508 57.0235 34.643 56.7595 34.757C56.4955 34.871 56.2075 34.958 55.8955 35.018C55.5895 35.084 55.2685 35.117 54.9325 35.117C54.3625 35.117 53.8405 35.015 53.3665 34.811C52.8985 34.601 52.4935 34.301 52.1515 33.911C51.8155 33.515 51.5515 33.032 51.3595 32.462C51.1735 31.892 51.0805 31.244 51.0805 30.518C51.0805 29.834 51.1705 29.21 51.3505 28.646C51.5305 28.082 51.7945 27.596 52.1425 27.188C52.4905 26.78 52.9135 26.465 53.4115 26.243C53.9155 26.015 54.4915 25.901 55.1395 25.901C55.7215 25.901 56.2375 25.994 56.6875 26.18C57.1375 26.366 57.5305 26.618 57.8665 26.936L57.6415 27.242ZM60.9748 21.905V29.888H61.3888C61.4728 29.888 61.5508 29.876 61.6228 29.852C61.7008 29.828 61.7848 29.771 61.8748 29.681L65.4658 26.27C65.5258 26.198 65.5918 26.144 65.6638 26.108C65.7358 26.066 65.8258 26.045 65.9338 26.045H66.6898L62.7388 29.798C62.6308 29.924 62.5138 30.023 62.3878 30.095C62.4838 30.143 62.5648 30.2 62.6308 30.266C62.7028 30.326 62.7718 30.398 62.8378 30.482L66.9868 35H66.2398C66.1558 35 66.0778 34.988 66.0058 34.964C65.9398 34.934 65.8768 34.877 65.8168 34.793L62.0548 30.761C62.0068 30.707 61.9588 30.662 61.9108 30.626C61.8688 30.59 61.8238 30.563 61.7758 30.545C61.7278 30.521 61.6708 30.506 61.6048 30.5C61.5448 30.488 61.4698 30.482 61.3798 30.482H60.9748V35H60.1108V21.905H60.9748Z" fill="#50D3E8"/>
</svg>
