<svg width="74" height="47" viewBox="0 0 74 47" fill="none" xmlns="http://www.w3.org/2000/svg">
<path opacity="0.6" d="M46.3 29.238V39.498C43.72 41.358 40.72 42.288 37.3 42.288C35.2 42.288 33.298 41.964 31.594 41.316C29.902 40.656 28.456 39.744 27.256 38.58C26.056 37.404 25.132 36.006 24.484 34.386C23.836 32.766 23.512 30.984 23.512 29.04C23.512 27.084 23.824 25.296 24.448 23.676C25.072 22.044 25.966 20.646 27.13 19.482C28.294 18.306 29.698 17.4 31.342 16.764C32.986 16.116 34.834 15.792 36.886 15.792C37.93 15.792 38.896 15.876 39.784 16.044C40.684 16.2 41.518 16.422 42.286 16.71C43.054 16.998 43.762 17.346 44.41 17.754C45.058 18.162 45.652 18.618 46.192 19.122L44.986 21.048C44.794 21.348 44.548 21.534 44.248 21.606C43.948 21.678 43.624 21.606 43.276 21.39C42.928 21.186 42.556 20.97 42.16 20.742C41.776 20.514 41.332 20.304 40.828 20.112C40.324 19.908 39.742 19.746 39.082 19.626C38.422 19.494 37.642 19.428 36.742 19.428C35.374 19.428 34.138 19.656 33.034 20.112C31.942 20.556 31.006 21.198 30.226 22.038C29.446 22.866 28.846 23.874 28.426 25.062C28.006 26.25 27.796 27.576 27.796 29.04C27.796 30.588 28.018 31.974 28.462 33.198C28.906 34.41 29.536 35.442 30.352 36.294C31.168 37.134 32.152 37.776 33.304 38.22C34.468 38.664 35.764 38.886 37.192 38.886C38.26 38.886 39.208 38.772 40.036 38.544C40.876 38.316 41.698 37.998 42.502 37.59V32.442H38.884C38.608 32.442 38.392 32.37 38.236 32.226C38.08 32.07 38.002 31.872 38.002 31.632V29.238H46.3ZM69.2694 36.222C69.4974 36.222 69.6954 36.312 69.8634 36.492L71.5374 38.31C70.4814 39.582 69.1854 40.566 67.6494 41.262C66.1134 41.946 64.2774 42.288 62.1414 42.288C60.2454 42.288 58.5294 41.964 56.9934 41.316C55.4694 40.656 54.1674 39.744 53.0874 38.58C52.0074 37.404 51.1734 36.006 50.5854 34.386C50.0094 32.766 49.7214 30.984 49.7214 29.04C49.7214 27.096 50.0274 25.314 50.6394 23.694C51.2634 22.062 52.1334 20.664 53.2494 19.5C54.3774 18.324 55.7214 17.412 57.2814 16.764C58.8534 16.116 60.5814 15.792 62.4654 15.792C64.3374 15.792 65.9874 16.098 67.4154 16.71C68.8554 17.31 70.1034 18.114 71.1594 19.122L69.7734 21.084C69.6774 21.216 69.5634 21.33 69.4314 21.426C69.2994 21.522 69.1194 21.57 68.8914 21.57C68.6514 21.57 68.3754 21.462 68.0634 21.246C67.7634 21.018 67.3734 20.772 66.8934 20.508C66.4254 20.232 65.8314 19.986 65.1114 19.77C64.4034 19.542 63.5154 19.428 62.4474 19.428C61.2114 19.428 60.0774 19.644 59.0454 20.076C58.0134 20.508 57.1254 21.138 56.3814 21.966C55.6374 22.794 55.0554 23.802 54.6354 24.99C54.2274 26.178 54.0234 27.528 54.0234 29.04C54.0234 30.564 54.2394 31.926 54.6714 33.126C55.1034 34.314 55.6974 35.322 56.4534 36.15C57.2094 36.966 58.0974 37.59 59.1174 38.022C60.1374 38.454 61.2354 38.67 62.4114 38.67C63.1314 38.67 63.7734 38.634 64.3374 38.562C64.9134 38.478 65.4414 38.352 65.9214 38.184C66.4014 38.004 66.8514 37.782 67.2714 37.518C67.7034 37.254 68.1294 36.93 68.5494 36.546C68.7894 36.33 69.0294 36.222 69.2694 36.222Z" fill="#50D3E8"/>
<path d="M16.812 16.504C16.812 17.816 16.616 18.996 16.224 20.044C15.832 21.092 15.28 21.984 14.568 22.72C13.856 23.456 13 24.02 12 24.412C11.008 24.804 9.912 25 8.712 25H2.508V8.02H8.712C9.912 8.02 11.008 8.216 12 8.608C13 9 13.856 9.564 14.568 10.3C15.28 11.036 15.832 11.928 16.224 12.976C16.616 14.024 16.812 15.2 16.812 16.504ZM15.54 16.504C15.54 15.32 15.376 14.264 15.048 13.336C14.72 12.408 14.256 11.624 13.656 10.984C13.056 10.344 12.336 9.856 11.496 9.52C10.656 9.184 9.728 9.016 8.712 9.016H3.744V24.004H8.712C9.728 24.004 10.656 23.836 11.496 23.5C12.336 23.164 13.056 22.676 13.656 22.036C14.256 21.396 14.72 20.612 15.048 19.684C15.376 18.756 15.54 17.696 15.54 16.504ZM21.1931 13.06V25H20.0531V13.06H21.1931ZM21.6851 8.944C21.6851 9.088 21.6531 9.224 21.5891 9.352C21.5331 9.472 21.4571 9.58 21.3611 9.676C21.2651 9.772 21.1531 9.848 21.0251 9.904C20.8971 9.96 20.7611 9.988 20.6171 9.988C20.4731 9.988 20.3371 9.96 20.2091 9.904C20.0811 9.848 19.9691 9.772 19.8731 9.676C19.7771 9.58 19.7011 9.472 19.6451 9.352C19.5891 9.224 19.5611 9.088 19.5611 8.944C19.5611 8.8 19.5891 8.664 19.6451 8.536C19.7011 8.4 19.7771 8.284 19.8731 8.188C19.9691 8.092 20.0811 8.016 20.2091 7.96C20.3371 7.904 20.4731 7.876 20.6171 7.876C20.7611 7.876 20.8971 7.904 21.0251 7.96C21.1531 8.016 21.2651 8.092 21.3611 8.188C21.4571 8.284 21.5331 8.4 21.5891 8.536C21.6531 8.664 21.6851 8.8 21.6851 8.944ZM29.1649 19.72C29.6769 19.72 30.1329 19.648 30.5329 19.504C30.9329 19.352 31.2689 19.144 31.5409 18.88C31.8129 18.616 32.0209 18.3 32.1649 17.932C32.3089 17.564 32.3809 17.156 32.3809 16.708C32.3809 16.26 32.3049 15.852 32.1529 15.484C32.0089 15.108 31.7969 14.788 31.5169 14.524C31.2449 14.26 30.9089 14.056 30.5089 13.912C30.1169 13.768 29.6689 13.696 29.1649 13.696C28.6609 13.696 28.2089 13.768 27.8089 13.912C27.4169 14.056 27.0809 14.26 26.8009 14.524C26.5289 14.788 26.3209 15.108 26.1769 15.484C26.0329 15.852 25.9609 16.26 25.9609 16.708C25.9609 17.156 26.0329 17.564 26.1769 17.932C26.3209 18.3 26.5289 18.616 26.8009 18.88C27.0809 19.144 27.4169 19.352 27.8089 19.504C28.2089 19.648 28.6609 19.72 29.1649 19.72ZM33.6289 25.804C33.6289 25.428 33.5289 25.128 33.3289 24.904C33.1369 24.672 32.8769 24.492 32.5489 24.364C32.2209 24.236 31.8409 24.148 31.4089 24.1C30.9849 24.044 30.5369 24.004 30.0649 23.98C29.6009 23.956 29.1329 23.932 28.6609 23.908C28.1889 23.884 27.7449 23.836 27.3289 23.764C27.0249 23.884 26.7449 24.024 26.4889 24.184C26.2329 24.336 26.0129 24.512 25.8289 24.712C25.6449 24.912 25.5009 25.128 25.3969 25.36C25.2929 25.6 25.2409 25.856 25.2409 26.128C25.2409 26.48 25.3289 26.804 25.5049 27.1C25.6889 27.404 25.9529 27.664 26.2969 27.88C26.6489 28.104 27.0769 28.28 27.5809 28.408C28.0849 28.536 28.6649 28.6 29.3209 28.6C29.9289 28.6 30.4929 28.532 31.0129 28.396C31.5409 28.26 31.9969 28.068 32.3809 27.82C32.7729 27.572 33.0769 27.276 33.2929 26.932C33.5169 26.588 33.6289 26.212 33.6289 25.804ZM34.8769 13.588V13.984C34.8769 14.16 34.7649 14.268 34.5409 14.308L32.7169 14.44C32.9409 14.744 33.1129 15.084 33.2329 15.46C33.3529 15.836 33.4129 16.244 33.4129 16.684C33.4129 17.26 33.3089 17.784 33.1009 18.256C32.9009 18.72 32.6129 19.12 32.2369 19.456C31.8689 19.784 31.4209 20.04 30.8929 20.224C30.3729 20.408 29.7969 20.5 29.1649 20.5C28.4849 20.5 27.8649 20.396 27.3049 20.188C26.9689 20.38 26.7009 20.608 26.5009 20.872C26.3089 21.128 26.2129 21.384 26.2129 21.64C26.2129 21.984 26.3329 22.248 26.5729 22.432C26.8209 22.616 27.1409 22.752 27.5329 22.84C27.9329 22.92 28.3849 22.972 28.8889 22.996C29.4009 23.02 29.9209 23.048 30.4489 23.08C30.9769 23.104 31.4929 23.152 31.9969 23.224C32.5089 23.296 32.9609 23.424 33.3529 23.608C33.7529 23.784 34.0729 24.036 34.3129 24.364C34.5609 24.684 34.6849 25.112 34.6849 25.648C34.6849 26.144 34.5609 26.62 34.3129 27.076C34.0649 27.532 33.7049 27.936 33.2329 28.288C32.7689 28.64 32.2049 28.92 31.5409 29.128C30.8769 29.344 30.1329 29.452 29.3089 29.452C28.4689 29.452 27.7329 29.364 27.1009 29.188C26.4689 29.02 25.9369 28.788 25.5049 28.492C25.0809 28.204 24.7609 27.868 24.5449 27.484C24.3289 27.1 24.2209 26.692 24.2209 26.26C24.2209 25.628 24.4289 25.088 24.8449 24.64C25.2609 24.184 25.8289 23.828 26.5489 23.572C26.1489 23.436 25.8249 23.24 25.5769 22.984C25.3369 22.72 25.2169 22.364 25.2169 21.916C25.2169 21.748 25.2489 21.572 25.3129 21.388C25.3769 21.204 25.4729 21.024 25.6009 20.848C25.7289 20.664 25.8849 20.492 26.0689 20.332C26.2529 20.172 26.4609 20.028 26.6929 19.9C26.1249 19.572 25.6809 19.136 25.3609 18.592C25.0489 18.048 24.8929 17.412 24.8929 16.684C24.8929 16.108 24.9929 15.588 25.1929 15.124C25.4009 14.652 25.6929 14.248 26.0689 13.912C26.4449 13.576 26.8929 13.316 27.4129 13.132C27.9409 12.948 28.5249 12.856 29.1649 12.856C29.6929 12.856 30.1769 12.92 30.6169 13.048C31.0649 13.176 31.4649 13.356 31.8169 13.588H34.8769ZM38.7947 13.06V25H37.6547V13.06H38.7947ZM39.2867 8.944C39.2867 9.088 39.2547 9.224 39.1907 9.352C39.1347 9.472 39.0587 9.58 38.9627 9.676C38.8667 9.772 38.7547 9.848 38.6267 9.904C38.4987 9.96 38.3627 9.988 38.2187 9.988C38.0747 9.988 37.9387 9.96 37.8107 9.904C37.6827 9.848 37.5707 9.772 37.4747 9.676C37.3787 9.58 37.3027 9.472 37.2467 9.352C37.1907 9.224 37.1627 9.088 37.1627 8.944C37.1627 8.8 37.1907 8.664 37.2467 8.536C37.3027 8.4 37.3787 8.284 37.4747 8.188C37.5707 8.092 37.6827 8.016 37.8107 7.96C37.9387 7.904 38.0747 7.876 38.2187 7.876C38.3627 7.876 38.4987 7.904 38.6267 7.96C38.7547 8.016 38.8667 8.092 38.9627 8.188C39.0587 8.284 39.1347 8.4 39.1907 8.536C39.2547 8.664 39.2867 8.8 39.2867 8.944ZM46.1304 25.192C45.3224 25.192 44.6904 24.968 44.2344 24.52C43.7864 24.072 43.5624 23.38 43.5624 22.444V14.284H41.8464C41.7584 14.284 41.6864 14.26 41.6304 14.212C41.5744 14.164 41.5464 14.096 41.5464 14.008V13.564L43.5864 13.42L43.8744 9.148C43.8904 9.076 43.9224 9.012 43.9704 8.956C44.0184 8.9 44.0864 8.872 44.1744 8.872H44.7144V13.432H48.4824V14.284H44.7144V22.384C44.7144 22.712 44.7544 22.996 44.8344 23.236C44.9224 23.468 45.0384 23.66 45.1824 23.812C45.3344 23.964 45.5104 24.076 45.7104 24.148C45.9104 24.22 46.1264 24.256 46.3584 24.256C46.6464 24.256 46.8944 24.216 47.1024 24.136C47.3104 24.048 47.4904 23.956 47.6424 23.86C47.7944 23.756 47.9184 23.664 48.0144 23.584C48.1104 23.496 48.1864 23.452 48.2424 23.452C48.3064 23.452 48.3704 23.492 48.4344 23.572L48.7464 24.076C48.4424 24.412 48.0544 24.684 47.5824 24.892C47.1184 25.092 46.6344 25.192 46.1304 25.192ZM57.777 19.228C56.641 19.268 55.661 19.36 54.837 19.504C54.021 19.64 53.345 19.828 52.809 20.068C52.281 20.308 51.889 20.596 51.633 20.932C51.377 21.26 51.249 21.636 51.249 22.06C51.249 22.46 51.313 22.808 51.441 23.104C51.577 23.392 51.753 23.632 51.969 23.824C52.193 24.008 52.449 24.144 52.737 24.232C53.025 24.32 53.325 24.364 53.637 24.364C54.101 24.364 54.525 24.316 54.909 24.22C55.301 24.116 55.661 23.976 55.989 23.8C56.325 23.616 56.637 23.4 56.925 23.152C57.213 22.904 57.497 22.636 57.777 22.348V19.228ZM50.757 14.752C51.381 14.128 52.037 13.656 52.725 13.336C53.413 13.016 54.193 12.856 55.065 12.856C55.705 12.856 56.265 12.96 56.745 13.168C57.225 13.368 57.621 13.66 57.933 14.044C58.253 14.42 58.493 14.88 58.653 15.424C58.813 15.96 58.893 16.56 58.893 17.224V25H58.437C58.197 25 58.049 24.888 57.993 24.664L57.825 23.128C57.497 23.448 57.169 23.736 56.841 23.992C56.521 24.248 56.185 24.464 55.833 24.64C55.481 24.816 55.101 24.952 54.693 25.048C54.285 25.144 53.837 25.192 53.349 25.192C52.941 25.192 52.545 25.132 52.161 25.012C51.777 24.892 51.433 24.708 51.129 24.46C50.833 24.212 50.593 23.896 50.409 23.512C50.233 23.12 50.145 22.652 50.145 22.108C50.145 21.604 50.289 21.136 50.577 20.704C50.865 20.272 51.317 19.896 51.933 19.576C52.549 19.256 53.337 19 54.297 18.808C55.265 18.616 56.425 18.504 57.777 18.472V17.224C57.777 16.12 57.537 15.272 57.057 14.68C56.585 14.08 55.881 13.78 54.945 13.78C54.369 13.78 53.877 13.86 53.469 14.02C53.069 14.18 52.729 14.356 52.449 14.548C52.169 14.74 51.941 14.916 51.765 15.076C51.589 15.236 51.441 15.316 51.321 15.316C51.233 15.316 51.161 15.296 51.105 15.256C51.049 15.216 51.001 15.164 50.961 15.1L50.757 14.752ZM63.978 7.54V25H62.826V7.54H63.978Z" fill="#0B0720"/>
</svg>
