<svg width="70" height="70" viewBox="0 0 70 70" fill="none" xmlns="http://www.w3.org/2000/svg">
<path d="M6.5625 57.9688C7.16656 57.9688 7.65625 57.4791 7.65625 56.875C7.65625 56.2709 7.16656 55.7812 6.5625 55.7812C5.95844 55.7812 5.46875 56.2709 5.46875 56.875C5.46875 57.4791 5.95844 57.9688 6.5625 57.9688Z" fill="#363739"/>
<path d="M9.84375 57.9688C10.4478 57.9688 10.9375 57.4791 10.9375 56.875C10.9375 56.2709 10.4478 55.7812 9.84375 55.7812C9.23969 55.7812 8.75 56.2709 8.75 56.875C8.75 57.4791 9.23969 57.9688 9.84375 57.9688Z" fill="#363739"/>
<path d="M13.125 57.9688C13.7291 57.9688 14.2188 57.4791 14.2188 56.875C14.2188 56.2709 13.7291 55.7812 13.125 55.7812C12.5209 55.7812 12.0312 56.2709 12.0312 56.875C12.0312 57.4791 12.5209 57.9688 13.125 57.9688Z" fill="#363739"/>
<path d="M32.8125 53.5938H26.25V55.7812H32.8125V53.5938Z" fill="#363739"/>
<path d="M32.8125 57.9688H26.25V60.1562H32.8125V57.9688Z" fill="#363739"/>
<path d="M33.9062 35.1384V31.7188C33.9062 31.4287 33.791 31.1505 33.5859 30.9454C33.3808 30.7402 33.1026 30.625 32.8125 30.625H6.5625C5.98254 30.6243 5.42653 30.3937 5.01644 29.9836C4.60634 29.5735 4.37566 29.0175 4.375 28.4375V24.0625C4.37566 23.4825 4.60634 22.9265 5.01644 22.5164C5.42653 22.1063 5.98254 21.8757 6.5625 21.875H31.7188V19.6875H6.5625C5.40258 19.6888 4.29055 20.1502 3.47036 20.9704C2.65017 21.7905 2.18882 22.9026 2.1875 24.0625V28.4375C2.18874 29.4072 2.5115 30.349 3.10525 31.1156C3.699 31.8823 4.53022 32.4303 5.46875 32.6741V35.1384C4.53022 35.3822 3.699 35.9302 3.10525 36.6969C2.5115 37.4635 2.18874 38.4053 2.1875 39.375V43.75C2.18874 44.7197 2.5115 45.6615 3.10525 46.4281C3.699 47.1948 4.53022 47.7428 5.46875 47.9866V50.4509C4.53022 50.6947 3.699 51.2427 3.10525 52.0094C2.5115 52.776 2.18874 53.7178 2.1875 54.6875V59.0625C2.18874 60.0322 2.5115 60.974 3.10525 61.7406C3.699 62.5073 4.53022 63.0553 5.46875 63.2991V66.7188C5.46875 67.0088 5.58399 67.287 5.78911 67.4921C5.99422 67.6973 6.27242 67.8125 6.5625 67.8125H10.9375C11.2276 67.8125 11.5058 67.6973 11.7109 67.4921C11.916 67.287 12.0312 67.0088 12.0312 66.7188V63.4375H27.3438V66.7188C27.3438 67.0088 27.459 67.287 27.6641 67.4921C27.8692 67.6973 28.1474 67.8125 28.4375 67.8125H32.8125C33.1026 67.8125 33.3808 67.6973 33.5859 67.4921C33.791 67.287 33.9062 67.0088 33.9062 66.7188V63.2991C34.8448 63.0553 35.676 62.5073 36.2697 61.7406C36.8635 60.974 37.1863 60.0322 37.1875 59.0625V54.6875C37.1863 53.7178 36.8635 52.776 36.2697 52.0094C35.676 51.2427 34.8448 50.6947 33.9062 50.4509V47.9866C34.8448 47.7428 35.676 47.1948 36.2697 46.4281C36.8635 45.6615 37.1863 44.7197 37.1875 43.75V39.375C37.1863 38.4053 36.8635 37.4635 36.2697 36.6969C35.676 35.9302 34.8448 35.3822 33.9062 35.1384V35.1384ZM31.7188 35H29.5312V32.8125H31.7188V35ZM7.65625 35V32.8125H9.84375V35H7.65625ZM12.0312 32.8125H27.3438V35H12.0312V32.8125ZM29.5312 50.3125V48.125H31.7188V50.3125H29.5312ZM27.3438 50.3125H12.0312V48.125H27.3438V50.3125ZM9.84375 50.3125H7.65625V48.125H9.84375V50.3125ZM9.84375 65.625H7.65625V63.4375H9.84375V65.625ZM29.5312 65.625V63.4375H31.7188V65.625H29.5312ZM35 54.6875V59.0625C34.9993 59.6425 34.7687 60.1985 34.3586 60.6086C33.9485 61.0187 33.3925 61.2493 32.8125 61.25H6.5625C5.98254 61.2493 5.42653 61.0187 5.01644 60.6086C4.60634 60.1985 4.37566 59.6425 4.375 59.0625V54.6875C4.37566 54.1075 4.60634 53.5515 5.01644 53.1414C5.42653 52.7313 5.98254 52.5007 6.5625 52.5H32.8125C33.3925 52.5007 33.9485 52.7313 34.3586 53.1414C34.7687 53.5515 34.9993 54.1075 35 54.6875V54.6875ZM35 43.75C34.9993 44.33 34.7687 44.886 34.3586 45.2961C33.9485 45.7062 33.3925 45.9368 32.8125 45.9375H6.5625C5.98254 45.9368 5.42653 45.7062 5.01644 45.2961C4.60634 44.886 4.37566 44.33 4.375 43.75V39.375C4.37566 38.795 4.60634 38.239 5.01644 37.8289C5.42653 37.4188 5.98254 37.1882 6.5625 37.1875H32.8125C33.3925 37.1882 33.9485 37.4188 34.3586 37.8289C34.7687 38.239 34.9993 38.795 35 39.375V43.75Z" fill="#363739"/>
<path d="M6.5625 42.6562C7.16656 42.6562 7.65625 42.1666 7.65625 41.5625C7.65625 40.9584 7.16656 40.4688 6.5625 40.4688C5.95844 40.4688 5.46875 40.9584 5.46875 41.5625C5.46875 42.1666 5.95844 42.6562 6.5625 42.6562Z" fill="#363739"/>
<path d="M9.84375 42.6562C10.4478 42.6562 10.9375 42.1666 10.9375 41.5625C10.9375 40.9584 10.4478 40.4688 9.84375 40.4688C9.23969 40.4688 8.75 40.9584 8.75 41.5625C8.75 42.1666 9.23969 42.6562 9.84375 42.6562Z" fill="#363739"/>
<path d="M13.125 42.6562C13.7291 42.6562 14.2188 42.1666 14.2188 41.5625C14.2188 40.9584 13.7291 40.4688 13.125 40.4688C12.5209 40.4688 12.0312 40.9584 12.0312 41.5625C12.0312 42.1666 12.5209 42.6562 13.125 42.6562Z" fill="#363739"/>
<path d="M32.8125 38.2812H26.25V40.4688H32.8125V38.2812Z" fill="#363739"/>
<path d="M32.8125 42.6562H26.25V44.8438H32.8125V42.6562Z" fill="#363739"/>
<path d="M6.5625 27.3438C7.16656 27.3438 7.65625 26.8541 7.65625 26.25C7.65625 25.6459 7.16656 25.1562 6.5625 25.1562C5.95844 25.1562 5.46875 25.6459 5.46875 26.25C5.46875 26.8541 5.95844 27.3438 6.5625 27.3438Z" fill="#363739"/>
<path d="M9.84375 27.3438C10.4478 27.3438 10.9375 26.8541 10.9375 26.25C10.9375 25.6459 10.4478 25.1562 9.84375 25.1562C9.23969 25.1562 8.75 25.6459 8.75 26.25C8.75 26.8541 9.23969 27.3438 9.84375 27.3438Z" fill="#363739"/>
<path d="M13.125 27.3438C13.7291 27.3438 14.2188 26.8541 14.2188 26.25C14.2188 25.6459 13.7291 25.1562 13.125 25.1562C12.5209 25.1562 12.0312 25.6459 12.0312 26.25C12.0312 26.8541 12.5209 27.3438 13.125 27.3438Z" fill="#363739"/>
<path d="M64.5312 14.2188C64.53 13.2451 64.2045 12.2997 63.6062 11.5316C63.008 10.7635 62.1709 10.2165 61.2273 9.97686C61.1242 9.03924 60.679 8.17254 59.9769 7.5426C59.2748 6.91266 58.3651 6.5637 57.4219 6.5625H54.6875C53.8176 6.56348 52.9835 6.9095 52.3684 7.52464C51.7533 8.13978 51.4072 8.97381 51.4062 9.84375V25.1562C51.4072 26.0262 51.7533 26.8602 52.3684 27.4754C52.9835 28.0905 53.8176 28.4365 54.6875 28.4375H57.9688C58.6527 28.4375 59.3272 28.2772 59.9379 27.9693C60.5487 27.6615 61.0788 27.2147 61.4856 26.6649C61.8925 26.1151 62.1647 25.4775 62.2806 24.8034C62.3964 24.1293 62.3525 23.4375 62.1526 22.7834C62.8203 22.1191 63.2549 21.2564 63.3915 20.3244C63.528 19.3925 63.3591 18.4413 62.91 17.6134C63.4146 17.2028 63.8218 16.6853 64.1021 16.0983C64.3825 15.5113 64.5291 14.8693 64.5312 14.2188V14.2188ZM57.9688 26.25H54.6875C54.3975 26.2497 54.1195 26.1343 53.9145 25.9293C53.7094 25.7242 53.5941 25.4462 53.5938 25.1562V9.84375C53.5941 9.55377 53.7094 9.27576 53.9145 9.07072C54.1195 8.86567 54.3975 8.75033 54.6875 8.75H57.4219C57.8568 8.75049 58.2739 8.92349 58.5814 9.23106C58.889 9.53864 59.062 9.95565 59.0625 10.3906C59.0616 10.481 59.0532 10.5711 59.0373 10.6601C58.4401 10.1336 57.6712 9.84327 56.875 9.84375V12.0312C57.1651 12.0312 57.4433 12.1465 57.6484 12.3516C57.8535 12.5567 57.9688 12.8349 57.9688 13.125C57.9688 13.4151 57.8535 13.6933 57.6484 13.8984C57.4433 14.1035 57.1651 14.2188 56.875 14.2188V16.4062C57.7449 16.4053 58.579 16.0592 59.1941 15.4441C59.8092 14.829 60.1553 13.9949 60.1562 13.125C60.1563 13.1067 60.1552 13.0886 60.1548 13.0703C60.4244 12.7948 60.6509 12.4803 60.8268 12.1374C61.2134 12.2616 61.5577 12.491 61.8212 12.8C62.0847 13.1089 62.2568 13.4851 62.3184 13.8864C62.38 14.2878 62.3286 14.6983 62.17 15.0721C62.0113 15.4458 61.7516 15.7679 61.4201 16.0024C61.1383 15.8214 60.8366 15.6736 60.521 15.5618L59.792 17.6242C60.1 17.7335 60.3797 17.9102 60.6105 18.1416C60.8413 18.3729 61.0174 18.653 61.1259 18.9613C61.2343 19.2696 61.2724 19.5982 61.2373 19.9231C61.2023 20.2481 61.0949 20.561 60.9231 20.839C60.356 20.318 59.6612 19.9563 58.9093 19.7904C58.698 19.1264 58.2811 18.5466 57.7189 18.1349C57.1566 17.7232 56.4781 17.5009 55.7812 17.5V19.6875C56.0713 19.6875 56.3495 19.8027 56.5546 20.0079C56.7598 20.213 56.875 20.4912 56.875 20.7812C56.875 21.0713 56.7598 21.3495 56.5546 21.5546C56.3495 21.7598 56.0713 21.875 55.7812 21.875V24.0625C56.4288 24.0618 57.0617 23.8698 57.6005 23.5106C58.1393 23.1514 58.5599 22.6411 58.8096 22.0436C59.2765 22.2379 59.6616 22.5881 59.8994 23.0344C60.1372 23.4807 60.2129 23.9957 60.1138 24.4916C60.0147 24.9875 59.7468 25.4337 59.3557 25.7543C58.9646 26.0749 58.4745 26.2501 57.9688 26.25V26.25Z" fill="#363739"/>
<path d="M47.0313 6.5625H44.2969C43.3536 6.5637 42.4439 6.91266 41.7418 7.5426C41.0397 8.17254 40.5946 9.03924 40.4915 9.97686C39.7042 10.175 38.9876 10.5886 38.4221 11.1711C37.8567 11.7537 37.4646 12.4822 37.2899 13.2751C37.1152 14.0679 37.1648 14.8937 37.433 15.66C37.7013 16.4263 38.1777 17.1027 38.8088 17.6134C38.3597 18.4413 38.1908 19.3925 38.3273 20.3244C38.4638 21.2564 38.8985 22.1191 39.5662 22.7834C39.3662 23.4375 39.3224 24.1293 39.4382 24.8034C39.554 25.4775 39.8263 26.1151 40.2331 26.6649C40.6399 27.2147 41.17 27.6615 41.7808 27.9693C42.3916 28.2772 43.066 28.4375 43.75 28.4375H47.0313C47.9012 28.4365 48.7352 28.0905 49.3504 27.4754C49.9655 26.8602 50.3115 26.0262 50.3125 25.1562V9.84375C50.3115 8.97381 49.9655 8.13978 49.3504 7.52464C48.7352 6.9095 47.9012 6.56348 47.0313 6.5625V6.5625ZM48.125 25.1562C48.1247 25.4462 48.0093 25.7242 47.8043 25.9293C47.5992 26.1343 47.3212 26.2497 47.0313 26.25H43.75C43.2443 26.2501 42.7542 26.0749 42.3631 25.7543C41.972 25.4337 41.7041 24.9875 41.6049 24.4916C41.5058 23.9957 41.5816 23.4807 41.8194 23.0344C42.0572 22.5881 42.4423 22.2379 42.9091 22.0436C43.1588 22.6411 43.5795 23.1514 44.1183 23.5106C44.6571 23.8698 45.29 24.0618 45.9375 24.0625V21.875C45.6474 21.875 45.3692 21.7598 45.1641 21.5546C44.959 21.3495 44.8438 21.0713 44.8438 20.7812C44.8438 20.4912 44.959 20.213 45.1641 20.0079C45.3692 19.8027 45.6474 19.6875 45.9375 19.6875V17.5C45.2406 17.5009 44.5621 17.7232 43.9999 18.1349C43.4376 18.5466 43.0208 19.1263 42.8095 19.7904C42.0575 19.9563 41.3627 20.318 40.7956 20.839C40.6239 20.561 40.5165 20.248 40.4814 19.9231C40.4463 19.5982 40.4844 19.2696 40.5929 18.9613C40.7013 18.653 40.8774 18.3729 41.1082 18.1416C41.339 17.9102 41.6187 17.7334 41.9267 17.6242L41.1977 15.5618C40.8821 15.6736 40.5804 15.8214 40.2987 16.0023C39.9671 15.7679 39.7075 15.4458 39.5488 15.072C39.3901 14.6983 39.3387 14.2878 39.4003 13.8864C39.4619 13.4851 39.6341 13.1089 39.8976 12.7999C40.161 12.491 40.5054 12.2616 40.8919 12.1374C41.0678 12.4803 41.2944 12.7948 41.5639 13.0703C41.5636 13.0886 41.5625 13.1067 41.5625 13.125C41.5635 13.9949 41.9095 14.829 42.5246 15.4441C43.1398 16.0592 43.9738 16.4053 44.8438 16.4062V14.2188C44.5537 14.2188 44.2755 14.1035 44.0704 13.8984C43.8652 13.6933 43.75 13.4151 43.75 13.125C43.75 12.8349 43.8652 12.5567 44.0704 12.3516C44.2755 12.1465 44.5537 12.0312 44.8438 12.0312V9.84375C44.0476 9.84328 43.2787 10.1336 42.6815 10.6601C42.6395 10.4249 42.6499 10.1834 42.7119 9.95272C42.7739 9.72203 42.8861 9.50786 43.0403 9.32546C43.1946 9.14306 43.3872 8.99693 43.6044 8.89746C43.8216 8.79799 44.058 8.74764 44.2969 8.75H47.0313C47.3212 8.75033 47.5992 8.86567 47.8043 9.07072C48.0093 9.27576 48.1247 9.55377 48.125 9.84375V25.1562Z" fill="#363739"/>
<path d="M63.4375 2.1875H38.2812C37.1213 2.18882 36.0093 2.65017 35.1891 3.47036C34.3689 4.29055 33.9075 5.40258 33.9062 6.5625V21.422L27.664 27.6641C27.5111 27.8171 27.4069 28.012 27.3648 28.2241C27.3226 28.4363 27.3442 28.6562 27.427 28.8561C27.5098 29.0559 27.65 29.2267 27.8298 29.3469C28.0097 29.4671 28.2212 29.5312 28.4375 29.5312H34.0447C34.2884 30.4698 34.8364 31.301 35.603 31.8948C36.3697 32.4885 37.3115 32.8113 38.2812 32.8125H63.4375C64.5974 32.8112 65.7094 32.3498 66.5296 31.5296C67.3498 30.7095 67.8111 29.5974 67.8125 28.4375V6.5625C67.8111 5.40258 67.3498 4.29055 66.5296 3.47036C65.7094 2.65017 64.5974 2.18882 63.4375 2.1875V2.1875ZM65.625 28.4375C65.6243 29.0175 65.3936 29.5735 64.9835 29.9836C64.5734 30.3937 64.0174 30.6243 63.4375 30.625H38.2812C37.7013 30.6243 37.1452 30.3937 36.7352 29.9836C36.3251 29.5735 36.0944 29.0175 36.0937 28.4375C36.0937 28.1474 35.9785 27.8692 35.7734 27.6641C35.5682 27.459 35.29 27.3438 35 27.3438H31.078L35.7734 22.6484C35.9785 22.4433 36.0937 22.1651 36.0937 21.875V6.5625C36.0944 5.98254 36.3251 5.42653 36.7352 5.01644C37.1452 4.60634 37.7013 4.37566 38.2812 4.375H63.4375C64.0174 4.37566 64.5734 4.60634 64.9835 5.01644C65.3936 5.42653 65.6243 5.98254 65.625 6.5625V28.4375Z" fill="#363739"/>
</svg>
