<?xml version="1.0"?>
<svg xmlns="http://www.w3.org/2000/svg" id="Out_line" data-name="Out line" viewBox="0 0 512 512" width="512" height="512"><circle cx="48" cy="416" r="8"/><circle cx="72" cy="416" r="8"/><circle cx="96" cy="416" r="8"/><rect x="192" y="392" width="48" height="16"/><rect x="192" y="424" width="48" height="16"/><path d="M248,257.01263V232a8.00008,8.00008,0,0,0-8-8H48a16.01833,16.01833,0,0,1-16-16V176a16.01833,16.01833,0,0,1,16-16H232V144H48a32.03635,32.03635,0,0,0-32,32v32a32.05744,32.05744,0,0,0,24,30.98737v18.02526A32.05744,32.05744,0,0,0,16,288v32a32.05744,32.05744,0,0,0,24,30.98737v18.02526A32.05744,32.05744,0,0,0,16,400v32a32.05744,32.05744,0,0,0,24,30.98737V488a8.00008,8.00008,0,0,0,8,8H80a8.00008,8.00008,0,0,0,8-8V464H200v24a8.00008,8.00008,0,0,0,8,8h32a8.00008,8.00008,0,0,0,8-8V462.98737A32.05744,32.05744,0,0,0,272,432V400a32.05744,32.05744,0,0,0-24-30.98737V350.98737A32.05744,32.05744,0,0,0,272,320V288A32.05744,32.05744,0,0,0,248,257.01263ZM232,256H216V240h16ZM56,256V240H72v16Zm32-16H200v16H88ZM216,368V352h16v16Zm-16,0H88V352H200ZM72,368H56V352H72Zm0,112H56V464H72Zm144,0V464h16v16Zm40-80v32a16.01833,16.01833,0,0,1-16,16H48a16.01833,16.01833,0,0,1-16-16V400a16.01833,16.01833,0,0,1,16-16H240A16.01833,16.01833,0,0,1,256,400Zm0-80a16.01833,16.01833,0,0,1-16,16H48a16.01833,16.01833,0,0,1-16-16V288a16.01833,16.01833,0,0,1,16-16H240a16.01833,16.01833,0,0,1,16,16Z"/><circle cx="48" cy="304" r="8"/><circle cx="72" cy="304" r="8"/><circle cx="96" cy="304" r="8"/><rect x="192" y="280" width="48" height="16"/><rect x="192" y="312" width="48" height="16"/><circle cx="48" cy="192" r="8"/><circle cx="72" cy="192" r="8"/><circle cx="96" cy="192" r="8"/><path d="M472,104a32.05475,32.05475,0,0,0-24.16626-31.02643A28.03746,28.03746,0,0,0,420,48H400a24.02718,24.02718,0,0,0-24,24V184a24.02718,24.02718,0,0,0,24,24h24a31.99934,31.99934,0,0,0,30.60156-41.35577,31.89216,31.89216,0,0,0,5.5398-37.81482A32.14944,32.14944,0,0,0,472,104Zm-48,88H400a8.00917,8.00917,0,0,1-8-8V72a8.00917,8.00917,0,0,1,8-8h20a12.01343,12.01343,0,0,1,12,12,11.87672,11.87672,0,0,1-.18433,1.97107A23.89338,23.89338,0,0,0,416,72V88a8,8,0,0,1,0,16v16a24.02718,24.02718,0,0,0,24-24c0-.13409-.00781-.2663-.01025-.39984a28.09332,28.09332,0,0,0,4.915-6.82379,15.98428,15.98428,0,0,1,4.33935,28.26941,31.848,31.848,0,0,0-6.57617-3.222l-5.332,15.085a16.016,16.016,0,0,1,8.27319,23.51367,31.94454,31.94454,0,0,0-14.73-7.66967A24.04129,24.04129,0,0,0,408,128v16a8,8,0,0,1,0,16v16a24.03566,24.03566,0,0,0,22.15039-14.76685A15.99771,15.99771,0,0,1,424,192Z"/><path d="M344,48H324a28.03746,28.03746,0,0,0-27.83374,24.97357,31.97083,31.97083,0,0,0-12.30762,55.85584,31.89216,31.89216,0,0,0,5.5398,37.81482A31.99934,31.99934,0,0,0,320,208h24a24.02718,24.02718,0,0,0,24-24V72A24.02718,24.02718,0,0,0,344,48Zm8,136a8.00917,8.00917,0,0,1-8,8H320a15.99771,15.99771,0,0,1-6.15039-30.76685A24.03566,24.03566,0,0,0,336,176V160a8,8,0,0,1,0-16V128a24.04129,24.04129,0,0,0-22.87915,16.75269,31.94454,31.94454,0,0,0-14.73,7.66967,16.016,16.016,0,0,1,8.27319-23.51367l-5.332-15.085a31.848,31.848,0,0,0-6.57617,3.222,15.98428,15.98428,0,0,1,4.33935-28.26941,28.09332,28.09332,0,0,0,4.915,6.82379C304.00781,95.7337,304,95.86591,304,96a24.02718,24.02718,0,0,0,24,24V104a8,8,0,0,1,0-16V72a23.89412,23.89412,0,0,0-15.81567,5.971A11.88341,11.88341,0,0,1,324,64h20a8.00917,8.00917,0,0,1,8,8Z"/><path d="M464,16H280a32.03635,32.03635,0,0,0-32,32V156.68652l-45.65723,45.65674A8.00038,8.00038,0,0,0,208,216h41.0127A32.05589,32.05589,0,0,0,280,240H464a32.03635,32.03635,0,0,0,32-32V48A32.03635,32.03635,0,0,0,464,16Zm16,192a16.01833,16.01833,0,0,1-16,16H280a16.01833,16.01833,0,0,1-16-16,8.00008,8.00008,0,0,0-8-8H227.31348l34.34375-34.34326A8.00035,8.00035,0,0,0,264,160V48a16.01833,16.01833,0,0,1,16-16H464a16.01833,16.01833,0,0,1,16,16Z"/></svg>
