<svg width="88" height="109" viewBox="0 0 88 109" fill="none" xmlns="http://www.w3.org/2000/svg">
<path d="M3.00004 51.9996C10 77.4998 43 108 43 108C43 108 78.5 77.9998 85.5 51.9996C92.5 25.9993 76.5 12.1801 65 5.68067C53.5 -0.818744 31.4999 -0.319475 22.5 5.68056C13.5 11.6806 -3.99994 26.4994 3.00004 51.9996Z" fill="#5333ED" stroke="#5333ED"/>
<path d="M10.3161 50.6031C16.0254 71.4015 42.9407 96.2777 42.9407 96.2777C42.9407 96.2777 71.8951 71.8094 77.6044 50.6031C83.3138 29.3969 70.2639 18.1256 60.8843 12.8246C51.5047 7.52357 33.5611 7.93078 26.2205 12.8245C18.88 17.7183 4.60675 29.8047 10.3161 50.6031Z" fill="#F2F5FE" stroke="#5333ED"/>
<ellipse cx="44.5" cy="40" rx="22.5" ry="22" fill="#5333ED"/>
</svg>
