<svg width="435" height="837" viewBox="0 0 435 837" fill="none" xmlns="http://www.w3.org/2000/svg">
<rect width="375" height="812" transform="translate(30 25)" fill="white"/>
<g filter="url(#filter0_d)">
<rect x="30" y="25" width="375" height="217" fill="white"/>
</g>
<rect opacity="0.1" x="57" y="111" width="268" height="30" rx="5" fill="#363739"/>
<path d="M69.474 124.231C69.5113 124.175 69.5603 124.128 69.621 124.091C69.6863 124.054 69.754 124.035 69.824 124.035H70.335L68.291 126.779C68.1837 126.928 68.0647 127.057 67.934 127.164C67.808 127.267 67.654 127.346 67.472 127.402C67.6913 127.449 67.8803 127.53 68.039 127.647C68.1977 127.759 68.3423 127.911 68.473 128.102L70.552 131H70.083C69.9617 131 69.866 130.981 69.796 130.944C69.726 130.902 69.6653 130.841 69.614 130.762L67.85 128.291C67.7147 128.095 67.5513 127.948 67.36 127.85C67.1733 127.747 66.961 127.696 66.723 127.696H65.82V131.007H65.148V124.035H65.82V127.234H66.625C66.821 127.234 67.0053 127.187 67.178 127.094C67.3553 127.001 67.5023 126.872 67.619 126.709L69.474 124.231ZM77.5846 124.035L73.5806 133.24C73.5526 133.305 73.5153 133.359 73.4686 133.401C73.4266 133.443 73.3636 133.464 73.2796 133.464H72.8036L74.0286 130.741L71.0816 124.035H71.6346C71.7046 124.035 71.7606 124.054 71.8026 124.091C71.8446 124.124 71.8726 124.161 71.8866 124.203L74.2316 129.621C74.2596 129.691 74.2829 129.763 74.3016 129.838C74.3249 129.908 74.3459 129.98 74.3646 130.055C74.3879 129.98 74.4113 129.908 74.4346 129.838C74.4626 129.763 74.4906 129.691 74.5186 129.621L76.8356 124.203C76.8589 124.152 76.8916 124.112 76.9336 124.084C76.9756 124.051 77.0223 124.035 77.0736 124.035H77.5846ZM84.4649 131H83.7929V124.546H79.6559V131H78.9839V124.035H84.4649V131ZM92.3982 124.035V131H91.7332V125.386C91.7332 125.321 91.7356 125.251 91.7402 125.176C91.7449 125.101 91.7519 125.027 91.7612 124.952C91.7286 125.017 91.6959 125.078 91.6632 125.134C91.6352 125.185 91.6049 125.232 91.5722 125.274C91.5629 125.283 91.4976 125.372 91.3762 125.54C91.2549 125.703 91.0939 125.916 90.8932 126.177C90.6972 126.438 90.4732 126.735 90.2212 127.066C89.9739 127.397 89.7219 127.736 89.4652 128.081C88.8586 128.888 88.1702 129.805 87.4002 130.832C87.3722 130.874 87.3349 130.914 87.2882 130.951C87.2462 130.984 87.1996 131 87.1482 131H86.7632V124.035H87.4352V129.649C87.4352 129.714 87.4329 129.784 87.4282 129.859C87.4236 129.934 87.4166 130.008 87.4072 130.083C87.4352 130.018 87.4656 129.959 87.4982 129.908C87.5309 129.852 87.5612 129.803 87.5892 129.761C87.5939 129.752 87.6569 129.665 87.7782 129.502C87.9042 129.339 88.0652 129.126 88.2612 128.865C88.4619 128.599 88.6859 128.3 88.9332 127.969C89.1806 127.638 89.4349 127.299 89.6962 126.954C90.3029 126.147 90.9912 125.232 91.7612 124.21C91.7892 124.163 91.8242 124.124 91.8662 124.091C91.9129 124.054 91.9619 124.035 92.0132 124.035H92.3982ZM100.265 124.546H97.3529V131H96.6809V124.546H93.7689V124.035H100.265V124.546ZM104.102 130.503C104.42 130.503 104.695 130.466 104.928 130.391C105.162 130.312 105.355 130.204 105.509 130.069C105.663 129.929 105.778 129.766 105.852 129.579C105.927 129.388 105.964 129.18 105.964 128.956C105.964 128.751 105.932 128.557 105.866 128.375C105.806 128.193 105.701 128.034 105.551 127.899C105.407 127.764 105.213 127.656 104.97 127.577C104.728 127.498 104.429 127.458 104.074 127.458H102.282V130.503H104.102ZM104.074 126.961C104.55 126.961 104.947 127.017 105.264 127.129C105.586 127.241 105.843 127.39 106.034 127.577C106.226 127.759 106.361 127.969 106.44 128.207C106.524 128.445 106.566 128.69 106.566 128.942C106.566 129.236 106.513 129.509 106.405 129.761C106.303 130.013 106.146 130.232 105.936 130.419C105.731 130.601 105.474 130.743 105.166 130.846C104.863 130.949 104.511 131 104.109 131H101.638V124.035H102.282V126.961H104.074ZM116.726 124.966C116.702 124.989 116.679 125.01 116.656 125.029C116.637 125.043 116.609 125.05 116.572 125.05C116.525 125.05 116.462 125.02 116.383 124.959C116.303 124.894 116.196 124.824 116.061 124.749C115.925 124.674 115.755 124.607 115.55 124.546C115.349 124.481 115.104 124.448 114.815 124.448C114.413 124.448 114.056 124.52 113.744 124.665C113.436 124.805 113.174 125.008 112.96 125.274C112.745 125.54 112.582 125.862 112.47 126.24C112.362 126.618 112.309 127.043 112.309 127.514C112.309 128.004 112.365 128.438 112.477 128.816C112.593 129.194 112.757 129.514 112.967 129.775C113.177 130.032 113.431 130.228 113.73 130.363C114.028 130.498 114.36 130.566 114.724 130.566C115.06 130.566 115.34 130.526 115.564 130.447C115.792 130.368 115.979 130.281 116.124 130.188C116.273 130.095 116.39 130.008 116.474 129.929C116.558 129.85 116.628 129.81 116.684 129.81C116.74 129.81 116.786 129.833 116.824 129.88L116.999 130.104C116.891 130.244 116.756 130.375 116.593 130.496C116.429 130.617 116.245 130.722 116.04 130.811C115.834 130.9 115.61 130.967 115.368 131.014C115.13 131.065 114.88 131.091 114.619 131.091C114.175 131.091 113.769 131.012 113.401 130.853C113.037 130.69 112.722 130.456 112.456 130.153C112.194 129.845 111.989 129.469 111.84 129.026C111.695 128.583 111.623 128.079 111.623 127.514C111.623 126.982 111.693 126.497 111.833 126.058C111.973 125.619 112.178 125.241 112.449 124.924C112.719 124.607 113.048 124.362 113.436 124.189C113.828 124.012 114.276 123.923 114.78 123.923C115.232 123.923 115.634 123.995 115.984 124.14C116.334 124.285 116.639 124.481 116.901 124.728L116.726 124.966ZM124.323 131H123.651V124.567H120.837C120.79 125.486 120.711 126.287 120.599 126.968C120.492 127.645 120.363 128.226 120.214 128.711C120.065 129.192 119.897 129.586 119.71 129.894C119.523 130.202 119.327 130.445 119.122 130.622C118.921 130.799 118.716 130.921 118.506 130.986C118.296 131.051 118.088 131.084 117.883 131.084C117.771 131.084 117.673 131.075 117.589 131.056C117.505 131.037 117.463 131.009 117.463 130.972V130.545H117.771C117.939 130.545 118.109 130.512 118.282 130.447C118.459 130.377 118.634 130.253 118.807 130.076C118.98 129.899 119.145 129.656 119.304 129.348C119.463 129.04 119.605 128.646 119.731 128.165C119.862 127.68 119.974 127.099 120.067 126.422C120.165 125.745 120.235 124.95 120.277 124.035H124.323V131ZM129.375 123.923C129.874 123.923 130.32 124.009 130.712 124.182C131.108 124.35 131.442 124.59 131.713 124.903C131.983 125.216 132.189 125.594 132.329 126.037C132.473 126.476 132.546 126.968 132.546 127.514C132.546 128.06 132.473 128.552 132.329 128.991C132.189 129.43 131.983 129.805 131.713 130.118C131.442 130.431 131.108 130.671 130.712 130.839C130.32 131.007 129.874 131.091 129.375 131.091C128.875 131.091 128.427 131.007 128.031 130.839C127.639 130.671 127.305 130.431 127.03 130.118C126.759 129.805 126.551 129.43 126.407 128.991C126.267 128.552 126.197 128.06 126.197 127.514C126.197 126.968 126.267 126.476 126.407 126.037C126.551 125.594 126.759 125.216 127.03 124.903C127.305 124.59 127.639 124.35 128.031 124.182C128.427 124.009 128.875 123.923 129.375 123.923ZM129.375 130.566C129.79 130.566 130.152 130.496 130.46 130.356C130.772 130.211 131.031 130.006 131.237 129.74C131.447 129.474 131.603 129.154 131.706 128.781C131.808 128.403 131.86 127.981 131.86 127.514C131.86 127.052 131.808 126.632 131.706 126.254C131.603 125.876 131.447 125.554 131.237 125.288C131.031 125.017 130.772 124.81 130.46 124.665C130.152 124.52 129.79 124.448 129.375 124.448C128.959 124.448 128.595 124.52 128.283 124.665C127.975 124.81 127.716 125.017 127.506 125.288C127.3 125.554 127.144 125.876 127.037 126.254C126.934 126.632 126.883 127.052 126.883 127.514C126.883 127.981 126.934 128.403 127.037 128.781C127.144 129.154 127.3 129.474 127.506 129.74C127.716 130.006 127.975 130.211 128.283 130.356C128.595 130.496 128.959 130.566 129.375 130.566ZM139.904 124.035V131H139.232V127.507H135.095V131H134.423V124.035H135.095V126.996H139.232V124.035H139.904ZM146.102 127.633C145.439 127.656 144.867 127.71 144.387 127.794C143.911 127.873 143.516 127.983 143.204 128.123C142.896 128.263 142.667 128.431 142.518 128.627C142.368 128.818 142.294 129.038 142.294 129.285C142.294 129.518 142.331 129.721 142.406 129.894C142.485 130.062 142.588 130.202 142.714 130.314C142.844 130.421 142.994 130.501 143.162 130.552C143.33 130.603 143.505 130.629 143.687 130.629C143.957 130.629 144.205 130.601 144.429 130.545C144.657 130.484 144.867 130.403 145.059 130.3C145.255 130.193 145.437 130.067 145.605 129.922C145.773 129.777 145.938 129.621 146.102 129.453V127.633ZM142.007 125.022C142.371 124.658 142.753 124.383 143.155 124.196C143.556 124.009 144.011 123.916 144.52 123.916C144.893 123.916 145.22 123.977 145.5 124.098C145.78 124.215 146.011 124.385 146.193 124.609C146.379 124.828 146.519 125.097 146.613 125.414C146.706 125.727 146.753 126.077 146.753 126.464V131H146.487C146.347 131 146.26 130.935 146.228 130.804L146.13 129.908C145.938 130.095 145.747 130.263 145.556 130.412C145.369 130.561 145.173 130.687 144.968 130.79C144.762 130.893 144.541 130.972 144.303 131.028C144.065 131.084 143.803 131.112 143.519 131.112C143.281 131.112 143.05 131.077 142.826 131.007C142.602 130.937 142.401 130.83 142.224 130.685C142.051 130.54 141.911 130.356 141.804 130.132C141.701 129.903 141.65 129.63 141.65 129.313C141.65 129.019 141.734 128.746 141.902 128.494C142.07 128.242 142.333 128.023 142.693 127.836C143.052 127.649 143.512 127.5 144.072 127.388C144.636 127.276 145.313 127.211 146.102 127.192V126.464C146.102 125.82 145.962 125.325 145.682 124.98C145.406 124.63 144.996 124.455 144.45 124.455C144.114 124.455 143.827 124.502 143.589 124.595C143.355 124.688 143.157 124.791 142.994 124.903C142.83 125.015 142.697 125.118 142.595 125.211C142.492 125.304 142.406 125.351 142.336 125.351C142.284 125.351 142.242 125.339 142.21 125.316C142.177 125.293 142.149 125.262 142.126 125.225L142.007 125.022ZM158.266 124.035V131H157.594V127.507H153.457V131H152.785V124.035H153.457V126.996H157.594V124.035H158.266ZM164.463 127.633C163.8 127.656 163.229 127.71 162.748 127.794C162.272 127.873 161.878 127.983 161.565 128.123C161.257 128.263 161.028 128.431 160.879 128.627C160.73 128.818 160.655 129.038 160.655 129.285C160.655 129.518 160.692 129.721 160.767 129.894C160.846 130.062 160.949 130.202 161.075 130.314C161.206 130.421 161.355 130.501 161.523 130.552C161.691 130.603 161.866 130.629 162.048 130.629C162.319 130.629 162.566 130.601 162.79 130.545C163.019 130.484 163.229 130.403 163.42 130.3C163.616 130.193 163.798 130.067 163.966 129.922C164.134 129.777 164.3 129.621 164.463 129.453V127.633ZM160.368 125.022C160.732 124.658 161.115 124.383 161.516 124.196C161.917 124.009 162.372 123.916 162.881 123.916C163.254 123.916 163.581 123.977 163.861 124.098C164.141 124.215 164.372 124.385 164.554 124.609C164.741 124.828 164.881 125.097 164.974 125.414C165.067 125.727 165.114 126.077 165.114 126.464V131H164.848C164.708 131 164.622 130.935 164.589 130.804L164.491 129.908C164.3 130.095 164.108 130.263 163.917 130.412C163.73 130.561 163.534 130.687 163.329 130.79C163.124 130.893 162.902 130.972 162.664 131.028C162.426 131.084 162.165 131.112 161.88 131.112C161.642 131.112 161.411 131.077 161.187 131.007C160.963 130.937 160.762 130.83 160.585 130.685C160.412 130.54 160.272 130.356 160.165 130.132C160.062 129.903 160.011 129.63 160.011 129.313C160.011 129.019 160.095 128.746 160.263 128.494C160.431 128.242 160.695 128.023 161.054 127.836C161.413 127.649 161.873 127.5 162.433 127.388C162.998 127.276 163.674 127.211 164.463 127.192V126.464C164.463 125.82 164.323 125.325 164.043 124.98C163.768 124.63 163.357 124.455 162.811 124.455C162.475 124.455 162.188 124.502 161.95 124.595C161.717 124.688 161.518 124.791 161.355 124.903C161.192 125.015 161.059 125.118 160.956 125.211C160.853 125.304 160.767 125.351 160.697 125.351C160.646 125.351 160.604 125.339 160.571 125.316C160.538 125.293 160.51 125.262 160.487 125.225L160.368 125.022ZM166.862 124.693C167.11 124.464 167.415 124.28 167.779 124.14C168.148 123.995 168.58 123.923 169.074 123.923C169.485 123.923 169.844 123.974 170.152 124.077C170.46 124.18 170.717 124.315 170.922 124.483C171.128 124.646 171.279 124.833 171.377 125.043C171.48 125.253 171.531 125.465 171.531 125.68C171.531 125.829 171.503 125.986 171.447 126.149C171.396 126.308 171.31 126.459 171.188 126.604C171.072 126.749 170.915 126.882 170.719 127.003C170.528 127.12 170.292 127.211 170.012 127.276C170.572 127.393 170.997 127.61 171.286 127.927C171.576 128.24 171.72 128.615 171.72 129.054C171.72 129.357 171.653 129.635 171.517 129.887C171.382 130.134 171.195 130.349 170.957 130.531C170.719 130.708 170.442 130.846 170.124 130.944C169.807 131.042 169.466 131.091 169.102 131.091C168.846 131.091 168.598 131.065 168.36 131.014C168.122 130.967 167.901 130.9 167.695 130.811C167.49 130.722 167.303 130.617 167.135 130.496C166.972 130.375 166.837 130.244 166.729 130.104L166.904 129.88C166.942 129.833 166.988 129.81 167.044 129.81C167.1 129.81 167.173 129.85 167.261 129.929C167.355 130.008 167.478 130.095 167.632 130.188C167.791 130.281 167.985 130.368 168.213 130.447C168.447 130.526 168.729 130.566 169.06 130.566C169.368 130.566 169.646 130.529 169.893 130.454C170.141 130.375 170.353 130.267 170.53 130.132C170.708 129.992 170.843 129.826 170.936 129.635C171.034 129.444 171.083 129.234 171.083 129.005C171.083 128.79 171.037 128.594 170.943 128.417C170.855 128.235 170.719 128.081 170.537 127.955C170.36 127.824 170.138 127.724 169.872 127.654C169.606 127.579 169.301 127.542 168.955 127.542H168.171V127.08H168.955C169.254 127.08 169.525 127.047 169.767 126.982C170.015 126.912 170.222 126.819 170.39 126.702C170.563 126.581 170.696 126.441 170.789 126.282C170.883 126.119 170.929 125.941 170.929 125.75C170.929 125.582 170.892 125.421 170.817 125.267C170.743 125.108 170.628 124.968 170.474 124.847C170.32 124.726 170.124 124.63 169.886 124.56C169.653 124.485 169.375 124.448 169.053 124.448C168.745 124.448 168.482 124.478 168.262 124.539C168.043 124.6 167.861 124.667 167.716 124.742C167.572 124.817 167.455 124.884 167.366 124.945C167.282 125.006 167.219 125.036 167.177 125.036C167.14 125.036 167.11 125.029 167.086 125.015C167.063 125.001 167.04 124.975 167.016 124.938L166.862 124.693ZM176.057 130.524C176.351 130.524 176.617 130.489 176.855 130.419C177.093 130.349 177.294 130.249 177.457 130.118C177.621 129.987 177.747 129.829 177.835 129.642C177.924 129.455 177.968 129.248 177.968 129.019C177.968 128.809 177.933 128.618 177.863 128.445C177.793 128.272 177.681 128.125 177.527 128.004C177.378 127.878 177.182 127.782 176.939 127.717C176.701 127.647 176.414 127.612 176.078 127.612H174.237V130.524H176.057ZM174.237 124.497V127.164H175.889C176.141 127.164 176.375 127.131 176.589 127.066C176.804 126.996 176.988 126.898 177.142 126.772C177.296 126.646 177.415 126.497 177.499 126.324C177.588 126.147 177.632 125.951 177.632 125.736C177.632 125.577 177.602 125.426 177.541 125.281C177.485 125.132 177.387 124.999 177.247 124.882C177.112 124.765 176.932 124.672 176.708 124.602C176.489 124.532 176.216 124.497 175.889 124.497H174.237ZM175.91 124.035C176.33 124.035 176.687 124.079 176.981 124.168C177.275 124.252 177.513 124.369 177.695 124.518C177.877 124.663 178.01 124.833 178.094 125.029C178.178 125.225 178.22 125.43 178.22 125.645C178.22 125.799 178.197 125.962 178.15 126.135C178.104 126.303 178.024 126.466 177.912 126.625C177.8 126.784 177.649 126.926 177.457 127.052C177.271 127.178 177.035 127.271 176.75 127.332C177.38 127.407 177.845 127.596 178.143 127.899C178.442 128.198 178.591 128.573 178.591 129.026C178.591 129.339 178.528 129.619 178.402 129.866C178.281 130.109 178.108 130.314 177.884 130.482C177.665 130.65 177.399 130.778 177.086 130.867C176.778 130.956 176.438 131 176.064 131H173.593V124.035H175.91ZM184.342 127.633C183.679 127.656 183.108 127.71 182.627 127.794C182.151 127.873 181.757 127.983 181.444 128.123C181.136 128.263 180.907 128.431 180.758 128.627C180.609 128.818 180.534 129.038 180.534 129.285C180.534 129.518 180.571 129.721 180.646 129.894C180.725 130.062 180.828 130.202 180.954 130.314C181.085 130.421 181.234 130.501 181.402 130.552C181.57 130.603 181.745 130.629 181.927 130.629C182.198 130.629 182.445 130.601 182.669 130.545C182.898 130.484 183.108 130.403 183.299 130.3C183.495 130.193 183.677 130.067 183.845 129.922C184.013 129.777 184.179 129.621 184.342 129.453V127.633ZM180.247 125.022C180.611 124.658 180.994 124.383 181.395 124.196C181.796 124.009 182.251 123.916 182.76 123.916C183.133 123.916 183.46 123.977 183.74 124.098C184.02 124.215 184.251 124.385 184.433 124.609C184.62 124.828 184.76 125.097 184.853 125.414C184.946 125.727 184.993 126.077 184.993 126.464V131H184.727C184.587 131 184.501 130.935 184.468 130.804L184.37 129.908C184.179 130.095 183.987 130.263 183.796 130.412C183.609 130.561 183.413 130.687 183.208 130.79C183.003 130.893 182.781 130.972 182.543 131.028C182.305 131.084 182.044 131.112 181.759 131.112C181.521 131.112 181.29 131.077 181.066 131.007C180.842 130.937 180.641 130.83 180.464 130.685C180.291 130.54 180.151 130.356 180.044 130.132C179.941 129.903 179.89 129.63 179.89 129.313C179.89 129.019 179.974 128.746 180.142 128.494C180.31 128.242 180.574 128.023 180.933 127.836C181.292 127.649 181.752 127.5 182.312 127.388C182.877 127.276 183.553 127.211 184.342 127.192V126.464C184.342 125.82 184.202 125.325 183.922 124.98C183.647 124.63 183.236 124.455 182.69 124.455C182.354 124.455 182.067 124.502 181.829 124.595C181.596 124.688 181.397 124.791 181.234 124.903C181.071 125.015 180.938 125.118 180.835 125.211C180.732 125.304 180.646 125.351 180.576 125.351C180.525 125.351 180.483 125.339 180.45 125.316C180.417 125.293 180.389 125.262 180.366 125.225L180.247 125.022ZM192.705 124.035V131H192.033V127.507H187.896V131H187.224V124.035H187.896V126.996H192.033V124.035H192.705ZM200.638 124.035V131H199.973V125.386C199.973 125.321 199.976 125.251 199.98 125.176C199.985 125.101 199.992 125.027 200.001 124.952C199.969 125.017 199.936 125.078 199.903 125.134C199.875 125.185 199.845 125.232 199.812 125.274C199.803 125.283 199.738 125.372 199.616 125.54C199.495 125.703 199.334 125.916 199.133 126.177C198.937 126.438 198.713 126.735 198.461 127.066C198.214 127.397 197.962 127.736 197.705 128.081C197.099 128.888 196.41 129.805 195.64 130.832C195.612 130.874 195.575 130.914 195.528 130.951C195.486 130.984 195.44 131 195.388 131H195.003V124.035H195.675V129.649C195.675 129.714 195.673 129.784 195.668 129.859C195.664 129.934 195.657 130.008 195.647 130.083C195.675 130.018 195.706 129.959 195.738 129.908C195.771 129.852 195.801 129.803 195.829 129.761C195.834 129.752 195.897 129.665 196.018 129.502C196.144 129.339 196.305 129.126 196.501 128.865C196.702 128.599 196.926 128.3 197.173 127.969C197.421 127.638 197.675 127.299 197.936 126.954C198.543 126.147 199.231 125.232 200.001 124.21C200.029 124.163 200.064 124.124 200.106 124.091C200.153 124.054 200.202 124.035 200.253 124.035H200.638ZM207.819 126.814C207.819 126.441 207.765 126.107 207.658 125.813C207.555 125.514 207.408 125.262 207.217 125.057C207.026 124.852 206.797 124.695 206.531 124.588C206.27 124.476 205.98 124.42 205.663 124.42C205.304 124.42 204.982 124.476 204.697 124.588C204.412 124.7 204.165 124.861 203.955 125.071C203.75 125.281 203.584 125.533 203.458 125.827C203.332 126.121 203.248 126.45 203.206 126.814H207.819ZM203.171 127.241V127.374C203.171 127.897 203.232 128.356 203.353 128.753C203.474 129.15 203.647 129.483 203.871 129.754C204.095 130.02 204.366 130.221 204.683 130.356C205 130.491 205.355 130.559 205.747 130.559C206.097 130.559 206.4 130.522 206.657 130.447C206.914 130.368 207.128 130.281 207.301 130.188C207.478 130.09 207.618 130.004 207.721 129.929C207.824 129.85 207.898 129.81 207.945 129.81C208.006 129.81 208.052 129.833 208.085 129.88L208.267 130.104C208.155 130.244 208.006 130.375 207.819 130.496C207.637 130.617 207.432 130.722 207.203 130.811C206.979 130.895 206.736 130.963 206.475 131.014C206.218 131.065 205.959 131.091 205.698 131.091C205.222 131.091 204.788 131.009 204.396 130.846C204.004 130.678 203.668 130.435 203.388 130.118C203.108 129.801 202.891 129.413 202.737 128.956C202.588 128.494 202.513 127.967 202.513 127.374C202.513 126.875 202.583 126.415 202.723 125.995C202.868 125.57 203.073 125.206 203.339 124.903C203.61 124.595 203.939 124.355 204.326 124.182C204.718 124.009 205.161 123.923 205.656 123.923C206.048 123.923 206.412 123.991 206.748 124.126C207.084 124.261 207.376 124.46 207.623 124.721C207.87 124.978 208.064 125.295 208.204 125.673C208.349 126.051 208.421 126.485 208.421 126.975C208.421 127.078 208.407 127.148 208.379 127.185C208.351 127.222 208.304 127.241 208.239 127.241H203.171ZM217.556 130.426C218.424 130.426 219.079 130.239 219.523 129.866C219.971 129.488 220.195 128.958 220.195 128.277C220.195 127.964 220.134 127.684 220.013 127.437C219.896 127.185 219.726 126.973 219.502 126.8C219.278 126.623 219.002 126.487 218.676 126.394C218.349 126.301 217.978 126.254 217.563 126.254H215.071V130.426H217.556ZM215.071 121.662V125.729H217.213C217.67 125.729 218.06 125.671 218.382 125.554C218.708 125.437 218.974 125.283 219.18 125.092C219.39 124.901 219.544 124.684 219.642 124.441C219.74 124.198 219.789 123.949 219.789 123.692C219.789 123.025 219.576 122.521 219.152 122.18C218.732 121.835 218.081 121.662 217.199 121.662H215.071ZM217.199 121.095C217.763 121.095 218.253 121.151 218.669 121.263C219.084 121.375 219.427 121.541 219.698 121.76C219.968 121.975 220.169 122.238 220.3 122.551C220.43 122.864 220.496 123.218 220.496 123.615C220.496 123.876 220.449 124.128 220.356 124.371C220.267 124.614 220.136 124.838 219.964 125.043C219.796 125.248 219.586 125.428 219.334 125.582C219.086 125.731 218.802 125.846 218.48 125.925C219.259 126.037 219.856 126.296 220.272 126.702C220.692 127.103 220.902 127.633 220.902 128.291C220.902 128.711 220.827 129.089 220.678 129.425C220.528 129.761 220.311 130.046 220.027 130.279C219.742 130.512 219.392 130.692 218.977 130.818C218.561 130.939 218.09 131 217.563 131H214.35V121.095H217.199ZM226.656 127.633C225.994 127.656 225.422 127.71 224.941 127.794C224.465 127.873 224.071 127.983 223.758 128.123C223.45 128.263 223.222 128.431 223.072 128.627C222.923 128.818 222.848 129.038 222.848 129.285C222.848 129.518 222.886 129.721 222.96 129.894C223.04 130.062 223.142 130.202 223.268 130.314C223.399 130.421 223.548 130.501 223.716 130.552C223.884 130.603 224.059 130.629 224.241 130.629C224.512 130.629 224.759 130.601 224.983 130.545C225.212 130.484 225.422 130.403 225.613 130.3C225.809 130.193 225.991 130.067 226.159 129.922C226.327 129.777 226.493 129.621 226.656 129.453V127.633ZM222.561 125.022C222.925 124.658 223.308 124.383 223.709 124.196C224.111 124.009 224.566 123.916 225.074 123.916C225.448 123.916 225.774 123.977 226.054 124.098C226.334 124.215 226.565 124.385 226.747 124.609C226.934 124.828 227.074 125.097 227.167 125.414C227.261 125.727 227.307 126.077 227.307 126.464V131H227.041C226.901 131 226.815 130.935 226.782 130.804L226.684 129.908C226.493 130.095 226.302 130.263 226.11 130.412C225.924 130.561 225.728 130.687 225.522 130.79C225.317 130.893 225.095 130.972 224.857 131.028C224.619 131.084 224.358 131.112 224.073 131.112C223.835 131.112 223.604 131.077 223.38 131.007C223.156 130.937 222.956 130.83 222.778 130.685C222.606 130.54 222.466 130.356 222.358 130.132C222.256 129.903 222.204 129.63 222.204 129.313C222.204 129.019 222.288 128.746 222.456 128.494C222.624 128.242 222.888 128.023 223.247 127.836C223.607 127.649 224.066 127.5 224.626 127.388C225.191 127.276 225.868 127.211 226.656 127.192V126.464C226.656 125.82 226.516 125.325 226.236 124.98C225.961 124.63 225.55 124.455 225.004 124.455C224.668 124.455 224.381 124.502 224.143 124.595C223.91 124.688 223.712 124.791 223.548 124.903C223.385 125.015 223.252 125.118 223.149 125.211C223.047 125.304 222.96 125.351 222.89 125.351C222.839 125.351 222.797 125.339 222.764 125.316C222.732 125.293 222.704 125.262 222.68 125.225L222.561 125.022ZM238.604 124.035V131H229.539V124.035H230.211V130.489H233.739V124.035H234.404V130.489H237.932V124.035H238.604ZM245.786 126.814C245.786 126.441 245.732 126.107 245.625 125.813C245.522 125.514 245.375 125.262 245.184 125.057C244.993 124.852 244.764 124.695 244.498 124.588C244.237 124.476 243.947 124.42 243.63 124.42C243.271 124.42 242.949 124.476 242.664 124.588C242.379 124.7 242.132 124.861 241.922 125.071C241.717 125.281 241.551 125.533 241.425 125.827C241.299 126.121 241.215 126.45 241.173 126.814H245.786ZM241.138 127.241V127.374C241.138 127.897 241.199 128.356 241.32 128.753C241.441 129.15 241.614 129.483 241.838 129.754C242.062 130.02 242.333 130.221 242.65 130.356C242.967 130.491 243.322 130.559 243.714 130.559C244.064 130.559 244.367 130.522 244.624 130.447C244.881 130.368 245.095 130.281 245.268 130.188C245.445 130.09 245.585 130.004 245.688 129.929C245.791 129.85 245.865 129.81 245.912 129.81C245.973 129.81 246.019 129.833 246.052 129.88L246.234 130.104C246.122 130.244 245.973 130.375 245.786 130.496C245.604 130.617 245.399 130.722 245.17 130.811C244.946 130.895 244.703 130.963 244.442 131.014C244.185 131.065 243.926 131.091 243.665 131.091C243.189 131.091 242.755 131.009 242.363 130.846C241.971 130.678 241.635 130.435 241.355 130.118C241.075 129.801 240.858 129.413 240.704 128.956C240.555 128.494 240.48 127.967 240.48 127.374C240.48 126.875 240.55 126.415 240.69 125.995C240.835 125.57 241.04 125.206 241.306 124.903C241.577 124.595 241.906 124.355 242.293 124.182C242.685 124.009 243.128 123.923 243.623 123.923C244.015 123.923 244.379 123.991 244.715 124.126C245.051 124.261 245.343 124.46 245.59 124.721C245.837 124.978 246.031 125.295 246.171 125.673C246.316 126.051 246.388 126.485 246.388 126.975C246.388 127.078 246.374 127.148 246.346 127.185C246.318 127.222 246.271 127.241 246.206 127.241H241.138ZM253.836 124.035V131H253.171V125.386C253.171 125.321 253.173 125.251 253.178 125.176C253.182 125.101 253.189 125.027 253.199 124.952C253.166 125.017 253.133 125.078 253.101 125.134C253.073 125.185 253.042 125.232 253.01 125.274C253 125.283 252.935 125.372 252.814 125.54C252.692 125.703 252.531 125.916 252.331 126.177C252.135 126.438 251.911 126.735 251.659 127.066C251.411 127.397 251.159 127.736 250.903 128.081C250.296 128.888 249.608 129.805 248.838 130.832C248.81 130.874 248.772 130.914 248.726 130.951C248.684 130.984 248.637 131 248.586 131H248.201V124.035H248.873V129.649C248.873 129.714 248.87 129.784 248.866 129.859C248.861 129.934 248.854 130.008 248.845 130.083C248.873 130.018 248.903 129.959 248.936 129.908C248.968 129.852 248.999 129.803 249.027 129.761C249.031 129.752 249.094 129.665 249.216 129.502C249.342 129.339 249.503 129.126 249.699 128.865C249.899 128.599 250.123 128.3 250.371 127.969C250.618 127.638 250.872 127.299 251.134 126.954C251.74 126.147 252.429 125.232 253.199 124.21C253.227 124.163 253.262 124.124 253.304 124.091C253.35 124.054 253.399 124.035 253.451 124.035H253.836ZM251.078 122.439C251.498 122.439 251.801 122.334 251.988 122.124C252.174 121.909 252.268 121.566 252.268 121.095H252.646C252.697 121.095 252.737 121.118 252.765 121.165C252.797 121.207 252.814 121.261 252.814 121.326C252.814 121.774 252.669 122.133 252.38 122.404C252.09 122.675 251.656 122.81 251.078 122.81C250.499 122.81 250.063 122.675 249.769 122.404C249.479 122.133 249.335 121.774 249.335 121.326C249.335 121.261 249.351 121.207 249.384 121.165C249.416 121.118 249.458 121.095 249.51 121.095H249.881C249.881 121.566 249.974 121.909 250.161 122.124C250.347 122.334 250.653 122.439 251.078 122.439ZM264.257 124.231C264.295 124.175 264.344 124.128 264.404 124.091C264.47 124.054 264.537 124.035 264.607 124.035H265.118L263.074 126.779C262.967 126.928 262.848 127.057 262.717 127.164C262.591 127.267 262.437 127.346 262.255 127.402C262.475 127.449 262.664 127.53 262.822 127.647C262.981 127.759 263.126 127.911 263.256 128.102L265.335 131H264.866C264.745 131 264.649 130.981 264.579 130.944C264.509 130.902 264.449 130.841 264.397 130.762L262.633 128.291C262.498 128.095 262.335 127.948 262.143 127.85C261.957 127.747 261.744 127.696 261.506 127.696H260.603V131.007H259.931V124.035H260.603V127.234H261.408C261.604 127.234 261.789 127.187 261.961 127.094C262.139 127.001 262.286 126.872 262.402 126.709L264.257 124.231ZM269.197 123.923C269.696 123.923 270.142 124.009 270.534 124.182C270.931 124.35 271.264 124.59 271.535 124.903C271.806 125.216 272.011 125.594 272.151 126.037C272.296 126.476 272.368 126.968 272.368 127.514C272.368 128.06 272.296 128.552 272.151 128.991C272.011 129.43 271.806 129.805 271.535 130.118C271.264 130.431 270.931 130.671 270.534 130.839C270.142 131.007 269.696 131.091 269.197 131.091C268.698 131.091 268.25 131.007 267.853 130.839C267.461 130.671 267.127 130.431 266.852 130.118C266.581 129.805 266.374 129.43 266.229 128.991C266.089 128.552 266.019 128.06 266.019 127.514C266.019 126.968 266.089 126.476 266.229 126.037C266.374 125.594 266.581 125.216 266.852 124.903C267.127 124.59 267.461 124.35 267.853 124.182C268.25 124.009 268.698 123.923 269.197 123.923ZM269.197 130.566C269.612 130.566 269.974 130.496 270.282 130.356C270.595 130.211 270.854 130.006 271.059 129.74C271.269 129.474 271.425 129.154 271.528 128.781C271.631 128.403 271.682 127.981 271.682 127.514C271.682 127.052 271.631 126.632 271.528 126.254C271.425 125.876 271.269 125.554 271.059 125.288C270.854 125.017 270.595 124.81 270.282 124.665C269.974 124.52 269.612 124.448 269.197 124.448C268.782 124.448 268.418 124.52 268.105 124.665C267.797 124.81 267.538 125.017 267.328 125.288C267.123 125.554 266.966 125.876 266.859 126.254C266.756 126.632 266.705 127.052 266.705 127.514C266.705 127.981 266.756 128.403 266.859 128.781C266.966 129.154 267.123 129.474 267.328 129.74C267.538 130.006 267.797 130.211 268.105 130.356C268.418 130.496 268.782 130.566 269.197 130.566ZM281.638 124V131H281.043V125.386C281.043 125.307 281.047 125.223 281.057 125.134C281.066 125.041 281.078 124.954 281.092 124.875L278.222 129.684C278.198 129.721 278.17 129.754 278.138 129.782C278.105 129.81 278.065 129.824 278.019 129.824H277.942C277.895 129.824 277.855 129.81 277.823 129.782C277.79 129.754 277.762 129.721 277.739 129.684L274.792 124.861C274.81 124.94 274.822 125.029 274.827 125.127C274.836 125.22 274.841 125.307 274.841 125.386V131H274.246V124H274.736C274.782 124 274.827 124.012 274.869 124.035C274.915 124.054 274.955 124.093 274.988 124.154L277.816 128.697C277.876 128.809 277.932 128.933 277.984 129.068C278.026 128.947 278.079 128.823 278.145 128.697L280.903 124.154C280.935 124.089 280.973 124.047 281.015 124.028C281.061 124.009 281.11 124 281.162 124H281.638ZM289.42 131H288.748V124.546H284.611V131H283.939V124.035H289.42V131ZM295.617 127.633C294.955 127.656 294.383 127.71 293.902 127.794C293.426 127.873 293.032 127.983 292.719 128.123C292.411 128.263 292.183 128.431 292.033 128.627C291.884 128.818 291.809 129.038 291.809 129.285C291.809 129.518 291.847 129.721 291.921 129.894C292.001 130.062 292.103 130.202 292.229 130.314C292.36 130.421 292.509 130.501 292.677 130.552C292.845 130.603 293.02 130.629 293.202 130.629C293.473 130.629 293.72 130.601 293.944 130.545C294.173 130.484 294.383 130.403 294.574 130.3C294.77 130.193 294.952 130.067 295.12 129.922C295.288 129.777 295.454 129.621 295.617 129.453V127.633ZM291.522 125.022C291.886 124.658 292.269 124.383 292.67 124.196C293.072 124.009 293.527 123.916 294.035 123.916C294.409 123.916 294.735 123.977 295.015 124.098C295.295 124.215 295.526 124.385 295.708 124.609C295.895 124.828 296.035 125.097 296.128 125.414C296.222 125.727 296.268 126.077 296.268 126.464V131H296.002C295.862 131 295.776 130.935 295.743 130.804L295.645 129.908C295.454 130.095 295.263 130.263 295.071 130.412C294.885 130.561 294.689 130.687 294.483 130.79C294.278 130.893 294.056 130.972 293.818 131.028C293.58 131.084 293.319 131.112 293.034 131.112C292.796 131.112 292.565 131.077 292.341 131.007C292.117 130.937 291.917 130.83 291.739 130.685C291.567 130.54 291.427 130.356 291.319 130.132C291.217 129.903 291.165 129.63 291.165 129.313C291.165 129.019 291.249 128.746 291.417 128.494C291.585 128.242 291.849 128.023 292.208 127.836C292.568 127.649 293.027 127.5 293.587 127.388C294.152 127.276 294.829 127.211 295.617 127.192V126.464C295.617 125.82 295.477 125.325 295.197 124.98C294.922 124.63 294.511 124.455 293.965 124.455C293.629 124.455 293.342 124.502 293.104 124.595C292.871 124.688 292.673 124.791 292.509 124.903C292.346 125.015 292.213 125.118 292.11 125.211C292.008 125.304 291.921 125.351 291.851 125.351C291.8 125.351 291.758 125.339 291.725 125.316C291.693 125.293 291.665 125.262 291.641 125.225L291.522 125.022ZM303.981 124.035V131H303.309V127.507H299.172V131H298.5V124.035H299.172V126.996H303.309V124.035H303.981ZM311.914 124.035V131H311.249V125.386C311.249 125.321 311.251 125.251 311.256 125.176C311.261 125.101 311.268 125.027 311.277 124.952C311.244 125.017 311.212 125.078 311.179 125.134C311.151 125.185 311.121 125.232 311.088 125.274C311.079 125.283 311.013 125.372 310.892 125.54C310.771 125.703 310.61 125.916 310.409 126.177C310.213 126.438 309.989 126.735 309.737 127.066C309.49 127.397 309.238 127.736 308.981 128.081C308.374 128.888 307.686 129.805 306.916 130.832C306.888 130.874 306.851 130.914 306.804 130.951C306.762 130.984 306.715 131 306.664 131H306.279V124.035H306.951V129.649C306.951 129.714 306.949 129.784 306.944 129.859C306.939 129.934 306.932 130.008 306.923 130.083C306.951 130.018 306.981 129.959 307.014 129.908C307.047 129.852 307.077 129.803 307.105 129.761C307.11 129.752 307.173 129.665 307.294 129.502C307.42 129.339 307.581 129.126 307.777 128.865C307.978 128.599 308.202 128.3 308.449 127.969C308.696 127.638 308.951 127.299 309.212 126.954C309.819 126.147 310.507 125.232 311.277 124.21C311.305 124.163 311.34 124.124 311.382 124.091C311.429 124.054 311.478 124.035 311.529 124.035H311.914ZM319.844 124.035V131H319.179V125.386C319.179 125.321 319.181 125.251 319.186 125.176C319.19 125.101 319.197 125.027 319.207 124.952C319.174 125.017 319.141 125.078 319.109 125.134C319.081 125.185 319.05 125.232 319.018 125.274C319.008 125.283 318.943 125.372 318.822 125.54C318.7 125.703 318.539 125.916 318.339 126.177C318.143 126.438 317.919 126.735 317.667 127.066C317.419 127.397 317.167 127.736 316.911 128.081C316.304 128.888 315.616 129.805 314.846 130.832C314.818 130.874 314.78 130.914 314.734 130.951C314.692 130.984 314.645 131 314.594 131H314.209V124.035H314.881V129.649C314.881 129.714 314.878 129.784 314.874 129.859C314.869 129.934 314.862 130.008 314.853 130.083C314.881 130.018 314.911 129.959 314.944 129.908C314.976 129.852 315.007 129.803 315.035 129.761C315.039 129.752 315.102 129.665 315.224 129.502C315.35 129.339 315.511 129.126 315.707 128.865C315.907 128.599 316.131 128.3 316.379 127.969C316.626 127.638 316.88 127.299 317.142 126.954C317.748 126.147 318.437 125.232 319.207 124.21C319.235 124.163 319.27 124.124 319.312 124.091C319.358 124.054 319.407 124.035 319.459 124.035H319.844Z" fill="#0B0720"/>
<rect opacity="0.1" x="57" y="151" width="235" height="30" rx="5" fill="#363739"/>
<path d="M69.474 164.231C69.5113 164.175 69.5603 164.128 69.621 164.091C69.6863 164.054 69.754 164.035 69.824 164.035H70.335L68.291 166.779C68.1837 166.928 68.0647 167.057 67.934 167.164C67.808 167.267 67.654 167.346 67.472 167.402C67.6913 167.449 67.8803 167.53 68.039 167.647C68.1977 167.759 68.3423 167.911 68.473 168.102L70.552 171H70.083C69.9617 171 69.866 170.981 69.796 170.944C69.726 170.902 69.6653 170.841 69.614 170.762L67.85 168.291C67.7147 168.095 67.5513 167.948 67.36 167.85C67.1733 167.747 66.961 167.696 66.723 167.696H65.82V171.007H65.148V164.035H65.82V167.234H66.625C66.821 167.234 67.0053 167.187 67.178 167.094C67.3553 167.001 67.5023 166.872 67.619 166.709L69.474 164.231ZM77.5846 164.035L73.5806 173.24C73.5526 173.305 73.5153 173.359 73.4686 173.401C73.4266 173.443 73.3636 173.464 73.2796 173.464H72.8036L74.0286 170.741L71.0816 164.035H71.6346C71.7046 164.035 71.7606 164.054 71.8026 164.091C71.8446 164.124 71.8726 164.161 71.8866 164.203L74.2316 169.621C74.2596 169.691 74.2829 169.763 74.3016 169.838C74.3249 169.908 74.3459 169.98 74.3646 170.055C74.3879 169.98 74.4113 169.908 74.4346 169.838C74.4626 169.763 74.4906 169.691 74.5186 169.621L76.8356 164.203C76.8589 164.152 76.8916 164.112 76.9336 164.084C76.9756 164.051 77.0223 164.035 77.0736 164.035H77.5846ZM84.4649 171H83.7929V164.546H79.6559V171H78.9839V164.035H84.4649V171ZM92.3982 164.035V171H91.7332V165.386C91.7332 165.321 91.7356 165.251 91.7402 165.176C91.7449 165.101 91.7519 165.027 91.7612 164.952C91.7286 165.017 91.6959 165.078 91.6632 165.134C91.6352 165.185 91.6049 165.232 91.5722 165.274C91.5629 165.283 91.4976 165.372 91.3762 165.54C91.2549 165.703 91.0939 165.916 90.8932 166.177C90.6972 166.438 90.4732 166.735 90.2212 167.066C89.9739 167.397 89.7219 167.736 89.4652 168.081C88.8586 168.888 88.1702 169.805 87.4002 170.832C87.3722 170.874 87.3349 170.914 87.2882 170.951C87.2462 170.984 87.1996 171 87.1482 171H86.7632V164.035H87.4352V169.649C87.4352 169.714 87.4329 169.784 87.4282 169.859C87.4236 169.934 87.4166 170.008 87.4072 170.083C87.4352 170.018 87.4656 169.959 87.4982 169.908C87.5309 169.852 87.5612 169.803 87.5892 169.761C87.5939 169.752 87.6569 169.665 87.7782 169.502C87.9042 169.339 88.0652 169.126 88.2612 168.865C88.4619 168.599 88.6859 168.3 88.9332 167.969C89.1806 167.638 89.4349 167.299 89.6962 166.954C90.3029 166.147 90.9912 165.232 91.7612 164.21C91.7892 164.163 91.8242 164.124 91.8662 164.091C91.9129 164.054 91.9619 164.035 92.0132 164.035H92.3982ZM100.265 164.546H97.3529V171H96.6809V164.546H93.7689V164.035H100.265V164.546ZM104.102 170.503C104.42 170.503 104.695 170.466 104.928 170.391C105.162 170.312 105.355 170.204 105.509 170.069C105.663 169.929 105.778 169.766 105.852 169.579C105.927 169.388 105.964 169.18 105.964 168.956C105.964 168.751 105.932 168.557 105.866 168.375C105.806 168.193 105.701 168.034 105.551 167.899C105.407 167.764 105.213 167.656 104.97 167.577C104.728 167.498 104.429 167.458 104.074 167.458H102.282V170.503H104.102ZM104.074 166.961C104.55 166.961 104.947 167.017 105.264 167.129C105.586 167.241 105.843 167.39 106.034 167.577C106.226 167.759 106.361 167.969 106.44 168.207C106.524 168.445 106.566 168.69 106.566 168.942C106.566 169.236 106.513 169.509 106.405 169.761C106.303 170.013 106.146 170.232 105.936 170.419C105.731 170.601 105.474 170.743 105.166 170.846C104.863 170.949 104.511 171 104.109 171H101.638V164.035H102.282V166.961H104.074ZM116.726 164.966C116.702 164.989 116.679 165.01 116.656 165.029C116.637 165.043 116.609 165.05 116.572 165.05C116.525 165.05 116.462 165.02 116.383 164.959C116.303 164.894 116.196 164.824 116.061 164.749C115.925 164.674 115.755 164.607 115.55 164.546C115.349 164.481 115.104 164.448 114.815 164.448C114.413 164.448 114.056 164.52 113.744 164.665C113.436 164.805 113.174 165.008 112.96 165.274C112.745 165.54 112.582 165.862 112.47 166.24C112.362 166.618 112.309 167.043 112.309 167.514C112.309 168.004 112.365 168.438 112.477 168.816C112.593 169.194 112.757 169.514 112.967 169.775C113.177 170.032 113.431 170.228 113.73 170.363C114.028 170.498 114.36 170.566 114.724 170.566C115.06 170.566 115.34 170.526 115.564 170.447C115.792 170.368 115.979 170.281 116.124 170.188C116.273 170.095 116.39 170.008 116.474 169.929C116.558 169.85 116.628 169.81 116.684 169.81C116.74 169.81 116.786 169.833 116.824 169.88L116.999 170.104C116.891 170.244 116.756 170.375 116.593 170.496C116.429 170.617 116.245 170.722 116.04 170.811C115.834 170.9 115.61 170.967 115.368 171.014C115.13 171.065 114.88 171.091 114.619 171.091C114.175 171.091 113.769 171.012 113.401 170.853C113.037 170.69 112.722 170.456 112.456 170.153C112.194 169.845 111.989 169.469 111.84 169.026C111.695 168.583 111.623 168.079 111.623 167.514C111.623 166.982 111.693 166.497 111.833 166.058C111.973 165.619 112.178 165.241 112.449 164.924C112.719 164.607 113.048 164.362 113.436 164.189C113.828 164.012 114.276 163.923 114.78 163.923C115.232 163.923 115.634 163.995 115.984 164.14C116.334 164.285 116.639 164.481 116.901 164.728L116.726 164.966ZM124.323 171H123.651V164.567H120.837C120.79 165.486 120.711 166.287 120.599 166.968C120.492 167.645 120.363 168.226 120.214 168.711C120.065 169.192 119.897 169.586 119.71 169.894C119.523 170.202 119.327 170.445 119.122 170.622C118.921 170.799 118.716 170.921 118.506 170.986C118.296 171.051 118.088 171.084 117.883 171.084C117.771 171.084 117.673 171.075 117.589 171.056C117.505 171.037 117.463 171.009 117.463 170.972V170.545H117.771C117.939 170.545 118.109 170.512 118.282 170.447C118.459 170.377 118.634 170.253 118.807 170.076C118.98 169.899 119.145 169.656 119.304 169.348C119.463 169.04 119.605 168.646 119.731 168.165C119.862 167.68 119.974 167.099 120.067 166.422C120.165 165.745 120.235 164.95 120.277 164.035H124.323V171ZM129.375 163.923C129.874 163.923 130.32 164.009 130.712 164.182C131.108 164.35 131.442 164.59 131.713 164.903C131.983 165.216 132.189 165.594 132.329 166.037C132.473 166.476 132.546 166.968 132.546 167.514C132.546 168.06 132.473 168.552 132.329 168.991C132.189 169.43 131.983 169.805 131.713 170.118C131.442 170.431 131.108 170.671 130.712 170.839C130.32 171.007 129.874 171.091 129.375 171.091C128.875 171.091 128.427 171.007 128.031 170.839C127.639 170.671 127.305 170.431 127.03 170.118C126.759 169.805 126.551 169.43 126.407 168.991C126.267 168.552 126.197 168.06 126.197 167.514C126.197 166.968 126.267 166.476 126.407 166.037C126.551 165.594 126.759 165.216 127.03 164.903C127.305 164.59 127.639 164.35 128.031 164.182C128.427 164.009 128.875 163.923 129.375 163.923ZM129.375 170.566C129.79 170.566 130.152 170.496 130.46 170.356C130.772 170.211 131.031 170.006 131.237 169.74C131.447 169.474 131.603 169.154 131.706 168.781C131.808 168.403 131.86 167.981 131.86 167.514C131.86 167.052 131.808 166.632 131.706 166.254C131.603 165.876 131.447 165.554 131.237 165.288C131.031 165.017 130.772 164.81 130.46 164.665C130.152 164.52 129.79 164.448 129.375 164.448C128.959 164.448 128.595 164.52 128.283 164.665C127.975 164.81 127.716 165.017 127.506 165.288C127.3 165.554 127.144 165.876 127.037 166.254C126.934 166.632 126.883 167.052 126.883 167.514C126.883 167.981 126.934 168.403 127.037 168.781C127.144 169.154 127.3 169.474 127.506 169.74C127.716 170.006 127.975 170.211 128.283 170.356C128.595 170.496 128.959 170.566 129.375 170.566ZM139.904 164.035V171H139.232V167.507H135.095V171H134.423V164.035H135.095V166.996H139.232V164.035H139.904ZM146.102 167.633C145.439 167.656 144.867 167.71 144.387 167.794C143.911 167.873 143.516 167.983 143.204 168.123C142.896 168.263 142.667 168.431 142.518 168.627C142.368 168.818 142.294 169.038 142.294 169.285C142.294 169.518 142.331 169.721 142.406 169.894C142.485 170.062 142.588 170.202 142.714 170.314C142.844 170.421 142.994 170.501 143.162 170.552C143.33 170.603 143.505 170.629 143.687 170.629C143.957 170.629 144.205 170.601 144.429 170.545C144.657 170.484 144.867 170.403 145.059 170.3C145.255 170.193 145.437 170.067 145.605 169.922C145.773 169.777 145.938 169.621 146.102 169.453V167.633ZM142.007 165.022C142.371 164.658 142.753 164.383 143.155 164.196C143.556 164.009 144.011 163.916 144.52 163.916C144.893 163.916 145.22 163.977 145.5 164.098C145.78 164.215 146.011 164.385 146.193 164.609C146.379 164.828 146.519 165.097 146.613 165.414C146.706 165.727 146.753 166.077 146.753 166.464V171H146.487C146.347 171 146.26 170.935 146.228 170.804L146.13 169.908C145.938 170.095 145.747 170.263 145.556 170.412C145.369 170.561 145.173 170.687 144.968 170.79C144.762 170.893 144.541 170.972 144.303 171.028C144.065 171.084 143.803 171.112 143.519 171.112C143.281 171.112 143.05 171.077 142.826 171.007C142.602 170.937 142.401 170.83 142.224 170.685C142.051 170.54 141.911 170.356 141.804 170.132C141.701 169.903 141.65 169.63 141.65 169.313C141.65 169.019 141.734 168.746 141.902 168.494C142.07 168.242 142.333 168.023 142.693 167.836C143.052 167.649 143.512 167.5 144.072 167.388C144.636 167.276 145.313 167.211 146.102 167.192V166.464C146.102 165.82 145.962 165.325 145.682 164.98C145.406 164.63 144.996 164.455 144.45 164.455C144.114 164.455 143.827 164.502 143.589 164.595C143.355 164.688 143.157 164.791 142.994 164.903C142.83 165.015 142.697 165.118 142.595 165.211C142.492 165.304 142.406 165.351 142.336 165.351C142.284 165.351 142.242 165.339 142.21 165.316C142.177 165.293 142.149 165.262 142.126 165.225L142.007 165.022ZM156.306 170.426C157.174 170.426 157.829 170.239 158.273 169.866C158.721 169.488 158.945 168.958 158.945 168.277C158.945 167.964 158.884 167.684 158.763 167.437C158.646 167.185 158.476 166.973 158.252 166.8C158.028 166.623 157.752 166.487 157.426 166.394C157.099 166.301 156.728 166.254 156.313 166.254H153.821V170.426H156.306ZM153.821 161.662V165.729H155.963C156.42 165.729 156.81 165.671 157.132 165.554C157.458 165.437 157.724 165.283 157.93 165.092C158.14 164.901 158.294 164.684 158.392 164.441C158.49 164.198 158.539 163.949 158.539 163.692C158.539 163.025 158.326 162.521 157.902 162.18C157.482 161.835 156.831 161.662 155.949 161.662H153.821ZM155.949 161.095C156.513 161.095 157.003 161.151 157.419 161.263C157.834 161.375 158.177 161.541 158.448 161.76C158.718 161.975 158.919 162.238 159.05 162.551C159.18 162.864 159.246 163.218 159.246 163.615C159.246 163.876 159.199 164.128 159.106 164.371C159.017 164.614 158.886 164.838 158.714 165.043C158.546 165.248 158.336 165.428 158.084 165.582C157.836 165.731 157.552 165.846 157.23 165.925C158.009 166.037 158.606 166.296 159.022 166.702C159.442 167.103 159.652 167.633 159.652 168.291C159.652 168.711 159.577 169.089 159.428 169.425C159.278 169.761 159.061 170.046 158.777 170.279C158.492 170.512 158.142 170.692 157.727 170.818C157.311 170.939 156.84 171 156.313 171H153.1V161.095H155.949ZM165.406 167.633C164.744 167.656 164.172 167.71 163.691 167.794C163.215 167.873 162.821 167.983 162.508 168.123C162.2 168.263 161.972 168.431 161.822 168.627C161.673 168.818 161.598 169.038 161.598 169.285C161.598 169.518 161.636 169.721 161.71 169.894C161.79 170.062 161.892 170.202 162.018 170.314C162.149 170.421 162.298 170.501 162.466 170.552C162.634 170.603 162.809 170.629 162.991 170.629C163.262 170.629 163.509 170.601 163.733 170.545C163.962 170.484 164.172 170.403 164.363 170.3C164.559 170.193 164.741 170.067 164.909 169.922C165.077 169.777 165.243 169.621 165.406 169.453V167.633ZM161.311 165.022C161.675 164.658 162.058 164.383 162.459 164.196C162.861 164.009 163.316 163.916 163.824 163.916C164.198 163.916 164.524 163.977 164.804 164.098C165.084 164.215 165.315 164.385 165.497 164.609C165.684 164.828 165.824 165.097 165.917 165.414C166.011 165.727 166.057 166.077 166.057 166.464V171H165.791C165.651 171 165.565 170.935 165.532 170.804L165.434 169.908C165.243 170.095 165.052 170.263 164.86 170.412C164.674 170.561 164.478 170.687 164.272 170.79C164.067 170.893 163.845 170.972 163.607 171.028C163.369 171.084 163.108 171.112 162.823 171.112C162.585 171.112 162.354 171.077 162.13 171.007C161.906 170.937 161.706 170.83 161.528 170.685C161.356 170.54 161.216 170.356 161.108 170.132C161.006 169.903 160.954 169.63 160.954 169.313C160.954 169.019 161.038 168.746 161.206 168.494C161.374 168.242 161.638 168.023 161.997 167.836C162.357 167.649 162.816 167.5 163.376 167.388C163.941 167.276 164.618 167.211 165.406 167.192V166.464C165.406 165.82 165.266 165.325 164.986 164.98C164.711 164.63 164.3 164.455 163.754 164.455C163.418 164.455 163.131 164.502 162.893 164.595C162.66 164.688 162.462 164.791 162.298 164.903C162.135 165.015 162.002 165.118 161.899 165.211C161.797 165.304 161.71 165.351 161.64 165.351C161.589 165.351 161.547 165.339 161.514 165.316C161.482 165.293 161.454 165.262 161.43 165.225L161.311 165.022ZM177.354 164.035V171H168.289V164.035H168.961V170.489H172.489V164.035H173.154V170.489H176.682V164.035H177.354ZM188.932 164.035V171H188.26V167.507H184.123V171H183.451V164.035H184.123V166.996H188.26V164.035H188.932ZM193.988 163.923C194.487 163.923 194.933 164.009 195.325 164.182C195.722 164.35 196.055 164.59 196.326 164.903C196.597 165.216 196.802 165.594 196.942 166.037C197.087 166.476 197.159 166.968 197.159 167.514C197.159 168.06 197.087 168.552 196.942 168.991C196.802 169.43 196.597 169.805 196.326 170.118C196.055 170.431 195.722 170.671 195.325 170.839C194.933 171.007 194.487 171.091 193.988 171.091C193.489 171.091 193.041 171.007 192.644 170.839C192.252 170.671 191.918 170.431 191.643 170.118C191.372 169.805 191.165 169.43 191.02 168.991C190.88 168.552 190.81 168.06 190.81 167.514C190.81 166.968 190.88 166.476 191.02 166.037C191.165 165.594 191.372 165.216 191.643 164.903C191.918 164.59 192.252 164.35 192.644 164.182C193.041 164.009 193.489 163.923 193.988 163.923ZM193.988 170.566C194.403 170.566 194.765 170.496 195.073 170.356C195.386 170.211 195.645 170.006 195.85 169.74C196.06 169.474 196.216 169.154 196.319 168.781C196.422 168.403 196.473 167.981 196.473 167.514C196.473 167.052 196.422 166.632 196.319 166.254C196.216 165.876 196.06 165.554 195.85 165.288C195.645 165.017 195.386 164.81 195.073 164.665C194.765 164.52 194.403 164.448 193.988 164.448C193.573 164.448 193.209 164.52 192.896 164.665C192.588 164.81 192.329 165.017 192.119 165.288C191.914 165.554 191.757 165.876 191.65 166.254C191.547 166.632 191.496 167.052 191.496 167.514C191.496 167.981 191.547 168.403 191.65 168.781C191.757 169.154 191.914 169.474 192.119 169.74C192.329 170.006 192.588 170.211 192.896 170.356C193.209 170.496 193.573 170.566 193.988 170.566ZM206.429 164V171H205.834V165.386C205.834 165.307 205.838 165.223 205.848 165.134C205.857 165.041 205.869 164.954 205.883 164.875L203.013 169.684C202.989 169.721 202.961 169.754 202.929 169.782C202.896 169.81 202.856 169.824 202.81 169.824H202.733C202.686 169.824 202.646 169.81 202.614 169.782C202.581 169.754 202.553 169.721 202.53 169.684L199.583 164.861C199.601 164.94 199.613 165.029 199.618 165.127C199.627 165.22 199.632 165.307 199.632 165.386V171H199.037V164H199.527C199.573 164 199.618 164.012 199.66 164.035C199.706 164.054 199.746 164.093 199.779 164.154L202.607 168.697C202.667 168.809 202.723 168.933 202.775 169.068C202.817 168.947 202.87 168.823 202.936 168.697L205.694 164.154C205.726 164.089 205.764 164.047 205.806 164.028C205.852 164.009 205.901 164 205.953 164H206.429ZM213.616 166.814C213.616 166.441 213.562 166.107 213.455 165.813C213.352 165.514 213.205 165.262 213.014 165.057C212.823 164.852 212.594 164.695 212.328 164.588C212.067 164.476 211.777 164.42 211.46 164.42C211.101 164.42 210.779 164.476 210.494 164.588C210.209 164.7 209.962 164.861 209.752 165.071C209.547 165.281 209.381 165.533 209.255 165.827C209.129 166.121 209.045 166.45 209.003 166.814H213.616ZM208.968 167.241V167.374C208.968 167.897 209.029 168.356 209.15 168.753C209.271 169.15 209.444 169.483 209.668 169.754C209.892 170.02 210.163 170.221 210.48 170.356C210.797 170.491 211.152 170.559 211.544 170.559C211.894 170.559 212.197 170.522 212.454 170.447C212.711 170.368 212.925 170.281 213.098 170.188C213.275 170.09 213.415 170.004 213.518 169.929C213.621 169.85 213.695 169.81 213.742 169.81C213.803 169.81 213.849 169.833 213.882 169.88L214.064 170.104C213.952 170.244 213.803 170.375 213.616 170.496C213.434 170.617 213.229 170.722 213 170.811C212.776 170.895 212.533 170.963 212.272 171.014C212.015 171.065 211.756 171.091 211.495 171.091C211.019 171.091 210.585 171.009 210.193 170.846C209.801 170.678 209.465 170.435 209.185 170.118C208.905 169.801 208.688 169.413 208.534 168.956C208.385 168.494 208.31 167.967 208.31 167.374C208.31 166.875 208.38 166.415 208.52 165.995C208.665 165.57 208.87 165.206 209.136 164.903C209.407 164.595 209.736 164.355 210.123 164.182C210.515 164.009 210.958 163.923 211.453 163.923C211.845 163.923 212.209 163.991 212.545 164.126C212.881 164.261 213.173 164.46 213.42 164.721C213.667 164.978 213.861 165.295 214.001 165.673C214.146 166.051 214.218 166.485 214.218 166.975C214.218 167.078 214.204 167.148 214.176 167.185C214.148 167.222 214.101 167.241 214.036 167.241H208.968ZM216.703 169.481C216.838 169.682 216.978 169.852 217.123 169.992C217.272 170.127 217.428 170.239 217.592 170.328C217.755 170.412 217.928 170.473 218.11 170.51C218.296 170.547 218.492 170.566 218.698 170.566C219.108 170.566 219.468 170.491 219.776 170.342C220.084 170.193 220.34 169.983 220.546 169.712C220.756 169.437 220.912 169.11 221.015 168.732C221.122 168.349 221.176 167.929 221.176 167.472C221.176 166.436 220.984 165.675 220.602 165.19C220.219 164.7 219.671 164.455 218.957 164.455C218.495 164.455 218.077 164.574 217.704 164.812C217.33 165.05 216.997 165.381 216.703 165.806V169.481ZM216.675 165.288C216.983 164.868 217.342 164.534 217.753 164.287C218.168 164.04 218.632 163.916 219.146 163.916C220 163.916 220.665 164.212 221.141 164.805C221.621 165.398 221.862 166.287 221.862 167.472C221.862 167.981 221.794 168.457 221.659 168.9C221.528 169.339 221.332 169.721 221.071 170.048C220.814 170.37 220.497 170.624 220.119 170.811C219.745 170.998 219.314 171.091 218.824 171.091C218.352 171.091 217.944 171.005 217.599 170.832C217.253 170.659 216.955 170.405 216.703 170.069V173.464H216.031V164.035H216.402C216.518 164.035 216.586 164.093 216.605 164.21L216.675 165.288ZM233.115 164.546H230.203V171H229.531V164.546H226.619V164.035H233.115V164.546ZM238.977 166.814C238.977 166.441 238.924 166.107 238.816 165.813C238.714 165.514 238.567 165.262 238.375 165.057C238.184 164.852 237.955 164.695 237.689 164.588C237.428 164.476 237.139 164.42 236.821 164.42C236.462 164.42 236.14 164.476 235.855 164.588C235.571 164.7 235.323 164.861 235.113 165.071C234.908 165.281 234.742 165.533 234.616 165.827C234.49 166.121 234.406 166.45 234.364 166.814H238.977ZM234.329 167.241V167.374C234.329 167.897 234.39 168.356 234.511 168.753C234.633 169.15 234.805 169.483 235.029 169.754C235.253 170.02 235.524 170.221 235.841 170.356C236.159 170.491 236.513 170.559 236.905 170.559C237.255 170.559 237.559 170.522 237.815 170.447C238.072 170.368 238.287 170.281 238.459 170.188C238.637 170.09 238.777 170.004 238.879 169.929C238.982 169.85 239.057 169.81 239.103 169.81C239.164 169.81 239.211 169.833 239.243 169.88L239.425 170.104C239.313 170.244 239.164 170.375 238.977 170.496C238.795 170.617 238.59 170.722 238.361 170.811C238.137 170.895 237.895 170.963 237.633 171.014C237.377 171.065 237.118 171.091 236.856 171.091C236.38 171.091 235.946 171.009 235.554 170.846C235.162 170.678 234.826 170.435 234.546 170.118C234.266 169.801 234.049 169.413 233.895 168.956C233.746 168.494 233.671 167.967 233.671 167.374C233.671 166.875 233.741 166.415 233.881 165.995C234.026 165.57 234.231 165.206 234.497 164.903C234.768 164.595 235.097 164.355 235.484 164.182C235.876 164.009 236.32 163.923 236.814 163.923C237.206 163.923 237.57 163.991 237.906 164.126C238.242 164.261 238.534 164.46 238.781 164.721C239.029 164.978 239.222 165.295 239.362 165.673C239.507 166.051 239.579 166.485 239.579 166.975C239.579 167.078 239.565 167.148 239.537 167.185C239.509 167.222 239.463 167.241 239.397 167.241H234.329ZM247.069 171H246.397V164.567H243.583C243.536 165.486 243.457 166.287 243.345 166.968C243.238 167.645 243.109 168.226 242.96 168.711C242.811 169.192 242.643 169.586 242.456 169.894C242.269 170.202 242.073 170.445 241.868 170.622C241.667 170.799 241.462 170.921 241.252 170.986C241.042 171.051 240.834 171.084 240.629 171.084C240.517 171.084 240.419 171.075 240.335 171.056C240.251 171.037 240.209 171.009 240.209 170.972V170.545H240.517C240.685 170.545 240.855 170.512 241.028 170.447C241.205 170.377 241.38 170.253 241.553 170.076C241.726 169.899 241.891 169.656 242.05 169.348C242.209 169.04 242.351 168.646 242.477 168.165C242.608 167.68 242.72 167.099 242.813 166.422C242.911 165.745 242.981 164.95 243.023 164.035H247.069V171ZM254.249 166.814C254.249 166.441 254.195 166.107 254.088 165.813C253.985 165.514 253.838 165.262 253.647 165.057C253.456 164.852 253.227 164.695 252.961 164.588C252.7 164.476 252.41 164.42 252.093 164.42C251.734 164.42 251.412 164.476 251.127 164.588C250.842 164.7 250.595 164.861 250.385 165.071C250.18 165.281 250.014 165.533 249.888 165.827C249.762 166.121 249.678 166.45 249.636 166.814H254.249ZM249.601 167.241V167.374C249.601 167.897 249.662 168.356 249.783 168.753C249.904 169.15 250.077 169.483 250.301 169.754C250.525 170.02 250.796 170.221 251.113 170.356C251.43 170.491 251.785 170.559 252.177 170.559C252.527 170.559 252.83 170.522 253.087 170.447C253.344 170.368 253.558 170.281 253.731 170.188C253.908 170.09 254.048 170.004 254.151 169.929C254.254 169.85 254.328 169.81 254.375 169.81C254.436 169.81 254.482 169.833 254.515 169.88L254.697 170.104C254.585 170.244 254.436 170.375 254.249 170.496C254.067 170.617 253.862 170.722 253.633 170.811C253.409 170.895 253.166 170.963 252.905 171.014C252.648 171.065 252.389 171.091 252.128 171.091C251.652 171.091 251.218 171.009 250.826 170.846C250.434 170.678 250.098 170.435 249.818 170.118C249.538 169.801 249.321 169.413 249.167 168.956C249.018 168.494 248.943 167.967 248.943 167.374C248.943 166.875 249.013 166.415 249.153 165.995C249.298 165.57 249.503 165.206 249.769 164.903C250.04 164.595 250.369 164.355 250.756 164.182C251.148 164.009 251.591 163.923 252.086 163.923C252.478 163.923 252.842 163.991 253.178 164.126C253.514 164.261 253.806 164.46 254.053 164.721C254.3 164.978 254.494 165.295 254.634 165.673C254.779 166.051 254.851 166.485 254.851 166.975C254.851 167.078 254.837 167.148 254.809 167.185C254.781 167.222 254.734 167.241 254.669 167.241H249.601ZM260.542 170.58C261.05 170.561 261.494 170.477 261.872 170.328C262.25 170.174 262.562 169.964 262.81 169.698C263.062 169.432 263.248 169.115 263.37 168.746C263.496 168.377 263.559 167.967 263.559 167.514C263.559 167.061 263.496 166.651 263.37 166.282C263.248 165.909 263.062 165.589 262.81 165.323C262.562 165.057 262.25 164.847 261.872 164.693C261.494 164.539 261.05 164.453 260.542 164.434V164.504L260.528 164.833V170.174L260.542 170.426V170.58ZM259.912 164.434C259.403 164.453 258.96 164.539 258.582 164.693C258.204 164.847 257.889 165.057 257.637 165.323C257.389 165.589 257.203 165.909 257.077 166.282C256.955 166.651 256.895 167.061 256.895 167.514C256.895 167.967 256.955 168.377 257.077 168.746C257.203 169.115 257.389 169.432 257.637 169.698C257.889 169.964 258.204 170.174 258.582 170.328C258.96 170.477 259.403 170.561 259.912 170.58V170.426L259.926 170.195V164.833L259.912 164.637V164.434ZM260.542 163.923C261.134 163.942 261.659 164.04 262.117 164.217C262.579 164.394 262.964 164.639 263.272 164.952C263.584 165.26 263.82 165.631 263.979 166.065C264.142 166.499 264.224 166.982 264.224 167.514C264.224 168.046 264.142 168.529 263.979 168.963C263.82 169.392 263.584 169.763 263.272 170.076C262.964 170.384 262.579 170.627 262.117 170.804C261.659 170.977 261.134 171.072 260.542 171.091V173.485H259.912V171.091C259.314 171.072 258.787 170.977 258.33 170.804C257.872 170.627 257.487 170.384 257.175 170.076C256.867 169.763 256.631 169.392 256.468 168.963C256.309 168.529 256.23 168.046 256.23 167.514C256.23 166.982 256.309 166.499 256.468 166.065C256.631 165.631 256.867 165.26 257.175 164.952C257.487 164.639 257.872 164.394 258.33 164.217C258.787 164.04 259.314 163.942 259.912 163.923V161.095H260.542V163.923ZM268.842 163.923C269.341 163.923 269.787 164.009 270.179 164.182C270.575 164.35 270.909 164.59 271.18 164.903C271.45 165.216 271.656 165.594 271.796 166.037C271.94 166.476 272.013 166.968 272.013 167.514C272.013 168.06 271.94 168.552 271.796 168.991C271.656 169.43 271.45 169.805 271.18 170.118C270.909 170.431 270.575 170.671 270.179 170.839C269.787 171.007 269.341 171.091 268.842 171.091C268.342 171.091 267.894 171.007 267.498 170.839C267.106 170.671 266.772 170.431 266.497 170.118C266.226 169.805 266.018 169.43 265.874 168.991C265.734 168.552 265.664 168.06 265.664 167.514C265.664 166.968 265.734 166.476 265.874 166.037C266.018 165.594 266.226 165.216 266.497 164.903C266.772 164.59 267.106 164.35 267.498 164.182C267.894 164.009 268.342 163.923 268.842 163.923ZM268.842 170.566C269.257 170.566 269.619 170.496 269.927 170.356C270.239 170.211 270.498 170.006 270.704 169.74C270.914 169.474 271.07 169.154 271.173 168.781C271.275 168.403 271.327 167.981 271.327 167.514C271.327 167.052 271.275 166.632 271.173 166.254C271.07 165.876 270.914 165.554 270.704 165.288C270.498 165.017 270.239 164.81 269.927 164.665C269.619 164.52 269.257 164.448 268.842 164.448C268.426 164.448 268.062 164.52 267.75 164.665C267.442 164.81 267.183 165.017 266.973 165.288C266.767 165.554 266.611 165.876 266.504 166.254C266.401 166.632 266.35 167.052 266.35 167.514C266.35 167.981 266.401 168.403 266.504 168.781C266.611 169.154 266.767 169.474 266.973 169.74C267.183 170.006 267.442 170.211 267.75 170.356C268.062 170.496 268.426 170.566 268.842 170.566ZM279.371 164.035V171H278.699V167.507H274.562V171H273.89V164.035H274.562V166.996H278.699V164.035H279.371ZM285.568 167.633C284.906 167.656 284.334 167.71 283.853 167.794C283.377 167.873 282.983 167.983 282.67 168.123C282.362 168.263 282.134 168.431 281.984 168.627C281.835 168.818 281.76 169.038 281.76 169.285C281.76 169.518 281.798 169.721 281.872 169.894C281.952 170.062 282.054 170.202 282.18 170.314C282.311 170.421 282.46 170.501 282.628 170.552C282.796 170.603 282.971 170.629 283.153 170.629C283.424 170.629 283.671 170.601 283.895 170.545C284.124 170.484 284.334 170.403 284.525 170.3C284.721 170.193 284.903 170.067 285.071 169.922C285.239 169.777 285.405 169.621 285.568 169.453V167.633ZM281.473 165.022C281.837 164.658 282.22 164.383 282.621 164.196C283.023 164.009 283.478 163.916 283.986 163.916C284.36 163.916 284.686 163.977 284.966 164.098C285.246 164.215 285.477 164.385 285.659 164.609C285.846 164.828 285.986 165.097 286.079 165.414C286.173 165.727 286.219 166.077 286.219 166.464V171H285.953C285.813 171 285.727 170.935 285.694 170.804L285.596 169.908C285.405 170.095 285.214 170.263 285.022 170.412C284.836 170.561 284.64 170.687 284.434 170.79C284.229 170.893 284.007 170.972 283.769 171.028C283.531 171.084 283.27 171.112 282.985 171.112C282.747 171.112 282.516 171.077 282.292 171.007C282.068 170.937 281.868 170.83 281.69 170.685C281.518 170.54 281.378 170.356 281.27 170.132C281.168 169.903 281.116 169.63 281.116 169.313C281.116 169.019 281.2 168.746 281.368 168.494C281.536 168.242 281.8 168.023 282.159 167.836C282.519 167.649 282.978 167.5 283.538 167.388C284.103 167.276 284.78 167.211 285.568 167.192V166.464C285.568 165.82 285.428 165.325 285.148 164.98C284.873 164.63 284.462 164.455 283.916 164.455C283.58 164.455 283.293 164.502 283.055 164.595C282.822 164.688 282.624 164.791 282.46 164.903C282.297 165.015 282.164 165.118 282.061 165.211C281.959 165.304 281.872 165.351 281.802 165.351C281.751 165.351 281.709 165.339 281.676 165.316C281.644 165.293 281.616 165.262 281.592 165.225L281.473 165.022Z" fill="#0B0720"/>
<rect opacity="0.1" x="57" y="191" width="178" height="30" rx="5" fill="#363739"/>
<path d="M69.474 204.231C69.5113 204.175 69.5603 204.128 69.621 204.091C69.6863 204.054 69.754 204.035 69.824 204.035H70.335L68.291 206.779C68.1837 206.928 68.0647 207.057 67.934 207.164C67.808 207.267 67.654 207.346 67.472 207.402C67.6913 207.449 67.8803 207.53 68.039 207.647C68.1977 207.759 68.3423 207.911 68.473 208.102L70.552 211H70.083C69.9617 211 69.866 210.981 69.796 210.944C69.726 210.902 69.6653 210.841 69.614 210.762L67.85 208.291C67.7147 208.095 67.5513 207.948 67.36 207.85C67.1733 207.747 66.961 207.696 66.723 207.696H65.82V211.007H65.148V204.035H65.82V207.234H66.625C66.821 207.234 67.0053 207.187 67.178 207.094C67.3553 207.001 67.5023 206.872 67.619 206.709L69.474 204.231ZM77.5846 204.035L73.5806 213.24C73.5526 213.305 73.5153 213.359 73.4686 213.401C73.4266 213.443 73.3636 213.464 73.2796 213.464H72.8036L74.0286 210.741L71.0816 204.035H71.6346C71.7046 204.035 71.7606 204.054 71.8026 204.091C71.8446 204.124 71.8726 204.161 71.8866 204.203L74.2316 209.621C74.2596 209.691 74.2829 209.763 74.3016 209.838C74.3249 209.908 74.3459 209.98 74.3646 210.055C74.3879 209.98 74.4113 209.908 74.4346 209.838C74.4626 209.763 74.4906 209.691 74.5186 209.621L76.8356 204.203C76.8589 204.152 76.8916 204.112 76.9336 204.084C76.9756 204.051 77.0223 204.035 77.0736 204.035H77.5846ZM84.4649 211H83.7929V204.546H79.6559V211H78.9839V204.035H84.4649V211ZM92.3982 204.035V211H91.7332V205.386C91.7332 205.321 91.7356 205.251 91.7402 205.176C91.7449 205.101 91.7519 205.027 91.7612 204.952C91.7286 205.017 91.6959 205.078 91.6632 205.134C91.6352 205.185 91.6049 205.232 91.5722 205.274C91.5629 205.283 91.4976 205.372 91.3762 205.54C91.2549 205.703 91.0939 205.916 90.8932 206.177C90.6972 206.438 90.4732 206.735 90.2212 207.066C89.9739 207.397 89.7219 207.736 89.4652 208.081C88.8586 208.888 88.1702 209.805 87.4002 210.832C87.3722 210.874 87.3349 210.914 87.2882 210.951C87.2462 210.984 87.1996 211 87.1482 211H86.7632V204.035H87.4352V209.649C87.4352 209.714 87.4329 209.784 87.4282 209.859C87.4236 209.934 87.4166 210.008 87.4072 210.083C87.4352 210.018 87.4656 209.959 87.4982 209.908C87.5309 209.852 87.5612 209.803 87.5892 209.761C87.5939 209.752 87.6569 209.665 87.7782 209.502C87.9042 209.339 88.0652 209.126 88.2612 208.865C88.4619 208.599 88.6859 208.3 88.9332 207.969C89.1806 207.638 89.4349 207.299 89.6962 206.954C90.3029 206.147 90.9912 205.232 91.7612 204.21C91.7892 204.163 91.8242 204.124 91.8662 204.091C91.9129 204.054 91.9619 204.035 92.0132 204.035H92.3982ZM100.265 204.546H97.3529V211H96.6809V204.546H93.7689V204.035H100.265V204.546ZM104.102 210.503C104.42 210.503 104.695 210.466 104.928 210.391C105.162 210.312 105.355 210.204 105.509 210.069C105.663 209.929 105.778 209.766 105.852 209.579C105.927 209.388 105.964 209.18 105.964 208.956C105.964 208.751 105.932 208.557 105.866 208.375C105.806 208.193 105.701 208.034 105.551 207.899C105.407 207.764 105.213 207.656 104.97 207.577C104.728 207.498 104.429 207.458 104.074 207.458H102.282V210.503H104.102ZM104.074 206.961C104.55 206.961 104.947 207.017 105.264 207.129C105.586 207.241 105.843 207.39 106.034 207.577C106.226 207.759 106.361 207.969 106.44 208.207C106.524 208.445 106.566 208.69 106.566 208.942C106.566 209.236 106.513 209.509 106.405 209.761C106.303 210.013 106.146 210.232 105.936 210.419C105.731 210.601 105.474 210.743 105.166 210.846C104.863 210.949 104.511 211 104.109 211H101.638V204.035H102.282V206.961H104.074ZM116.726 204.966C116.702 204.989 116.679 205.01 116.656 205.029C116.637 205.043 116.609 205.05 116.572 205.05C116.525 205.05 116.462 205.02 116.383 204.959C116.303 204.894 116.196 204.824 116.061 204.749C115.925 204.674 115.755 204.607 115.55 204.546C115.349 204.481 115.104 204.448 114.815 204.448C114.413 204.448 114.056 204.52 113.744 204.665C113.436 204.805 113.174 205.008 112.96 205.274C112.745 205.54 112.582 205.862 112.47 206.24C112.362 206.618 112.309 207.043 112.309 207.514C112.309 208.004 112.365 208.438 112.477 208.816C112.593 209.194 112.757 209.514 112.967 209.775C113.177 210.032 113.431 210.228 113.73 210.363C114.028 210.498 114.36 210.566 114.724 210.566C115.06 210.566 115.34 210.526 115.564 210.447C115.792 210.368 115.979 210.281 116.124 210.188C116.273 210.095 116.39 210.008 116.474 209.929C116.558 209.85 116.628 209.81 116.684 209.81C116.74 209.81 116.786 209.833 116.824 209.88L116.999 210.104C116.891 210.244 116.756 210.375 116.593 210.496C116.429 210.617 116.245 210.722 116.04 210.811C115.834 210.9 115.61 210.967 115.368 211.014C115.13 211.065 114.88 211.091 114.619 211.091C114.175 211.091 113.769 211.012 113.401 210.853C113.037 210.69 112.722 210.456 112.456 210.153C112.194 209.845 111.989 209.469 111.84 209.026C111.695 208.583 111.623 208.079 111.623 207.514C111.623 206.982 111.693 206.497 111.833 206.058C111.973 205.619 112.178 205.241 112.449 204.924C112.719 204.607 113.048 204.362 113.436 204.189C113.828 204.012 114.276 203.923 114.78 203.923C115.232 203.923 115.634 203.995 115.984 204.14C116.334 204.285 116.639 204.481 116.901 204.728L116.726 204.966ZM124.323 211H123.651V204.567H120.837C120.79 205.486 120.711 206.287 120.599 206.968C120.492 207.645 120.363 208.226 120.214 208.711C120.065 209.192 119.897 209.586 119.71 209.894C119.523 210.202 119.327 210.445 119.122 210.622C118.921 210.799 118.716 210.921 118.506 210.986C118.296 211.051 118.088 211.084 117.883 211.084C117.771 211.084 117.673 211.075 117.589 211.056C117.505 211.037 117.463 211.009 117.463 210.972V210.545H117.771C117.939 210.545 118.109 210.512 118.282 210.447C118.459 210.377 118.634 210.253 118.807 210.076C118.98 209.899 119.145 209.656 119.304 209.348C119.463 209.04 119.605 208.646 119.731 208.165C119.862 207.68 119.974 207.099 120.067 206.422C120.165 205.745 120.235 204.95 120.277 204.035H124.323V211ZM129.375 203.923C129.874 203.923 130.32 204.009 130.712 204.182C131.108 204.35 131.442 204.59 131.713 204.903C131.983 205.216 132.189 205.594 132.329 206.037C132.473 206.476 132.546 206.968 132.546 207.514C132.546 208.06 132.473 208.552 132.329 208.991C132.189 209.43 131.983 209.805 131.713 210.118C131.442 210.431 131.108 210.671 130.712 210.839C130.32 211.007 129.874 211.091 129.375 211.091C128.875 211.091 128.427 211.007 128.031 210.839C127.639 210.671 127.305 210.431 127.03 210.118C126.759 209.805 126.551 209.43 126.407 208.991C126.267 208.552 126.197 208.06 126.197 207.514C126.197 206.968 126.267 206.476 126.407 206.037C126.551 205.594 126.759 205.216 127.03 204.903C127.305 204.59 127.639 204.35 128.031 204.182C128.427 204.009 128.875 203.923 129.375 203.923ZM129.375 210.566C129.79 210.566 130.152 210.496 130.46 210.356C130.772 210.211 131.031 210.006 131.237 209.74C131.447 209.474 131.603 209.154 131.706 208.781C131.808 208.403 131.86 207.981 131.86 207.514C131.86 207.052 131.808 206.632 131.706 206.254C131.603 205.876 131.447 205.554 131.237 205.288C131.031 205.017 130.772 204.81 130.46 204.665C130.152 204.52 129.79 204.448 129.375 204.448C128.959 204.448 128.595 204.52 128.283 204.665C127.975 204.81 127.716 205.017 127.506 205.288C127.3 205.554 127.144 205.876 127.037 206.254C126.934 206.632 126.883 207.052 126.883 207.514C126.883 207.981 126.934 208.403 127.037 208.781C127.144 209.154 127.3 209.474 127.506 209.74C127.716 210.006 127.975 210.211 128.283 210.356C128.595 210.496 128.959 210.566 129.375 210.566ZM139.904 204.035V211H139.232V207.507H135.095V211H134.423V204.035H135.095V206.996H139.232V204.035H139.904ZM146.102 207.633C145.439 207.656 144.867 207.71 144.387 207.794C143.911 207.873 143.516 207.983 143.204 208.123C142.896 208.263 142.667 208.431 142.518 208.627C142.368 208.818 142.294 209.038 142.294 209.285C142.294 209.518 142.331 209.721 142.406 209.894C142.485 210.062 142.588 210.202 142.714 210.314C142.844 210.421 142.994 210.501 143.162 210.552C143.33 210.603 143.505 210.629 143.687 210.629C143.957 210.629 144.205 210.601 144.429 210.545C144.657 210.484 144.867 210.403 145.059 210.3C145.255 210.193 145.437 210.067 145.605 209.922C145.773 209.777 145.938 209.621 146.102 209.453V207.633ZM142.007 205.022C142.371 204.658 142.753 204.383 143.155 204.196C143.556 204.009 144.011 203.916 144.52 203.916C144.893 203.916 145.22 203.977 145.5 204.098C145.78 204.215 146.011 204.385 146.193 204.609C146.379 204.828 146.519 205.097 146.613 205.414C146.706 205.727 146.753 206.077 146.753 206.464V211H146.487C146.347 211 146.26 210.935 146.228 210.804L146.13 209.908C145.938 210.095 145.747 210.263 145.556 210.412C145.369 210.561 145.173 210.687 144.968 210.79C144.762 210.893 144.541 210.972 144.303 211.028C144.065 211.084 143.803 211.112 143.519 211.112C143.281 211.112 143.05 211.077 142.826 211.007C142.602 210.937 142.401 210.83 142.224 210.685C142.051 210.54 141.911 210.356 141.804 210.132C141.701 209.903 141.65 209.63 141.65 209.313C141.65 209.019 141.734 208.746 141.902 208.494C142.07 208.242 142.333 208.023 142.693 207.836C143.052 207.649 143.512 207.5 144.072 207.388C144.636 207.276 145.313 207.211 146.102 207.192V206.464C146.102 205.82 145.962 205.325 145.682 204.98C145.406 204.63 144.996 204.455 144.45 204.455C144.114 204.455 143.827 204.502 143.589 204.595C143.355 204.688 143.157 204.791 142.994 204.903C142.83 205.015 142.697 205.118 142.595 205.211C142.492 205.304 142.406 205.351 142.336 205.351C142.284 205.351 142.242 205.339 142.21 205.316C142.177 205.293 142.149 205.262 142.126 205.225L142.007 205.022ZM156.306 210.426C157.174 210.426 157.829 210.239 158.273 209.866C158.721 209.488 158.945 208.958 158.945 208.277C158.945 207.964 158.884 207.684 158.763 207.437C158.646 207.185 158.476 206.973 158.252 206.8C158.028 206.623 157.752 206.487 157.426 206.394C157.099 206.301 156.728 206.254 156.313 206.254H153.821V210.426H156.306ZM153.821 201.662V205.729H155.963C156.42 205.729 156.81 205.671 157.132 205.554C157.458 205.437 157.724 205.283 157.93 205.092C158.14 204.901 158.294 204.684 158.392 204.441C158.49 204.198 158.539 203.949 158.539 203.692C158.539 203.025 158.326 202.521 157.902 202.18C157.482 201.835 156.831 201.662 155.949 201.662H153.821ZM155.949 201.095C156.513 201.095 157.003 201.151 157.419 201.263C157.834 201.375 158.177 201.541 158.448 201.76C158.718 201.975 158.919 202.238 159.05 202.551C159.18 202.864 159.246 203.218 159.246 203.615C159.246 203.876 159.199 204.128 159.106 204.371C159.017 204.614 158.886 204.838 158.714 205.043C158.546 205.248 158.336 205.428 158.084 205.582C157.836 205.731 157.552 205.846 157.23 205.925C158.009 206.037 158.606 206.296 159.022 206.702C159.442 207.103 159.652 207.633 159.652 208.291C159.652 208.711 159.577 209.089 159.428 209.425C159.278 209.761 159.061 210.046 158.777 210.279C158.492 210.512 158.142 210.692 157.727 210.818C157.311 210.939 156.84 211 156.313 211H153.1V201.095H155.949ZM165.406 207.633C164.744 207.656 164.172 207.71 163.691 207.794C163.215 207.873 162.821 207.983 162.508 208.123C162.2 208.263 161.972 208.431 161.822 208.627C161.673 208.818 161.598 209.038 161.598 209.285C161.598 209.518 161.636 209.721 161.71 209.894C161.79 210.062 161.892 210.202 162.018 210.314C162.149 210.421 162.298 210.501 162.466 210.552C162.634 210.603 162.809 210.629 162.991 210.629C163.262 210.629 163.509 210.601 163.733 210.545C163.962 210.484 164.172 210.403 164.363 210.3C164.559 210.193 164.741 210.067 164.909 209.922C165.077 209.777 165.243 209.621 165.406 209.453V207.633ZM161.311 205.022C161.675 204.658 162.058 204.383 162.459 204.196C162.861 204.009 163.316 203.916 163.824 203.916C164.198 203.916 164.524 203.977 164.804 204.098C165.084 204.215 165.315 204.385 165.497 204.609C165.684 204.828 165.824 205.097 165.917 205.414C166.011 205.727 166.057 206.077 166.057 206.464V211H165.791C165.651 211 165.565 210.935 165.532 210.804L165.434 209.908C165.243 210.095 165.052 210.263 164.86 210.412C164.674 210.561 164.478 210.687 164.272 210.79C164.067 210.893 163.845 210.972 163.607 211.028C163.369 211.084 163.108 211.112 162.823 211.112C162.585 211.112 162.354 211.077 162.13 211.007C161.906 210.937 161.706 210.83 161.528 210.685C161.356 210.54 161.216 210.356 161.108 210.132C161.006 209.903 160.954 209.63 160.954 209.313C160.954 209.019 161.038 208.746 161.206 208.494C161.374 208.242 161.638 208.023 161.997 207.836C162.357 207.649 162.816 207.5 163.376 207.388C163.941 207.276 164.618 207.211 165.406 207.192V206.464C165.406 205.82 165.266 205.325 164.986 204.98C164.711 204.63 164.3 204.455 163.754 204.455C163.418 204.455 163.131 204.502 162.893 204.595C162.66 204.688 162.462 204.791 162.298 204.903C162.135 205.015 162.002 205.118 161.899 205.211C161.797 205.304 161.71 205.351 161.64 205.351C161.589 205.351 161.547 205.339 161.514 205.316C161.482 205.293 161.454 205.262 161.43 205.225L161.311 205.022ZM177.354 204.035V211H168.289V204.035H168.961V210.489H172.489V204.035H173.154V210.489H176.682V204.035H177.354ZM179.468 206.562H182.723V207.129H179.468V206.562ZM189.515 204.966C189.491 204.989 189.468 205.01 189.445 205.029C189.426 205.043 189.398 205.05 189.361 205.05C189.314 205.05 189.251 205.02 189.172 204.959C189.092 204.894 188.985 204.824 188.85 204.749C188.714 204.674 188.544 204.607 188.339 204.546C188.138 204.481 187.893 204.448 187.604 204.448C187.202 204.448 186.845 204.52 186.533 204.665C186.225 204.805 185.963 205.008 185.749 205.274C185.534 205.54 185.371 205.862 185.259 206.24C185.151 206.618 185.098 207.043 185.098 207.514C185.098 208.004 185.154 208.438 185.266 208.816C185.382 209.194 185.546 209.514 185.756 209.775C185.966 210.032 186.22 210.228 186.519 210.363C186.817 210.498 187.149 210.566 187.513 210.566C187.849 210.566 188.129 210.526 188.353 210.447C188.581 210.368 188.768 210.281 188.913 210.188C189.062 210.095 189.179 210.008 189.263 209.929C189.347 209.85 189.417 209.81 189.473 209.81C189.529 209.81 189.575 209.833 189.613 209.88L189.788 210.104C189.68 210.244 189.545 210.375 189.382 210.496C189.218 210.617 189.034 210.722 188.829 210.811C188.623 210.9 188.399 210.967 188.157 211.014C187.919 211.065 187.669 211.091 187.408 211.091C186.964 211.091 186.558 211.012 186.19 210.853C185.826 210.69 185.511 210.456 185.245 210.153C184.983 209.845 184.778 209.469 184.629 209.026C184.484 208.583 184.412 208.079 184.412 207.514C184.412 206.982 184.482 206.497 184.622 206.058C184.762 205.619 184.967 205.241 185.238 204.924C185.508 204.607 185.837 204.362 186.225 204.189C186.617 204.012 187.065 203.923 187.569 203.923C188.021 203.923 188.423 203.995 188.773 204.14C189.123 204.285 189.428 204.481 189.69 204.728L189.515 204.966ZM195.334 207.633C194.671 207.656 194.1 207.71 193.619 207.794C193.143 207.873 192.749 207.983 192.436 208.123C192.128 208.263 191.899 208.431 191.75 208.627C191.601 208.818 191.526 209.038 191.526 209.285C191.526 209.518 191.563 209.721 191.638 209.894C191.717 210.062 191.82 210.202 191.946 210.314C192.077 210.421 192.226 210.501 192.394 210.552C192.562 210.603 192.737 210.629 192.919 210.629C193.19 210.629 193.437 210.601 193.661 210.545C193.89 210.484 194.1 210.403 194.291 210.3C194.487 210.193 194.669 210.067 194.837 209.922C195.005 209.777 195.171 209.621 195.334 209.453V207.633ZM191.239 205.022C191.603 204.658 191.986 204.383 192.387 204.196C192.788 204.009 193.243 203.916 193.752 203.916C194.125 203.916 194.452 203.977 194.732 204.098C195.012 204.215 195.243 204.385 195.425 204.609C195.612 204.828 195.752 205.097 195.845 205.414C195.938 205.727 195.985 206.077 195.985 206.464V211H195.719C195.579 211 195.493 210.935 195.46 210.804L195.362 209.908C195.171 210.095 194.979 210.263 194.788 210.412C194.601 210.561 194.405 210.687 194.2 210.79C193.995 210.893 193.773 210.972 193.535 211.028C193.297 211.084 193.036 211.112 192.751 211.112C192.513 211.112 192.282 211.077 192.058 211.007C191.834 210.937 191.633 210.83 191.456 210.685C191.283 210.54 191.143 210.356 191.036 210.132C190.933 209.903 190.882 209.63 190.882 209.313C190.882 209.019 190.966 208.746 191.134 208.494C191.302 208.242 191.566 208.023 191.925 207.836C192.284 207.649 192.744 207.5 193.304 207.388C193.869 207.276 194.545 207.211 195.334 207.192V206.464C195.334 205.82 195.194 205.325 194.914 204.98C194.639 204.63 194.228 204.455 193.682 204.455C193.346 204.455 193.059 204.502 192.821 204.595C192.588 204.688 192.389 204.791 192.226 204.903C192.063 205.015 191.93 205.118 191.827 205.211C191.724 205.304 191.638 205.351 191.568 205.351C191.517 205.351 191.475 205.339 191.442 205.316C191.409 205.293 191.381 205.262 191.358 205.225L191.239 205.022ZM203.851 204.035V211H203.186V205.386C203.186 205.321 203.189 205.251 203.193 205.176C203.198 205.101 203.205 205.027 203.214 204.952C203.182 205.017 203.149 205.078 203.116 205.134C203.088 205.185 203.058 205.232 203.025 205.274C203.016 205.283 202.951 205.372 202.829 205.54C202.708 205.703 202.547 205.916 202.346 206.177C202.15 206.438 201.926 206.735 201.674 207.066C201.427 207.397 201.175 207.736 200.918 208.081C200.312 208.888 199.623 209.805 198.853 210.832C198.825 210.874 198.788 210.914 198.741 210.951C198.699 210.984 198.653 211 198.601 211H198.216V204.035H198.888V209.649C198.888 209.714 198.886 209.784 198.881 209.859C198.877 209.934 198.87 210.008 198.86 210.083C198.888 210.018 198.919 209.959 198.951 209.908C198.984 209.852 199.014 209.803 199.042 209.761C199.047 209.752 199.11 209.665 199.231 209.502C199.357 209.339 199.518 209.126 199.714 208.865C199.915 208.599 200.139 208.3 200.386 207.969C200.634 207.638 200.888 207.299 201.149 206.954C201.756 206.147 202.444 205.232 203.214 204.21C203.242 204.163 203.277 204.124 203.319 204.091C203.366 204.054 203.415 204.035 203.466 204.035H203.851ZM201.093 202.439C201.513 202.439 201.817 202.334 202.003 202.124C202.19 201.909 202.283 201.566 202.283 201.095H202.661C202.713 201.095 202.752 201.118 202.78 201.165C202.813 201.207 202.829 201.261 202.829 201.326C202.829 201.774 202.685 202.133 202.395 202.404C202.106 202.675 201.672 202.81 201.093 202.81C200.515 202.81 200.078 202.675 199.784 202.404C199.495 202.133 199.35 201.774 199.35 201.326C199.35 201.261 199.367 201.207 199.399 201.165C199.432 201.118 199.474 201.095 199.525 201.095H199.896C199.896 201.566 199.99 201.909 200.176 202.124C200.363 202.334 200.669 202.439 201.093 202.439ZM211.718 204.546H208.806V211H208.134V204.546H205.222V204.035H211.718V204.546ZM212.37 210.461C212.37 210.372 212.386 210.288 212.419 210.209C212.451 210.13 212.496 210.062 212.552 210.006C212.612 209.945 212.68 209.899 212.755 209.866C212.834 209.829 212.92 209.81 213.014 209.81C213.102 209.81 213.186 209.829 213.266 209.866C213.345 209.899 213.413 209.945 213.469 210.006C213.529 210.062 213.576 210.13 213.609 210.209C213.646 210.288 213.665 210.372 213.665 210.461C213.665 210.554 213.646 210.641 213.609 210.72C213.576 210.795 213.529 210.862 213.469 210.923C213.413 210.979 213.345 211.023 213.266 211.056C213.186 211.089 213.102 211.105 213.014 211.105C212.832 211.105 212.678 211.044 212.552 210.923C212.43 210.797 212.37 210.643 212.37 210.461ZM216.47 209.481C216.606 209.682 216.746 209.852 216.89 209.992C217.04 210.127 217.196 210.239 217.359 210.328C217.523 210.412 217.695 210.473 217.877 210.51C218.064 210.547 218.26 210.566 218.465 210.566C218.876 210.566 219.235 210.491 219.543 210.342C219.851 210.193 220.108 209.983 220.313 209.712C220.523 209.437 220.68 209.11 220.782 208.732C220.89 208.349 220.943 207.929 220.943 207.472C220.943 206.436 220.752 205.675 220.369 205.19C219.987 204.7 219.438 204.455 218.724 204.455C218.262 204.455 217.845 204.574 217.471 204.812C217.098 205.05 216.764 205.381 216.47 205.806V209.481ZM216.442 205.288C216.75 204.868 217.11 204.534 217.52 204.287C217.936 204.04 218.4 203.916 218.913 203.916C219.767 203.916 220.432 204.212 220.908 204.805C221.389 205.398 221.629 206.287 221.629 207.472C221.629 207.981 221.562 208.457 221.426 208.9C221.296 209.339 221.1 209.721 220.838 210.048C220.582 210.37 220.264 210.624 219.886 210.811C219.513 210.998 219.081 211.091 218.591 211.091C218.12 211.091 217.712 211.005 217.366 210.832C217.021 210.659 216.722 210.405 216.47 210.069V213.464H215.798V204.035H216.169C216.286 204.035 216.354 204.093 216.372 204.21L216.442 205.288ZM228.973 204.035L224.969 213.24C224.941 213.305 224.904 213.359 224.857 213.401C224.815 213.443 224.752 213.464 224.668 213.464H224.192L225.417 210.741L222.47 204.035H223.023C223.093 204.035 223.149 204.054 223.191 204.091C223.233 204.124 223.261 204.161 223.275 204.203L225.62 209.621C225.648 209.691 225.672 209.763 225.69 209.838C225.714 209.908 225.735 209.98 225.753 210.055C225.777 209.98 225.8 209.908 225.823 209.838C225.851 209.763 225.879 209.691 225.907 209.621L228.224 204.203C228.248 204.152 228.28 204.112 228.322 204.084C228.364 204.051 228.411 204.035 228.462 204.035H228.973Z" fill="#0B0720"/>
<path d="M364 80L348.962 59H52V101H348.962L364 80Z" fill="#FFCC00"/>
<rect x="58" y="63" width="218" height="34" fill="white" stroke="#FFE580" stroke-width="2"/>
<path d="M302.408 74.68V86H301.584V80.576H294.496V86H293.672V74.68H294.496V79.96H301.584V74.68H302.408ZM309.581 82.152C308.823 82.1787 308.17 82.24 307.621 82.336C307.077 82.4267 306.626 82.552 306.269 82.712C305.917 82.872 305.655 83.064 305.485 83.288C305.314 83.5067 305.229 83.7573 305.229 84.04C305.229 84.3067 305.271 84.5387 305.357 84.736C305.447 84.928 305.565 85.088 305.709 85.216C305.858 85.3387 306.029 85.4293 306.221 85.488C306.413 85.5467 306.613 85.576 306.821 85.576C307.13 85.576 307.413 85.544 307.669 85.48C307.93 85.4107 308.17 85.3173 308.389 85.2C308.613 85.0773 308.821 84.9333 309.013 84.768C309.205 84.6027 309.394 84.424 309.581 84.232V82.152ZM304.901 79.168C305.317 78.752 305.754 78.4373 306.213 78.224C306.671 78.0107 307.191 77.904 307.773 77.904C308.199 77.904 308.573 77.9733 308.893 78.112C309.213 78.2453 309.477 78.44 309.685 78.696C309.898 78.9467 310.058 79.2533 310.165 79.616C310.271 79.9733 310.325 80.3733 310.325 80.816V86H310.021C309.861 86 309.762 85.9253 309.725 85.776L309.613 84.752C309.394 84.9653 309.175 85.1573 308.957 85.328C308.743 85.4987 308.519 85.6427 308.285 85.76C308.05 85.8773 307.797 85.968 307.525 86.032C307.253 86.096 306.954 86.128 306.629 86.128C306.357 86.128 306.093 86.088 305.837 86.008C305.581 85.928 305.351 85.8053 305.149 85.64C304.951 85.4747 304.791 85.264 304.669 85.008C304.551 84.7467 304.493 84.4347 304.493 84.072C304.493 83.736 304.589 83.424 304.781 83.136C304.973 82.848 305.274 82.5973 305.685 82.384C306.095 82.1707 306.621 82 307.261 81.872C307.906 81.744 308.679 81.6693 309.581 81.648V80.816C309.581 80.08 309.421 79.5147 309.101 79.12C308.786 78.72 308.317 78.52 307.693 78.52C307.309 78.52 306.981 78.5733 306.709 78.68C306.442 78.7867 306.215 78.904 306.029 79.032C305.842 79.16 305.69 79.2773 305.573 79.384C305.455 79.4907 305.357 79.544 305.277 79.544C305.218 79.544 305.17 79.5307 305.133 79.504C305.095 79.4773 305.063 79.4427 305.037 79.4L304.901 79.168ZM319.315 78.04V86H318.555V79.584C318.555 79.5093 318.557 79.4293 318.563 79.344C318.568 79.2587 318.576 79.1733 318.587 79.088C318.549 79.1627 318.512 79.232 318.475 79.296C318.443 79.3547 318.408 79.408 318.371 79.456C318.36 79.4667 318.285 79.568 318.147 79.76C318.008 79.9467 317.824 80.1893 317.595 80.488C317.371 80.7867 317.115 81.1253 316.827 81.504C316.544 81.8827 316.256 82.2693 315.963 82.664C315.269 83.5867 314.483 84.6347 313.603 85.808C313.571 85.856 313.528 85.9013 313.475 85.944C313.427 85.9813 313.373 86 313.315 86H312.875V78.04H313.643V84.456C313.643 84.5307 313.64 84.6107 313.635 84.696C313.629 84.7813 313.621 84.8667 313.611 84.952C313.643 84.8773 313.677 84.8107 313.715 84.752C313.752 84.688 313.787 84.632 313.819 84.584C313.824 84.5733 313.896 84.4747 314.035 84.288C314.179 84.1013 314.363 83.8587 314.587 83.56C314.816 83.256 315.072 82.9147 315.355 82.536C315.637 82.1573 315.928 81.7707 316.227 81.376C316.92 80.4533 317.707 79.408 318.587 78.24C318.619 78.1867 318.659 78.1413 318.707 78.104C318.76 78.0613 318.816 78.04 318.875 78.04H319.315ZM316.163 76.216C316.643 76.216 316.989 76.096 317.203 75.856C317.416 75.6107 317.523 75.2187 317.523 74.68H317.955C318.013 74.68 318.059 74.7067 318.091 74.76C318.128 74.808 318.147 74.8693 318.147 74.944C318.147 75.456 317.981 75.8667 317.651 76.176C317.32 76.4853 316.824 76.64 316.163 76.64C315.501 76.64 315.003 76.4853 314.667 76.176C314.336 75.8667 314.171 75.456 314.171 74.944C314.171 74.8693 314.189 74.808 314.227 74.76C314.264 74.7067 314.312 74.68 314.371 74.68H314.795C314.795 75.2187 314.901 75.6107 315.115 75.856C315.328 76.096 315.677 76.216 316.163 76.216ZM328.305 78.624H324.977V86H324.209V78.624H320.881V78.04H328.305V78.624ZM336.315 78.04V86H335.555V79.584C335.555 79.5093 335.557 79.4293 335.563 79.344C335.568 79.2587 335.576 79.1733 335.587 79.088C335.549 79.1627 335.512 79.232 335.475 79.296C335.443 79.3547 335.408 79.408 335.371 79.456C335.36 79.4667 335.285 79.568 335.147 79.76C335.008 79.9467 334.824 80.1893 334.595 80.488C334.371 80.7867 334.115 81.1253 333.827 81.504C333.544 81.8827 333.256 82.2693 332.963 82.664C332.269 83.5867 331.483 84.6347 330.603 85.808C330.571 85.856 330.528 85.9013 330.475 85.944C330.427 85.9813 330.373 86 330.315 86H329.875V78.04H330.643V84.456C330.643 84.5307 330.64 84.6107 330.635 84.696C330.629 84.7813 330.621 84.8667 330.611 84.952C330.643 84.8773 330.677 84.8107 330.715 84.752C330.752 84.688 330.787 84.632 330.819 84.584C330.824 84.5733 330.896 84.4747 331.035 84.288C331.179 84.1013 331.363 83.8587 331.587 83.56C331.816 83.256 332.072 82.9147 332.355 82.536C332.637 82.1573 332.928 81.7707 333.227 81.376C333.92 80.4533 334.707 79.408 335.587 78.24C335.619 78.1867 335.659 78.1413 335.707 78.104C335.76 78.0613 335.816 78.04 335.875 78.04H336.315Z" fill="black"/>
<path d="M73.038 75.297C73.086 75.225 73.149 75.165 73.227 75.117C73.311 75.069 73.398 75.045 73.488 75.045H74.145L71.517 78.573C71.379 78.765 71.226 78.93 71.058 79.068C70.896 79.2 70.698 79.302 70.464 79.374C70.746 79.434 70.989 79.539 71.193 79.689C71.397 79.833 71.583 80.028 71.751 80.274L74.424 84H73.821C73.665 84 73.542 83.976 73.452 83.928C73.362 83.874 73.284 83.796 73.218 83.694L70.95 80.517C70.776 80.265 70.566 80.076 70.32 79.95C70.08 79.818 69.807 79.752 69.501 79.752H68.34V84.009H67.476V75.045H68.34V79.158H69.375C69.627 79.158 69.864 79.098 70.086 78.978C70.314 78.858 70.503 78.693 70.653 78.483L73.038 75.297ZM83.4659 75.045L78.3179 86.88C78.2819 86.964 78.2339 87.033 78.1739 87.087C78.1199 87.141 78.0389 87.168 77.9309 87.168H77.3189L78.8939 83.667L75.1049 75.045H75.8159C75.9059 75.045 75.9779 75.069 76.0319 75.117C76.0859 75.159 76.1219 75.207 76.1399 75.261L79.1549 82.227C79.1909 82.317 79.2209 82.41 79.2449 82.506C79.2749 82.596 79.3019 82.689 79.3259 82.785C79.3559 82.689 79.3859 82.596 79.4159 82.506C79.4519 82.41 79.4879 82.317 79.5239 82.227L82.5029 75.261C82.5329 75.195 82.5749 75.144 82.6289 75.108C82.6829 75.066 82.7429 75.045 82.8089 75.045H83.4659ZM92.3121 84H91.4481V75.702H86.1291V84H85.2651V75.045H92.3121V84ZM102.512 75.045V84H101.657V76.782C101.657 76.698 101.66 76.608 101.666 76.512C101.672 76.416 101.681 76.32 101.693 76.224C101.651 76.308 101.609 76.386 101.567 76.458C101.531 76.524 101.492 76.584 101.45 76.638C101.438 76.65 101.354 76.764 101.198 76.98C101.042 77.19 100.835 77.463 100.577 77.799C100.325 78.135 100.037 78.516 99.713 78.942C99.395 79.368 99.071 79.803 98.741 80.247C97.961 81.285 97.076 82.464 96.086 83.784C96.05 83.838 96.002 83.889 95.942 83.937C95.888 83.979 95.828 84 95.762 84H95.267V75.045H96.131V82.263C96.131 82.347 96.128 82.437 96.122 82.533C96.116 82.629 96.107 82.725 96.095 82.821C96.131 82.737 96.17 82.662 96.212 82.596C96.254 82.524 96.293 82.461 96.329 82.407C96.335 82.395 96.416 82.284 96.572 82.074C96.734 81.864 96.941 81.591 97.193 81.255C97.451 80.913 97.739 80.529 98.057 80.103C98.375 79.677 98.702 79.242 99.038 78.798C99.818 77.76 100.703 76.584 101.693 75.27C101.729 75.21 101.774 75.159 101.828 75.117C101.888 75.069 101.951 75.045 102.017 75.045H102.512ZM112.626 75.702H108.882V84H108.018V75.702H104.274V75.045H112.626V75.702ZM117.56 83.361C117.968 83.361 118.322 83.313 118.622 83.217C118.922 83.115 119.171 82.977 119.369 82.803C119.567 82.623 119.714 82.413 119.81 82.173C119.906 81.927 119.954 81.66 119.954 81.372C119.954 81.108 119.912 80.859 119.828 80.625C119.75 80.391 119.615 80.187 119.423 80.013C119.237 79.839 118.988 79.701 118.676 79.599C118.364 79.497 117.98 79.446 117.524 79.446H115.22V83.361H117.56ZM117.524 78.807C118.136 78.807 118.646 78.879 119.054 79.023C119.468 79.167 119.798 79.359 120.044 79.599C120.29 79.833 120.464 80.103 120.566 80.409C120.674 80.715 120.728 81.03 120.728 81.354C120.728 81.732 120.659 82.083 120.521 82.407C120.389 82.731 120.188 83.013 119.918 83.253C119.654 83.487 119.324 83.67 118.928 83.802C118.538 83.934 118.085 84 117.569 84H114.392V75.045H115.22V78.807H117.524ZM133.79 76.242C133.76 76.272 133.73 76.299 133.7 76.323C133.676 76.341 133.64 76.35 133.592 76.35C133.532 76.35 133.451 76.311 133.349 76.233C133.247 76.149 133.109 76.059 132.935 75.963C132.761 75.867 132.542 75.78 132.278 75.702C132.02 75.618 131.705 75.576 131.333 75.576C130.817 75.576 130.358 75.669 129.956 75.855C129.56 76.035 129.224 76.296 128.948 76.638C128.672 76.98 128.462 77.394 128.318 77.88C128.18 78.366 128.111 78.912 128.111 79.518C128.111 80.148 128.183 80.706 128.327 81.192C128.477 81.678 128.687 82.089 128.957 82.425C129.227 82.755 129.554 83.007 129.938 83.181C130.322 83.355 130.748 83.442 131.216 83.442C131.648 83.442 132.008 83.391 132.296 83.289C132.59 83.187 132.83 83.076 133.016 82.956C133.208 82.836 133.358 82.725 133.466 82.623C133.574 82.521 133.664 82.47 133.736 82.47C133.808 82.47 133.868 82.5 133.916 82.56L134.141 82.848C134.003 83.028 133.829 83.196 133.619 83.352C133.409 83.508 133.172 83.643 132.908 83.757C132.644 83.871 132.356 83.958 132.044 84.018C131.738 84.084 131.417 84.117 131.081 84.117C130.511 84.117 129.989 84.015 129.515 83.811C129.047 83.601 128.642 83.301 128.3 82.911C127.964 82.515 127.7 82.032 127.508 81.462C127.322 80.892 127.229 80.244 127.229 79.518C127.229 78.834 127.319 78.21 127.499 77.646C127.679 77.082 127.943 76.596 128.291 76.188C128.639 75.78 129.062 75.465 129.56 75.243C130.064 75.015 130.64 74.901 131.288 74.901C131.87 74.901 132.386 74.994 132.836 75.18C133.286 75.366 133.679 75.618 134.015 75.936L133.79 76.242ZM143.558 84H142.694V75.729H139.076C139.016 76.911 138.914 77.94 138.77 78.816C138.632 79.686 138.467 80.433 138.275 81.057C138.083 81.675 137.867 82.182 137.627 82.578C137.387 82.974 137.135 83.286 136.871 83.514C136.613 83.742 136.349 83.898 136.079 83.982C135.809 84.066 135.542 84.108 135.278 84.108C135.134 84.108 135.008 84.096 134.9 84.072C134.792 84.048 134.738 84.012 134.738 83.964V83.415H135.134C135.35 83.415 135.569 83.373 135.791 83.289C136.019 83.199 136.244 83.04 136.466 82.812C136.688 82.584 136.901 82.272 137.105 81.876C137.309 81.48 137.492 80.973 137.654 80.355C137.822 79.731 137.966 78.984 138.086 78.114C138.212 77.244 138.302 76.221 138.356 75.045H143.558V84ZM150.053 74.901C150.695 74.901 151.268 75.012 151.772 75.234C152.282 75.45 152.711 75.759 153.059 76.161C153.407 76.563 153.671 77.049 153.851 77.619C154.037 78.183 154.13 78.816 154.13 79.518C154.13 80.22 154.037 80.853 153.851 81.417C153.671 81.981 153.407 82.464 153.059 82.866C152.711 83.268 152.282 83.577 151.772 83.793C151.268 84.009 150.695 84.117 150.053 84.117C149.411 84.117 148.835 84.009 148.325 83.793C147.821 83.577 147.392 83.268 147.038 82.866C146.69 82.464 146.423 81.981 146.237 81.417C146.057 80.853 145.967 80.22 145.967 79.518C145.967 78.816 146.057 78.183 146.237 77.619C146.423 77.049 146.69 76.563 147.038 76.161C147.392 75.759 147.821 75.45 148.325 75.234C148.835 75.012 149.411 74.901 150.053 74.901ZM150.053 83.442C150.587 83.442 151.052 83.352 151.448 83.172C151.85 82.986 152.183 82.722 152.447 82.38C152.717 82.038 152.918 81.627 153.05 81.147C153.182 80.661 153.248 80.118 153.248 79.518C153.248 78.924 153.182 78.384 153.05 77.898C152.918 77.412 152.717 76.998 152.447 76.656C152.183 76.308 151.85 76.041 151.448 75.855C151.052 75.669 150.587 75.576 150.053 75.576C149.519 75.576 149.051 75.669 148.649 75.855C148.253 76.041 147.92 76.308 147.65 76.656C147.386 76.998 147.185 77.412 147.047 77.898C146.915 78.384 146.849 78.924 146.849 79.518C146.849 80.118 146.915 80.661 147.047 81.147C147.185 81.627 147.386 82.038 147.65 82.38C147.92 82.722 148.253 82.986 148.649 83.172C149.051 83.352 149.519 83.442 150.053 83.442ZM163.591 75.045V84H162.727V79.509H157.408V84H156.544V75.045H157.408V78.852H162.727V75.045H163.591ZM171.559 79.671C170.707 79.701 169.972 79.77 169.354 79.878C168.742 79.98 168.235 80.121 167.833 80.301C167.437 80.481 167.143 80.697 166.951 80.949C166.759 81.195 166.663 81.477 166.663 81.795C166.663 82.095 166.711 82.356 166.807 82.578C166.909 82.794 167.041 82.974 167.203 83.118C167.371 83.256 167.563 83.358 167.779 83.424C167.995 83.49 168.22 83.523 168.454 83.523C168.802 83.523 169.12 83.487 169.408 83.415C169.702 83.337 169.972 83.232 170.218 83.1C170.47 82.962 170.704 82.8 170.92 82.614C171.136 82.428 171.349 82.227 171.559 82.011V79.671ZM166.294 76.314C166.762 75.846 167.254 75.492 167.77 75.252C168.286 75.012 168.871 74.892 169.525 74.892C170.005 74.892 170.425 74.97 170.785 75.126C171.145 75.276 171.442 75.495 171.676 75.783C171.916 76.065 172.096 76.41 172.216 76.818C172.336 77.22 172.396 77.67 172.396 78.168V84H172.054C171.874 84 171.763 83.916 171.721 83.748L171.595 82.596C171.349 82.836 171.103 83.052 170.857 83.244C170.617 83.436 170.365 83.598 170.101 83.73C169.837 83.862 169.552 83.964 169.246 84.036C168.94 84.108 168.604 84.144 168.238 84.144C167.932 84.144 167.635 84.099 167.347 84.009C167.059 83.919 166.801 83.781 166.573 83.595C166.351 83.409 166.171 83.172 166.033 82.884C165.901 82.59 165.835 82.239 165.835 81.831C165.835 81.453 165.943 81.102 166.159 80.778C166.375 80.454 166.714 80.172 167.176 79.932C167.638 79.692 168.229 79.5 168.949 79.356C169.675 79.212 170.545 79.128 171.559 79.104V78.168C171.559 77.34 171.379 76.704 171.019 76.26C170.665 75.81 170.137 75.585 169.435 75.585C169.003 75.585 168.634 75.645 168.328 75.765C168.028 75.885 167.773 76.017 167.563 76.161C167.353 76.305 167.182 76.437 167.05 76.557C166.918 76.677 166.807 76.737 166.717 76.737C166.651 76.737 166.597 76.722 166.555 76.692C166.513 76.662 166.477 76.623 166.447 76.575L166.294 76.314Z" fill="black"/>
<defs>
<filter id="filter0_d" x="0" y="0" width="435" height="277" filterUnits="userSpaceOnUse" color-interpolation-filters="sRGB">
<feFlood flood-opacity="0" result="BackgroundImageFix"/>
<feColorMatrix in="SourceAlpha" type="matrix" values="0 0 0 0 0 0 0 0 0 0 0 0 0 0 0 0 0 0 127 0" result="hardAlpha"/>
<feOffset dy="5"/>
<feGaussianBlur stdDeviation="15"/>
<feComposite in2="hardAlpha" operator="out"/>
<feColorMatrix type="matrix" values="0 0 0 0 0.820833 0 0 0 0 0.820833 0 0 0 0 0.820833 0 0 0 1 0"/>
<feBlend mode="normal" in2="BackgroundImageFix" result="effect1_dropShadow"/>
<feBlend mode="normal" in="SourceGraphic" in2="effect1_dropShadow" result="shape"/>
</filter>
</defs>
</svg>
