<svg width="70" height="71" viewBox="0 0 70 71" fill="none" xmlns="http://www.w3.org/2000/svg">
<g clip-path="url(#clip0)">
<path d="M32.3005 47.5706C32.8351 47.035 32.8351 46.1681 32.3005 45.6325C31.7654 45.0984 30.8986 45.0984 30.3629 45.6325C29.8289 46.1681 29.8289 47.035 30.3629 47.5706C30.8986 48.1046 31.7654 48.1046 32.3005 47.5706Z" fill="#363739"/>
<path d="M25.8149 15.0642C25.8149 23.3706 32.5728 30.129 40.8792 30.129C49.1856 30.129 55.9434 23.3706 55.9434 15.0642C55.9434 6.75781 49.1856 0 40.8792 0C32.5728 0 25.8149 6.75781 25.8149 15.0642V15.0642ZM53.2047 15.0642C53.2047 21.8606 47.6755 27.3898 40.8792 27.3898C34.0828 27.3898 28.5536 21.8606 28.5536 15.0642C28.5536 8.26841 34.0828 2.73919 40.8792 2.73919C47.6755 2.73919 53.2047 8.26841 53.2047 15.0642Z" fill="#363739"/>
<path d="M15.843 69.7318C16.3738 70.2669 17.238 70.2728 17.7758 69.743L24.4154 63.2019C25.5433 62.0739 25.8864 60.4039 25.3903 58.9522L26.8185 57.5748C27.5874 56.8321 28.5999 56.4227 29.6701 56.4227H47.8759C51.1057 56.4227 54.1585 55.1824 56.4728 52.9301C56.5681 52.8375 55.7499 53.8013 68.8931 38.0928C70.8425 35.7865 70.5508 32.3233 68.2424 30.3718C65.9484 28.4385 62.512 28.7162 60.5573 30.9829L52.4761 39.2887C51.4557 38.0328 49.8996 37.25 48.2183 37.25H32.947C30.774 36.3409 28.4682 35.8807 26.0892 35.8807C19.4945 35.8807 13.7363 38.9265 10.6461 44.6371C9.34419 44.3904 7.97111 44.7842 6.98331 45.772L0.468437 52.3062C-0.0634556 52.8397 -0.0645258 53.7028 0.466296 54.2379L15.843 69.7318ZM26.0886 38.6193C28.1862 38.6193 30.2143 39.0415 32.1176 39.8741C32.291 39.9501 32.4777 39.9892 32.6666 39.9892H48.2183C49.7032 39.9892 50.9575 41.2001 50.9575 42.7278C50.9575 44.2384 49.7289 45.467 48.2183 45.467H37.0448C36.2887 45.467 35.6755 46.0803 35.6755 46.8364C35.6755 47.593 36.2887 48.2057 37.0448 48.2057H48.2183C51.239 48.2057 53.6962 45.7485 53.6962 42.7278C53.6962 42.487 53.6791 42.2484 53.648 42.0119C61.4653 33.9762 62.5676 32.8472 62.6147 32.791C63.5908 31.6389 65.3234 31.4928 66.476 32.4646C67.6297 33.4401 67.7758 35.1717 66.7971 36.3302L54.5138 51.0144C52.7201 52.7364 50.3652 53.6841 47.8759 53.6841H29.6701C27.886 53.6841 26.1972 54.3663 24.9162 55.604L23.7524 56.7272L13.0236 45.9989C15.531 41.2948 20.2362 38.6193 26.0886 38.6193V38.6193ZM8.92145 47.7075C9.37308 47.2559 10.0666 47.1745 10.6172 47.5149C10.8542 47.6593 10.1736 47.0397 22.4788 59.3278C23.0262 59.8752 22.9968 60.7474 22.4863 61.2579L16.826 66.8342L3.36976 53.2753L8.92145 47.7075Z" fill="#363739"/>
<path d="M39.2359 6.84765V8.45242C37.6418 9.01749 36.4967 10.5399 36.4967 12.3255C36.4967 14.5906 38.3396 16.434 40.6052 16.434C41.3603 16.434 41.9746 17.0483 41.9746 17.8033C41.9746 18.5584 41.3603 19.1727 40.6052 19.1727C40.0204 19.1727 39.3884 18.8051 38.8271 18.1367C38.3402 17.5577 37.4765 17.4833 36.8975 17.9698C36.3185 18.4567 36.2436 19.3204 36.7306 19.8993C37.4626 20.7699 38.3236 21.3768 39.2359 21.6828V23.2812C39.2359 24.0378 39.8491 24.6505 40.6052 24.6505C41.3613 24.6505 41.9746 24.0378 41.9746 23.2812V21.6764C43.5686 21.1108 44.7138 19.5884 44.7138 17.8033C44.7138 15.5377 42.8709 13.6948 40.6052 13.6948C39.8502 13.6948 39.2359 13.0805 39.2359 12.3255C39.2359 11.5705 39.8502 10.9556 40.6052 10.9556C41.0906 10.9556 41.6027 11.2034 42.0864 11.6716C42.6301 12.1976 43.4969 12.1832 44.0229 11.64C44.549 11.0964 44.5345 10.2295 43.9914 9.70349C43.2963 9.03087 42.6006 8.65041 41.9746 8.44279V6.84765C41.9746 6.09101 41.3613 5.47778 40.6052 5.47778C39.8491 5.47778 39.2359 6.09101 39.2359 6.84765V6.84765Z" fill="#363739"/>
</g>
<defs>
<clipPath id="clip0">
<rect width="70" height="70.137" fill="white"/>
</clipPath>
</defs>
</svg>
