<svg width="30" height="35" viewBox="0 0 40 47" fill="none" xmlns="http://www.w3.org/2000/svg">
<path d="M32.9223 23.3216C32.9223 30.1852 27.3583 35.7492 20.4947 35.7492C13.6311 35.7492 8.06714 30.1852 8.06714 23.3216C8.06714 16.4581 13.6311 10.894 20.4947 10.894C27.3583 10.894 32.9223 16.4581 32.9223 23.3216Z" stroke="#F2F5FE" stroke-width="2"/>
<circle cx="22.8974" cy="21.06" r="2.947" stroke="#F2F5FE" stroke-width="4"/>
<ellipse cx="25.3005" cy="10.6008" rx="0.706715" ry="0.706714" fill="#F2F5FE"/>
<ellipse cx="31.8022" cy="0.706714" rx="0.706714" ry="0.706714" fill="#F2F5FE"/>
<line x1="31.9428" y1="0.972873" x2="25.7238" y2="10.8669" stroke="#F2F5FE"/>
<circle cx="33.2155" cy="46.0776" r="0.706715" fill="#F2F5FE"/>
<ellipse cx="26.8551" cy="35.477" rx="0.706706" ry="0.706705" fill="#F2F5FE"/>
<line x1="32.3119" y1="45.593" x2="26.4687" y2="35.4724" stroke="#F2F5FE"/>
<ellipse cx="13.0033" cy="12.0141" rx="0.706714" ry="0.70671" fill="#F2F5FE"/>
<ellipse cx="6.64299" cy="1.4135" rx="0.706714" ry="0.706714" fill="#F2F5FE"/>
<line x1="12.3358" y1="11.7842" x2="6.49267" y2="1.66361" stroke="#F2F5FE"/>
<ellipse cx="9.75261" cy="38.8693" rx="0.706714" ry="0.706715" fill="#F2F5FE"/>
<ellipse cx="13.0036" cy="34.0637" rx="0.706714" ry="0.706722" fill="#F2F5FE"/>
<line y1="-0.5" x2="5.65372" y2="-0.5" transform="matrix(-0.53217 0.846637 -0.846636 -0.532173 12.7207 34.0637)" stroke="#F2F5FE"/>
<circle cx="33.2155" cy="20.2121" r="0.706715" fill="#F2F5FE"/>
<ellipse cx="39.2931" cy="18.2333" rx="0.706713" ry="0.706714" fill="#F2F5FE"/>
<line y1="-0.5" x2="5.65371" y2="-0.5" transform="matrix(-0.939692 0.342021 -0.342019 -0.939693 38.5283 18.2463)" stroke="#F2F5FE"/>
<ellipse cx="0.706714" cy="25.0178" rx="0.706714" ry="0.70672" fill="#F2F5FE"/>
<ellipse cx="7.06707" cy="25.0178" rx="0.706714" ry="0.70672" fill="#F2F5FE"/>
<line x1="6.36035" y1="25.5178" x2="0.706641" y2="25.5178" stroke="#F2F5FE"/>
<line x1="20.5056" y1="25.0992" x2="15.5961" y2="30.9501" stroke="#F2F5FE"/>
</svg>
