<svg width="300" height="351" viewBox="0 0 300 351" fill="none" xmlns="http://www.w3.org/2000/svg">
<circle cx="153.71" cy="174.912" r="99.7067" stroke="#F2F5FE" stroke-width="2"/>
<path d="M206.834 157.951C206.834 177.337 191.118 193.053 171.731 193.053C152.345 193.053 136.629 177.337 136.629 157.951C136.629 138.564 152.345 122.848 171.731 122.848C191.118 122.848 206.834 138.564 206.834 157.951Z" stroke="#F2F5FE" stroke-width="4"/>
<circle cx="189.753" cy="79.5053" r="3.80035" fill="#F2F5FE" stroke="#F2F5FE" stroke-width="3"/>
<path d="M242.316 5.30035C242.316 7.39923 240.615 9.10071 238.516 9.10071C236.417 9.10071 234.716 7.39923 234.716 5.30035C234.716 3.20148 236.417 1.5 238.516 1.5C240.615 1.5 242.316 3.20148 242.316 5.30035Z" fill="#F2F5FE" stroke="#F2F5FE" stroke-width="3"/>
<line x1="236.819" y1="5.56644" x2="190.176" y2="79.7714" stroke="#F2F5FE"/>
<circle cx="249.117" cy="345.583" r="3.80035" fill="#F2F5FE" stroke="#F2F5FE" stroke-width="3"/>
<path d="M205.214 266.078C205.214 268.177 203.512 269.878 201.413 269.878C199.315 269.878 197.613 268.177 197.613 266.078C197.613 263.979 199.315 262.277 201.413 262.277C203.512 262.277 205.214 263.979 205.214 266.078Z" fill="#F2F5FE" stroke="#F2F5FE" stroke-width="3"/>
<line x1="245.154" y1="340.322" x2="201.33" y2="264.418" stroke="#F2F5FE"/>
<circle cx="97.5264" cy="90.106" r="3.80035" fill="#F2F5FE" stroke="#F2F5FE" stroke-width="3"/>
<path d="M53.6237 10.6007C53.6237 12.6996 51.9222 14.4011 49.8233 14.4011C47.7244 14.4011 46.0229 12.6996 46.0229 10.6007C46.0229 8.50183 47.7244 6.80035 49.8233 6.80035C51.9222 6.80035 53.6237 8.50183 53.6237 10.6007Z" fill="#F2F5FE" stroke="#F2F5FE" stroke-width="3"/>
<line x1="95.3338" y1="86.755" x2="51.5105" y2="10.8507" stroke="#F2F5FE"/>
<circle cx="73.1448" cy="291.519" r="3.80035" fill="#F2F5FE" stroke="#F2F5FE" stroke-width="3"/>
<path d="M101.327 255.477C101.327 257.576 99.6253 259.277 97.5264 259.277C95.4276 259.277 93.7261 257.576 93.7261 255.477C93.7261 253.378 95.4276 251.677 97.5264 251.677C99.6253 251.677 101.327 253.378 101.327 255.477Z" fill="#F2F5FE" stroke="#F2F5FE" stroke-width="3"/>
<line x1="95.8296" y1="255.743" x2="73.264" y2="291.643" stroke="#F2F5FE"/>
<circle cx="249.117" cy="151.59" r="3.80035" fill="#F2F5FE" stroke="#F2F5FE" stroke-width="3"/>
<circle cx="294.7" cy="136.749" r="3.80035" fill="#F2F5FE" stroke="#F2F5FE" stroke-width="3"/>
<line x1="289.133" y1="137.317" x2="249.288" y2="151.819" stroke="#F2F5FE"/>
<path d="M9.10071 187.633C9.10071 189.731 7.39923 191.433 5.30035 191.433C3.20148 191.433 1.5 189.731 1.5 187.633C1.5 185.534 3.20148 183.832 5.30035 183.832C7.39923 183.832 9.10071 185.534 9.10071 187.633Z" fill="#F2F5FE" stroke="#F2F5FE" stroke-width="3"/>
<path d="M56.8038 187.633C56.8038 189.731 55.1024 191.433 53.0035 191.433C50.9046 191.433 49.2031 189.731 49.2031 187.633C49.2031 185.534 50.9046 183.832 53.0035 183.832C55.1024 183.832 56.8038 185.534 56.8038 187.633Z" fill="#F2F5FE" stroke="#F2F5FE" stroke-width="3"/>
<line x1="47.7031" y1="188.133" x2="5.3003" y2="188.133" stroke="#F2F5FE"/>
<line x1="151.302" y1="186.155" x2="114.481" y2="230.036" stroke="#F2F5FE"/>
<line x1="141.946" y1="196.981" x2="105.125" y2="240.863" stroke="#F2F5FE" stroke-width="6"/>
</svg>
