<svg width="100" height="117" viewBox="0 0 100 117" fill="none" xmlns="http://www.w3.org/2000/svg">
<path d="M83.8058 58.3039C83.8058 76.2912 69.2242 90.8728 51.2369 90.8728C33.2496 90.8728 18.668 76.2912 18.668 58.3039C18.668 40.3166 33.2496 25.735 51.2369 25.735C69.2242 25.735 83.8058 40.3166 83.8058 58.3039Z" stroke="#2CD4D9" stroke-width="2"/>
<path d="M67.6114 52.6502C67.6114 58.376 62.9698 63.0177 57.244 63.0177C51.5181 63.0177 46.8765 58.376 46.8765 52.6502C46.8765 46.9244 51.5181 42.2827 57.244 42.2827C62.9698 42.2827 67.6114 46.9244 67.6114 52.6502Z" stroke="#2CD4D9" stroke-width="4"/>
<circle cx="63.2507" cy="26.5018" r="1.5" fill="#2CD4D9" stroke="#2CD4D9" stroke-width="0.533569"/>
<mask id="path-4-inside-1" fill="white">
<ellipse cx="79.5051" cy="1.76678" rx="1.76678" ry="1.76678"/>
</mask>
<ellipse cx="79.5051" cy="1.76678" rx="1.76678" ry="1.76678" fill="#2CD4D9"/>
<path d="M78.2719 1.76678C78.2719 1.0857 78.824 0.533569 79.5051 0.533569V6.53357C82.1377 6.53357 84.2719 4.39941 84.2719 1.76678H78.2719ZM79.5051 0.533569C80.1862 0.533569 80.7383 1.0857 80.7383 1.76678H74.7383C74.7383 4.39941 76.8724 6.53357 79.5051 6.53357V0.533569ZM80.7383 1.76678C80.7383 2.44787 80.1862 3 79.5051 3V-3C76.8724 -3 74.7383 -0.865838 74.7383 1.76678H80.7383ZM79.5051 3C78.824 3 78.2719 2.44787 78.2719 1.76678H84.2719C84.2719 -0.865838 82.1377 -3 79.5051 -3V3Z" fill="#2CD4D9" mask="url(#path-4-inside-1)"/>
<line x1="79.2217" y1="2.03287" x2="63.674" y2="26.7679" stroke="#2CD4D9"/>
<circle cx="83.0388" cy="115.194" r="1.5" fill="#2CD4D9" stroke="#2CD4D9" stroke-width="0.533569"/>
<circle cx="67.1379" cy="88.6926" r="1.5" fill="#2CD4D9" stroke="#2CD4D9" stroke-width="0.533554"/>
<line x1="81.4293" y1="113.607" x2="66.8215" y2="88.306" stroke="#2CD4D9"/>
<mask id="path-10-inside-2" fill="white">
<ellipse cx="32.5085" cy="30.0353" rx="1.76678" ry="1.76678"/>
</mask>
<ellipse cx="32.5085" cy="30.0353" rx="1.76678" ry="1.76678" fill="#2CD4D9"/>
<path d="M31.2753 30.0353C31.2753 29.3542 31.8274 28.8021 32.5085 28.8021V34.8021C35.1411 34.8021 37.2753 32.668 37.2753 30.0353H31.2753ZM32.5085 28.8021C33.1896 28.8021 33.7417 29.3542 33.7417 30.0353H27.7417C27.7417 32.668 29.8759 34.8021 32.5085 34.8021V28.8021ZM33.7417 30.0353C33.7417 30.7164 33.1896 31.2686 32.5085 31.2686V25.2686C29.8759 25.2686 27.7417 27.4027 27.7417 30.0353H33.7417ZM32.5085 31.2686C31.8274 31.2686 31.2753 30.7164 31.2753 30.0353H37.2753C37.2753 27.4027 35.1411 25.2686 32.5085 25.2686V31.2686Z" fill="#2CD4D9" mask="url(#path-10-inside-2)"/>
<mask id="path-12-inside-3" fill="white">
<ellipse cx="16.6076" cy="3.53357" rx="1.76678" ry="1.76678"/>
</mask>
<ellipse cx="16.6076" cy="3.53357" rx="1.76678" ry="1.76678" fill="#2CD4D9"/>
<path d="M15.3744 3.53357C15.3744 2.85248 15.9265 2.30035 16.6076 2.30035V8.30035C19.2402 8.30035 21.3744 6.16619 21.3744 3.53357H15.3744ZM16.6076 2.30035C17.2887 2.30035 17.8408 2.85248 17.8408 3.53357H11.8408C11.8408 6.16619 13.975 8.30035 16.6076 8.30035V2.30035ZM17.8408 3.53357C17.8408 4.21465 17.2887 4.76678 16.6076 4.76678V-1.23322C13.975 -1.23322 11.8408 0.900947 11.8408 3.53357H17.8408ZM16.6076 4.76678C15.9265 4.76678 15.3744 4.21465 15.3744 3.53357H21.3744C21.3744 0.900947 19.2402 -1.23322 16.6076 -1.23322V4.76678Z" fill="#2CD4D9" mask="url(#path-12-inside-3)"/>
<line x1="31.4894" y1="29.085" x2="16.8816" y2="3.78358" stroke="#2CD4D9"/>
<mask id="path-15-inside-4" fill="white">
<ellipse cx="24.3815" cy="97.1732" rx="1.76678" ry="1.76678"/>
</mask>
<ellipse cx="24.3815" cy="97.1732" rx="1.76678" ry="1.76678" fill="#2CD4D9"/>
<path d="M23.1483 97.1732C23.1483 96.4921 23.7004 95.9399 24.3815 95.9399V101.94C27.0142 101.94 29.1483 99.8058 29.1483 97.1732H23.1483ZM24.3815 95.9399C25.0626 95.9399 25.6147 96.4921 25.6147 97.1732H19.6147C19.6147 99.8058 21.7489 101.94 24.3815 101.94V95.9399ZM25.6147 97.1732C25.6147 97.8542 25.0626 98.4064 24.3815 98.4064V92.4064C21.7489 92.4064 19.6147 94.5405 19.6147 97.1732H25.6147ZM24.3815 98.4064C23.7004 98.4064 23.1483 97.8542 23.1483 97.1732H29.1483C29.1483 94.5405 27.0142 92.4064 24.3815 92.4064V98.4064Z" fill="#2CD4D9" mask="url(#path-15-inside-4)"/>
<mask id="path-17-inside-5" fill="white">
<ellipse cx="32.509" cy="85.159" rx="1.76678" ry="1.76679"/>
</mask>
<ellipse cx="32.509" cy="85.159" rx="1.76678" ry="1.76679" fill="#2CD4D9"/>
<path d="M31.2758 85.159C31.2758 84.4779 31.8279 83.9258 32.509 83.9258V89.9258C35.1416 89.9258 37.2758 87.7916 37.2758 85.159H31.2758ZM32.509 83.9258C33.1901 83.9258 33.7422 84.4779 33.7422 85.159H27.7422C27.7422 87.7916 29.8763 89.9258 32.509 89.9258V83.9258ZM33.7422 85.159C33.7422 85.8401 33.1901 86.3922 32.509 86.3922V80.3922C29.8763 80.3922 27.7422 82.5264 27.7422 85.159H33.7422ZM32.509 86.3922C31.8279 86.3922 31.2758 85.8401 31.2758 85.159H37.2758C37.2758 82.5264 35.1416 80.3922 32.509 80.3922V86.3922Z" fill="#2CD4D9" mask="url(#path-17-inside-5)"/>
<line y1="-0.5" x2="14.1343" y2="-0.5" transform="matrix(-0.532171 0.846637 -0.846636 -0.532172 31.8022 85.159)" stroke="#2CD4D9"/>
<circle cx="83.0388" cy="50.5301" r="1.5" fill="#2CD4D9" stroke="#2CD4D9" stroke-width="0.533569"/>
<mask id="path-21-inside-6" fill="white">
<ellipse cx="98.2331" cy="45.5831" rx="1.76678" ry="1.76678"/>
</mask>
<ellipse cx="98.2331" cy="45.5831" rx="1.76678" ry="1.76678" fill="#2CD4D9"/>
<path d="M96.9999 45.5831C96.9999 44.902 97.552 44.3498 98.2331 44.3498V50.3498C100.866 50.3498 103 48.2157 103 45.5831H96.9999ZM98.2331 44.3498C98.9142 44.3498 99.4663 44.902 99.4663 45.5831H93.4663C93.4663 48.2157 95.6005 50.3498 98.2331 50.3498V44.3498ZM99.4663 45.5831C99.4663 46.2642 98.9142 46.8163 98.2331 46.8163V40.8163C95.6005 40.8163 93.4663 42.9504 93.4663 45.5831H99.4663ZM98.2331 46.8163C97.552 46.8163 96.9999 46.2642 96.9999 45.5831H103C103 42.9504 100.866 40.8163 98.2331 40.8163V46.8163Z" fill="#2CD4D9" mask="url(#path-21-inside-6)"/>
<line x1="96.4918" y1="46.0855" x2="83.2099" y2="50.9197" stroke="#2CD4D9"/>
<mask id="path-24-inside-7" fill="white">
<ellipse cx="1.76678" cy="62.5442" rx="1.76678" ry="1.76679"/>
</mask>
<ellipse cx="1.76678" cy="62.5442" rx="1.76678" ry="1.76679" fill="#2CD4D9"/>
<path d="M0.533569 62.5442C0.533569 61.8631 1.08569 61.311 1.76678 61.311V67.311C4.39942 67.311 6.53357 65.1768 6.53357 62.5442H0.533569ZM1.76678 61.311C2.44788 61.311 3 61.8631 3 62.5442H-3C-3 65.1768 -0.865847 67.311 1.76678 67.311V61.311ZM3 62.5442C3 63.2253 2.44788 63.7774 1.76678 63.7774V57.7774C-0.865847 57.7774 -3 59.9116 -3 62.5442H3ZM1.76678 63.7774C1.08569 63.7774 0.533569 63.2253 0.533569 62.5442H6.53357C6.53357 59.9116 4.39942 57.7774 1.76678 57.7774V63.7774Z" fill="#2CD4D9" mask="url(#path-24-inside-7)"/>
<mask id="path-26-inside-8" fill="white">
<ellipse cx="17.6677" cy="62.5442" rx="1.76678" ry="1.76679"/>
</mask>
<ellipse cx="17.6677" cy="62.5442" rx="1.76678" ry="1.76679" fill="#2CD4D9"/>
<path d="M16.4344 62.5442C16.4344 61.8631 16.9866 61.311 17.6677 61.311V67.311C20.3003 67.311 22.4344 65.1768 22.4344 62.5442H16.4344ZM17.6677 61.311C18.3488 61.311 18.9009 61.8631 18.9009 62.5442H12.9009C12.9009 65.1768 15.035 67.311 17.6677 67.311V61.311ZM18.9009 62.5442C18.9009 63.2253 18.3488 63.7774 17.6677 63.7774V57.7774C15.035 57.7774 12.9009 59.9116 12.9009 62.5442H18.9009ZM17.6677 63.7774C16.9866 63.7774 16.4344 63.2253 16.4344 62.5442H22.4344C22.4344 59.9116 20.3003 57.7774 17.6677 57.7774V63.7774Z" fill="#2CD4D9" mask="url(#path-26-inside-8)"/>
<line x1="15.9009" y1="63.0442" x2="1.7666" y2="63.0442" stroke="#2CD4D9"/>
<line x1="50.6897" y1="62.2658" x2="38.416" y2="76.8929" stroke="#2CD4D9"/>
<line x1="47.6984" y1="65.9818" x2="35.4248" y2="80.6089" stroke="#2CD4D9" stroke-width="3"/>
</svg>
