<svg width="1072" height="774" viewBox="0 0 1072 774" fill="none" xmlns="http://www.w3.org/2000/svg">
<rect width="1072" height="774" rx="20" fill="white"/>
<rect width="1072" height="774" rx="20" fill="url(#paint0_linear)"/>
<path d="M0 20C0 8.95431 8.9543 0 20 0H1052C1063.05 0 1072 8.95431 1072 20V643H0V20Z" fill="url(#paint1_linear)"/>
<g clip-path="url(#clip0)">
<rect width="1000" height="563" transform="translate(36 40)" fill="white"/>
<rect x="151" y="332" width="711" height="30" rx="10" fill="white"/>
<rect x="152" y="246" width="768" height="70" rx="9" fill="#FFCC00" stroke="#FFE580" stroke-width="2"/>
<path d="M843.128 272.804V290H840.8V282.176H831.524V290H829.196V272.804H831.524V280.472H840.8V272.804H843.128ZM853.257 284.528C852.273 284.56 851.433 284.64 850.737 284.768C850.049 284.888 849.485 285.048 849.045 285.248C848.613 285.448 848.297 285.684 848.097 285.956C847.905 286.228 847.809 286.532 847.809 286.868C847.809 287.188 847.861 287.464 847.965 287.696C848.069 287.928 848.209 288.12 848.385 288.272C848.569 288.416 848.781 288.524 849.021 288.596C849.269 288.66 849.533 288.692 849.813 288.692C850.189 288.692 850.533 288.656 850.845 288.584C851.157 288.504 851.449 288.392 851.721 288.248C852.001 288.104 852.265 287.932 852.513 287.732C852.769 287.532 853.017 287.304 853.257 287.048V284.528ZM846.357 279.56C847.029 278.912 847.753 278.428 848.529 278.108C849.305 277.788 850.165 277.628 851.109 277.628C851.789 277.628 852.393 277.74 852.921 277.964C853.449 278.188 853.893 278.5 854.253 278.9C854.613 279.3 854.885 279.784 855.069 280.352C855.253 280.92 855.345 281.544 855.345 282.224V290H854.397C854.189 290 854.029 289.968 853.917 289.904C853.805 289.832 853.717 289.696 853.653 289.496L853.413 288.344C853.093 288.64 852.781 288.904 852.477 289.136C852.173 289.36 851.853 289.552 851.517 289.712C851.181 289.864 850.821 289.98 850.437 290.06C850.061 290.148 849.641 290.192 849.177 290.192C848.705 290.192 848.261 290.128 847.845 290C847.429 289.864 847.065 289.664 846.753 289.4C846.449 289.136 846.205 288.804 846.021 288.404C845.845 287.996 845.757 287.516 845.757 286.964C845.757 286.484 845.889 286.024 846.153 285.584C846.417 285.136 846.845 284.74 847.437 284.396C848.029 284.052 848.801 283.772 849.753 283.556C850.705 283.332 851.873 283.204 853.257 283.172V282.224C853.257 281.28 853.053 280.568 852.645 280.088C852.237 279.6 851.641 279.356 850.857 279.356C850.329 279.356 849.885 279.424 849.525 279.56C849.173 279.688 848.865 279.836 848.601 280.004C848.345 280.164 848.121 280.312 847.929 280.448C847.745 280.576 847.561 280.64 847.377 280.64C847.233 280.64 847.109 280.604 847.005 280.532C846.901 280.452 846.813 280.356 846.741 280.244L846.357 279.56ZM869.026 277.844V290H866.89V281.744C866.89 281.584 866.898 281.412 866.914 281.228C866.93 281.044 866.95 280.86 866.974 280.676C866.902 280.836 866.83 280.984 866.758 281.12C866.686 281.256 866.61 281.38 866.53 281.492L860.662 289.472C860.574 289.6 860.462 289.724 860.326 289.844C860.198 289.956 860.054 290.012 859.894 290.012H858.598V277.856H860.746V286.112C860.746 286.264 860.738 286.432 860.722 286.616C860.706 286.792 860.686 286.972 860.662 287.156C860.734 287.004 860.806 286.864 860.878 286.736C860.95 286.6 861.022 286.476 861.094 286.364L866.962 278.384C867.05 278.256 867.162 278.136 867.298 278.024C867.434 277.904 867.582 277.844 867.742 277.844H869.026ZM863.95 274.904C864.278 274.904 864.554 274.868 864.778 274.796C865.002 274.716 865.182 274.592 865.318 274.424C865.462 274.256 865.566 274.04 865.63 273.776C865.694 273.512 865.726 273.188 865.726 272.804H866.974C867.126 272.804 867.242 272.872 867.322 273.008C867.402 273.144 867.442 273.292 867.442 273.452C867.442 273.852 867.362 274.212 867.202 274.532C867.042 274.852 866.81 275.128 866.506 275.36C866.21 275.584 865.846 275.756 865.414 275.876C864.982 275.996 864.494 276.056 863.95 276.056C863.406 276.056 862.918 275.996 862.486 275.876C862.054 275.756 861.686 275.584 861.382 275.36C861.086 275.128 860.858 274.852 860.698 274.532C860.538 274.212 860.458 273.852 860.458 273.452C860.458 273.292 860.498 273.144 860.578 273.008C860.658 272.872 860.774 272.804 860.926 272.804H862.174C862.174 273.188 862.206 273.512 862.27 273.776C862.334 274.04 862.434 274.256 862.57 274.424C862.714 274.592 862.898 274.716 863.122 274.796C863.346 274.868 863.622 274.904 863.95 274.904ZM882.507 279.476H877.839V290H875.703V279.476H871.035V277.844H882.507V279.476ZM894.972 277.844V290H892.836V281.744C892.836 281.584 892.844 281.412 892.86 281.228C892.876 281.044 892.896 280.86 892.92 280.676C892.848 280.836 892.776 280.984 892.704 281.12C892.632 281.256 892.556 281.38 892.476 281.492L886.608 289.472C886.52 289.6 886.408 289.724 886.272 289.844C886.144 289.956 886 290.012 885.84 290.012H884.544V277.856H886.692V286.112C886.692 286.264 886.684 286.432 886.668 286.616C886.652 286.792 886.632 286.972 886.608 287.156C886.68 287.004 886.752 286.864 886.824 286.736C886.896 286.6 886.968 286.476 887.04 286.364L892.908 278.384C892.996 278.256 893.108 278.136 893.244 278.024C893.38 277.904 893.528 277.844 893.688 277.844H894.972Z" fill="#0B0720"/>
<rect x="157" y="252" width="648" height="58" rx="9" fill="white" stroke="#FFE580" stroke-width="2"/>
<path d="M177.196 465V446.136H182.02V453.264H183.64L188.752 446.136H194.008L187.312 455.244L194.728 465H189.22L183.568 457.512H182.02V465H177.196ZM200.535 473.136C200.031 473.136 199.515 473.076 198.987 472.956C198.483 472.836 197.895 472.656 197.223 472.416L198.159 468.6C198.879 468.912 199.515 469.068 200.067 469.068C201.339 469.068 202.251 468.192 202.803 466.44L203.379 464.892L195.747 446.136H200.751L205.827 460.068L210.291 446.136H214.899L207.195 467.7C206.571 469.428 205.659 470.76 204.459 471.696C203.283 472.656 201.975 473.136 200.535 473.136ZM217.52 465V446.136H234.44V465H229.616V450.348H222.344V465H217.52ZM238.825 465V446.172H243.649V458.556L252.109 446.136H256.501V465H251.677V452.904L243.325 465H238.825ZM265.259 465V450.348H259.283V446.136H276.095V450.348H270.083V465H265.259ZM278.798 465V446.136H283.622V452.076H287.906C290.162 452.076 291.89 452.652 293.09 453.804C294.29 454.956 294.89 456.48 294.89 458.376C294.89 460.32 294.314 461.916 293.162 463.164C292.034 464.388 290.39 465 288.23 465H278.798ZM283.622 461.328H287.474C288.458 461.328 289.178 461.052 289.634 460.5C290.09 459.924 290.318 459.228 290.318 458.412C290.318 457.62 290.102 456.96 289.67 456.432C289.238 455.88 288.494 455.604 287.438 455.604H283.622V461.328ZM315.355 465.36C313.315 465.36 311.551 464.904 310.063 463.992C308.575 463.08 307.423 461.88 306.607 460.392C305.791 458.904 305.383 457.296 305.383 455.568C305.383 453.816 305.779 452.196 306.571 450.708C307.387 449.22 308.539 448.032 310.027 447.144C311.515 446.256 313.279 445.812 315.319 445.812C317.383 445.812 319.135 446.256 320.575 447.144C322.039 448.032 323.131 449.196 323.851 450.636L319.135 452.076C318.295 450.636 317.011 449.916 315.283 449.916C314.347 449.916 313.507 450.156 312.763 450.636C312.019 451.092 311.431 451.752 310.999 452.616C310.567 453.456 310.351 454.44 310.351 455.568C310.351 456.672 310.567 457.656 310.999 458.52C311.455 459.36 312.055 460.032 312.799 460.536C313.543 461.016 314.371 461.256 315.283 461.256C316.147 461.256 316.939 461.052 317.659 460.644C318.403 460.212 318.919 459.672 319.207 459.024L323.923 460.464C323.275 461.88 322.195 463.056 320.683 463.992C319.195 464.904 317.419 465.36 315.355 465.36ZM325.523 465.252V460.968C326.291 460.944 326.951 460.692 327.503 460.212C328.079 459.732 328.535 458.856 328.871 457.584C329.207 456.312 329.423 454.476 329.519 452.076L329.771 446.136H343.919V465H339.095V450.348H334.019L333.947 452.544C333.803 455.832 333.407 458.4 332.759 460.248C332.135 462.072 331.223 463.356 330.023 464.1C328.823 464.844 327.323 465.228 325.523 465.252ZM357.013 465.36C354.949 465.36 353.173 464.916 351.685 464.028C350.221 463.116 349.093 461.916 348.301 460.428C347.509 458.94 347.113 457.332 347.113 455.604C347.113 453.852 347.509 452.232 348.301 450.744C349.117 449.256 350.257 448.068 351.721 447.18C353.209 446.268 354.973 445.812 357.013 445.812C359.053 445.812 360.805 446.268 362.269 447.18C363.757 448.068 364.897 449.256 365.689 450.744C366.481 452.232 366.877 453.852 366.877 455.604C366.877 457.332 366.481 458.94 365.689 460.428C364.897 461.916 363.757 463.116 362.269 464.028C360.805 464.916 359.053 465.36 357.013 465.36ZM352.081 455.604C352.081 456.708 352.297 457.692 352.729 458.556C353.161 459.396 353.749 460.056 354.493 460.536C355.237 461.016 356.077 461.256 357.013 461.256C357.925 461.256 358.753 461.016 359.497 460.536C360.241 460.032 360.829 459.36 361.261 458.52C361.717 457.656 361.945 456.672 361.945 455.568C361.945 454.488 361.717 453.528 361.261 452.688C360.829 451.824 360.241 451.152 359.497 450.672C358.753 450.168 357.925 449.916 357.013 449.916C356.077 449.916 355.237 450.168 354.493 450.672C353.749 451.152 353.161 451.824 352.729 452.688C352.297 453.528 352.081 454.5 352.081 455.604ZM370.134 465V446.136H374.958V453.336H382.59V446.136H387.414V465H382.59V457.368H374.958V465H370.134ZM390.529 459.42C390.529 458.196 390.865 457.128 391.537 456.216C392.233 455.28 393.193 454.56 394.417 454.056C395.641 453.552 397.045 453.3 398.629 453.3C399.421 453.3 400.225 453.372 401.041 453.516C401.857 453.636 402.565 453.816 403.165 454.056V453.048C403.165 451.848 402.805 450.924 402.085 450.276C401.389 449.628 400.345 449.304 398.953 449.304C397.921 449.304 396.937 449.484 396.001 449.844C395.065 450.204 394.081 450.732 393.049 451.428L391.501 448.26C392.749 447.444 394.021 446.832 395.317 446.424C396.637 446.016 398.017 445.812 399.457 445.812C402.145 445.812 404.233 446.484 405.721 447.828C407.233 449.172 407.989 451.092 407.989 453.588V459.6C407.989 460.128 408.073 460.5 408.241 460.716C408.409 460.908 408.709 461.028 409.141 461.076V465C408.709 465.096 408.313 465.156 407.953 465.18C407.617 465.228 407.329 465.252 407.089 465.252C406.129 465.252 405.397 465.036 404.893 464.604C404.389 464.172 404.089 463.644 403.993 463.02L403.885 462.048C403.045 463.128 402.013 463.956 400.789 464.532C399.589 465.084 398.353 465.36 397.081 465.36C395.809 465.36 394.681 465.108 393.697 464.604C392.713 464.076 391.933 463.368 391.357 462.48C390.805 461.568 390.529 460.548 390.529 459.42ZM402.265 460.392C402.865 459.816 403.165 459.264 403.165 458.736V456.828C401.917 456.324 400.657 456.072 399.385 456.072C398.113 456.072 397.081 456.348 396.289 456.9C395.497 457.428 395.101 458.136 395.101 459.024C395.101 459.744 395.389 460.392 395.965 460.968C396.541 461.544 397.369 461.832 398.449 461.832C399.169 461.832 399.865 461.7 400.537 461.436C401.233 461.172 401.809 460.824 402.265 460.392ZM441.377 458.412C441.377 459.684 441.053 460.824 440.405 461.832C439.757 462.816 438.881 463.596 437.777 464.172C436.697 464.724 435.509 465 434.213 465H422.153V439.44H434.465C435.665 439.44 436.697 439.764 437.561 440.412C438.425 441.036 439.097 441.852 439.577 442.86C440.057 443.844 440.297 444.876 440.297 445.956C440.297 447.228 439.973 448.404 439.325 449.484C438.677 450.564 437.777 451.368 436.625 451.896C438.065 452.328 439.217 453.132 440.081 454.308C440.945 455.484 441.377 456.852 441.377 458.412ZM424.673 441.636V451.068H433.457C434.297 451.068 435.041 450.852 435.689 450.42C436.361 449.964 436.877 449.388 437.237 448.692C437.621 447.972 437.813 447.192 437.813 446.352C437.813 445.488 437.633 444.696 437.273 443.976C436.913 443.256 436.421 442.692 435.797 442.284C435.173 441.852 434.465 441.636 433.673 441.636H424.673ZM438.857 457.98C438.857 457.14 438.665 456.348 438.281 455.604C437.897 454.86 437.369 454.26 436.697 453.804C436.049 453.348 435.305 453.12 434.465 453.12H424.673V462.804H434.213C435.077 462.804 435.857 462.576 436.553 462.12C437.249 461.664 437.801 461.076 438.209 460.356C438.641 459.612 438.857 458.82 438.857 457.98ZM444.114 459.6C444.114 458.448 444.45 457.452 445.122 456.612C445.794 455.748 446.718 455.076 447.894 454.596C449.094 454.116 450.474 453.876 452.034 453.876C452.946 453.876 453.894 453.96 454.878 454.128C455.862 454.272 456.738 454.476 457.506 454.74V453.156C457.506 451.572 457.038 450.312 456.102 449.376C455.166 448.44 453.87 447.972 452.214 447.972C451.23 447.972 450.246 448.164 449.262 448.548C448.278 448.908 447.258 449.448 446.202 450.168L445.266 448.44C446.49 447.6 447.69 446.976 448.866 446.568C450.042 446.136 451.242 445.92 452.466 445.92C454.77 445.92 456.594 446.58 457.938 447.9C459.282 449.22 459.954 451.044 459.954 453.372V462.048C459.954 462.696 460.254 463.032 460.854 463.056V465C460.326 465.072 459.954 465.096 459.738 465.072C459.138 465.048 458.682 464.856 458.37 464.496C458.058 464.136 457.89 463.752 457.866 463.344L457.83 461.976C456.99 463.056 455.898 463.896 454.554 464.496C453.21 465.072 451.842 465.36 450.45 465.36C449.226 465.36 448.134 465.108 447.174 464.604C446.214 464.076 445.458 463.38 444.906 462.516C444.378 461.628 444.114 460.656 444.114 459.6ZM456.678 461.04C457.23 460.392 457.506 459.792 457.506 459.24V456.504C455.85 455.856 454.122 455.532 452.322 455.532C450.57 455.532 449.154 455.88 448.074 456.576C446.994 457.272 446.454 458.22 446.454 459.42C446.454 460.452 446.85 461.388 447.642 462.228C448.458 463.068 449.586 463.488 451.026 463.488C452.202 463.488 453.294 463.26 454.302 462.804C455.334 462.348 456.126 461.76 456.678 461.04ZM465.207 465V446.244H467.655V462.84H475.683V446.244H478.167V462.84H486.159V446.244H488.607V465H465.207ZM493.606 456.324V454.056H504.118V456.324H493.606ZM517.289 465.36C515.465 465.36 513.845 464.916 512.429 464.028C511.013 463.116 509.897 461.928 509.081 460.464C508.265 458.976 507.857 457.344 507.857 455.568C507.857 453.792 508.253 452.184 509.045 450.744C509.837 449.28 510.941 448.116 512.357 447.252C513.773 446.364 515.405 445.92 517.253 445.92C519.005 445.92 520.541 446.328 521.861 447.144C523.205 447.936 524.213 449.016 524.885 450.384L522.509 451.14C521.981 450.18 521.237 449.436 520.277 448.908C519.341 448.356 518.297 448.08 517.145 448.08C515.873 448.08 514.721 448.404 513.689 449.052C512.681 449.7 511.865 450.6 511.241 451.752C510.641 452.88 510.341 454.152 510.341 455.568C510.341 456.984 510.653 458.268 511.277 459.42C511.901 460.572 512.729 461.496 513.761 462.192C514.793 462.864 515.933 463.2 517.181 463.2C517.997 463.2 518.789 463.056 519.557 462.768C520.325 462.48 520.985 462.096 521.537 461.616C522.089 461.112 522.461 460.572 522.653 459.996L525.065 460.716C524.729 461.604 524.177 462.408 523.409 463.128C522.641 463.824 521.729 464.376 520.673 464.784C519.617 465.168 518.489 465.36 517.289 465.36ZM527.399 459.6C527.399 458.448 527.735 457.452 528.407 456.612C529.079 455.748 530.003 455.076 531.179 454.596C532.379 454.116 533.759 453.876 535.319 453.876C536.231 453.876 537.179 453.96 538.163 454.128C539.147 454.272 540.023 454.476 540.791 454.74V453.156C540.791 451.572 540.323 450.312 539.387 449.376C538.451 448.44 537.155 447.972 535.499 447.972C534.515 447.972 533.531 448.164 532.547 448.548C531.563 448.908 530.543 449.448 529.487 450.168L528.551 448.44C529.775 447.6 530.975 446.976 532.151 446.568C533.327 446.136 534.527 445.92 535.751 445.92C538.055 445.92 539.879 446.58 541.223 447.9C542.567 449.22 543.239 451.044 543.239 453.372V462.048C543.239 462.696 543.539 463.032 544.139 463.056V465C543.611 465.072 543.239 465.096 543.023 465.072C542.423 465.048 541.967 464.856 541.655 464.496C541.343 464.136 541.175 463.752 541.151 463.344L541.115 461.976C540.275 463.056 539.183 463.896 537.839 464.496C536.495 465.072 535.127 465.36 533.735 465.36C532.511 465.36 531.419 465.108 530.459 464.604C529.499 464.076 528.743 463.38 528.191 462.516C527.663 461.628 527.399 460.656 527.399 459.6ZM539.963 461.04C540.515 460.392 540.791 459.792 540.791 459.24V456.504C539.135 455.856 537.407 455.532 535.607 455.532C533.855 455.532 532.439 455.88 531.359 456.576C530.279 457.272 529.739 458.22 529.739 459.42C529.739 460.452 530.135 461.388 530.927 462.228C531.743 463.068 532.871 463.488 534.311 463.488C535.487 463.488 536.579 463.26 537.587 462.804C538.619 462.348 539.411 461.76 539.963 461.04ZM548.492 465V446.28H550.94V461.688L562.352 446.244H564.548V465H562.1V449.844L550.868 465H548.492ZM556.556 443.868C554.924 443.868 553.664 443.484 552.776 442.716C551.888 441.948 551.444 440.976 551.444 439.8H553.244C553.244 440.52 553.508 441.12 554.036 441.6C554.588 442.08 555.428 442.32 556.556 442.32C557.66 442.32 558.464 442.092 558.968 441.636C559.496 441.18 559.796 440.568 559.868 439.8H561.632C561.632 440.976 561.188 441.948 560.3 442.716C559.412 443.484 558.164 443.868 556.556 443.868ZM574.583 465V448.44H567.887V446.244H583.727V448.44H577.031V465H574.583ZM585.117 465V461.472H587.241V465H585.117ZM601.874 465.36C600.314 465.36 598.91 464.952 597.662 464.136C596.438 463.32 595.466 462.312 594.746 461.112V472.668H592.298V446.244H594.494V449.88C595.238 448.704 596.222 447.756 597.446 447.036C598.694 446.292 600.038 445.92 601.478 445.92C602.774 445.92 603.962 446.196 605.042 446.748C606.122 447.276 607.058 447.996 607.85 448.908C608.666 449.82 609.29 450.864 609.722 452.04C610.154 453.192 610.37 454.392 610.37 455.64C610.37 457.392 610.01 459.012 609.29 460.5C608.594 461.964 607.598 463.14 606.302 464.028C605.03 464.916 603.554 465.36 601.874 465.36ZM601.19 463.2C602.558 463.2 603.734 462.84 604.718 462.12C605.726 461.376 606.506 460.428 607.058 459.276C607.61 458.124 607.886 456.912 607.886 455.64C607.886 454.296 607.574 453.048 606.95 451.896C606.326 450.744 605.486 449.82 604.43 449.124C603.398 448.428 602.222 448.08 600.902 448.08C600.086 448.08 599.222 448.296 598.31 448.728C597.422 449.136 596.63 449.7 595.934 450.42C595.262 451.116 594.866 451.884 594.746 452.724V458.484C595.298 459.804 596.162 460.92 597.338 461.832C598.514 462.744 599.798 463.2 601.19 463.2ZM615.936 472.848C615.144 472.848 614.304 472.596 613.416 472.092L614.316 470.364C614.82 470.7 615.312 470.868 615.792 470.868C616.992 470.868 618.108 469.644 619.14 467.196L620.076 464.856L611.724 446.244H614.316L621.192 462.48L627.528 446.244H629.976L621.048 467.952C620.328 469.656 619.548 470.892 618.708 471.66C617.868 472.452 616.944 472.848 615.936 472.848Z" fill="#0B0720"/>
<path d="M177.196 365V346.136H182.02V353.264H183.64L188.752 346.136H194.008L187.312 355.244L194.728 365H189.22L183.568 357.512H182.02V365H177.196ZM200.535 373.136C200.031 373.136 199.515 373.076 198.987 372.956C198.483 372.836 197.895 372.656 197.223 372.416L198.159 368.6C198.879 368.912 199.515 369.068 200.067 369.068C201.339 369.068 202.251 368.192 202.803 366.44L203.379 364.892L195.747 346.136H200.751L205.827 360.068L210.291 346.136H214.899L207.195 367.7C206.571 369.428 205.659 370.76 204.459 371.696C203.283 372.656 201.975 373.136 200.535 373.136ZM217.52 365V346.136H234.44V365H229.616V350.348H222.344V365H217.52ZM238.825 365V346.172H243.649V358.556L252.109 346.136H256.501V365H251.677V352.904L243.325 365H238.825ZM265.259 365V350.348H259.283V346.136H276.095V350.348H270.083V365H265.259ZM278.798 365V346.136H283.622V352.076H287.906C290.162 352.076 291.89 352.652 293.09 353.804C294.29 354.956 294.89 356.48 294.89 358.376C294.89 360.32 294.314 361.916 293.162 363.164C292.034 364.388 290.39 365 288.23 365H278.798ZM283.622 361.328H287.474C288.458 361.328 289.178 361.052 289.634 360.5C290.09 359.924 290.318 359.228 290.318 358.412C290.318 357.62 290.102 356.96 289.67 356.432C289.238 355.88 288.494 355.604 287.438 355.604H283.622V361.328ZM315.355 365.36C313.315 365.36 311.551 364.904 310.063 363.992C308.575 363.08 307.423 361.88 306.607 360.392C305.791 358.904 305.383 357.296 305.383 355.568C305.383 353.816 305.779 352.196 306.571 350.708C307.387 349.22 308.539 348.032 310.027 347.144C311.515 346.256 313.279 345.812 315.319 345.812C317.383 345.812 319.135 346.256 320.575 347.144C322.039 348.032 323.131 349.196 323.851 350.636L319.135 352.076C318.295 350.636 317.011 349.916 315.283 349.916C314.347 349.916 313.507 350.156 312.763 350.636C312.019 351.092 311.431 351.752 310.999 352.616C310.567 353.456 310.351 354.44 310.351 355.568C310.351 356.672 310.567 357.656 310.999 358.52C311.455 359.36 312.055 360.032 312.799 360.536C313.543 361.016 314.371 361.256 315.283 361.256C316.147 361.256 316.939 361.052 317.659 360.644C318.403 360.212 318.919 359.672 319.207 359.024L323.923 360.464C323.275 361.88 322.195 363.056 320.683 363.992C319.195 364.904 317.419 365.36 315.355 365.36ZM325.523 365.252V360.968C326.291 360.944 326.951 360.692 327.503 360.212C328.079 359.732 328.535 358.856 328.871 357.584C329.207 356.312 329.423 354.476 329.519 352.076L329.771 346.136H343.919V365H339.095V350.348H334.019L333.947 352.544C333.803 355.832 333.407 358.4 332.759 360.248C332.135 362.072 331.223 363.356 330.023 364.1C328.823 364.844 327.323 365.228 325.523 365.252ZM357.013 365.36C354.949 365.36 353.173 364.916 351.685 364.028C350.221 363.116 349.093 361.916 348.301 360.428C347.509 358.94 347.113 357.332 347.113 355.604C347.113 353.852 347.509 352.232 348.301 350.744C349.117 349.256 350.257 348.068 351.721 347.18C353.209 346.268 354.973 345.812 357.013 345.812C359.053 345.812 360.805 346.268 362.269 347.18C363.757 348.068 364.897 349.256 365.689 350.744C366.481 352.232 366.877 353.852 366.877 355.604C366.877 357.332 366.481 358.94 365.689 360.428C364.897 361.916 363.757 363.116 362.269 364.028C360.805 364.916 359.053 365.36 357.013 365.36ZM352.081 355.604C352.081 356.708 352.297 357.692 352.729 358.556C353.161 359.396 353.749 360.056 354.493 360.536C355.237 361.016 356.077 361.256 357.013 361.256C357.925 361.256 358.753 361.016 359.497 360.536C360.241 360.032 360.829 359.36 361.261 358.52C361.717 357.656 361.945 356.672 361.945 355.568C361.945 354.488 361.717 353.528 361.261 352.688C360.829 351.824 360.241 351.152 359.497 350.672C358.753 350.168 357.925 349.916 357.013 349.916C356.077 349.916 355.237 350.168 354.493 350.672C353.749 351.152 353.161 351.824 352.729 352.688C352.297 353.528 352.081 354.5 352.081 355.604ZM370.134 365V346.136H374.958V353.336H382.59V346.136H387.414V365H382.59V357.368H374.958V365H370.134ZM390.529 359.42C390.529 358.196 390.865 357.128 391.537 356.216C392.233 355.28 393.193 354.56 394.417 354.056C395.641 353.552 397.045 353.3 398.629 353.3C399.421 353.3 400.225 353.372 401.041 353.516C401.857 353.636 402.565 353.816 403.165 354.056V353.048C403.165 351.848 402.805 350.924 402.085 350.276C401.389 349.628 400.345 349.304 398.953 349.304C397.921 349.304 396.937 349.484 396.001 349.844C395.065 350.204 394.081 350.732 393.049 351.428L391.501 348.26C392.749 347.444 394.021 346.832 395.317 346.424C396.637 346.016 398.017 345.812 399.457 345.812C402.145 345.812 404.233 346.484 405.721 347.828C407.233 349.172 407.989 351.092 407.989 353.588V359.6C407.989 360.128 408.073 360.5 408.241 360.716C408.409 360.908 408.709 361.028 409.141 361.076V365C408.709 365.096 408.313 365.156 407.953 365.18C407.617 365.228 407.329 365.252 407.089 365.252C406.129 365.252 405.397 365.036 404.893 364.604C404.389 364.172 404.089 363.644 403.993 363.02L403.885 362.048C403.045 363.128 402.013 363.956 400.789 364.532C399.589 365.084 398.353 365.36 397.081 365.36C395.809 365.36 394.681 365.108 393.697 364.604C392.713 364.076 391.933 363.368 391.357 362.48C390.805 361.568 390.529 360.548 390.529 359.42ZM402.265 360.392C402.865 359.816 403.165 359.264 403.165 358.736V356.828C401.917 356.324 400.657 356.072 399.385 356.072C398.113 356.072 397.081 356.348 396.289 356.9C395.497 357.428 395.101 358.136 395.101 359.024C395.101 359.744 395.389 360.392 395.965 360.968C396.541 361.544 397.369 361.832 398.449 361.832C399.169 361.832 399.865 361.7 400.537 361.436C401.233 361.172 401.809 360.824 402.265 360.392ZM422.141 365V346.244H424.589V354.308H435.317V346.244H437.765V365H435.317V356.504H424.589V365H422.141ZM441.653 359.6C441.653 358.448 441.989 357.452 442.661 356.612C443.333 355.748 444.257 355.076 445.433 354.596C446.633 354.116 448.013 353.876 449.573 353.876C450.485 353.876 451.433 353.96 452.417 354.128C453.401 354.272 454.277 354.476 455.045 354.74V353.156C455.045 351.572 454.577 350.312 453.641 349.376C452.705 348.44 451.409 347.972 449.753 347.972C448.769 347.972 447.785 348.164 446.801 348.548C445.817 348.908 444.797 349.448 443.741 350.168L442.805 348.44C444.029 347.6 445.229 346.976 446.405 346.568C447.581 346.136 448.781 345.92 450.005 345.92C452.309 345.92 454.133 346.58 455.477 347.9C456.821 349.22 457.493 351.044 457.493 353.372V362.048C457.493 362.696 457.793 363.032 458.393 363.056V365C457.865 365.072 457.493 365.096 457.277 365.072C456.677 365.048 456.221 364.856 455.909 364.496C455.597 364.136 455.429 363.752 455.405 363.344L455.369 361.976C454.529 363.056 453.437 363.896 452.093 364.496C450.749 365.072 449.381 365.36 447.989 365.36C446.765 365.36 445.673 365.108 444.713 364.604C443.753 364.076 442.997 363.38 442.445 362.516C441.917 361.628 441.653 360.656 441.653 359.6ZM454.217 361.04C454.769 360.392 455.045 359.792 455.045 359.24V356.504C453.389 355.856 451.661 355.532 449.861 355.532C448.109 355.532 446.693 355.88 445.613 356.576C444.533 357.272 443.993 358.22 443.993 359.42C443.993 360.452 444.389 361.388 445.181 362.228C445.997 363.068 447.125 363.488 448.565 363.488C449.741 363.488 450.833 363.26 451.841 362.804C452.873 362.348 453.665 361.76 454.217 361.04ZM468.218 365.216C466.49 365.216 465.002 364.892 463.754 364.244C462.53 363.572 461.606 362.636 460.982 361.436L462.998 360.536C463.454 361.376 464.114 362.036 464.978 362.516C465.842 362.972 466.886 363.2 468.11 363.2C469.574 363.2 470.738 362.864 471.602 362.192C472.49 361.52 472.934 360.62 472.934 359.492C472.934 358.484 472.586 357.656 471.89 357.008C471.194 356.36 470.234 356.036 469.01 356.036H467.102V354.344H469.154C469.946 354.344 470.606 354.044 471.134 353.444C471.686 352.82 471.962 352.052 471.962 351.14C471.962 350.204 471.626 349.448 470.954 348.872C470.306 348.296 469.346 348.008 468.074 348.008C466.01 348.008 464.558 348.836 463.718 350.492L461.846 349.484C462.398 348.38 463.214 347.516 464.294 346.892C465.374 346.268 466.658 345.956 468.146 345.956C469.922 345.956 471.374 346.4 472.502 347.288C473.63 348.152 474.194 349.352 474.194 350.888C474.194 351.776 473.978 352.604 473.546 353.372C473.114 354.14 472.514 354.704 471.746 355.064C472.85 355.424 473.702 356.024 474.302 356.864C474.926 357.68 475.238 358.652 475.238 359.78C475.238 361.484 474.578 362.816 473.258 363.776C471.938 364.736 470.258 365.216 468.218 365.216ZM479.305 365V346.244H488.665C489.721 346.244 490.609 346.472 491.329 346.928C492.049 347.36 492.589 347.936 492.949 348.656C493.333 349.352 493.525 350.084 493.525 350.852C493.525 351.86 493.273 352.772 492.769 353.588C492.289 354.38 491.605 354.98 490.717 355.388C491.797 355.676 492.673 356.24 493.345 357.08C494.017 357.92 494.353 358.904 494.353 360.032C494.353 361.544 493.813 362.756 492.733 363.668C491.677 364.556 490.321 365 488.665 365H479.305ZM481.645 354.704H488.017C488.953 354.704 489.709 354.356 490.285 353.66C490.885 352.94 491.185 352.136 491.185 351.248C491.185 350.384 490.897 349.628 490.321 348.98C489.769 348.332 489.049 348.008 488.161 348.008H481.645V354.704ZM481.645 363.236H488.593C489.553 363.236 490.357 362.888 491.005 362.192C491.653 361.472 491.977 360.68 491.977 359.816C491.977 358.88 491.665 358.076 491.041 357.404C490.417 356.732 489.649 356.396 488.737 356.396H481.645V363.236ZM497.094 359.6C497.094 358.448 497.43 357.452 498.102 356.612C498.774 355.748 499.698 355.076 500.874 354.596C502.074 354.116 503.454 353.876 505.014 353.876C505.926 353.876 506.874 353.96 507.858 354.128C508.842 354.272 509.718 354.476 510.486 354.74V353.156C510.486 351.572 510.018 350.312 509.082 349.376C508.146 348.44 506.85 347.972 505.194 347.972C504.21 347.972 503.226 348.164 502.242 348.548C501.258 348.908 500.238 349.448 499.182 350.168L498.246 348.44C499.47 347.6 500.67 346.976 501.846 346.568C503.022 346.136 504.222 345.92 505.446 345.92C507.75 345.92 509.574 346.58 510.918 347.9C512.262 349.22 512.934 351.044 512.934 353.372V362.048C512.934 362.696 513.234 363.032 513.834 363.056V365C513.306 365.072 512.934 365.096 512.718 365.072C512.118 365.048 511.662 364.856 511.35 364.496C511.038 364.136 510.87 363.752 510.846 363.344L510.81 361.976C509.97 363.056 508.878 363.896 507.534 364.496C506.19 365.072 504.822 365.36 503.43 365.36C502.206 365.36 501.114 365.108 500.154 364.604C499.194 364.076 498.438 363.38 497.886 362.516C497.358 361.628 497.094 360.656 497.094 359.6ZM509.658 361.04C510.21 360.392 510.486 359.792 510.486 359.24V356.504C508.83 355.856 507.102 355.532 505.302 355.532C503.55 355.532 502.134 355.88 501.054 356.576C499.974 357.272 499.434 358.22 499.434 359.42C499.434 360.452 499.83 361.388 500.622 362.228C501.438 363.068 502.566 363.488 504.006 363.488C505.182 363.488 506.274 363.26 507.282 362.804C508.314 362.348 509.106 361.76 509.658 361.04ZM518.187 365V346.244H520.635V354.308H531.363V346.244H533.811V365H531.363V356.504H520.635V365H518.187ZM539.176 365V346.28H541.624V361.688L553.036 346.244H555.232V365H552.784V349.844L541.552 365H539.176ZM568.687 365.36C566.887 365.36 565.279 364.916 563.863 364.028C562.447 363.14 561.331 361.952 560.515 360.464C559.699 358.976 559.291 357.344 559.291 355.568C559.291 353.816 559.687 352.208 560.479 350.744C561.295 349.28 562.411 348.116 563.827 347.252C565.243 346.364 566.851 345.92 568.651 345.92C570.499 345.92 572.119 346.364 573.511 347.252C574.903 348.14 575.983 349.316 576.751 350.78C577.543 352.22 577.939 353.804 577.939 355.532C577.939 355.916 577.927 356.24 577.903 356.504H561.847C561.967 357.848 562.351 359.048 562.999 360.104C563.647 361.136 564.475 361.964 565.483 362.588C566.491 363.188 567.595 363.488 568.795 363.488C570.019 363.488 571.171 363.176 572.251 362.552C573.331 361.928 574.099 361.112 574.555 360.104L576.679 360.68C576.295 361.592 575.695 362.408 574.879 363.128C574.087 363.824 573.163 364.376 572.107 364.784C571.051 365.168 569.911 365.36 568.687 365.36ZM561.775 354.74H575.635C575.539 353.396 575.167 352.208 574.519 351.176C573.871 350.12 573.043 349.304 572.035 348.728C571.027 348.128 569.911 347.828 568.687 347.828C567.463 347.828 566.347 348.128 565.339 348.728C564.331 349.304 563.503 350.12 562.855 351.176C562.231 352.208 561.871 353.396 561.775 354.74ZM610.619 358.412C610.619 359.684 610.295 360.824 609.647 361.832C608.999 362.816 608.123 363.596 607.019 364.172C605.939 364.724 604.751 365 603.455 365H591.395V339.44H603.707C604.907 339.44 605.939 339.764 606.803 340.412C607.667 341.036 608.339 341.852 608.819 342.86C609.299 343.844 609.539 344.876 609.539 345.956C609.539 347.228 609.215 348.404 608.567 349.484C607.919 350.564 607.019 351.368 605.867 351.896C607.307 352.328 608.459 353.132 609.323 354.308C610.187 355.484 610.619 356.852 610.619 358.412ZM593.915 341.636V351.068H602.699C603.539 351.068 604.283 350.852 604.931 350.42C605.603 349.964 606.119 349.388 606.479 348.692C606.863 347.972 607.055 347.192 607.055 346.352C607.055 345.488 606.875 344.696 606.515 343.976C606.155 343.256 605.663 342.692 605.039 342.284C604.415 341.852 603.707 341.636 602.915 341.636H593.915ZM608.099 357.98C608.099 357.14 607.907 356.348 607.523 355.604C607.139 354.86 606.611 354.26 605.939 353.804C605.291 353.348 604.547 353.12 603.707 353.12H593.915V362.804H603.455C604.319 362.804 605.099 362.576 605.795 362.12C606.491 361.664 607.043 361.076 607.451 360.356C607.883 359.612 608.099 358.82 608.099 357.98ZM613.356 359.6C613.356 358.448 613.692 357.452 614.364 356.612C615.036 355.748 615.96 355.076 617.136 354.596C618.336 354.116 619.716 353.876 621.276 353.876C622.188 353.876 623.136 353.96 624.12 354.128C625.104 354.272 625.98 354.476 626.748 354.74V353.156C626.748 351.572 626.28 350.312 625.344 349.376C624.408 348.44 623.112 347.972 621.456 347.972C620.472 347.972 619.488 348.164 618.504 348.548C617.52 348.908 616.5 349.448 615.444 350.168L614.508 348.44C615.732 347.6 616.932 346.976 618.108 346.568C619.284 346.136 620.484 345.92 621.708 345.92C624.012 345.92 625.836 346.58 627.18 347.9C628.524 349.22 629.196 351.044 629.196 353.372V362.048C629.196 362.696 629.496 363.032 630.096 363.056V365C629.568 365.072 629.196 365.096 628.98 365.072C628.38 365.048 627.924 364.856 627.612 364.496C627.3 364.136 627.132 363.752 627.108 363.344L627.072 361.976C626.232 363.056 625.14 363.896 623.796 364.496C622.452 365.072 621.084 365.36 619.692 365.36C618.468 365.36 617.376 365.108 616.416 364.604C615.456 364.076 614.7 363.38 614.148 362.516C613.62 361.628 613.356 360.656 613.356 359.6ZM625.92 361.04C626.472 360.392 626.748 359.792 626.748 359.24V356.504C625.092 355.856 623.364 355.532 621.564 355.532C619.812 355.532 618.396 355.88 617.316 356.576C616.236 357.272 615.696 358.22 615.696 359.42C615.696 360.452 616.092 361.388 616.884 362.228C617.7 363.068 618.828 363.488 620.268 363.488C621.444 363.488 622.536 363.26 623.544 362.804C624.576 362.348 625.368 361.76 625.92 361.04ZM634.449 365V346.244H636.897V362.84H644.925V346.244H647.409V362.84H655.401V346.244H657.849V365H634.449ZM671.308 365.36C669.508 365.36 667.9 364.916 666.484 364.028C665.068 363.14 663.952 361.952 663.136 360.464C662.32 358.976 661.912 357.344 661.912 355.568C661.912 353.816 662.308 352.208 663.1 350.744C663.916 349.28 665.032 348.116 666.448 347.252C667.864 346.364 669.472 345.92 671.272 345.92C673.12 345.92 674.74 346.364 676.132 347.252C677.524 348.14 678.604 349.316 679.372 350.78C680.164 352.22 680.56 353.804 680.56 355.532C680.56 355.916 680.548 356.24 680.524 356.504H664.468C664.588 357.848 664.972 359.048 665.62 360.104C666.268 361.136 667.096 361.964 668.104 362.588C669.112 363.188 670.216 363.488 671.416 363.488C672.64 363.488 673.792 363.176 674.872 362.552C675.952 361.928 676.72 361.112 677.176 360.104L679.3 360.68C678.916 361.592 678.316 362.408 677.5 363.128C676.708 363.824 675.784 364.376 674.728 364.784C673.672 365.168 672.532 365.36 671.308 365.36ZM664.396 354.74H678.256C678.16 353.396 677.788 352.208 677.14 351.176C676.492 350.12 675.664 349.304 674.656 348.728C673.648 348.128 672.532 347.828 671.308 347.828C670.084 347.828 668.968 348.128 667.96 348.728C666.952 349.304 666.124 350.12 665.476 351.176C664.852 352.208 664.492 353.396 664.396 354.74ZM684.301 365V346.28H686.749V361.688L698.161 346.244H700.357V365H697.909V349.844L686.677 365H684.301ZM692.365 343.868C690.733 343.868 689.473 343.484 688.585 342.716C687.697 341.948 687.253 340.976 687.253 339.8H689.053C689.053 340.52 689.317 341.12 689.845 341.6C690.397 342.08 691.237 342.32 692.365 342.32C693.469 342.32 694.273 342.092 694.777 341.636C695.305 341.18 695.605 340.568 695.677 339.8H697.441C697.441 340.976 696.997 341.948 696.109 342.716C695.221 343.484 693.973 343.868 692.365 343.868ZM714.852 365V346.244H717.3V354.272H720.108L726.408 346.244H729.216L722.052 355.352L730.116 365H727.236L720.108 356.54H717.3V365H714.852ZM740.598 365.36C738.798 365.36 737.19 364.916 735.774 364.028C734.382 363.14 733.29 361.964 732.498 360.5C731.706 359.012 731.31 357.404 731.31 355.676C731.31 353.924 731.706 352.316 732.498 350.852C733.314 349.364 734.418 348.176 735.81 347.288C737.226 346.376 738.822 345.92 740.598 345.92C742.398 345.92 743.994 346.376 745.386 347.288C746.802 348.176 747.906 349.364 748.698 350.852C749.514 352.316 749.922 353.924 749.922 355.676C749.922 357.404 749.526 359.012 748.734 360.5C747.942 361.964 746.838 363.14 745.422 364.028C744.03 364.916 742.422 365.36 740.598 365.36ZM733.794 355.712C733.794 357.104 734.094 358.376 734.694 359.528C735.318 360.656 736.146 361.556 737.178 362.228C738.21 362.876 739.35 363.2 740.598 363.2C741.846 363.2 742.986 362.864 744.018 362.192C745.05 361.52 745.878 360.608 746.502 359.456C747.126 358.304 747.438 357.032 747.438 355.64C747.438 354.248 747.126 352.976 746.502 351.824C745.878 350.672 745.05 349.76 744.018 349.088C742.986 348.416 741.846 348.08 740.598 348.08C739.374 348.08 738.246 348.428 737.214 349.124C736.182 349.796 735.354 350.708 734.73 351.86C734.106 353.012 733.794 354.296 733.794 355.712ZM753.98 365V346.244H756.5L763.952 359.168L771.44 346.244H773.852V365H771.512V349.916L764.744 361.652H763.16L756.32 349.916V365H753.98ZM779.223 365V346.244H794.307V365H791.859V348.44H781.671V365H779.223ZM798.208 359.6C798.208 358.448 798.544 357.452 799.216 356.612C799.888 355.748 800.812 355.076 801.988 354.596C803.188 354.116 804.568 353.876 806.128 353.876C807.04 353.876 807.988 353.96 808.972 354.128C809.956 354.272 810.832 354.476 811.6 354.74V353.156C811.6 351.572 811.132 350.312 810.196 349.376C809.26 348.44 807.964 347.972 806.308 347.972C805.324 347.972 804.34 348.164 803.356 348.548C802.372 348.908 801.352 349.448 800.296 350.168L799.36 348.44C800.584 347.6 801.784 346.976 802.96 346.568C804.136 346.136 805.336 345.92 806.56 345.92C808.864 345.92 810.688 346.58 812.032 347.9C813.376 349.22 814.048 351.044 814.048 353.372V362.048C814.048 362.696 814.348 363.032 814.948 363.056V365C814.42 365.072 814.048 365.096 813.832 365.072C813.232 365.048 812.776 364.856 812.464 364.496C812.152 364.136 811.984 363.752 811.96 363.344L811.924 361.976C811.084 363.056 809.992 363.896 808.648 364.496C807.304 365.072 805.936 365.36 804.544 365.36C803.32 365.36 802.228 365.108 801.268 364.604C800.308 364.076 799.552 363.38 799 362.516C798.472 361.628 798.208 360.656 798.208 359.6ZM810.772 361.04C811.324 360.392 811.6 359.792 811.6 359.24V356.504C809.944 355.856 808.216 355.532 806.416 355.532C804.664 355.532 803.248 355.88 802.168 356.576C801.088 357.272 800.548 358.22 800.548 359.42C800.548 360.452 800.944 361.388 801.736 362.228C802.552 363.068 803.68 363.488 805.12 363.488C806.296 363.488 807.388 363.26 808.396 362.804C809.428 362.348 810.22 361.76 810.772 361.04ZM819.301 365V346.244H821.749V354.308H832.477V346.244H834.925V365H832.477V356.504H821.749V365H819.301ZM840.289 365V346.28H842.737V361.688L854.149 346.244H856.345V365H853.897V349.844L842.665 365H840.289ZM861.664 365V346.28H864.112V361.688L875.524 346.244H877.72V365H875.272V349.844L864.04 365H861.664Z" fill="#0B0720"/>
<path d="M177.196 415V396.136H182.02V403.264H183.64L188.752 396.136H194.008L187.312 405.244L194.728 415H189.22L183.568 407.512H182.02V415H177.196ZM200.535 423.136C200.031 423.136 199.515 423.076 198.987 422.956C198.483 422.836 197.895 422.656 197.223 422.416L198.159 418.6C198.879 418.912 199.515 419.068 200.067 419.068C201.339 419.068 202.251 418.192 202.803 416.44L203.379 414.892L195.747 396.136H200.751L205.827 410.068L210.291 396.136H214.899L207.195 417.7C206.571 419.428 205.659 420.76 204.459 421.696C203.283 422.656 201.975 423.136 200.535 423.136ZM217.52 415V396.136H234.44V415H229.616V400.348H222.344V415H217.52ZM238.825 415V396.172H243.649V408.556L252.109 396.136H256.501V415H251.677V402.904L243.325 415H238.825ZM265.259 415V400.348H259.283V396.136H276.095V400.348H270.083V415H265.259ZM278.798 415V396.136H283.622V402.076H287.906C290.162 402.076 291.89 402.652 293.09 403.804C294.29 404.956 294.89 406.48 294.89 408.376C294.89 410.32 294.314 411.916 293.162 413.164C292.034 414.388 290.39 415 288.23 415H278.798ZM283.622 411.328H287.474C288.458 411.328 289.178 411.052 289.634 410.5C290.09 409.924 290.318 409.228 290.318 408.412C290.318 407.62 290.102 406.96 289.67 406.432C289.238 405.88 288.494 405.604 287.438 405.604H283.622V411.328ZM315.355 415.36C313.315 415.36 311.551 414.904 310.063 413.992C308.575 413.08 307.423 411.88 306.607 410.392C305.791 408.904 305.383 407.296 305.383 405.568C305.383 403.816 305.779 402.196 306.571 400.708C307.387 399.22 308.539 398.032 310.027 397.144C311.515 396.256 313.279 395.812 315.319 395.812C317.383 395.812 319.135 396.256 320.575 397.144C322.039 398.032 323.131 399.196 323.851 400.636L319.135 402.076C318.295 400.636 317.011 399.916 315.283 399.916C314.347 399.916 313.507 400.156 312.763 400.636C312.019 401.092 311.431 401.752 310.999 402.616C310.567 403.456 310.351 404.44 310.351 405.568C310.351 406.672 310.567 407.656 310.999 408.52C311.455 409.36 312.055 410.032 312.799 410.536C313.543 411.016 314.371 411.256 315.283 411.256C316.147 411.256 316.939 411.052 317.659 410.644C318.403 410.212 318.919 409.672 319.207 409.024L323.923 410.464C323.275 411.88 322.195 413.056 320.683 413.992C319.195 414.904 317.419 415.36 315.355 415.36ZM325.523 415.252V410.968C326.291 410.944 326.951 410.692 327.503 410.212C328.079 409.732 328.535 408.856 328.871 407.584C329.207 406.312 329.423 404.476 329.519 402.076L329.771 396.136H343.919V415H339.095V400.348H334.019L333.947 402.544C333.803 405.832 333.407 408.4 332.759 410.248C332.135 412.072 331.223 413.356 330.023 414.1C328.823 414.844 327.323 415.228 325.523 415.252ZM357.013 415.36C354.949 415.36 353.173 414.916 351.685 414.028C350.221 413.116 349.093 411.916 348.301 410.428C347.509 408.94 347.113 407.332 347.113 405.604C347.113 403.852 347.509 402.232 348.301 400.744C349.117 399.256 350.257 398.068 351.721 397.18C353.209 396.268 354.973 395.812 357.013 395.812C359.053 395.812 360.805 396.268 362.269 397.18C363.757 398.068 364.897 399.256 365.689 400.744C366.481 402.232 366.877 403.852 366.877 405.604C366.877 407.332 366.481 408.94 365.689 410.428C364.897 411.916 363.757 413.116 362.269 414.028C360.805 414.916 359.053 415.36 357.013 415.36ZM352.081 405.604C352.081 406.708 352.297 407.692 352.729 408.556C353.161 409.396 353.749 410.056 354.493 410.536C355.237 411.016 356.077 411.256 357.013 411.256C357.925 411.256 358.753 411.016 359.497 410.536C360.241 410.032 360.829 409.36 361.261 408.52C361.717 407.656 361.945 406.672 361.945 405.568C361.945 404.488 361.717 403.528 361.261 402.688C360.829 401.824 360.241 401.152 359.497 400.672C358.753 400.168 357.925 399.916 357.013 399.916C356.077 399.916 355.237 400.168 354.493 400.672C353.749 401.152 353.161 401.824 352.729 402.688C352.297 403.528 352.081 404.5 352.081 405.604ZM370.134 415V396.136H374.958V403.336H382.59V396.136H387.414V415H382.59V407.368H374.958V415H370.134ZM390.529 409.42C390.529 408.196 390.865 407.128 391.537 406.216C392.233 405.28 393.193 404.56 394.417 404.056C395.641 403.552 397.045 403.3 398.629 403.3C399.421 403.3 400.225 403.372 401.041 403.516C401.857 403.636 402.565 403.816 403.165 404.056V403.048C403.165 401.848 402.805 400.924 402.085 400.276C401.389 399.628 400.345 399.304 398.953 399.304C397.921 399.304 396.937 399.484 396.001 399.844C395.065 400.204 394.081 400.732 393.049 401.428L391.501 398.26C392.749 397.444 394.021 396.832 395.317 396.424C396.637 396.016 398.017 395.812 399.457 395.812C402.145 395.812 404.233 396.484 405.721 397.828C407.233 399.172 407.989 401.092 407.989 403.588V409.6C407.989 410.128 408.073 410.5 408.241 410.716C408.409 410.908 408.709 411.028 409.141 411.076V415C408.709 415.096 408.313 415.156 407.953 415.18C407.617 415.228 407.329 415.252 407.089 415.252C406.129 415.252 405.397 415.036 404.893 414.604C404.389 414.172 404.089 413.644 403.993 413.02L403.885 412.048C403.045 413.128 402.013 413.956 400.789 414.532C399.589 415.084 398.353 415.36 397.081 415.36C395.809 415.36 394.681 415.108 393.697 414.604C392.713 414.076 391.933 413.368 391.357 412.48C390.805 411.568 390.529 410.548 390.529 409.42ZM402.265 410.392C402.865 409.816 403.165 409.264 403.165 408.736V406.828C401.917 406.324 400.657 406.072 399.385 406.072C398.113 406.072 397.081 406.348 396.289 406.9C395.497 407.428 395.101 408.136 395.101 409.024C395.101 409.744 395.389 410.392 395.965 410.968C396.541 411.544 397.369 411.832 398.449 411.832C399.169 411.832 399.865 411.7 400.537 411.436C401.233 411.172 401.809 410.824 402.265 410.392ZM441.905 408.412C441.905 409.684 441.581 410.824 440.933 411.832C440.285 412.816 439.409 413.596 438.305 414.172C437.225 414.724 436.037 415 434.741 415H422.681V389.44H434.993C436.193 389.44 437.225 389.764 438.089 390.412C438.953 391.036 439.625 391.852 440.105 392.86C440.585 393.844 440.825 394.876 440.825 395.956C440.825 397.228 440.501 398.404 439.853 399.484C439.205 400.564 438.305 401.368 437.153 401.896C438.593 402.328 439.745 403.132 440.609 404.308C441.473 405.484 441.905 406.852 441.905 408.412ZM425.201 391.636V401.068H433.985C434.825 401.068 435.569 400.852 436.217 400.42C436.889 399.964 437.405 399.388 437.765 398.692C438.149 397.972 438.341 397.192 438.341 396.352C438.341 395.488 438.161 394.696 437.801 393.976C437.441 393.256 436.949 392.692 436.325 392.284C435.701 391.852 434.993 391.636 434.201 391.636H425.201ZM439.385 407.98C439.385 407.14 439.193 406.348 438.809 405.604C438.425 404.86 437.897 404.26 437.225 403.804C436.577 403.348 435.833 403.12 434.993 403.12H425.201V412.804H434.741C435.605 412.804 436.385 412.576 437.081 412.12C437.777 411.664 438.329 411.076 438.737 410.356C439.169 409.612 439.385 408.82 439.385 407.98ZM444.641 409.6C444.641 408.448 444.977 407.452 445.649 406.612C446.321 405.748 447.245 405.076 448.421 404.596C449.621 404.116 451.001 403.876 452.561 403.876C453.473 403.876 454.421 403.96 455.405 404.128C456.389 404.272 457.265 404.476 458.033 404.74V403.156C458.033 401.572 457.565 400.312 456.629 399.376C455.693 398.44 454.397 397.972 452.741 397.972C451.757 397.972 450.773 398.164 449.789 398.548C448.805 398.908 447.785 399.448 446.729 400.168L445.793 398.44C447.017 397.6 448.217 396.976 449.393 396.568C450.569 396.136 451.769 395.92 452.993 395.92C455.297 395.92 457.121 396.58 458.465 397.9C459.809 399.22 460.481 401.044 460.481 403.372V412.048C460.481 412.696 460.781 413.032 461.381 413.056V415C460.853 415.072 460.481 415.096 460.265 415.072C459.665 415.048 459.209 414.856 458.897 414.496C458.585 414.136 458.417 413.752 458.393 413.344L458.357 411.976C457.517 413.056 456.425 413.896 455.081 414.496C453.737 415.072 452.369 415.36 450.977 415.36C449.753 415.36 448.661 415.108 447.701 414.604C446.741 414.076 445.985 413.38 445.433 412.516C444.905 411.628 444.641 410.656 444.641 409.6ZM457.205 411.04C457.757 410.392 458.033 409.792 458.033 409.24V406.504C456.377 405.856 454.649 405.532 452.849 405.532C451.097 405.532 449.681 405.88 448.601 406.576C447.521 407.272 446.981 408.22 446.981 409.42C446.981 410.452 447.377 411.388 448.169 412.228C448.985 413.068 450.113 413.488 451.553 413.488C452.729 413.488 453.821 413.26 454.829 412.804C455.861 412.348 456.653 411.76 457.205 411.04ZM465.734 415V396.244H468.182V412.84H476.21V396.244H478.694V412.84H486.686V396.244H489.134V415H465.734ZM503.633 415V396.244H506.081V404.308H516.809V396.244H519.257V415H516.809V406.504H506.081V415H503.633ZM532.649 415.36C530.849 415.36 529.241 414.916 527.825 414.028C526.433 413.14 525.341 411.964 524.549 410.5C523.757 409.012 523.361 407.404 523.361 405.676C523.361 403.924 523.757 402.316 524.549 400.852C525.365 399.364 526.469 398.176 527.861 397.288C529.277 396.376 530.873 395.92 532.649 395.92C534.449 395.92 536.045 396.376 537.437 397.288C538.853 398.176 539.957 399.364 540.749 400.852C541.565 402.316 541.973 403.924 541.973 405.676C541.973 407.404 541.577 409.012 540.785 410.5C539.993 411.964 538.889 413.14 537.473 414.028C536.081 414.916 534.473 415.36 532.649 415.36ZM525.845 405.712C525.845 407.104 526.145 408.376 526.745 409.528C527.369 410.656 528.197 411.556 529.229 412.228C530.261 412.876 531.401 413.2 532.649 413.2C533.897 413.2 535.037 412.864 536.069 412.192C537.101 411.52 537.929 410.608 538.553 409.456C539.177 408.304 539.489 407.032 539.489 405.64C539.489 404.248 539.177 402.976 538.553 401.824C537.929 400.672 537.101 399.76 536.069 399.088C535.037 398.416 533.897 398.08 532.649 398.08C531.425 398.08 530.297 398.428 529.265 399.124C528.233 399.796 527.405 400.708 526.781 401.86C526.157 403.012 525.845 404.296 525.845 405.712ZM546.031 415V396.244H548.551L556.003 409.168L563.491 396.244H565.903V415H563.563V399.916L556.795 411.652H555.211L548.371 399.916V415H546.031ZM579.409 415.36C577.609 415.36 576.001 414.916 574.585 414.028C573.169 413.14 572.053 411.952 571.237 410.464C570.421 408.976 570.013 407.344 570.013 405.568C570.013 403.816 570.409 402.208 571.201 400.744C572.017 399.28 573.133 398.116 574.549 397.252C575.965 396.364 577.573 395.92 579.373 395.92C581.221 395.92 582.841 396.364 584.233 397.252C585.625 398.14 586.705 399.316 587.473 400.78C588.265 402.22 588.661 403.804 588.661 405.532C588.661 405.916 588.649 406.24 588.625 406.504H572.569C572.689 407.848 573.073 409.048 573.721 410.104C574.369 411.136 575.197 411.964 576.205 412.588C577.213 413.188 578.317 413.488 579.517 413.488C580.741 413.488 581.893 413.176 582.973 412.552C584.053 411.928 584.821 411.112 585.277 410.104L587.401 410.68C587.017 411.592 586.417 412.408 585.601 413.128C584.809 413.824 583.885 414.376 582.829 414.784C581.773 415.168 580.633 415.36 579.409 415.36ZM572.497 404.74H586.357C586.261 403.396 585.889 402.208 585.241 401.176C584.593 400.12 583.765 399.304 582.757 398.728C581.749 398.128 580.633 397.828 579.409 397.828C578.185 397.828 577.069 398.128 576.061 398.728C575.053 399.304 574.225 400.12 573.577 401.176C572.953 402.208 572.593 403.396 572.497 404.74ZM602.014 415.36C600.454 415.36 599.05 414.952 597.802 414.136C596.578 413.32 595.606 412.312 594.886 411.112V422.668H592.438V396.244H594.634V399.88C595.378 398.704 596.362 397.756 597.586 397.036C598.834 396.292 600.178 395.92 601.618 395.92C602.914 395.92 604.102 396.196 605.182 396.748C606.262 397.276 607.198 397.996 607.99 398.908C608.806 399.82 609.43 400.864 609.862 402.04C610.294 403.192 610.51 404.392 610.51 405.64C610.51 407.392 610.15 409.012 609.43 410.5C608.734 411.964 607.738 413.14 606.442 414.028C605.17 414.916 603.694 415.36 602.014 415.36ZM601.33 413.2C602.698 413.2 603.874 412.84 604.858 412.12C605.866 411.376 606.646 410.428 607.198 409.276C607.75 408.124 608.026 406.912 608.026 405.64C608.026 404.296 607.714 403.048 607.09 401.896C606.466 400.744 605.626 399.82 604.57 399.124C603.538 398.428 602.362 398.08 601.042 398.08C600.226 398.08 599.362 398.296 598.45 398.728C597.562 399.136 596.77 399.7 596.074 400.42C595.402 401.116 595.006 401.884 594.886 402.724V408.484C595.438 409.804 596.302 410.92 597.478 411.832C598.654 412.744 599.938 413.2 601.33 413.2ZM628.513 415V398.44H621.817V396.244H637.657V398.44H630.961V415H628.513ZM649.089 415.36C647.289 415.36 645.681 414.916 644.265 414.028C642.849 413.14 641.733 411.952 640.917 410.464C640.101 408.976 639.693 407.344 639.693 405.568C639.693 403.816 640.089 402.208 640.881 400.744C641.697 399.28 642.813 398.116 644.229 397.252C645.645 396.364 647.253 395.92 649.053 395.92C650.901 395.92 652.521 396.364 653.913 397.252C655.305 398.14 656.385 399.316 657.153 400.78C657.945 402.22 658.341 403.804 658.341 405.532C658.341 405.916 658.329 406.24 658.305 406.504H642.249C642.369 407.848 642.753 409.048 643.401 410.104C644.049 411.136 644.877 411.964 645.885 412.588C646.893 413.188 647.997 413.488 649.197 413.488C650.421 413.488 651.573 413.176 652.653 412.552C653.733 411.928 654.501 411.112 654.957 410.104L657.081 410.68C656.697 411.592 656.097 412.408 655.281 413.128C654.489 413.824 653.565 414.376 652.509 414.784C651.453 415.168 650.313 415.36 649.089 415.36ZM642.177 404.74H656.037C655.941 403.396 655.569 402.208 654.921 401.176C654.273 400.12 653.445 399.304 652.437 398.728C651.429 398.128 650.313 397.828 649.089 397.828C647.865 397.828 646.749 398.128 645.741 398.728C644.733 399.304 643.905 400.12 643.257 401.176C642.633 402.208 642.273 403.396 642.177 404.74ZM660.318 415.108V412.876C660.942 412.876 661.506 412.708 662.01 412.372C662.538 412.036 662.994 411.448 663.378 410.608C663.786 409.768 664.11 408.604 664.35 407.116C664.59 405.628 664.746 403.744 664.818 401.464L665.034 396.244H677.202V415H674.754V398.44H667.194L667.122 401.68C667.002 405.16 666.678 407.872 666.15 409.816C665.622 411.76 664.866 413.128 663.882 413.92C662.922 414.688 661.734 415.084 660.318 415.108ZM690.714 415.36C688.914 415.36 687.306 414.916 685.89 414.028C684.474 413.14 683.358 411.952 682.542 410.464C681.726 408.976 681.318 407.344 681.318 405.568C681.318 403.816 681.714 402.208 682.506 400.744C683.322 399.28 684.438 398.116 685.854 397.252C687.27 396.364 688.878 395.92 690.678 395.92C692.526 395.92 694.146 396.364 695.538 397.252C696.93 398.14 698.01 399.316 698.778 400.78C699.57 402.22 699.966 403.804 699.966 405.532C699.966 405.916 699.954 406.24 699.93 406.504H683.874C683.994 407.848 684.378 409.048 685.026 410.104C685.674 411.136 686.502 411.964 687.51 412.588C688.518 413.188 689.622 413.488 690.822 413.488C692.046 413.488 693.198 413.176 694.278 412.552C695.358 411.928 696.126 411.112 696.582 410.104L698.706 410.68C698.322 411.592 697.722 412.408 696.906 413.128C696.114 413.824 695.19 414.376 694.134 414.784C693.078 415.168 691.938 415.36 690.714 415.36ZM683.802 404.74H697.662C697.566 403.396 697.194 402.208 696.546 401.176C695.898 400.12 695.07 399.304 694.062 398.728C693.054 398.128 691.938 397.828 690.714 397.828C689.49 397.828 688.374 398.128 687.366 398.728C686.358 399.304 685.53 400.12 684.882 401.176C684.258 402.208 683.898 403.396 683.802 404.74ZM712.383 422.668V415H711.555C709.707 415 708.099 414.58 706.731 413.74C705.363 412.876 704.307 411.736 703.563 410.32C702.819 408.904 702.447 407.356 702.447 405.676C702.447 403.972 702.819 402.412 703.563 400.996C704.331 399.58 705.399 398.44 706.767 397.576C708.135 396.712 709.731 396.28 711.555 396.28H712.383V388.72H714.831V396.28H715.659C717.483 396.28 719.079 396.712 720.447 397.576C721.815 398.44 722.871 399.58 723.615 400.996C724.383 402.412 724.767 403.972 724.767 405.676C724.767 407.356 724.395 408.904 723.651 410.32C722.907 411.736 721.851 412.876 720.483 413.74C719.115 414.58 717.507 415 715.659 415H714.831V422.668H712.383ZM711.555 412.948H712.455V398.332H711.555C710.259 398.332 709.095 398.668 708.063 399.34C707.055 399.988 706.263 400.876 705.687 402.004C705.135 403.108 704.859 404.344 704.859 405.712C704.859 407.056 705.135 408.28 705.687 409.384C706.263 410.488 707.055 411.364 708.063 412.012C709.071 412.636 710.235 412.948 711.555 412.948ZM714.723 412.948H715.659C716.979 412.948 718.143 412.636 719.151 412.012C720.159 411.364 720.939 410.488 721.491 409.384C722.067 408.28 722.355 407.056 722.355 405.712C722.355 404.344 722.067 403.108 721.491 402.004C720.939 400.876 720.147 399.988 719.115 399.34C718.107 398.668 716.955 398.332 715.659 398.332H714.723V412.948ZM736.872 415.36C735.072 415.36 733.464 414.916 732.048 414.028C730.656 413.14 729.564 411.964 728.772 410.5C727.98 409.012 727.584 407.404 727.584 405.676C727.584 403.924 727.98 402.316 728.772 400.852C729.588 399.364 730.692 398.176 732.084 397.288C733.5 396.376 735.096 395.92 736.872 395.92C738.672 395.92 740.268 396.376 741.66 397.288C743.076 398.176 744.18 399.364 744.972 400.852C745.788 402.316 746.196 403.924 746.196 405.676C746.196 407.404 745.8 409.012 745.008 410.5C744.216 411.964 743.112 413.14 741.696 414.028C740.304 414.916 738.696 415.36 736.872 415.36ZM730.068 405.712C730.068 407.104 730.368 408.376 730.968 409.528C731.592 410.656 732.42 411.556 733.452 412.228C734.484 412.876 735.624 413.2 736.872 413.2C738.12 413.2 739.26 412.864 740.292 412.192C741.324 411.52 742.152 410.608 742.776 409.456C743.4 408.304 743.712 407.032 743.712 405.64C743.712 404.248 743.4 402.976 742.776 401.824C742.152 400.672 741.324 399.76 740.292 399.088C739.26 398.416 738.12 398.08 736.872 398.08C735.648 398.08 734.52 398.428 733.488 399.124C732.456 399.796 731.628 400.708 731.004 401.86C730.38 403.012 730.068 404.296 730.068 405.712ZM750.254 415V396.244H752.702V404.308H763.43V396.244H765.878V415H763.43V406.504H752.702V415H750.254ZM769.766 409.6C769.766 408.448 770.102 407.452 770.774 406.612C771.446 405.748 772.37 405.076 773.546 404.596C774.746 404.116 776.126 403.876 777.686 403.876C778.598 403.876 779.546 403.96 780.53 404.128C781.514 404.272 782.39 404.476 783.158 404.74V403.156C783.158 401.572 782.69 400.312 781.754 399.376C780.818 398.44 779.522 397.972 777.866 397.972C776.882 397.972 775.898 398.164 774.914 398.548C773.93 398.908 772.91 399.448 771.854 400.168L770.918 398.44C772.142 397.6 773.342 396.976 774.518 396.568C775.694 396.136 776.894 395.92 778.118 395.92C780.422 395.92 782.246 396.58 783.59 397.9C784.934 399.22 785.606 401.044 785.606 403.372V412.048C785.606 412.696 785.906 413.032 786.506 413.056V415C785.978 415.072 785.606 415.096 785.39 415.072C784.79 415.048 784.334 414.856 784.022 414.496C783.71 414.136 783.542 413.752 783.518 413.344L783.482 411.976C782.642 413.056 781.55 413.896 780.206 414.496C778.862 415.072 777.494 415.36 776.102 415.36C774.878 415.36 773.786 415.108 772.826 414.604C771.866 414.076 771.11 413.38 770.558 412.516C770.03 411.628 769.766 410.656 769.766 409.6ZM782.33 411.04C782.882 410.392 783.158 409.792 783.158 409.24V406.504C781.502 405.856 779.774 405.532 777.974 405.532C776.222 405.532 774.806 405.88 773.726 406.576C772.646 407.272 772.106 408.22 772.106 409.42C772.106 410.452 772.502 411.388 773.294 412.228C774.11 413.068 775.238 413.488 776.678 413.488C777.854 413.488 778.946 413.26 779.954 412.804C780.986 412.348 781.778 411.76 782.33 411.04Z" fill="#0B0720"/>
<path d="M177.664 290V271.244H180.112V279.272H182.92L189.22 271.244H192.028L184.864 280.352L192.928 290H190.048L182.92 281.54H180.112V290H177.664ZM198.455 297.848C197.663 297.848 196.823 297.596 195.935 297.092L196.835 295.364C197.339 295.7 197.831 295.868 198.311 295.868C199.511 295.868 200.627 294.644 201.659 292.196L202.595 289.856L194.243 271.244H196.835L203.711 287.48L210.047 271.244H212.495L203.567 292.952C202.847 294.656 202.067 295.892 201.227 296.66C200.387 297.452 199.463 297.848 198.455 297.848ZM215.879 290V271.244H230.963V290H228.515V273.44H218.327V290H215.879ZM236.34 290V271.28H238.788V286.688L250.2 271.244H252.396V290H249.948V274.844L238.716 290H236.34ZM262.431 290V273.44H255.735V271.244H271.575V273.44H264.879V290H262.431ZM274.871 290V271.244H277.319V277.868H282.179C284.315 277.868 285.923 278.42 287.003 279.524C288.107 280.604 288.659 282.032 288.659 283.808C288.659 284.96 288.419 286.004 287.939 286.94C287.459 287.876 286.751 288.62 285.815 289.172C284.879 289.724 283.727 290 282.359 290H274.871ZM277.319 288.056H282.035C283.499 288.056 284.555 287.636 285.203 286.796C285.851 285.932 286.175 284.948 286.175 283.844C286.175 283.124 286.043 282.464 285.779 281.864C285.539 281.24 285.107 280.748 284.483 280.388C283.883 280.004 283.043 279.812 281.963 279.812H277.319V288.056ZM309.797 290.36C307.973 290.36 306.353 289.916 304.937 289.028C303.521 288.116 302.405 286.928 301.589 285.464C300.773 283.976 300.365 282.344 300.365 280.568C300.365 278.792 300.761 277.184 301.553 275.744C302.345 274.28 303.449 273.116 304.865 272.252C306.281 271.364 307.913 270.92 309.761 270.92C311.513 270.92 313.049 271.328 314.369 272.144C315.713 272.936 316.721 274.016 317.393 275.384L315.017 276.14C314.489 275.18 313.745 274.436 312.785 273.908C311.849 273.356 310.805 273.08 309.653 273.08C308.381 273.08 307.229 273.404 306.197 274.052C305.189 274.7 304.373 275.6 303.749 276.752C303.149 277.88 302.849 279.152 302.849 280.568C302.849 281.984 303.161 283.268 303.785 284.42C304.409 285.572 305.237 286.496 306.269 287.192C307.301 287.864 308.441 288.2 309.689 288.2C310.505 288.2 311.297 288.056 312.065 287.768C312.833 287.48 313.493 287.096 314.045 286.616C314.597 286.112 314.969 285.572 315.161 284.996L317.573 285.716C317.237 286.604 316.685 287.408 315.917 288.128C315.149 288.824 314.237 289.376 313.181 289.784C312.125 290.168 310.997 290.36 309.797 290.36ZM319.619 290.108V287.876C320.243 287.876 320.807 287.708 321.311 287.372C321.839 287.036 322.295 286.448 322.679 285.608C323.087 284.768 323.411 283.604 323.651 282.116C323.891 280.628 324.047 278.744 324.119 276.464L324.335 271.244H336.503V290H334.055V273.44H326.495L326.423 276.68C326.303 280.16 325.979 282.872 325.451 284.816C324.923 286.76 324.167 288.128 323.183 288.92C322.223 289.688 321.035 290.084 319.619 290.108ZM349.907 290.36C348.107 290.36 346.499 289.916 345.083 289.028C343.691 288.14 342.599 286.964 341.807 285.5C341.015 284.012 340.619 282.404 340.619 280.676C340.619 278.924 341.015 277.316 341.807 275.852C342.623 274.364 343.727 273.176 345.119 272.288C346.535 271.376 348.131 270.92 349.907 270.92C351.707 270.92 353.303 271.376 354.695 272.288C356.111 273.176 357.215 274.364 358.007 275.852C358.823 277.316 359.231 278.924 359.231 280.676C359.231 282.404 358.835 284.012 358.043 285.5C357.251 286.964 356.147 288.14 354.731 289.028C353.339 289.916 351.731 290.36 349.907 290.36ZM343.103 280.712C343.103 282.104 343.403 283.376 344.003 284.528C344.627 285.656 345.455 286.556 346.487 287.228C347.519 287.876 348.659 288.2 349.907 288.2C351.155 288.2 352.295 287.864 353.327 287.192C354.359 286.52 355.187 285.608 355.811 284.456C356.435 283.304 356.747 282.032 356.747 280.64C356.747 279.248 356.435 277.976 355.811 276.824C355.187 275.672 354.359 274.76 353.327 274.088C352.295 273.416 351.155 273.08 349.907 273.08C348.683 273.08 347.555 273.428 346.523 274.124C345.491 274.796 344.663 275.708 344.039 276.86C343.415 278.012 343.103 279.296 343.103 280.712ZM363.289 290V271.244H365.737V279.308H376.465V271.244H378.913V290H376.465V281.504H365.737V290H363.289ZM382.801 284.6C382.801 283.448 383.137 282.452 383.809 281.612C384.481 280.748 385.405 280.076 386.581 279.596C387.781 279.116 389.161 278.876 390.721 278.876C391.633 278.876 392.581 278.96 393.565 279.128C394.549 279.272 395.425 279.476 396.193 279.74V278.156C396.193 276.572 395.725 275.312 394.789 274.376C393.853 273.44 392.557 272.972 390.901 272.972C389.917 272.972 388.933 273.164 387.949 273.548C386.965 273.908 385.945 274.448 384.889 275.168L383.953 273.44C385.177 272.6 386.377 271.976 387.553 271.568C388.729 271.136 389.929 270.92 391.153 270.92C393.457 270.92 395.281 271.58 396.625 272.9C397.969 274.22 398.641 276.044 398.641 278.372V287.048C398.641 287.696 398.941 288.032 399.541 288.056V290C399.013 290.072 398.641 290.096 398.425 290.072C397.825 290.048 397.369 289.856 397.057 289.496C396.745 289.136 396.577 288.752 396.553 288.344L396.517 286.976C395.677 288.056 394.585 288.896 393.241 289.496C391.897 290.072 390.529 290.36 389.137 290.36C387.913 290.36 386.821 290.108 385.861 289.604C384.901 289.076 384.145 288.38 383.593 287.516C383.065 286.628 382.801 285.656 382.801 284.6ZM395.365 286.04C395.917 285.392 396.193 284.792 396.193 284.24V281.504C394.537 280.856 392.809 280.532 391.009 280.532C389.257 280.532 387.841 280.88 386.761 281.576C385.681 282.272 385.141 283.22 385.141 284.42C385.141 285.452 385.537 286.388 386.329 287.228C387.145 288.068 388.273 288.488 389.713 288.488C390.889 288.488 391.981 288.26 392.989 287.804C394.021 287.348 394.813 286.76 395.365 286.04Z" fill="black"/>
</g>
<g clip-path="url(#clip1)">
<path d="M542.518 720.306C539.621 723.118 536.425 722.679 533.379 721.354C530.14 720.002 527.179 719.916 523.759 721.354C519.499 723.192 517.239 722.658 514.673 720.306C500.19 705.395 502.328 682.682 518.789 681.827C522.781 682.04 525.576 684.034 527.928 684.2C531.423 683.489 534.768 681.452 538.51 681.72C543.004 682.083 546.366 683.857 548.61 687.048C539.365 692.606 541.556 704.792 550.048 708.212C548.349 712.675 546.168 717.084 542.512 720.344L542.518 720.306ZM527.607 681.666C527.174 675.039 532.545 669.588 538.723 669.053C539.573 676.696 531.776 682.414 527.607 681.666Z" fill="black"/>
</g>
<defs>
<linearGradient id="paint0_linear" x1="1056" y1="740" x2="6.50138e-06" y2="748" gradientUnits="userSpaceOnUse">
<stop stop-color="#AEAEAE"/>
<stop offset="1" stop-color="#DBDBDB"/>
</linearGradient>
<linearGradient id="paint1_linear" x1="1054" y1="6.04664e-05" x2="5.74357e-06" y2="548" gradientUnits="userSpaceOnUse">
<stop stop-color="#353535"/>
<stop offset="1" stop-color="#070707"/>
</linearGradient>
<clipPath id="clip0">
<rect width="1000" height="563" fill="white" transform="translate(36 40)"/>
</clipPath>
<clipPath id="clip1">
<rect width="45" height="53.4442" fill="white" transform="translate(505 669)"/>
</clipPath>
</defs>
</svg>
