<svg xmlns="http://www.w3.org/2000/svg" width="315" height="322" fill="none" xmlns:v="https://vecta.io/nano"><path opacity=".9" d="M314 161c0 88.386-70.088 160-156.5 160S1 249.386 1 161 71.088 1 157.5 1 314 72.614 314 161z" stroke="#50d3e8" stroke-width="2"/><path d="M154.39 241.094h-4.283v-62.2a5.26 5.26 0 0 0-5.251-5.251h-9.575a5.26 5.26 0 0 0-5.25 5.251v62.2h-10.877v-34.019a5.26 5.26 0 0 0-5.251-5.25h-9.575a5.26 5.26 0 0 0-5.25 5.25v34.019H88.2v-17.618a5.26 5.26 0 0 0-5.25-5.251h-9.575a5.26 5.26 0 0 0-5.25 5.251v17.618H63.61c-1.079 0-1.953.874-1.953 1.953S62.531 245 63.61 245h90.78c1.079 0 1.954-.874 1.954-1.953s-.875-1.953-1.954-1.953zm-70.096 0H72.031v-17.618c0-.741.603-1.344 1.344-1.344h9.575c.741 0 1.344.603 1.344 1.344v17.618zm30.953 0h-12.263v-34.019c0-.741.603-1.344 1.344-1.344h9.575c.741 0 1.344.603 1.344 1.344v34.019zm30.953 0h-12.263v-62.2c0-.742.603-1.344 1.344-1.344h9.575c.742 0 1.344.602 1.344 1.344v62.2zm3.902-94.04c.027-.533-.16-1.075-.567-1.482s-.949-.595-1.482-.567l-.095-.005h-11.816c-1.079 0-1.953.874-1.953 1.953s.874 1.953 1.953 1.953h7.296l-19.308 19.308-7.281-7.281c-.366-.366-.863-.572-1.381-.572s-1.015.206-1.381.572l-35.111 35.112c-.763.762-.763 1.999 0 2.762a1.95 1.95 0 0 0 1.381.572c.5 0 1-.191 1.381-.573l33.73-33.73 7.281 7.281c.763.763 1.999.763 2.762 0l20.689-20.688v6.603c0 1.079.875 1.953 1.954 1.953s1.953-.874 1.953-1.953v-11.124c0-.031-.004-.062-.005-.094zm-76.329 59.139c1.079 0 1.953-.874 1.953-1.953s-.875-1.953-1.953-1.953-1.953.875-1.953 1.953.874 1.953 1.953 1.953zM241.269 72.007h-33.06c-1.294 0-2.344 1.049-2.344 2.344s1.05 2.344 2.344 2.344h33.06c1.294 0 2.343-1.049 2.343-2.344s-1.049-2.344-2.343-2.344zm-60.258 0a2.36 2.36 0 0 0-2.344 2.344 2.36 2.36 0 0 0 2.344 2.344c.616 0 1.221-.251 1.657-.687a2.36 2.36 0 0 0 .687-1.657 2.36 2.36 0 0 0-.687-1.657c-.436-.436-1.041-.687-1.657-.687zm-11.379 0a2.36 2.36 0 0 0-2.343 2.344 2.36 2.36 0 0 0 2.343 2.344c.619 0 1.221-.251 1.657-.687a2.36 2.36 0 0 0 .687-1.657 2.36 2.36 0 0 0-2.344-2.344zm22.758 0a2.36 2.36 0 0 0-2.344 2.344 2.36 2.36 0 0 0 2.344 2.344 2.36 2.36 0 0 0 1.656-4.001 2.36 2.36 0 0 0-1.656-.687zm82.049 85.199l-15.478-15.477c1.925-3.809 3.012-8.111 3.012-12.663 0-4.374-1.003-8.518-2.789-12.216V64.039c0-1.294-1.049-2.344-2.344-2.344h-97.496c-1.295 0-2.344 1.049-2.344 2.344v85.31c0 1.294 1.049 2.344 2.344 2.344h14.703c1.294 0 2.343-1.05 2.343-2.344s-1.049-2.343-2.343-2.343h-12.36V87.007h92.81v22.968c-5.151-5.58-12.523-9.081-20.698-9.081-15.534 0-28.173 12.638-28.173 28.173a28.04 28.04 0 0 0 6.466 17.939H195.14c-1.294 0-2.344 1.049-2.344 2.343s1.05 2.344 2.344 2.344h21.892c4.688 3.483 10.491 5.547 16.767 5.547a28 28 0 0 0 12.612-2.985l15.49 15.49c1.708 1.708 3.954 2.562 6.206 2.562a8.87 8.87 0 0 0 6.287-2.606c3.457-3.457 3.477-9.061.045-12.494zM161.687 82.319V66.382h92.81v15.937h-92.81zm48.627 46.747c0-12.95 10.535-23.486 23.485-23.486s23.486 10.536 23.486 23.486-10.535 23.486-23.486 23.486-23.485-10.536-23.485-23.486zm60.766 37.32c-1.629 1.629-4.26 1.649-5.864.044l-14.7-14.7a28.43 28.43 0 0 0 5.914-5.903l14.694 14.694c1.605 1.604 1.585 4.235-.044 5.865zm-94.862-31.1h16.751a7.98 7.98 0 0 0 7.968-7.968 7.98 7.98 0 0 0-7.968-7.969h-16.751a7.98 7.98 0 0 0-7.968 7.969 7.98 7.98 0 0 0 7.968 7.968zm0-11.249h16.751c1.809 0 3.281 1.471 3.281 3.281s-1.472 3.281-3.281 3.281h-16.751c-1.809 0-3.281-1.472-3.281-3.281s1.472-3.281 3.281-3.281zm-3.989-11.221h22.348c1.294 0 2.343-1.049 2.343-2.343s-1.049-2.344-2.343-2.344h-22.348c-1.294 0-2.344 1.049-2.344 2.344s1.05 2.343 2.344 2.343zm0-11.249h22.911c1.294 0 2.344-1.049 2.344-2.344s-1.05-2.344-2.344-2.344h-22.911c-1.294 0-2.344 1.049-2.344 2.344s1.05 2.344 2.344 2.344zm41.41 0c1.294 0 2.343-1.049 2.343-2.344s-1.049-2.344-2.343-2.344h-7.191c-1.294 0-2.344 1.049-2.344 2.344s1.05 2.344 2.344 2.344h7.191zm37.084 27.499c0-1.294-1.049-2.344-2.344-2.344h-15.918c-1.003-3.253-4.038-5.625-7.617-5.625a7.98 7.98 0 0 0-7.968 7.969 7.98 7.98 0 0 0 7.968 7.968c3.579 0 6.614-2.371 7.617-5.624h4.2v1.921c0 1.294 1.05 2.343 2.344 2.343s2.343-1.049 2.343-2.343v-1.921h4.688v.822c0 1.294 1.049 2.344 2.343 2.344s2.344-1.05 2.344-2.344v-3.166zm-25.879 3.281c-1.809 0-3.281-1.472-3.281-3.281s1.472-3.281 3.281-3.281 3.282 1.472 3.282 3.281-1.472 3.281-3.282 3.281zm-40.252 14.657c-.617 0-1.219.251-1.655.687s-.689 1.04-.689 1.657.251 1.221.689 1.657a2.36 2.36 0 0 0 1.655.687 2.36 2.36 0 0 0 1.659-.687c.436-.436.687-1.041.687-1.657a2.36 2.36 0 0 0-.687-1.657c-.438-.436-1.04-.687-1.659-.687z" fill="#50d3e8"/></svg>