<svg width="315" height="322" viewBox="0 0 315 322" fill="none" xmlns="http://www.w3.org/2000/svg">
<ellipse cx="157.5" cy="161" rx="157.5" ry="161" fill="#FFFFFE"/>
<path d="M154.39 241.094H150.107V178.894C150.107 175.999 147.751 173.643 144.856 173.643H135.281C132.386 173.643 130.031 175.999 130.031 178.894V241.094H119.153V207.075C119.153 204.18 116.798 201.825 113.903 201.825H104.328C101.433 201.825 99.0777 204.18 99.0777 207.075V241.094H88.2004V223.476C88.2004 220.581 85.8449 218.225 82.95 218.225H73.3748C70.4797 218.225 68.1244 220.581 68.1244 223.476V241.094H63.6096C62.5308 241.094 61.6564 241.968 61.6564 243.047C61.6564 244.126 62.5308 245 63.6096 245H154.39C155.469 245 156.344 244.126 156.344 243.047C156.344 241.968 155.469 241.094 154.39 241.094ZM84.2937 241.094H72.0305V223.476C72.0305 222.735 72.6334 222.132 73.3746 222.132H82.9496C83.6908 222.132 84.2937 222.735 84.2937 223.476V241.094ZM115.247 241.094H102.984V207.075C102.984 206.334 103.587 205.731 104.328 205.731H113.903C114.644 205.731 115.247 206.334 115.247 207.075V241.094ZM146.2 241.094H133.937V178.894C133.937 178.152 134.54 177.55 135.281 177.55H144.856C145.597 177.55 146.2 178.152 146.2 178.894V241.094Z" fill="#047385"/>
<path d="M150.102 147.054C150.129 146.521 149.942 145.979 149.535 145.572C149.128 145.165 148.586 144.977 148.053 145.005C148.021 145.003 147.99 145 147.958 145H136.142C135.063 145 134.189 145.874 134.189 146.953C134.189 148.032 135.063 148.906 136.142 148.906H143.438L124.13 168.214L116.849 160.933C116.483 160.567 115.986 160.361 115.468 160.361C114.95 160.361 114.453 160.567 114.087 160.933L78.9756 196.045C78.2129 196.807 78.2129 198.044 78.9756 198.807C79.3571 199.188 79.8569 199.379 80.3567 199.379C80.8565 199.379 81.3565 199.188 81.7377 198.806L115.468 165.076L122.749 172.357C123.512 173.12 124.748 173.12 125.511 172.357L146.2 151.669V158.272C146.2 159.351 147.075 160.225 148.154 160.225C149.232 160.225 150.107 159.351 150.107 158.272V147.148C150.107 147.117 150.103 147.086 150.102 147.054Z" fill="#047385"/>
<path d="M73.7735 206.193C74.8521 206.193 75.7266 205.319 75.7266 204.24C75.7266 203.162 74.8521 202.287 73.7735 202.287C72.6948 202.287 71.8203 203.162 71.8203 204.24C71.8203 205.319 72.6948 206.193 73.7735 206.193Z" fill="#1CB7D0"/>
<path d="M241.269 72.0068H208.209C206.915 72.0068 205.865 73.0561 205.865 74.3505C205.865 75.6449 206.915 76.6942 208.209 76.6942H241.269C242.563 76.6942 243.612 75.6449 243.612 74.3505C243.612 73.0561 242.563 72.0068 241.269 72.0068Z" fill="#047385"/>
<path d="M181.011 72.0066C180.394 72.0066 179.79 72.2574 179.354 72.6933C178.918 73.1292 178.667 73.7339 178.667 74.3503C178.667 74.9691 178.918 75.5714 179.354 76.0074C179.79 76.4433 180.394 76.6941 181.011 76.6941C181.628 76.6941 182.232 76.4433 182.668 76.0074C183.104 75.5714 183.355 74.9667 183.355 74.3503C183.355 73.7339 183.104 73.1292 182.668 72.6933C182.232 72.2574 181.628 72.0066 181.011 72.0066V72.0066Z" fill="#047385"/>
<path d="M169.632 72.0066C169.016 72.0066 168.411 72.2574 167.975 72.6933C167.54 73.1292 167.289 73.7339 167.289 74.3503C167.289 74.9667 167.539 75.5714 167.975 76.0074C168.411 76.4433 169.016 76.6941 169.632 76.6941C170.251 76.6941 170.853 76.4433 171.289 76.0074C171.725 75.5714 171.976 74.9667 171.976 74.3503C171.976 73.7339 171.725 73.1292 171.289 72.6933C170.853 72.2574 170.251 72.0066 169.632 72.0066Z" fill="#047385"/>
<path d="M192.39 72.0066C191.773 72.0066 191.168 72.2574 190.733 72.6933C190.297 73.1292 190.046 73.7339 190.046 74.3503C190.046 74.9667 190.296 75.5714 190.733 76.0074C191.168 76.4433 191.773 76.6941 192.39 76.6941C193.006 76.6941 193.611 76.4433 194.046 76.0074C194.482 75.5714 194.733 74.9667 194.733 74.3503C194.733 73.7339 194.483 73.1292 194.046 72.6933C193.611 72.2574 193.006 72.0066 192.39 72.0066Z" fill="#047385"/>
<path d="M274.439 157.206L258.961 141.729C260.886 137.92 261.973 133.618 261.973 129.066C261.973 124.692 260.97 120.548 259.184 116.85V64.0385C259.184 62.7441 258.135 61.6948 256.84 61.6948H159.344C158.049 61.6948 157 62.7441 157 64.0385V149.348C157 150.642 158.049 151.692 159.344 151.692H174.047C175.341 151.692 176.39 150.642 176.39 149.348C176.39 148.054 175.341 147.005 174.047 147.005H161.687V87.0065H254.497V109.974C249.346 104.394 241.974 100.893 233.799 100.893C218.265 100.893 205.626 113.531 205.626 129.066C205.626 135.876 208.055 142.129 212.092 147.005H195.14C193.846 147.005 192.796 148.054 192.796 149.348C192.796 150.643 193.846 151.692 195.14 151.692H217.032C221.72 155.175 227.523 157.239 233.799 157.239C238.33 157.239 242.614 156.163 246.411 154.254L261.901 169.744C263.609 171.452 265.855 172.306 268.107 172.306C270.38 172.306 272.658 171.436 274.394 169.7C277.851 166.243 277.871 160.639 274.439 157.206V157.206ZM161.687 82.3191V66.3822H254.497V82.3191H161.687ZM210.314 129.066C210.314 116.116 220.849 105.58 233.799 105.58C246.75 105.58 257.285 116.116 257.285 129.066C257.285 142.016 246.75 152.552 233.799 152.552C220.849 152.552 210.314 142.016 210.314 129.066V129.066ZM271.08 166.386C269.451 168.015 266.82 168.035 265.216 166.43L250.516 151.73C252.766 150.065 254.762 148.074 256.43 145.827L271.124 160.521C272.729 162.125 272.709 164.756 271.08 166.386Z" fill="#047385"/>
<path d="M176.218 135.286H192.969C197.363 135.286 200.937 131.712 200.937 127.318C200.937 122.924 197.363 119.349 192.969 119.349H176.218C171.824 119.349 168.25 122.924 168.25 127.318C168.25 131.712 171.824 135.286 176.218 135.286V135.286ZM176.218 124.036H192.969C194.778 124.036 196.25 125.508 196.25 127.318C196.25 129.127 194.778 130.599 192.969 130.599H176.218C174.409 130.599 172.937 129.127 172.937 127.318C172.937 125.508 174.409 124.036 176.218 124.036V124.036Z" fill="#047385"/>
<path d="M172.229 112.816H194.577C195.871 112.816 196.921 111.767 196.921 110.473C196.921 109.178 195.871 108.129 194.577 108.129H172.229C170.935 108.129 169.886 109.178 169.886 110.473C169.886 111.767 170.935 112.816 172.229 112.816Z" fill="#047385"/>
<path d="M172.229 101.567H195.14C196.434 101.567 197.484 100.518 197.484 99.2233C197.484 97.9289 196.434 96.8796 195.14 96.8796H172.229C170.935 96.8796 169.886 97.9289 169.886 99.2233C169.886 100.518 170.935 101.567 172.229 101.567V101.567Z" fill="#047385"/>
<path d="M213.639 101.567C214.933 101.567 215.982 100.518 215.982 99.2233C215.982 97.9289 214.933 96.8796 213.639 96.8796H206.448C205.154 96.8796 204.104 97.9289 204.104 99.2233C204.104 100.518 205.154 101.567 206.448 101.567H213.639Z" fill="#047385"/>
<path d="M250.723 129.066C250.723 127.772 249.673 126.722 248.379 126.722H232.461C231.457 123.469 228.423 121.097 224.844 121.097C220.45 121.097 216.876 124.672 216.876 129.066C216.876 133.46 220.45 137.034 224.844 137.034C228.423 137.034 231.457 134.663 232.461 131.41H236.661V133.331C236.661 134.625 237.71 135.674 239.005 135.674C240.299 135.674 241.348 134.625 241.348 133.331V131.41H246.036V132.232C246.036 133.526 247.085 134.576 248.379 134.576C249.673 134.576 250.723 133.526 250.723 132.232V129.066ZM224.844 132.347C223.035 132.347 221.563 130.875 221.563 129.066C221.563 127.257 223.035 125.785 224.844 125.785C226.654 125.785 228.125 127.257 228.125 129.066C228.125 130.875 226.654 132.347 224.844 132.347Z" fill="#047385"/>
<path d="M184.592 147.004C183.975 147.004 183.373 147.255 182.937 147.691C182.499 148.127 182.248 148.732 182.248 149.348C182.248 149.965 182.499 150.569 182.937 151.005C183.371 151.441 183.975 151.692 184.592 151.692C185.211 151.692 185.816 151.441 186.251 151.005C186.687 150.569 186.938 149.965 186.938 149.348C186.938 148.732 186.687 148.127 186.251 147.691C185.813 147.255 185.211 147.004 184.592 147.004Z" fill="#047385"/>
</svg>
