<svg width="250" height="230" viewBox="0 0 250 230" fill="none" xmlns="http://www.w3.org/2000/svg">
<rect x="1" y="1" width="248" height="228" rx="9" fill="#FFFFFE"/>
<path d="M116.288 78.8289C116.108 79.2207 115.857 80.2002 115.749 81.0229C115.462 82.9427 113.953 85.1367 112.408 85.8419C111.689 86.1945 109.893 86.3904 107.845 86.3904C103.103 86.3904 101.055 87.1348 98.7913 89.6422C97.6416 90.9351 96.8153 92.3064 96.5279 93.325C96.1686 94.6571 95.9171 95.0097 95.2345 95.0097C93.6896 95.0097 92.9351 96.4985 92.2884 100.769L91.6776 104.765L75.2587 104.883L58.8756 105L57.4026 106.058C54.7799 107.939 54.7799 107.978 54.7799 124.276V138.733L53.6661 139.634C51.6542 141.241 51.5464 142.063 51.5464 154.326C51.5464 164.356 51.6182 165.688 52.2649 167.921C53.6302 172.662 56.8996 176.227 61.3187 177.716C63.5462 178.46 64.4085 178.5 73.8934 178.382L84.061 178.264L86.1448 177.207C88.8393 175.835 91.7495 172.779 93.0788 169.959C94.1207 167.686 94.1207 167.647 94.2285 159.733L94.3363 151.819H97.6057H100.875L100.695 156.403C100.408 163.024 100.839 167.294 102.061 169.998C103.282 172.74 106.228 175.835 108.923 177.207L111.007 178.264L121.174 178.382C130.659 178.5 131.521 178.46 133.749 177.716C138.168 176.227 141.438 172.662 142.803 167.921C143.449 165.688 143.521 164.356 143.521 154.326C143.521 142.063 143.414 141.241 141.402 139.634L140.288 138.733V124.276C140.288 107.978 140.288 107.939 137.665 106.058L136.192 105L119.809 104.883L103.39 104.765L102.779 100.769C102.133 96.616 101.378 95.0097 99.9769 95.0097C99.1147 95.0097 99.1506 94.6179 100.157 93.0508C101.737 90.465 102.492 90.1516 107.522 89.9165C112.839 89.6422 114.671 88.937 116.755 86.2729C117.941 84.7841 119.09 81.689 119.09 80.0826C119.09 78.4763 116.899 77.4968 116.288 78.8289ZM99.6895 100.965C99.9051 102.532 100.157 104.06 100.228 104.295C100.336 104.687 99.6536 104.804 97.5338 104.804C95.4141 104.804 94.7315 104.687 94.8393 104.295C94.9111 104.06 95.1626 102.532 95.3782 100.965L95.8093 98.144H97.5338H99.2584L99.6895 100.965ZM136.012 108.84C137.342 109.937 137.414 110.76 137.414 124.668V138.341L136.3 138.772C135.258 139.203 135.042 139.164 134.144 138.341C132.599 136.892 130.875 136.422 129.258 136.892C128.324 137.166 127.857 137.205 127.785 136.931C127.498 135.991 125.845 134.267 124.839 133.797C124.228 133.522 123.043 133.405 122.144 133.483L120.528 133.718V131.446C120.528 127.763 118.408 125.138 115.426 125.099C113.558 125.06 111.833 126 110.683 127.646C110.037 128.625 109.929 129.409 109.821 134.032C109.677 138.968 109.641 139.242 109.031 138.89C108.097 138.341 86.9352 138.381 86.0011 138.89C85.3544 139.282 85.3184 139.125 85.3184 134.58C85.3184 128.194 84.4562 126.196 81.2945 125.256C77.6299 124.159 74.5401 127.058 74.5401 131.563V133.718L72.9234 133.483C72.0252 133.405 70.8396 133.522 70.2288 133.797C69.2228 134.267 67.5701 135.991 67.2827 136.931C67.2109 137.205 66.7438 137.166 65.8097 136.892C64.1929 136.422 62.4684 136.892 60.9235 138.341C60.0253 139.164 59.8098 139.203 58.7679 138.772L57.6541 138.341V124.668C57.6541 110.76 57.726 109.937 59.0553 108.84C59.8816 108.135 135.186 108.135 136.012 108.84ZM81.2945 128.938C82.0849 129.526 82.0849 129.526 82.0849 142.455C82.0849 154.992 82.1209 155.384 82.8394 156.168C83.4861 156.873 83.6658 156.912 84.3484 156.403C85.1029 155.854 85.1388 155.502 85.2466 149.742L85.3544 143.63L86.4322 142.651C87.8693 141.319 89.0908 141.358 90.3842 142.808L91.4621 143.983L91.3543 155.227L91.2465 166.511L90.2765 168.509C89.2705 170.585 87.2226 172.858 85.2466 174.033C84.2047 174.66 82.8753 174.738 73.4982 174.856L62.9355 174.973L60.672 173.759C58.1212 172.388 56.8278 170.938 55.6062 168.039C54.7799 166.041 54.7799 165.884 54.8517 154.326L54.9595 142.651L55.9655 142.024C56.8278 141.515 57.0433 141.515 57.9415 142.024L58.9116 142.651L59.0912 149.233C59.2708 155.149 59.3427 155.854 59.9535 156.364C60.5642 156.834 60.7798 156.834 61.3906 156.364C62.1091 155.854 62.1451 155.345 62.3247 148.489C62.5043 141.828 62.5762 141.123 63.187 140.614C64.1929 139.83 65.3426 139.948 66.133 140.888C66.7438 141.632 66.8516 142.533 66.9953 149.037L67.1749 156.324H68.4324H69.6899L69.8695 147.196C70.0492 138.145 70.0492 138.028 70.9114 137.284C71.9893 136.343 72.4204 136.343 73.5701 137.362L74.5401 138.145L74.612 147C74.7198 155.58 74.7557 155.854 75.5102 156.403C76.1928 156.912 76.3724 156.873 77.0191 156.168C77.7377 155.384 77.7736 154.992 77.7736 142.455C77.7736 129.526 77.7736 129.526 78.564 128.938C78.9952 128.586 79.6059 128.312 79.9293 128.312C80.2526 128.312 80.8634 128.586 81.2945 128.938ZM116.791 129.134C117.438 129.918 117.474 130.623 117.33 142.416C117.222 155.619 117.294 156.52 118.839 156.52C120.456 156.52 120.528 156.05 120.528 147.039V138.459L121.426 137.519C122.468 136.343 123.043 136.304 124.156 137.284C125.019 138.028 125.019 138.145 125.198 147.196L125.378 156.324H126.635H127.893L128.072 149.037C128.216 142.533 128.324 141.632 128.935 140.888C129.725 139.948 130.875 139.83 131.881 140.614C132.492 141.123 132.563 141.828 132.743 148.489C132.923 155.345 132.959 155.854 133.677 156.364C134.288 156.834 134.503 156.834 135.114 156.364C135.725 155.854 135.797 155.149 135.976 149.233L136.156 142.651L137.162 142.024C138.024 141.515 138.24 141.515 139.138 142.024L140.108 142.651L140.216 154.326C140.288 165.884 140.288 166.041 139.461 168.039C138.24 170.938 136.947 172.388 134.396 173.759L132.132 174.973L121.569 174.856C112.192 174.738 110.863 174.66 109.821 174.033C107.845 172.858 105.797 170.585 104.791 168.509L103.821 166.511L103.713 155.227L103.606 143.983L104.683 142.808C105.977 141.358 107.198 141.319 108.636 142.651L109.749 143.67V149.625C109.749 153.739 109.893 155.737 110.18 156.05C110.827 156.755 112.192 156.599 112.623 155.776C112.839 155.267 112.983 150.291 112.983 142.259C112.983 129.565 112.983 129.526 113.773 128.938C114.887 128.077 115.965 128.155 116.791 129.134ZM101.127 142.377C100.947 142.808 100.767 144.297 100.767 145.746V148.332L97.6416 148.214L94.48 148.097L94.3004 145.354C94.1926 143.826 93.977 142.377 93.8333 142.103C93.6177 141.75 94.4081 141.632 97.5338 141.632C101.342 141.632 101.486 141.672 101.127 142.377Z" fill="#5333ED"/>
<g clip-path="url(#clip0)">
<path d="M166.78 44.2579H153.475L143.471 55.1673V80.1004C143.471 90.116 150.943 98.2643 160.127 98.2643C169.312 98.2643 176.784 90.116 176.784 80.1004V55.1673L166.78 44.2579ZM173.882 56.478V67.7038H161.578V64.5393H164.48V51.1142H161.578V47.4224H165.578L173.882 56.478ZM161.578 54.2786V61.3748H158.676V54.2786H161.578ZM154.677 47.4224H158.676V51.1142H155.775V64.5392H158.676V67.7036H146.373V56.478L154.677 47.4224ZM160.127 95.0998C152.543 95.0998 146.373 88.3711 146.373 80.1004V70.8682H173.882V80.1004C173.882 88.3711 167.712 95.0998 160.127 95.0998Z" fill="#5333ED"/>
</g>
<rect x="1" y="1" width="248" height="228" rx="9" stroke="#1CB7D0" stroke-width="2"/>
<defs>
<clipPath id="clip0">
<rect width="49.5249" height="54.0063" fill="white" transform="translate(143.471 44.2579)"/>
</clipPath>
</defs>
</svg>
