<svg width="250" height="230" viewBox="0 0 250 230" fill="none" xmlns="http://www.w3.org/2000/svg">
<rect x="1" y="1" width="248" height="228" rx="9" fill="#FFFFFE"/>
<g clip-path="url(#clip0)">
<path d="M211.18 17.5591C208.961 17.5591 206.965 18.8347 205.84 20.972C205.484 21.6429 205.678 22.5141 206.271 22.9147C206.868 23.3154 207.634 23.0961 207.986 22.4234C208.656 21.1534 209.85 20.3938 211.18 20.3938C212.511 20.3938 213.705 21.1534 214.375 22.4234C214.724 23.0905 215.489 23.3172 216.089 22.9147C216.681 22.5141 216.876 21.6429 216.521 20.972C215.396 18.8347 213.4 17.5591 211.18 17.5591V17.5591Z" fill="#5333ED"/>
<path d="M218.12 18.5134C218.546 19.1238 219.331 19.2334 219.876 18.7459C220.418 18.2602 220.51 17.3682 220.081 16.7541C217.924 13.6624 214.681 11.8898 211.181 11.8898C207.681 11.8898 204.437 13.6624 202.28 16.7559C201.851 17.3701 201.943 18.2602 202.485 18.7478C203.03 19.2353 203.815 19.1276 204.241 18.5153C205.923 16.1059 208.451 14.7244 211.181 14.7244C213.91 14.7244 216.438 16.1059 218.12 18.5134V18.5134Z" fill="#5333ED"/>
<path d="M186.585 49.6853H187.002V51.575C187.002 52.6182 187.748 53.4648 188.67 53.4648C189.592 53.4648 190.337 52.6182 190.337 51.575V49.6853H213.682V51.575C213.682 52.6182 214.427 53.4648 215.349 53.4648C216.271 53.4648 217.016 52.6182 217.016 51.575V49.6853H217.433C219.963 49.6853 222.019 47.3552 222.019 44.4884V37.8741C222.019 35.0074 219.963 32.6773 217.433 32.6773H212.848V25.3544C212.848 24.3112 212.102 23.4646 211.18 23.4646C210.258 23.4646 209.513 24.3112 209.513 25.3544V32.6773H186.585C184.056 32.6773 182 35.0074 182 37.8741V44.4884C182 47.3552 184.056 49.6853 186.585 49.6853ZM217.016 41.1813C217.016 42.746 215.896 44.0159 214.515 44.0159C213.135 44.0159 212.014 42.746 212.014 41.1813C212.014 39.6165 213.135 38.3466 214.515 38.3466C215.896 38.3466 217.016 39.6165 217.016 41.1813ZM197.841 38.3466C199.221 38.3466 200.342 39.6165 200.342 41.1813C200.342 42.746 199.221 44.0159 197.841 44.0159C196.46 44.0159 195.34 42.746 195.34 41.1813C195.34 39.6165 196.46 38.3466 197.841 38.3466ZM189.504 38.3466C190.884 38.3466 192.005 39.6165 192.005 41.1813C192.005 42.746 190.884 44.0159 189.504 44.0159C188.123 44.0159 187.002 42.746 187.002 41.1813C187.002 39.6165 188.123 38.3466 189.504 38.3466Z" fill="#5333ED"/>
</g>
<rect x="182.5" y="10.5" width="39.0188" height="44.3546" stroke="#FFFFFE"/>
<g clip-path="url(#clip1)">
<path d="M75.6839 21.8898H42.3349C40.4965 21.8898 39 23.5849 39 25.6694V52.1262C39 54.2107 40.4965 55.9058 42.3349 55.9058H54.0108C53.9758 57.4133 53.7218 59.8247 52.7679 60.9634C52.4178 61.3804 52.0172 61.5752 51.5059 61.5752C51.045 61.5752 50.6721 61.9978 50.6721 62.5201C50.6721 63.0424 51.045 63.465 51.5059 63.465H66.5129C66.9738 63.465 67.3467 63.0424 67.3467 62.5201C67.3467 61.9978 66.9738 61.5752 66.5129 61.5752C66.0016 61.5752 65.601 61.3813 65.2526 60.9643C64.301 59.8313 64.0454 57.4164 64.009 55.9058H75.6839C77.5224 55.9058 79.0189 54.2108 79.0189 52.1262V25.6694C79.0188 23.5849 77.5223 21.8898 75.6839 21.8898ZM59.0094 54.0215C58.0877 54.0215 57.337 53.1707 57.337 52.1262C57.337 51.0816 58.0877 50.2308 59.0094 50.2308C59.9311 50.2308 60.6817 51.0816 60.6817 52.1262C60.6817 53.1707 59.9311 54.0215 59.0094 54.0215ZM42.3349 48.3467V25.6694H75.6839L75.6853 48.3467H42.3349Z" fill="#5333ED"/>
</g>
<rect x="39.5" y="20.5" width="39.0188" height="44.3546" stroke="#FFFFFE"/>
<path d="M184.941 39.6677L164.702 39.6677V58.5326M164.702 58.5326L154.35 47.6108M164.702 58.5326L177.641 47.6108" stroke="#5333ED"/>
<path d="M218.642 156.828L218.642 135.859L176.502 135.859M176.502 135.859L195.489 126.049M176.502 135.859L195.489 144.914" stroke="#5333ED"/>
<path d="M46.7552 158.814V137.194L96.5751 138.37M96.5751 138.37L74.4932 128.035M96.5751 138.37L73.7901 146.891" stroke="#5333ED"/>
<path d="M211.842 172.076H214.905V187.513H211.842V172.076ZM221.681 171.961C219.818 171.961 218.497 172.099 217.553 172.284V187.513H220.579V181.994C220.862 182.039 221.22 182.064 221.622 182.064C223.424 182.064 224.966 181.557 226.009 180.434C226.81 179.561 227.251 178.281 227.251 176.768C227.251 175.258 226.667 173.978 225.809 173.198C224.907 172.372 223.562 171.961 221.681 171.961ZM221.598 179.38C221.159 179.38 220.837 179.357 220.577 179.287V174.733C220.797 174.665 221.218 174.595 221.841 174.595C223.362 174.595 224.225 175.443 224.225 176.861C224.225 178.441 223.222 179.38 221.598 179.38ZM218.449 161.404C209.363 161.404 202 169.822 202 180.207C202 190.593 218.449 207.156 218.449 207.156C218.449 207.156 234.899 190.595 234.899 180.21C234.899 169.824 227.535 161.404 218.449 161.404ZM218.491 191.642C212.459 191.642 207.569 186.05 207.569 179.151C207.569 172.255 212.461 166.665 218.491 166.665C224.525 166.665 229.412 172.257 229.412 179.151C229.412 186.048 224.523 191.642 218.491 191.642Z" fill="#5333ED"/>
<path d="M27 124.079C18.7294 124.079 12 131.773 12 141.228C12 150.684 18.7294 158.377 27 158.377C35.2706 158.377 42 150.684 42 141.228C42 131.773 35.2706 124.079 27 124.079ZM17.625 151.946L24.5944 139.993L28.08 143.978L17.625 151.946ZM29.4056 142.463L25.92 138.478L36.375 130.51L29.4056 142.463Z" fill="#5333ED"/>
<path d="M26.9999 189.291C29.7505 189.291 31.9804 186.741 31.9804 183.597C31.9804 180.452 29.7505 177.902 26.9999 177.902C24.2492 177.902 22.0194 180.452 22.0194 183.597C22.0194 186.741 24.2492 189.291 26.9999 189.291Z" fill="#5333ED"/>
<path d="M20.4175 181.949C21.0792 178.49 23.7791 175.893 27.0002 175.893H40.4101C39.6985 174.278 38.7577 172.786 37.6069 171.47C34.7737 168.231 31.0069 166.447 27.0002 166.447C22.9936 166.447 19.2268 168.231 16.3936 171.47C16.1211 171.782 15.8607 172.103 15.6121 172.434L20.4175 181.949Z" fill="#5333ED"/>
<path d="M29.0438 190.938C28.3989 191.173 27.7122 191.3 27 191.3C24.497 191.3 22.3085 189.732 21.1466 187.409C21.1383 187.395 21.13 187.38 21.1223 187.365L14.4616 174.175C12.8602 176.949 12 180.197 12 183.596C12 188.177 13.5603 192.484 16.3934 195.723C18.5638 198.204 21.2826 199.83 24.2371 200.456L29.0438 190.938Z" fill="#5333ED"/>
<path d="M31.5338 177.902C32.8873 179.312 33.7381 181.343 33.7381 183.597C33.7381 185.014 33.4012 186.343 32.8147 187.485C32.8087 187.498 32.8036 187.511 32.7971 187.524L26.1349 200.717C26.4219 200.735 26.7102 200.746 26.9999 200.746C31.0065 200.746 34.7733 198.962 37.6065 195.723C40.4396 192.484 41.9998 188.177 41.9998 183.597C41.9998 181.627 41.7105 179.708 41.1563 177.902H31.5338Z" fill="#5333ED"/>
<path d="M81.6616 182.131C81.5381 182.112 81.4171 182.179 81.3656 182.293L80.9851 183.143C80.8406 182.026 80.5727 180.229 80.2188 179.05C79.6794 177.236 78.537 176.062 78.4886 176.013C78.4011 175.925 78.2662 175.905 78.1572 175.965C78.0484 176.025 77.992 176.15 78.019 176.272L78.3146 177.616C77.6033 176.867 76.4607 175.791 75.3299 175.266C75.058 175.132 74.7817 175.01 74.5397 174.904C72.0831 172.703 68.9328 171.491 65.6637 171.491C61.06 171.491 56.8643 173.818 54.38 177.731C54.1463 177.54 53.8186 177.207 53.6307 176.727C53.2892 175.882 53.1162 174.933 53.1144 174.924C53.096 174.822 53.0238 174.738 52.9261 174.706C52.8287 174.674 52.7215 174.699 52.6474 174.771C50.6001 176.751 50.8033 179.838 50.8797 180.538C50.626 180.812 49.9089 181.622 49.1844 182.791C48.2849 184.244 48.0125 186.784 48.0015 186.892C47.9891 187.012 48.0537 187.126 48.1621 187.176C48.271 187.227 48.3991 187.202 48.4809 187.114L49.0801 186.476C49.0148 186.72 48.949 186.999 48.8883 187.311C48.6184 188.657 48.6973 190.746 48.7008 190.834C48.7059 190.963 48.7979 191.073 48.9237 191.098C49.0494 191.124 49.1764 191.06 49.2312 190.943L49.5838 190.19C49.8438 192.023 50.8418 195.923 54.6684 199.516C57.5026 202.18 61.4447 203.707 65.4838 203.708C65.4842 203.708 65.4843 203.708 65.4848 203.708C69.405 203.708 73.1064 202.293 76.1883 199.618C79.8325 196.451 81.1901 191.928 81.6872 188.691C82.2238 185.197 81.9096 182.489 81.8959 182.375C81.8811 182.25 81.7854 182.15 81.6616 182.131ZM75.4394 182.233C75.4432 182.238 75.8213 182.737 75.9038 184.017C75.9606 184.975 75.7658 186.507 75.6428 187.345L74.9003 186.476C74.8202 186.382 74.689 186.352 74.5766 186.402C74.4643 186.452 74.3978 186.57 74.4126 186.693C74.4152 186.715 74.6682 188.879 74.2425 190.76C74.041 191.644 73.7256 192.279 73.4551 192.699L73.5589 191.282C73.5688 191.146 73.4807 191.022 73.3498 190.989C73.2187 190.955 73.0827 191.021 73.0271 191.145C73.0146 191.173 71.7275 193.961 68.2028 195.064C67.7105 195.217 67.1921 195.295 66.6617 195.295C64.783 195.295 63.0759 194.328 62.1082 193.648C62.1915 193.653 62.2743 193.655 62.3567 193.655C63.7428 193.655 64.8088 193.053 65.6656 192.568C65.8906 192.441 66.1032 192.321 66.3078 192.219C67.5389 191.595 68.1113 191.542 68.5511 191.542C68.7834 191.542 68.9625 191.405 69.0187 191.185C69.1564 190.645 68.5123 189.682 67.717 189.24C67.3225 189.024 66.9007 188.923 66.3898 188.923C65.577 188.923 64.5692 189.181 63.1255 189.576C62.8606 189.647 62.5989 189.683 62.3479 189.683C61.4633 189.683 60.8783 189.252 60.5433 188.889C60.0925 188.402 59.8358 187.758 59.8736 187.209C59.8908 186.958 59.988 186.702 60.5787 186.702C61.1027 186.702 61.6851 186.92 61.6908 186.922C61.7226 186.934 61.7559 186.94 61.789 186.94C61.7896 186.94 61.7903 186.94 61.7911 186.94C61.9451 186.94 62.0698 186.815 62.0698 186.659C62.0698 186.644 62.0686 186.629 62.0663 186.615L61.9884 184.152C62.2699 183.971 62.9434 183.531 63.5908 183.056C65.1571 181.907 65.3668 181.468 65.1992 181.135C64.9771 180.68 64.3927 180.606 63.716 180.521C63.3287 180.472 62.8899 180.417 62.4935 180.284C61.6677 180.007 61.1236 179.288 60.9998 179.111C60.9742 178.963 60.9128 178.465 61.1553 178.039C61.4177 177.574 62.3252 176.854 62.6528 176.615C62.7464 176.547 62.7888 176.428 62.7592 176.316C62.7297 176.203 62.6345 176.12 62.5198 176.108C62.4917 176.105 61.6591 176.021 60.2991 176.475C59.1917 176.849 58.3329 177.456 58.0369 177.681C57.9096 177.656 57.6917 177.621 57.3306 177.584C59.4514 175.168 62.4594 173.792 65.6641 173.792C68.0163 173.792 70.2386 174.514 72.1307 175.886L70.2571 176.202C70.1298 176.224 70.0339 176.33 70.0251 176.46C70.0163 176.59 70.0971 176.709 70.2201 176.748C70.2451 176.756 72.7402 177.551 74.602 178.999C75.0163 179.326 75.3951 179.75 75.7283 180.258C76.039 180.93 76.2821 181.623 76.4543 182.326L75.8278 181.835C75.7166 181.748 75.5597 181.759 75.4604 181.86C75.3607 181.96 75.3524 182.121 75.4394 182.233Z" fill="#5333ED"/>
<path d="M149.211 63H94V156.377H149.211L182.337 108.808L149.211 63Z" fill="#5333ED" stroke="#FFFFFE"/>
<g opacity="0.8">
<path d="M113.687 134L125.527 115.056C122.413 114.245 119.981 112.667 118.231 110.32C116.525 107.973 115.671 105.179 115.671 101.936C115.671 99.4187 116.29 97.1573 117.527 95.152C118.765 93.1467 120.493 91.5467 122.711 90.352C124.973 89.1573 127.618 88.56 130.647 88.56H145.879V134H140.119V115.76H131.479L120.343 134H113.687ZM131.095 110.768H140.119V93.552H131.351C128.493 93.552 126.146 94.2987 124.311 95.792C122.477 97.2853 121.559 99.3333 121.559 101.936C121.559 104.539 122.391 106.672 124.055 108.336C125.719 109.957 128.066 110.768 131.095 110.768Z" fill="#FFFFFE"/>
<path d="M113.687 134L112.839 133.47L111.883 135H113.687V134ZM125.527 115.056L126.375 115.586L127.097 114.431L125.779 114.088L125.527 115.056ZM118.231 110.32L117.423 110.908L117.43 110.918L118.231 110.32ZM117.527 95.152L116.676 94.6269L116.676 94.6269L117.527 95.152ZM122.711 90.352L122.244 89.4678L122.237 89.4715L122.711 90.352ZM145.879 88.56H146.879V87.56H145.879V88.56ZM145.879 134V135H146.879V134H145.879ZM140.119 134H139.119V135H140.119V134ZM140.119 115.76H141.119V114.76H140.119V115.76ZM131.479 115.76V114.76H130.918L130.626 115.239L131.479 115.76ZM120.343 134V135H120.905L121.197 134.521L120.343 134ZM140.119 110.768V111.768H141.119V110.768H140.119ZM140.119 93.552H141.119V92.552H140.119V93.552ZM124.311 95.792L124.943 96.5676L124.943 96.5676L124.311 95.792ZM124.055 108.336L123.348 109.043L123.358 109.052L124.055 108.336ZM114.535 134.53L126.375 115.586L124.679 114.526L112.839 133.47L114.535 134.53ZM125.779 114.088C122.861 113.329 120.633 111.868 119.033 109.722L117.43 110.918C119.329 113.465 121.964 115.162 125.276 116.024L125.779 114.088ZM119.04 109.732C117.472 107.576 116.671 104.993 116.671 101.936H114.671C114.671 105.364 115.577 108.371 117.423 110.908L119.04 109.732ZM116.671 101.936C116.671 99.5909 117.245 97.5137 118.379 95.6771L116.676 94.6269C115.335 96.8009 114.671 99.2464 114.671 101.936H116.671ZM118.379 95.6771C119.517 93.8317 121.11 92.3498 123.186 91.2325L122.237 89.4715C119.875 90.7435 118.012 92.4617 116.676 94.6269L118.379 95.6771ZM123.179 91.2362C125.272 90.1304 127.751 89.56 130.647 89.56V87.56C127.485 87.56 124.674 88.1842 122.244 89.4678L123.179 91.2362ZM130.647 89.56H145.879V87.56H130.647V89.56ZM144.879 88.56V134H146.879V88.56H144.879ZM145.879 133H140.119V135H145.879V133ZM141.119 134V115.76H139.119V134H141.119ZM140.119 114.76H131.479V116.76H140.119V114.76ZM130.626 115.239L119.49 133.479L121.197 134.521L132.333 116.281L130.626 115.239ZM120.343 133H113.687V135H120.343V133ZM131.095 111.768H140.119V109.768H131.095V111.768ZM141.119 110.768V93.552H139.119V110.768H141.119ZM140.119 92.552H131.351V94.552H140.119V92.552ZM131.351 92.552C128.313 92.552 125.728 93.3494 123.68 95.0164L124.943 96.5676C126.564 95.2479 128.673 94.552 131.351 94.552V92.552ZM123.68 95.0164C121.587 96.7203 120.559 99.0668 120.559 101.936H122.559C122.559 99.5999 123.367 97.8504 124.943 96.5676L123.68 95.0164ZM120.559 101.936C120.559 104.773 121.476 107.171 123.348 109.043L124.763 107.629C123.307 106.173 122.559 104.304 122.559 101.936H120.559ZM123.358 109.052C125.26 110.906 127.888 111.768 131.095 111.768V109.768C128.245 109.768 126.179 109.009 124.753 107.62L123.358 109.052Z" fill="#FFFFFE"/>
</g>
<path d="M82 39H105V58M105 58L113 47M105 58L95 47" stroke="#5333ED"/>
<rect x="1" y="1" width="248" height="228" rx="9" stroke="#1CB7D0" stroke-width="2"/>
<defs>
<clipPath id="clip0">
</clipPath>
<clipPath id="clip1">
</clipPath>
</defs>
</svg>
