<svg width="250" height="230" viewBox="0 0 250 230" fill="none" xmlns="http://www.w3.org/2000/svg">
<rect x="1" y="1" width="248" height="228" rx="9" fill="#FFFFFE"/>
<g clip-path="url(#clip0)">
<path d="M120.514 197.893H116.584V140.829C116.584 138.173 114.423 136.012 111.767 136.012H102.983C100.327 136.012 98.1659 138.173 98.1659 140.829V197.893H88.1867V166.684C88.1867 164.028 86.0259 161.867 83.3698 161.867H74.5854C71.9294 161.867 69.7686 164.028 69.7686 166.684V197.893H59.7893V181.73C59.7893 179.074 57.6284 176.913 54.9725 176.913H46.1879C43.5318 176.913 41.371 179.074 41.371 181.73V197.893H37.229C36.2393 197.893 35.4371 198.696 35.4371 199.685C35.4371 200.675 36.2393 201.477 37.229 201.477H120.514C121.504 201.477 122.306 200.675 122.306 199.685C122.306 198.696 121.504 197.893 120.514 197.893ZM56.2053 197.893H44.9546V181.73C44.9546 181.05 45.5077 180.497 46.1877 180.497H54.9721C55.6521 180.497 56.2053 181.05 56.2053 181.73V197.893ZM84.6028 197.893H73.3521V166.684C73.3521 166.004 73.9052 165.45 74.5852 165.45H83.3697C84.0495 165.45 84.6028 166.004 84.6028 166.684V197.893ZM113 197.893H101.75V140.829C101.75 140.149 102.303 139.596 102.983 139.596H111.767C112.447 139.596 113 140.149 113 140.829V197.893Z" fill="#5333ED"/>
<path d="M116.58 111.618C116.605 111.129 116.433 110.632 116.059 110.259C115.686 109.885 115.189 109.713 114.7 109.738C114.671 109.737 114.642 109.734 114.613 109.734H103.772C102.783 109.734 101.98 110.536 101.98 111.526C101.98 112.515 102.783 113.318 103.772 113.318H110.466L92.7524 131.032L86.0723 124.352C85.7364 124.016 85.2805 123.827 84.8053 123.827C84.3301 123.827 83.8743 124.016 83.5383 124.352L51.3262 156.564C50.6265 157.263 50.6265 158.398 51.3262 159.098C51.6762 159.448 52.1347 159.622 52.5933 159.622C53.0518 159.622 53.5105 159.448 53.8603 159.098L84.8053 128.152L91.4854 134.832C92.1851 135.532 93.3197 135.532 94.0196 134.832L113 115.852V121.91C113 122.9 113.803 123.702 114.792 123.702C115.782 123.702 116.584 122.9 116.584 121.91V111.705C116.584 111.676 116.581 111.647 116.58 111.618Z" fill="#5333ED"/>
<path d="M46.5536 165.874C47.5433 165.874 48.3455 165.072 48.3455 164.083C48.3455 163.093 47.5433 162.291 46.5536 162.291C45.564 162.291 44.7618 163.093 44.7618 164.083C44.7618 165.072 45.564 165.874 46.5536 165.874Z" fill="#1CB7D0"/>
</g>
<g clip-path="url(#clip1)" filter="url(#filter0_d)">
<path d="M200.219 42.7677H169.889C168.702 42.7677 167.739 43.7303 167.739 44.9179C167.739 46.1054 168.702 47.068 169.889 47.068H200.219C201.406 47.068 202.369 46.1054 202.369 44.9179C202.369 43.7303 201.406 42.7677 200.219 42.7677Z" fill="#5333ED"/>
<path d="M144.937 42.7675C144.371 42.7675 143.817 42.9975 143.417 43.3975C143.017 43.7974 142.787 44.3522 142.787 44.9177C142.787 45.4853 143.016 46.038 143.417 46.4379C143.817 46.8378 144.371 47.0679 144.937 47.0679C145.502 47.0679 146.057 46.8378 146.457 46.4379C146.857 46.038 147.087 45.4832 147.087 44.9177C147.087 44.3522 146.857 43.7974 146.457 43.3975C146.057 42.9975 145.502 42.7675 144.937 42.7675V42.7675Z" fill="#5333ED"/>
<path d="M134.498 42.7675C133.932 42.7675 133.377 42.9975 132.978 43.3975C132.578 43.7974 132.347 44.3522 132.347 44.9177C132.347 45.4832 132.577 46.038 132.978 46.4379C133.377 46.8378 133.932 47.0679 134.498 47.0679C135.065 47.0679 135.618 46.8378 136.018 46.4379C136.418 46.038 136.648 45.4832 136.648 44.9177C136.648 44.3522 136.418 43.7974 136.018 43.3975C135.618 42.9975 135.065 42.7675 134.498 42.7675Z" fill="#5333ED"/>
<path d="M155.376 42.7675C154.81 42.7675 154.256 42.9975 153.856 43.3975C153.456 43.7974 153.226 44.3522 153.226 44.9177C153.226 45.4832 153.455 46.038 153.856 46.4379C154.256 46.8378 154.81 47.0679 155.376 47.0679C155.941 47.0679 156.496 46.8378 156.896 46.4379C157.296 46.038 157.526 45.4832 157.526 44.9177C157.526 44.3522 157.296 43.7974 156.896 43.3975C156.496 42.9975 155.941 42.7675 155.376 42.7675Z" fill="#5333ED"/>
<path d="M230.65 120.932L216.451 106.733C218.217 103.238 219.213 99.2914 219.213 95.1156C219.213 91.1027 218.294 87.3006 216.655 83.9085V35.4573C216.655 34.2698 215.692 33.3071 214.505 33.3071H125.058C123.871 33.3071 122.908 34.2698 122.908 35.4573V113.723C122.908 114.91 123.871 115.873 125.058 115.873H138.547C139.735 115.873 140.698 114.91 140.698 113.723C140.698 112.536 139.735 111.573 138.547 111.573H127.209V56.5288H212.355V77.5995C207.629 72.4804 200.866 69.2687 193.366 69.2687C179.114 69.2687 167.52 80.8635 167.52 95.1156C167.52 101.363 169.748 107.1 173.451 111.573H157.899C156.712 111.573 155.749 112.536 155.749 113.723C155.749 114.911 156.712 115.873 157.899 115.873H177.983C182.285 119.069 187.608 120.963 193.366 120.963C197.523 120.963 201.453 119.975 204.936 118.224L219.148 132.435C220.715 134.002 222.776 134.785 224.841 134.785C226.926 134.785 229.016 133.987 230.609 132.395C233.781 129.223 233.799 124.081 230.65 120.932V120.932ZM127.209 52.2285V37.6074H212.355V52.2285H127.209ZM171.82 95.1156C171.82 83.2349 181.485 73.5691 193.366 73.5691C205.247 73.5691 214.913 83.2349 214.913 95.1156C214.913 106.996 205.247 116.662 193.366 116.662C181.485 116.662 171.82 106.996 171.82 95.1156V95.1156ZM227.569 129.354C226.075 130.848 223.661 130.867 222.189 129.394L208.702 115.908C210.767 114.381 212.598 112.554 214.129 110.492L227.609 123.973C229.082 125.445 229.063 127.859 227.569 129.354Z" fill="#5333ED"/>
<path d="M140.54 100.822H155.907C159.938 100.822 163.218 97.5427 163.218 93.5116C163.218 89.4805 159.938 86.201 155.907 86.201H140.54C136.508 86.201 133.229 89.4805 133.229 93.5116C133.229 97.5427 136.508 100.822 140.54 100.822V100.822ZM140.54 90.5014H155.907C157.567 90.5014 158.917 91.8517 158.917 93.5116C158.917 95.1715 157.567 96.5218 155.907 96.5218H140.54C138.88 96.5218 137.529 95.1715 137.529 93.5116C137.529 91.8517 138.88 90.5014 140.54 90.5014V90.5014Z" fill="#5333ED"/>
<path d="M136.88 80.2078H157.382C158.57 80.2078 159.533 79.2452 159.533 78.0576C159.533 76.8701 158.57 75.9075 157.382 75.9075H136.88C135.693 75.9075 134.73 76.8701 134.73 78.0576C134.73 79.2452 135.693 80.2078 136.88 80.2078Z" fill="#5333ED"/>
<path d="M136.88 69.887H157.899C159.086 69.887 160.049 68.9244 160.049 67.7368C160.049 66.5493 159.086 65.5867 157.899 65.5867H136.88C135.693 65.5867 134.73 66.5493 134.73 67.7368C134.73 68.9244 135.693 69.887 136.88 69.887V69.887Z" fill="#5333ED"/>
<path d="M174.87 69.887C176.058 69.887 177.021 68.9244 177.021 67.7368C177.021 66.5493 176.058 65.5867 174.87 65.5867H168.274C167.086 65.5867 166.123 66.5493 166.123 67.7368C166.123 68.9244 167.086 69.887 168.274 69.887H174.87Z" fill="#5333ED"/>
<path d="M208.893 95.1154C208.893 93.928 207.93 92.9652 206.742 92.9652H192.138C191.218 89.9801 188.434 87.8048 185.151 87.8048C181.12 87.8048 177.84 91.0842 177.84 95.1154C177.84 99.1465 181.12 102.426 185.151 102.426C188.434 102.426 191.218 100.251 192.138 97.2655H195.992V99.028C195.992 100.215 196.955 101.178 198.142 101.178C199.329 101.178 200.292 100.215 200.292 99.028V97.2655H204.592V98.0202C204.592 99.2075 205.555 100.17 206.742 100.17C207.93 100.17 208.893 99.2075 208.893 98.0202V95.1154ZM185.151 98.1256C183.491 98.1256 182.141 96.7753 182.141 95.1154C182.141 93.4554 183.491 92.1051 185.151 92.1051C186.811 92.1051 188.161 93.4554 188.161 95.1154C188.161 96.7753 186.811 98.1256 185.151 98.1256Z" fill="#5333ED"/>
<path d="M148.222 111.573C147.656 111.573 147.104 111.803 146.704 112.203C146.302 112.602 146.072 113.157 146.072 113.723C146.072 114.288 146.302 114.843 146.704 115.243C147.102 115.643 147.656 115.873 148.222 115.873C148.79 115.873 149.345 115.643 149.744 115.243C150.144 114.843 150.374 114.288 150.374 113.723C150.374 113.157 150.144 112.602 149.744 112.203C149.342 111.803 148.79 111.573 148.222 111.573Z" fill="#5333ED"/>
</g>
<rect x="1" y="1" width="248" height="228" rx="9" stroke="#1CB7D0" stroke-width="2"/>
<defs>
<filter id="filter0_d" x="122.908" y="29" width="110.092" height="114.092" filterUnits="userSpaceOnUse" color-interpolation-filters="sRGB">
<feFlood flood-opacity="0" result="BackgroundImageFix"/>
<feColorMatrix in="SourceAlpha" type="matrix" values="0 0 0 0 0 0 0 0 0 0 0 0 0 0 0 0 0 0 127 0" result="hardAlpha"/>
<feOffset dy="4"/>
<feComposite in2="hardAlpha" operator="out"/>
<feColorMatrix type="matrix" values="0 0 0 0 0.32549 0 0 0 0 0.2 0 0 0 0 0.929412 0 0 0 1 0"/>
<feBlend mode="normal" in2="BackgroundImageFix" result="effect1_dropShadow"/>
<feBlend mode="normal" in="SourceGraphic" in2="effect1_dropShadow" result="shape"/>
</filter>
<clipPath id="clip0">
<rect width="91.7431" height="91.7431" fill="white" transform="translate(33 109.734)"/>
</clipPath>
<clipPath id="clip1">
<rect width="110.092" height="110.092" fill="white" transform="translate(122.908 29)"/>
</clipPath>
</defs>
</svg>
