<svg width="250" height="230" viewBox="0 0 250 230" fill="none" xmlns="http://www.w3.org/2000/svg">
<rect x="1" y="1" width="248" height="228" rx="9" fill="#FFFFFE"/>
<path d="M145.509 55.8305C142.907 56.6856 140.726 57.9683 138.927 59.7952C137.09 61.6998 134.986 65.7423 134.986 67.4137V68.502H131.924C128.671 68.502 127.332 68.9296 125.993 70.4455C125.266 71.2618 125.227 72.0003 125.036 87.3149L124.845 103.29L122.472 103.407L120.061 103.524V92.1347C120.061 81.912 119.985 80.5905 119.334 79.1912C116.349 72.5444 107.05 74.7211 107.05 82.0675C107.05 83.2336 106.859 84.0499 106.591 84.1665C106.323 84.2831 102.305 85.9933 97.6744 87.9757L89.2555 91.6294L82.5586 91.8238C76.2061 92.0181 75.7469 92.057 73.6804 93.1065C70.5424 94.6613 67.8637 97.7708 66.8687 101.036C65.912 104.223 65.912 105.856 66.8687 109.043C68.1316 113.163 71.8053 116.739 75.9765 117.866L77.5837 118.294V123.891C77.5837 130.033 77.8134 131.043 79.6119 132.948C81.908 135.358 85.6966 135.513 88.184 133.298C90.2887 131.432 90.5948 130.266 90.5948 124.319V119.11L96.0672 121.442C99.0521 122.725 102.764 124.28 104.295 124.941L107.05 126.107V128.05C107.05 132.831 111.527 136.174 115.66 134.425C117.65 133.57 118.492 132.753 119.334 130.888C119.985 129.488 120.061 128.167 120.061 117.944V106.555L122.472 106.672L124.845 106.789L125.036 122.764C125.227 138.079 125.266 138.817 125.993 139.633C127.332 141.149 128.671 141.577 131.848 141.577H134.871L135.139 143.171C136.057 149.04 142.027 154.248 148.379 154.715C159.668 155.531 167.437 143.598 162.386 133.22C157.143 122.492 142.448 122.181 136.555 132.715C135.904 133.842 135.292 135.513 135.139 136.407L134.909 138.079H131.962C130.164 138.079 128.825 137.884 128.557 137.612C128.212 137.262 128.097 133.22 128.097 121.87V106.555L131.388 106.672L134.718 106.789L135.215 108.849C136.287 113.047 139.272 116.661 143.328 118.566C145.241 119.499 145.969 119.616 149.527 119.616C153.278 119.616 153.699 119.538 155.842 118.372C158.674 116.895 161.505 113.902 162.845 110.948C163.725 109.043 163.878 108.227 163.878 105.039C163.878 101.852 163.725 101.036 162.845 99.1313C161.505 96.1772 158.674 93.1842 155.842 91.7072C153.699 90.5411 153.278 90.4633 149.527 90.4633C145.969 90.4633 145.241 90.58 143.328 91.5128C139.272 93.4174 136.287 97.0323 135.215 101.23L134.718 103.29L131.388 103.407L128.097 103.524V88.2089C128.097 76.859 128.212 72.8165 128.557 72.4667C128.825 72.1946 130.164 72.0003 131.962 72.0003H134.871L135.1 73.4385C135.445 75.5763 137.09 78.7247 138.812 80.4739C143.175 85.0993 149.91 86.382 155.459 83.7C158.865 82.0675 160.778 80.1629 162.386 76.859C165.638 70.2123 163.84 62.555 158.023 58.2016C154.655 55.675 149.221 54.6256 145.509 55.8305ZM154.311 59.7563C156.263 60.7281 158.712 63.2157 159.668 65.1981C160.778 67.5691 160.931 72.1946 159.936 74.4879C158.941 76.7035 157.258 78.9968 156.569 78.9968C156.301 78.9968 155.88 78.647 155.65 78.2194C155.421 77.7918 154.426 76.9756 153.431 76.3925C151.977 75.5374 151.173 75.3042 149.336 75.3042C146.734 75.3431 145.318 75.965 143.443 77.9085L142.18 79.1912L140.726 77.5198C138.736 75.2653 137.894 72.6222 138.124 69.3183C138.43 65.0815 140.535 61.8553 144.285 59.9507C146.466 58.8235 146.925 58.7457 149.719 58.8623C151.747 58.9401 153.316 59.251 154.311 59.7563ZM115.66 79.5799L116.617 80.5127V105.039V129.566L115.66 130.499C114.091 132.132 111.642 131.704 110.571 129.644C109.92 128.439 109.92 81.6399 110.571 80.435C111.642 78.3749 114.091 77.9473 115.66 79.5799ZM107.05 105.039C107.05 118.449 106.935 122.142 106.591 122.142C106.323 122.142 102.649 120.665 98.4398 118.877L90.7862 115.612V105.039V94.4669L98.4398 91.2019C102.649 89.4139 106.323 87.9368 106.591 87.9368C106.935 87.9368 107.05 91.6294 107.05 105.039ZM153.967 94.5058C156.224 95.5164 158.023 97.2267 159.401 99.5977C160.319 101.152 160.434 101.736 160.434 105.039C160.434 108.343 160.319 108.926 159.401 110.481C158.865 111.453 157.946 112.658 157.411 113.163L156.454 114.096L155.382 112.813C152.398 109.199 146.236 109.237 143.213 112.891L142.218 114.096L141.223 113.163C139.463 111.492 138.047 107.877 138.047 105.039C138.047 96.6436 146.428 91.1241 153.967 94.5058ZM87.1507 105.078V115.223L82.0994 115.068C76.3209 114.873 74.8285 114.407 72.4558 112.114C71.6522 111.336 70.6572 109.976 70.2746 109.121C69.3179 107.061 69.3179 103.057 70.2746 100.958C71.1165 99.0147 73.9483 96.3327 75.7086 95.7885C77.9282 95.0888 78.4256 95.0111 82.8647 94.9722L87.1507 94.9334V105.078ZM87.1507 124.047V129.877L86.1558 130.655C84.7399 131.782 82.903 131.704 81.755 130.46C80.8748 129.527 80.8365 129.177 80.7217 123.852L80.6069 118.255H83.8597H87.1507V124.047ZM154.349 129.45C156.875 130.771 158.214 132.132 159.439 134.658C161.544 138.934 160.893 143.948 157.755 147.718L156.722 149.001L154.923 147.291C151.556 144.103 147.423 144.026 143.979 147.096C143.022 147.952 142.027 148.573 141.759 148.457C141.07 148.185 139.195 145.347 138.583 143.637C137.817 141.46 137.932 138.04 138.812 135.63C139.807 132.987 142.486 130.188 145.088 129.139C147.652 128.089 152.053 128.245 154.349 129.45Z" fill="#5333ED"/>
<path d="M146.81 62.7881C144.476 64.3818 143.864 67.1804 145.318 69.5903C146.964 72.3112 150.522 72.6221 152.857 70.2511C153.928 69.1628 154.12 68.6963 154.12 67.0249C154.12 62.9436 150.063 60.5726 146.81 62.7881Z" fill="#5333ED"/>
<path d="M146.81 97.5376C145.356 98.4316 144.553 100.025 144.553 101.93C144.553 103.329 144.782 103.796 146.045 105.078C147.27 106.361 147.767 106.594 149.107 106.594C152.168 106.594 154.12 104.69 154.12 101.736C154.12 98.8203 152.168 96.8768 149.26 96.8768C148.456 96.8768 147.346 97.1878 146.81 97.5376Z" fill="#5333ED"/>
<path d="M147.346 132.054C144.821 133.142 143.826 136.64 145.318 139.128C147.882 143.404 154.12 141.577 154.12 136.524C154.12 134.347 153.125 132.831 151.211 132.015C149.642 131.354 148.915 131.354 147.346 132.054Z" fill="#5333ED"/>
<rect x="1" y="1" width="248" height="228" rx="9" stroke="#1CB7D0" stroke-width="2"/>
</svg>
