<svg width="70" height="70" viewBox="0 0 70 70" fill="none" xmlns="http://www.w3.org/2000/svg">
<g clip-path="url(#clip0)">
<path d="M22.2601 28C23.5488 28 24.5934 26.9553 24.5934 25.6667V23.3333C24.5934 22.0447 23.5488 21 22.2601 21H8.26009C6.97143 21 5.92676 22.0447 5.92676 23.3333V25.6667C5.92676 26.9553 6.97143 28 8.26009 28H22.2601ZM8.26009 23.3333H22.2601V25.6667H8.26009V23.3333Z" fill="#363739"/>
<path d="M10.5938 30.3333C8.66075 30.3333 7.09375 31.9003 7.09375 33.8333C7.09375 35.7662 8.66075 37.3332 10.5938 37.3332C12.5267 37.3332 14.0938 35.7662 14.0938 33.8333C14.0938 31.9003 12.5267 30.3333 10.5938 30.3333ZM10.5938 34.9999C9.94942 34.9999 9.42708 34.4776 9.42708 33.8333C9.42708 33.1889 9.94942 32.6666 10.5938 32.6666C11.2381 32.6666 11.7604 33.1889 11.7604 33.8333C11.7604 34.4776 11.2381 34.9999 10.5938 34.9999Z" fill="#363739"/>
<path d="M10.5938 38.5C8.66075 38.5 7.09375 40.067 7.09375 42C7.09375 43.933 8.66075 45.5 10.5938 45.5C12.5267 45.5 14.0938 43.933 14.0938 42C14.0938 40.067 12.5267 38.5 10.5938 38.5ZM10.5938 43.1667C9.94942 43.1667 9.42708 42.6443 9.42708 42C9.42708 41.3557 9.94942 40.8333 10.5938 40.8333C11.2381 40.8333 11.7604 41.3557 11.7604 42C11.7604 42.6443 11.2381 43.1667 10.5938 43.1667Z" fill="#363739"/>
<path d="M10.5938 46.6667C8.66075 46.6667 7.09375 48.2337 7.09375 50.1667C7.09375 52.0997 8.66075 53.6667 10.5938 53.6667C12.5267 53.6667 14.0938 52.0997 14.0938 50.1667C14.0938 48.2337 12.5267 46.6667 10.5938 46.6667ZM10.5938 51.3334C9.94942 51.3334 9.42708 50.8111 9.42708 50.1667C9.42708 49.5224 9.94942 49.0001 10.5938 49.0001C11.2381 49.0001 11.7604 49.5224 11.7604 50.1667C11.7604 50.8111 11.2381 51.3334 10.5938 51.3334Z" fill="#363739"/>
<path d="M19.9268 30.3333C17.9938 30.3333 16.4268 31.9003 16.4268 33.8333C16.4268 35.7662 17.9938 37.3332 19.9268 37.3332C21.8597 37.3332 23.4268 35.7662 23.4268 33.8333C23.4268 31.9003 21.8597 30.3333 19.9268 30.3333ZM19.9268 34.9999C19.2824 34.9999 18.7601 34.4776 18.7601 33.8333C18.7601 33.1889 19.2824 32.6666 19.9268 32.6666C20.5711 32.6666 21.0934 33.1889 21.0934 33.8333C21.0934 34.4776 20.5711 34.9999 19.9268 34.9999Z" fill="#363739"/>
<path d="M19.9268 38.5C17.9938 38.5 16.4268 40.067 16.4268 42C16.4268 43.933 17.9938 45.5 19.9268 45.5C21.8597 45.5 23.4268 43.933 23.4268 42C23.4268 40.067 21.8597 38.5 19.9268 38.5ZM19.9268 43.1667C19.2824 43.1667 18.7601 42.6443 18.7601 42C18.7601 41.3557 19.2824 40.8333 19.9268 40.8333C20.5711 40.8333 21.0934 41.3557 21.0934 42C21.0934 42.6443 20.5711 43.1667 19.9268 43.1667Z" fill="#363739"/>
<path d="M19.9268 46.6667C17.9938 46.6667 16.4268 48.2337 16.4268 50.1667C16.4268 52.0997 17.9938 53.6667 19.9268 53.6667C21.8597 53.6667 23.4268 52.0997 23.4268 50.1667C23.4268 48.2337 21.8597 46.6667 19.9268 46.6667ZM19.9268 51.3334C19.2824 51.3334 18.7601 50.8111 18.7601 50.1667C18.7601 49.5224 19.2824 49.0001 19.9268 49.0001C20.5711 49.0001 21.0934 49.5224 21.0934 50.1667C21.0934 50.8111 20.5711 51.3334 19.9268 51.3334Z" fill="#363739"/>
<path d="M56.0002 46.6667C56.0002 47.311 56.5225 47.8333 57.1668 47.8333C57.8112 47.8333 58.3335 47.311 58.3335 46.6667C58.3335 43.7827 55.8053 41.3863 52.5002 40.9208V39.6667C52.5002 39.0223 51.9778 38.5 51.3335 38.5C50.6892 38.5 50.1668 39.0223 50.1668 39.6667V40.9208C46.8617 41.3875 44.3335 43.7827 44.3335 46.6667C44.3335 49.5507 46.8617 51.947 50.1668 52.4125V59.3752C48.1602 58.9843 46.6668 57.6252 46.6668 56C46.6668 55.3557 46.1445 54.8333 45.5002 54.8333C44.8558 54.8333 44.3335 55.3557 44.3335 56C44.3335 58.884 46.8617 61.2803 50.1668 61.7458V63C50.1668 63.6443 50.6892 64.1667 51.3335 64.1667C51.9778 64.1667 52.5002 63.6443 52.5002 63V61.7458C55.8053 61.2792 58.3335 58.884 58.3335 56C58.3335 53.116 55.8053 50.7197 52.5002 50.2542V43.2915C54.5068 43.6823 56.0002 45.0403 56.0002 46.6667ZM46.6668 46.6667C46.6668 45.0403 48.1602 43.6823 50.1668 43.2915V50.0418C48.1602 49.651 46.6668 48.293 46.6668 46.6667ZM56.0002 56C56.0002 57.6263 54.5068 58.9843 52.5002 59.3752V52.6248C54.5068 53.0157 56.0002 54.3737 56.0002 56Z" fill="#363739"/>
<path d="M44.3336 34.041V24.5L60.0498 31.528C63.5791 33.1066 67.7199 31.5252 69.2985 27.9959C70.8771 24.4666 69.2958 20.3258 65.7665 18.7472L44.3336 9.16183V8.16667C44.3375 4.9466 46.9469 2.33719 50.167 2.33333C50.8113 2.33333 51.3336 1.811 51.3336 1.16667C51.3336 0.522334 50.8113 0 50.167 0H22.2603C17.7521 0.00514341 14.0988 3.65847 14.0936 8.16667V16.3333H4.76028C2.82729 16.3333 1.26028 17.9003 1.26028 19.8333V54.8333C1.26028 56.7663 2.82729 58.3333 4.76028 58.3333H14.0936V60.6667H2.54362C1.85329 60.6631 1.19709 60.9666 0.752803 61.4949C0.308513 62.0233 0.122119 62.7219 0.244116 63.4013C0.999147 67.232 4.35593 69.9952 8.26028 70H36.167C38.3805 69.9954 40.4967 69.0897 42.0283 67.4917C49.5902 71.8499 59.1631 70.3825 65.0724 63.9593C70.9816 57.5361 71.6475 47.8743 66.6752 40.7012C61.703 33.5281 52.4219 30.7614 44.3336 34.041V34.041ZM35.075 15.9308L37.4911 10.5502L40.0496 10.521L36.7701 17.85L35.075 15.9308ZM30.3441 10.5642H34.9291L33.381 14.0128L30.3441 10.5642ZM40.066 16.205C47.017 19.313 46.583 19.1637 46.9318 19.1637C47.4826 19.1642 47.9587 18.7795 48.0739 18.2409C48.189 17.7023 47.9118 17.1565 47.409 16.9318L41.0191 14.07L42.4483 10.8745L58.4223 18.0192L56.9943 21.2135L51.6685 18.8323C51.2879 18.6623 50.8455 18.7082 50.508 18.9527C50.1704 19.1972 49.989 19.6033 50.032 20.0179C50.075 20.4324 50.3359 20.7926 50.7165 20.9627L56.0411 23.3438L54.612 26.5393L38.638 19.3947L40.066 16.205ZM62.6818 19.929L58.8726 28.4457L56.7423 27.4937L60.5526 18.977L62.6818 19.929ZM67.2726 23.4675C67.9384 25.2316 67.4804 27.223 66.1108 28.5189C64.7412 29.8149 62.7276 30.1622 61.003 29.4L64.8133 20.8833C65.942 21.3839 66.8264 22.3115 67.2726 23.4628V23.4675ZM3.59362 54.8333V19.8333C3.59362 19.189 4.11595 18.6667 4.76028 18.6667H25.7603C26.4046 18.6667 26.927 19.189 26.927 19.8333V54.8333C26.927 55.4777 26.4046 56 25.7603 56H4.76028C4.11595 56 3.59362 55.4777 3.59362 54.8333ZM2.54362 63.007H28.0936C28.3503 64.7795 29.1854 66.4176 30.469 67.6667L8.26028 67.6667C5.48881 67.6727 3.09779 65.723 2.54595 63.007H2.54362ZM30.4013 62.6827C30.2463 61.5272 29.2595 60.6651 28.0936 60.6667H16.427V58.3333H25.7603C27.6933 58.3333 29.2603 56.7663 29.2603 54.8333V19.8333C29.2603 17.9003 27.6933 16.3333 25.7603 16.3333H16.427V8.16667C16.4308 4.9466 19.0402 2.33719 22.2603 2.33333H44.4503C42.8745 3.87437 41.9905 5.98828 42.0003 8.19233C41.956 8.18149 41.9112 8.17293 41.8661 8.16667L41.8451 8.19117H27.767C27.3075 8.2042 26.8963 8.47962 26.7094 8.89949C26.5225 9.31936 26.593 9.80923 26.8908 10.1593C37.6918 22.4093 36.1833 20.7293 36.6243 21.0443L42.0003 23.4558V35.1925C36.59 38.3069 33.1009 43.9257 32.7083 50.156C32.3157 56.3863 35.0719 62.3986 40.0485 66.1675C38.4524 67.597 36.2001 68.0344 34.185 67.3063C32.1698 66.5782 30.7174 64.8022 30.4036 62.6827H30.4013ZM51.3336 67.6667C44.7274 67.6667 38.7717 63.6872 36.2436 57.5838C33.7155 51.4805 35.1129 44.4552 39.7842 39.7839C44.4555 35.1126 51.4808 33.7152 57.5841 36.2433C63.6875 38.7714 67.667 44.7271 67.667 51.3333C67.6573 60.35 60.3503 67.657 51.3336 67.6667Z" fill="#363739"/>
<path d="M40.8476 43.763C40.2909 43.439 39.577 43.6276 39.2528 44.1841C36.9324 48.1933 36.7015 53.0791 38.6333 57.2893C38.7978 57.6829 39.164 57.9553 39.5882 57.9997C40.0125 58.0441 40.4271 57.8535 40.6696 57.5025C40.912 57.1515 40.9436 56.6962 40.7519 56.3151C39.1394 52.7944 39.3325 48.7107 41.2699 45.3578C41.5937 44.8008 41.4046 44.0868 40.8476 43.763V43.763Z" fill="#363739"/>
<path d="M61.8198 43.763C61.2628 44.0868 61.0737 44.8008 61.3974 45.3578C63.3349 48.7107 63.528 52.7944 61.9154 56.3151C61.7237 56.6962 61.7553 57.1515 61.9978 57.5025C62.2402 57.8535 62.6549 58.0441 63.0791 57.9997C63.5034 57.9553 63.8696 57.6829 64.0341 57.2893C65.9659 53.0791 65.735 48.1933 63.4146 44.1841C63.0904 43.6276 62.3765 43.439 61.8198 43.763V43.763Z" fill="#363739"/>
</g>
<defs>
<clipPath id="clip0">
<rect width="70" height="70" fill="white"/>
</clipPath>
</defs>
</svg>
