<svg xmlns="http://www.w3.org/2000/svg" width="50" height="30" fill="none" xmlns:v="https://vecta.io/nano"><path d="M24.465 29.291h2.988s.903-.1 1.363-.597c.425-.456.409-1.313.409-1.313s-.059-4.01 1.803-4.6c1.834-.581 4.191 3.875 6.688 5.591 1.888 1.297 3.322 1.013 3.322 1.013l6.679-.094s3.494-.216 1.838-2.963c-.134-.225-.966-2.031-4.966-5.744-4.188-3.888-3.625-3.256 1.419-9.979 3.072-4.094 4.3-6.594 3.916-7.663-.366-1.019-2.625-.75-2.625-.75l-7.513.044s-.556-.075-.972.172c-.403.244-.663.806-.663.806s-1.191 3.169-2.778 5.863c-3.347 5.685-4.688 5.985-5.235 5.632-1.272-.822-.953-3.306-.953-5.069 0-5.51.834-7.807-1.628-8.401-.819-.197-1.419-.328-3.51-.35-2.681-.028-4.953.009-6.238.638-.856.419-1.516 1.353-1.113 1.406.497.066 1.622.303 2.219 1.116.772 1.047.744 3.403.744 3.403s.444 6.485-1.035 7.291c-1.016.553-2.406-.575-5.391-5.735-1.528-2.641-2.685-5.563-2.685-5.563s-.222-.544-.619-.834c-.481-.353-1.156-.466-1.156-.466l-7.144.044s-1.072.031-1.466.497c-.35.416-.028 1.272-.028 1.272s5.594 13.085 11.926 19.683c5.81 6.047 12.404 5.65 12.404 5.65z" fill="#363739"/></svg>