<svg width="60" height="60" viewBox="0 0 60 60" fill="none" xmlns="http://www.w3.org/2000/svg">
<g  clip-path="url(#clip0)">
<path d="M29.3581 46.9732H32.9434C32.9434 46.9732 34.0272 46.8532 34.5785 46.2569C35.0885 45.7093 35.0698 44.6817 35.0698 44.6817C35.0698 44.6817 34.9985 39.8701 37.2337 39.1613C39.4351 38.4638 42.2628 43.8117 45.2593 45.8706C47.5245 47.4269 49.2458 47.0857 49.2458 47.0857L57.2602 46.9732C57.2602 46.9732 61.453 46.7144 59.4653 43.4179C59.3041 43.1479 58.3065 40.9802 53.5062 36.5249C48.4808 31.8595 49.1558 32.6171 55.2088 24.5502C58.8953 19.6374 60.3692 16.6372 59.9079 15.3546C59.4691 14.132 56.7576 14.4545 56.7576 14.4545L47.742 14.507C47.742 14.507 47.0744 14.417 46.5756 14.7133C46.0919 15.0058 45.7806 15.6808 45.7806 15.6808C45.7806 15.6808 44.3517 19.4836 42.4466 22.7164C38.43 29.5381 36.8212 29.8981 36.1649 29.4744C34.6385 28.488 35.021 25.5066 35.021 23.3914C35.021 16.7797 36.0224 14.0232 33.0671 13.3107C32.0846 13.0744 31.3645 12.9169 28.8556 12.8906C25.6378 12.8569 22.9114 12.9019 21.37 13.6557C20.3425 14.1582 19.5511 15.2796 20.0349 15.3433C20.6312 15.4221 21.9813 15.7071 22.6976 16.6822C23.6239 17.9385 23.5902 20.7662 23.5902 20.7662C23.5902 20.7662 24.1227 28.548 22.3489 29.5156C21.13 30.1794 19.4611 28.8256 15.8796 22.6339C14.0457 19.4649 12.6581 15.9584 12.6581 15.9584C12.6581 15.9584 12.3919 15.3058 11.9156 14.957C11.338 14.5333 10.528 14.3982 10.528 14.3982L1.95485 14.4507C1.95485 14.4507 0.668509 14.4883 0.195974 15.047C-0.224057 15.5458 0.162221 16.5734 0.162221 16.5734C0.162221 16.5734 6.87522 32.2758 14.4733 40.1927C21.445 47.4494 29.3581 46.9732 29.3581 46.9732Z" fill="#F2F5FE"/>
</g>
<defs>
<clipPath id="clip0">
<rect width="60" height="60" fill="white"/>
</clipPath>
</defs>
</svg>
