<svg xmlns="http://www.w3.org/2000/svg" width="60" height="60" fill="none" xmlns:v="https://vecta.io/nano"><path d="M0 60l5.16-15.479c-2.618-4.404-4.126-9.543-4.126-15.038C1.034 13.2 14.235 0 30.517 0S60 13.2 60 29.483 46.8 58.966 30.517 58.966A29.35 29.35 0 0 1 16.8 55.58L0 60z" fill="#f2f5fe"/><path d="M49.327 39.295c-1.361-2.573-6.382-5.515-6.382-5.515-1.136-.648-2.507-.72-3.154.434l-2.046 2.238c-1.895 1.284-3.651 1.234-5.423-.538l-4.118-4.118-4.118-4.118c-1.772-1.772-1.822-3.528-.538-5.423.281-.415 2.238-2.046 2.238-2.046 1.155-.649 1.082-2.018.434-3.154 0 0-2.942-5.02-5.515-6.382a2.82 2.82 0 0 0-3.314.499l-1.819 1.819c-5.769 5.769-2.929 12.282 2.841 18.052l5.273 5.273 5.273 5.273c5.769 5.769 12.282 8.61 18.052 2.841l1.819-1.819c.875-.877 1.077-2.221.498-3.315z" fill="#363739"/></svg>