<svg xmlns="http://www.w3.org/2000/svg" width="50" height="50" fill="none" xmlns:v="https://vecta.io/nano"><path d="M0 50l4.3-12.899A24.44 24.44 0 0 1 .862 24.569C.862 11 11.862 0 25.431 0S50 11 50 24.569 39 49.138 25.431 49.138A24.46 24.46 0 0 1 14 46.316L0 50z" fill="#363739"/><path d="M41.106 32.746c-1.134-2.144-5.318-4.596-5.318-4.596-.947-.54-2.089-.6-2.628.362l-1.705 1.865c-1.579 1.07-3.042 1.028-4.519-.448l-3.432-3.432-3.432-3.432c-1.477-1.477-1.518-2.94-.448-4.519.235-.346 1.865-1.705 1.865-1.705.962-.541.902-1.682.362-2.628 0 0-2.452-4.184-4.596-5.318a2.35 2.35 0 0 0-2.761.416l-1.515 1.515c-4.808 4.808-2.44 10.235 2.367 15.043l4.394 4.394 4.394 4.394c4.808 4.808 10.235 7.175 15.043 2.367l1.516-1.515a2.35 2.35 0 0 0 .415-2.762z" fill="#f2f5fe"/></svg>